<?xml version="1.0" encoding="UTF-8"?>
<svg id="Capa_2" data-name="Capa 2" xmlns="http://www.w3.org/2000/svg" xmlns:xlink="http://www.w3.org/1999/xlink" viewBox="0 0 290.31 91.24">
  <defs>
    <style>
      .cls-1 {
        clip-path: url(#clippath);
      }

      .cls-2, .cls-3, .cls-4, .cls-5, .cls-6, .cls-7, .cls-8, .cls-9, .cls-10, .cls-11, .cls-12, .cls-13 {
        stroke-width: 0px;
      }

      .cls-2, .cls-14, .cls-15, .cls-16 {
        fill: none;
      }

      .cls-3 {
        fill: #f8ae15;
      }

      .cls-4 {
        fill: #5c5ba4;
      }

      .cls-5 {
        fill: #1d1d1b;
      }

      .cls-6 {
        fill: #db3614;
      }

      .cls-7 {
        fill: #8acedd;
      }

      .cls-8 {
        fill: #fff8f1;
      }

      .cls-9 {
        fill: #ffe7ce;
      }

      .cls-10 {
        fill: #f18914;
      }

      .cls-11 {
        fill: #ec6c05;
      }

      .cls-12 {
        fill: #fce900;
      }

      .cls-13 {
        fill: #009069;
      }

      .cls-14 {
        stroke: #f8ae15;
      }

      .cls-14, .cls-15, .cls-16 {
        stroke-miterlimit: 10;
        stroke-width: .5px;
      }

      .cls-15 {
        stroke: #009069;
      }

      .cls-16 {
        stroke: #762b83;
      }
    </style>
    <clipPath id="clippath">
      <rect class="cls-2" width="290.31" height="91.24"/>
    </clipPath>
  </defs>
  <g id="Capa_1-2" data-name="Capa 1">
    <g class="cls-1">
      <g id="Grupo_37" data-name="Grupo 37">
        <path id="Trazado_1481" data-name="Trazado 1481" class="cls-13" d="m.22.6c38.3,8.5,77.94,10.42,117.06,9.28,36.11-1.05,72.1-4.6,108.22-5.36,21.62-.45,43.19.27,64.75,1.88.1,0,.09-.14,0-.15-36.96-4.45-74.38-2.71-111.43-.46-36.41,2.2-72.84,4.72-109.33,2.87C46.28,7.36,23.19,4.46.38,0,0-.07-.17.51.22.6"/>
        <path id="Trazado_1482" data-name="Trazado 1482" class="cls-9" d="m10.91,62.74c-2.89-.25-4.03,3.19-3.04,5.46,1,2.29,3.68,3.67,5.99,2.4,2.09-1.15,3.3-4.12,1.59-6.11-1.47-1.69-4.04-1.87-5.73-.4-.12.11-.24.22-.35.35-.21.26.14.64.38.38,1.18-1.25,3.09-1.48,4.54-.56,2.17,1.32,1.65,4.26-.12,5.67-1.7,1.27-4.11.91-5.37-.79-.12-.16-.22-.33-.32-.5-1.32-2.14-.54-5.76,2.44-5.78.03,0,.06-.03.06-.06s-.03-.06-.06-.06"/>
        <path id="Trazado_1483" data-name="Trazado 1483" class="cls-9" d="m35.89,61.58c-3.65-.32-5.08,4.02-3.83,6.88,1.26,2.89,4.63,4.63,7.55,3.03,2.63-1.45,4.16-5.2,2-7.7-1.93-2.23-5.8-2.44-7.66-.07-.26.33.18.8.47.47,1.49-1.58,3.89-1.87,5.72-.7,2.73,1.66,2.08,5.37-.15,7.14-2.42,1.93-5.64.87-7.17-1.62-1.66-2.69-.68-7.26,3.07-7.28.04,0,.08-.03.08-.08s-.03-.08-.08-.08"/>
        <path id="Trazado_1484" data-name="Trazado 1484" class="cls-9" d="m258.47,69.61c3.16.4,3.25,4.43,1.46,6.33-1.37,1.61-3.78,1.81-5.39.44-.13-.11-.25-.22-.36-.34-1.28-1.46-1.46-3.91.22-5.12,1.58-1.14,3.79-.81,4.97.74.2.27.64.03.46-.27-1.26-1.84-3.78-2.32-5.63-1.05-.06.04-.13.09-.19.14-2.17,1.65-1.49,4.89.48,6.39,2.23,1.7,5.26.53,6.48-1.82,1.1-2.14.27-5.45-2.5-5.55-.08,0-.08.11,0,.12"/>
        <path id="Trazado_1485" data-name="Trazado 1485" class="cls-9" d="m237.65,68.99c3.98.5,4.09,5.59,1.83,7.97-1.72,2.03-4.76,2.28-6.79.56-.16-.14-.31-.28-.45-.43-1.61-1.83-1.85-4.93.28-6.46,1.99-1.44,4.77-1.03,6.26.94.24.35.81.04.58-.34-1.59-2.32-4.76-2.92-7.09-1.33-.08.06-.16.11-.24.17-2.74,2.07-1.88,6.16.6,8.05,2.81,2.14,6.63.66,8.16-2.3,1.39-2.69.34-6.87-3.15-6.99-.1,0-.09.14,0,.15"/>
        <path id="Trazado_1486" data-name="Trazado 1486" class="cls-13" d="m53.18,45.27c.51,1.56.89,3.15,1.42,4.7.54,1.58,1.16,3.13,1.85,4.65,1.39,3.02,3.09,5.88,5.08,8.54.54.73,1.11,1.44,1.69,2.13.67.69,1.3,1.43,1.88,2.2.16.22.11.53-.12.69-.17.12-.4.12-.57,0-.64-.54-1.22-1.15-1.72-1.82-.55-.65-1.08-1.31-1.59-1.99-1.03-1.35-1.98-2.76-2.86-4.21-1.76-2.9-3.21-5.97-4.33-9.16-.68-1.79-1.17-3.64-1.48-5.53-.05-.42.6-.61.73-.19"/>
        <path id="Trazado_1487" data-name="Trazado 1487" class="cls-13" d="m45.98,31.21c.09.05.19.1.31.18s.25.17.39.27c.76.57,1.47,1.22,2.11,1.93.39.43.79.9,1.18,1.42s.77,1.06,1.13,1.63c.7,1.12,1.33,2.29,1.88,3.5.45.99.74,2.04.84,3.12.14,1.44-.02,2.89-.46,4.27-.07.21-.15.42-.24.63-.15-.12-.29-.26-.42-.4-.35-.38-.67-.79-.95-1.22-.42-.66-.78-1.35-1.07-2.08-.37-.96-.65-1.95-.82-2.96-.22-1.21-.51-2.41-.89-3.58-.37-1.15-.82-2.27-1.36-3.36-.25-.5-.5-.95-.74-1.36l-.35-.57-.31-.49c-.1-.15-.18-.28-.26-.4s-.14-.22-.19-.3c-.1-.17-.14-.28-.11-.31s.14,0,.31.09"/>
        <path id="Trazado_1488" data-name="Trazado 1488" class="cls-13" d="m41.35,39.2c.08-.03.37.34.79.98.22.31.48.68.77,1.11.15.21.31.42.48.65s.33.46.53.7l.58.73.64.74c.21.25.45.5.68.74l.35.37c.11.13.24.24.36.36l.37.36c.12.12.24.24.37.36l.76.68c.52.43,1.02.86,1.53,1.24.47.38.92.72,1.32,1.1.2.19.4.36.59.54.09.09.19.18.28.27l.13.14.13.13c.62.64,1.21,1.31,1.77,2.01.25.3.46.59.64.85s.35.48.48.67c.26.38.39.62.39.62-.21.03-.42.04-.62.03-.2,0-.45-.01-.75-.04-.33-.04-.66-.1-.99-.18-.18-.04-.38-.09-.58-.15s-.41-.14-.62-.23-.44-.18-.67-.28-.45-.24-.69-.37c-.12-.07-.24-.14-.36-.21-.06-.04-.12-.07-.18-.11l-.18-.12c-.24-.17-.48-.35-.72-.55l-.18-.15c-.06-.05-.12-.11-.18-.16-.12-.11-.24-.22-.36-.34-.25-.24-.49-.49-.71-.75-.98-1.13-1.89-2.33-2.7-3.59-.79-1.21-1.49-2.48-2.08-3.8l-.2-.44-.17-.43-.32-.81c-.18-.52-.33-.98-.44-1.37-.2-.78-.29-1.25-.2-1.28"/>
        <path id="Trazado_1489" data-name="Trazado 1489" class="cls-13" d="m53.71,31.76c.11.06.24.14.39.25s.31.23.49.37c.96.78,1.81,1.69,2.53,2.69.23.3.44.63.66.97.11.17.21.35.31.53.05.09.11.18.16.27l.15.28c.2.37.38.76.56,1.16l.25.61c.09.21.15.42.23.63.29.86.52,1.73.67,2.63.14.87.22,1.76.23,2.64.01,1.5-.3,2.99-.93,4.36-.48,1.06-1.15,2.02-1.96,2.84-.3.3-.63.59-.97.84-.31.22-.58.39-.81.52-.24.13-.48.25-.73.35.03-.23.07-.45.12-.68.02-.11.05-.23.07-.36s.06-.27.09-.42.07-.32.11-.49.09-.35.13-.54l.66-2.71c.03-.13.06-.27.1-.4l.05-.2.05-.21c.03-.14.07-.28.1-.42.03-.14.06-.29.1-.44.02-.07.04-.15.06-.22s.03-.15.05-.23c.03-.15.07-.31.11-.47.06-.32.15-.65.21-1,.31-1.49.37-3.02.18-4.52-.1-.78-.26-1.55-.47-2.31-.2-.72-.46-1.42-.76-2.11-.07-.16-.14-.32-.22-.48l-.23-.45-.11-.22-.12-.21-.23-.41c-.16-.26-.31-.5-.45-.73s-.28-.43-.41-.62l-.62-.87c-.14-.21-.21-.34-.18-.37s.16.02.38.15"/>
        <path id="Trazado_1490" data-name="Trazado 1490" class="cls-13" d="m59.34,56.09c.19-.62.44-1.23.74-1.81.62-1.21,1.32-2.45,1.89-3.68.29-.6.54-1.22.75-1.84.2-.58.35-1.18.46-1.79.09-.53.14-1.07.14-1.61,0-.44-.04-.87-.1-1.3-.12-.73-.27-1.17-.18-1.22s.41.28.79.97c.22.41.4.85.53,1.3.17.58.28,1.17.33,1.76.06.69.06,1.37,0,2.06-.06.73-.17,1.45-.32,2.17-.3,1.44-.71,2.83-1.03,4.06-.28,1.02-.63,2.01-1.04,2.98-.35.85-.69,1.6-.96,2.26s-.49,1.24-.62,1.67c-.07.21-.12.38-.16.5l-.06.18s-.04-.04-.12-.11c-.11-.11-.22-.22-.32-.35-.37-.48-.66-1.03-.83-1.61-.13-.42-.22-.85-.26-1.29-.05-.52-.05-1.04,0-1.56.06-.59.18-1.17.35-1.74"/>
        <path id="Trazado_1491" data-name="Trazado 1491" class="cls-13" d="m47.01,57.16c.08.04.17.09.28.15s.22.13.36.21c.53.31,1.26.75,2.12,1.18.93.47,1.89.88,2.88,1.23,1,.35,2.02.62,3.06.82.85.16,1.67.4,2.47.73.74.28,1.43.65,2.08,1.1.26.19.51.41.73.65.1.11.18.22.25.31s.13.2.18.28c.08.13.14.27.19.42.04.1.05.15.05.15,0,0-.05,0-.13.02l-.16.02-.21.03c-.31.04-.73.12-1.25.21-.66.12-1.34.16-2.01.14-.23-.01-.46-.03-.68-.07-.25-.03-.49-.08-.74-.14-.25-.07-.51-.14-.77-.23s-.52-.2-.79-.32c-1.11-.53-2.19-1.14-3.21-1.83-.98-.66-1.9-1.41-2.75-2.22-.64-.61-1.23-1.27-1.76-1.98-.1-.13-.18-.25-.25-.36s-.13-.2-.17-.29c-.09-.16-.12-.26-.09-.29s.14,0,.29.08"/>
        <path id="Trazado_1492" data-name="Trazado 1492" class="cls-13" d="m79.71,68.04c5.07-2.29,10.99-1.57,15.36,1.86.73.58,1.42,1.21,2.08,1.87.73.68,1.41,1.41,2.04,2.18.31.43-.25,1.06-.68.69-.58-.51-1.07-1.13-1.61-1.68-.58-.6-1.18-1.18-1.81-1.73-4.15-3.61-9.99-4.56-15.07-2.44-.21.07-.44-.04-.52-.25-.07-.2.02-.41.21-.5"/>
        <path id="Trazado_1493" data-name="Trazado 1493" class="cls-13" d="m98.8,73.44c.45.12.87.3,1.28.53.13.07.26.15.4.23s.27.18.41.29.28.22.43.34.28.26.43.4c.65.67,1.19,1.44,1.58,2.29.96,1.99,1.81,4.04,2.55,6.12.65,1.88.97,3.31.82,3.37-.17.07-.98-1.08-2.11-2.57s-2.6-3.34-3.92-4.82c-.3-.34-.57-.7-.81-1.08-.22-.34-.42-.7-.6-1.08-.3-.65-.53-1.32-.69-2.01-.07-.3-.12-.59-.16-.85s-.07-.48-.08-.67c-.02-.2-.03-.4-.02-.61.17.02.34.06.51.11"/>
        <path id="Trazado_1494" data-name="Trazado 1494" class="cls-13" d="m94.2,72.47c.27-.55.53-1.02.72-1.35.1-.17.17-.3.23-.39s.09-.14.09-.14c.13.12.25.25.36.39.3.38.54.8.72,1.26.27.69.42,1.41.45,2.15.04.95-.09,1.89-.36,2.8-1.16,4.01-2.53,9.73-2.87,9.67s-.52-5.67-.52-9.84c0-.88.14-1.76.4-2.61.21-.67.47-1.32.78-1.94"/>
        <path id="Trazado_1495" data-name="Trazado 1495" class="cls-13" d="m95.82,68.83c.17-.2.36-.38.57-.53.26-.18.55-.31.85-.4.6-.17,1.22-.2,1.83-.09.56.1,1.11.27,1.63.52.24.11.46.22.7.34s.47.26.71.4c.96.58,2.06,1.17,3.17,1.72s2.23,1.05,3.24,1.48c2.01.85,3.55,1.4,3.51,1.58s-1.62.18-3.78-.08c-1.08-.13-2.3-.32-3.53-.57s-2.49-.56-3.63-.89c-.52-.15-1.03-.35-1.51-.58-.46-.23-.81-.44-1.09-.62s-.5-.32-.7-.43c-.05-.03-.1-.05-.15-.08-.04-.03-.07-.05-.11-.07-.05-.02-.1-.04-.15-.05-.05-.01-.11-.02-.16-.03-.23-.02-.46,0-.68.08-.2.07-.38.19-.52.34-.1.11-.19.23-.25.37l-.07.15s-.08-.08-.12-.13c-.02-.02-.04-.05-.06-.08s-.04-.06-.06-.1-.04-.08-.07-.12-.04-.1-.05-.15c-.09-.28-.1-.57-.05-.85.09-.42.27-.8.55-1.13"/>
        <path id="Trazado_1496" data-name="Trazado 1496" class="cls-13" d="m92.21,65.19c.2-.39.45-.76.75-1.08.33-.35.71-.65,1.12-.89.84-.48,1.72-.92,2.61-1.3.79-.34,1.56-.72,2.3-1.16.55-.33,1.07-.72,1.54-1.15.36-.33.57-.57.65-.53s.08.36-.08.86c-.1.3-.22.59-.37.87-.19.35-.4.69-.64,1-.56.73-1.19,1.41-1.87,2.04-.67.65-1.33,1.26-1.81,1.83-.21.24-.43.47-.67.69-.21.19-.43.36-.64.52-.43.31-.85.58-1.23.86-.34.24-.66.51-.96.81-.12.12-.21.22-.28.29l-.1.11s-.03-.03-.09-.09c-.08-.09-.16-.19-.22-.29-.25-.39-.39-.84-.43-1.3-.03-.33-.01-.66.05-.99.07-.38.2-.75.37-1.1"/>
        <path id="Trazado_1497" data-name="Trazado 1497" class="cls-13" d="m87.92,76.14c.05-.57.1-1.14.2-1.68.07-.49.2-.98.38-1.45.08-.22.18-.43.28-.64.1-.2.2-.39.32-.58.41-.64.92-1.22,1.51-1.7.23-.19.47-.36.73-.52.23-.14.44-.24.61-.32.18-.09.37-.16.56-.23.04.17.06.34.07.51.01.16.03.36.03.58s0,.48,0,.75c0,.14-.02.28-.04.43s-.03.3-.05.46-.05.32-.09.49-.07.34-.11.52c-.21.81-.5,1.6-.87,2.36-.88,1.87-1.49,3.86-1.83,5.9-.34,1.88-.37,3.34-.56,3.35-.16.02-.68-1.31-.96-3.26-.03-.24-.07-.5-.1-.76s-.05-.53-.07-.8-.03-.55-.04-.83-.02-.57-.01-.86,0-.58.02-.87.03-.58.05-.87"/>
        <path id="Trazado_1498" data-name="Trazado 1498" class="cls-13" d="m87.15,60.93c1.51-1.73,3.29-3.84,4.74-5.47s2.56-2.81,2.7-2.71-.47,1.53-1.37,3.44-2.07,4.31-3.08,6.34c-.8,1.6-2.01,2.98-3.49,3.98-.64.45-1.33.81-2.05,1.09-.06-.68-.01-1.37.15-2.03.39-1.73,1.22-3.33,2.41-4.64"/>
        <path id="Trazado_1499" data-name="Trazado 1499" class="cls-15" d="m75.1,79.73c.58.11,1.14.31,1.65.6.67.39,1.27.9,1.75,1.51.55.69,1.15,1.46,1.72,2.23.28.38.56.77.82,1.15l.38.56c.12.18.25.37.36.56.22.35.41.73.55,1.12.12.32.19.66.2,1,0,.23-.03.45-.11.66-.07.14-.12.21-.17.2s-.09-.09-.13-.21c-.06-.17-.14-.33-.23-.48-.13-.22-.28-.42-.46-.6-.23-.23-.48-.44-.74-.64-.15-.11-.3-.22-.46-.33l-.52-.36-.54-.37-.55-.37c-.74-.5-1.49-.99-2.19-1.42-.61-.38-1.14-.87-1.57-1.44-.36-.48-.67-1.01-.9-1.57-.17-.42-.32-.84-.43-1.28-.04-.18-.08-.35-.11-.53.15-.03.31-.05.46-.06.4-.02.81,0,1.2.09Z"/>
        <path id="Trazado_1500" data-name="Trazado 1500" class="cls-5" d="m66.96,65.88s-10.47-4.93-10.3-7.43,7.88-7.16,9.46-7.62,4.78,12.89,4.78,12.89c0,0-2.42-13.65-.69-14.11s8.5-2.42,10.65.85c1.24,1.89-4.32,13.92-4.32,13.92,0,0,7.13-12.02,7.91-11.55s7.63,7.57,7.94,8.67c.21.77-6.38,2.87-10.38,4.06,3.77-1.07,9.8-2.68,9.9-2.03.15.94.56,10.04-.7,11.28-.85.83-6.96-1.6-10.89-3.3,4.13,1.91,10.53,5.1,9.77,6.28-1.11,1.72-5.22,7.49-7.58,8.41-1.46.57-4.22-5.34-6.1-9.89,1.72,4.62,3.83,10.8,2.95,11.28-1.42.77-9.09.41-10.34-.54-.88-.67.31-8.16,1.09-12.53-.86,4.4-2.48,11.85-3.59,11.73-1.57-.17-10.3-7.43-10.76-9.16-.31-1.18,4.86-4.44,8.18-6.39-3.19,1.78-8.16,4.41-8.79,3.88-.93-.79-1.19-10.04-.55-11.92s12.36,3.21,12.36,3.21"/>
        <path id="Trazado_1501" data-name="Trazado 1501" class="cls-14" d="m66.96,65.88s-10.47-4.93-10.3-7.43,7.88-7.16,9.46-7.62,4.78,12.89,4.78,12.89c0,0-2.42-13.65-.69-14.11s8.5-2.42,10.65.85c1.24,1.89-4.32,13.92-4.32,13.92,0,0,7.13-12.02,7.91-11.55s7.63,7.57,7.94,8.67c.21.77-6.38,2.87-10.38,4.06,3.77-1.07,9.8-2.68,9.9-2.03.15.94.56,10.04-.7,11.28-.85.83-6.96-1.6-10.89-3.3,4.13,1.91,10.53,5.1,9.77,6.28-1.11,1.72-5.22,7.49-7.58,8.41-1.46.57-4.22-5.34-6.1-9.89,1.72,4.62,3.83,10.8,2.95,11.28-1.42.77-9.09.41-10.34-.54-.88-.67.31-8.16,1.09-12.53-.86,4.4-2.48,11.85-3.59,11.73-1.57-.17-10.3-7.43-10.76-9.16-.31-1.18,4.86-4.44,8.18-6.39-3.19,1.78-8.16,4.41-8.79,3.88-.93-.79-1.19-10.04-.55-11.92s12.36,3.21,12.36,3.21Z"/>
        <path id="Trazado_1502" data-name="Trazado 1502" class="cls-11" d="m61,58.52c1.22-.76,10.26,6.37,10.26,6.37,0,0-7.79-7.61-7.15-8.9s9.54-5.5,11.13-4.6-.58,14.18-.58,14.18c0,0,5.18-11.6,7.29-11.56s6.33,6.28,6.57,8.37-9.81,5.8-10.21,6.24c0,0,11.02-.95,12.22.67s-4.45,12.27-5.94,13.32-8.71-9.25-8.71-9.25c0,0,5.82,10.37,4.73,10.98s-11.24,2.36-11.73.85,3.68-13.77,3.68-13.77c0,0-5.14,12.44-6.72,11.81s-7.54-8.18-7.6-9.3,10.91-6.13,10.91-6.13c0,0-9.54,2.56-11,1.51s1.62-10.03,2.84-10.79"/>
        <path id="Trazado_1503" data-name="Trazado 1503" class="cls-3" d="m78.08,65.84c-1.13.77-1.98,1.31-1.98,1.31,0,0,.82-.57,1.98-1.31"/>
        <path id="Trazado_1504" data-name="Trazado 1504" class="cls-5" d="m73.25,67.14s-1.14-10.08,1.57-11.11,8.54,4.26,8.83,5.17c.2.61-3.27,3.08-5.57,4.65-1.16.74-1.98,1.31-1.98,1.31,0,0,.85-.55,1.98-1.31,2.64-1.69,7.05-4.28,7.67-3.13.89,1.66,2.35,8.13,2.05,8.73s-10.36-1.72-10.36-1.72c0,0,9.9,3.07,9.44,4.57s-8.62,8.06-12.07,7.43c-2.53-.46-1.39-6.38-.6-9.51.34-1.12.53-1.91.53-1.91,0,0-.24.77-.53,1.91-.86,2.89-2.65,8.01-4.49,7.67-2.55-.47-7.93-5.61-7.77-6.66s9.2-5.05,9.2-5.05c0,0-10.84,3.09-10.98,1.73s4.13-10.79,5.19-11.84,7.91,9.07,7.91,9.07"/>
        <path id="Trazado_1505" data-name="Trazado 1505" class="cls-14" d="m73.25,67.14s-1.14-10.08,1.57-11.11,8.54,4.26,8.83,5.17c.2.61-3.27,3.08-5.57,4.65-1.16.74-1.98,1.31-1.98,1.31,0,0,.85-.55,1.98-1.31,2.64-1.69,7.05-4.28,7.67-3.13.89,1.66,2.35,8.13,2.05,8.73s-10.36-1.72-10.36-1.72c0,0,9.9,3.07,9.44,4.57s-8.62,8.06-12.07,7.43c-2.53-.46-1.39-6.38-.6-9.51.34-1.12.53-1.91.53-1.91,0,0-.24.77-.53,1.91-.86,2.89-2.65,8.01-4.49,7.67-2.55-.47-7.93-5.61-7.77-6.66s9.2-5.05,9.2-5.05c0,0-10.84,3.09-10.98,1.73s4.13-10.79,5.19-11.84,7.9,9.07,7.9,9.07Z"/>
        <path id="Trazado_1506" data-name="Trazado 1506" class="cls-3" d="m74.2,72.21c.29-1.14.53-1.91.53-1.91,0,0-.19.79-.53,1.91"/>
        <path id="Trazado_1507" data-name="Trazado 1507" class="cls-11" d="m73.49,67.39c.99,0,1.79.81,1.79,1.8,0,.99-.81,1.79-1.8,1.79s-1.79-.81-1.79-1.8c0,0,0,0,0,0,0-.99.81-1.78,1.8-1.78"/>
        <path id="Trazado_1508" data-name="Trazado 1508" class="cls-16" d="m33.25,50.11c.5-.14,1.03-.15,1.53-.04.51.13.97.4,1.33.77.33.36.58.78.73,1.25.09.29.14.6.13.91.09.33.1.67.04,1-.05.21-.11.42-.2.62-.19.4-.5.74-.89.97-.83.49-1.85.54-2.71.12-1.53-.77-1.78-2.56-1.35-4.06.15-.72.68-1.31,1.38-1.54Z"/>
        <path id="Trazado_1509" data-name="Trazado 1509" class="cls-16" d="m34.38,51.75c1.68.31,2.8,1.91,2.51,3.59-.13.83-.56,1.58-1.21,2.1l-.46.27q.3-.18,0,0c-.15.1-.3.18-.47.25-.44.18-.92.24-1.39.17-.65-.1-1.2-.51-1.48-1.11-.05-.04-.09-.08-.13-.12-.65-.64-.98-1.53-.9-2.43.23-1.72,1.81-2.93,3.53-2.71Z"/>
        <path id="Trazado_1512" data-name="Trazado 1512" class="cls-12" d="m78.08,65.84c-1.16.74-1.98,1.31-1.98,1.31,0,0,.85-.55,1.98-1.31"/>
        <path id="Trazado_1517" data-name="Trazado 1517" class="cls-12" d="m74.2,72.21c.34-1.12.53-1.91.53-1.91,0,0-.24.77-.53,1.91"/>
        <path id="Trazado_1519" data-name="Trazado 1519" class="cls-13" d="m219.99,47.05c-.51,1.56-.89,3.15-1.42,4.7-.54,1.58-1.16,3.13-1.85,4.65-1.39,3.02-3.09,5.88-5.08,8.55-.54.73-1.11,1.44-1.69,2.13-.67.69-1.3,1.43-1.88,2.2-.16.22-.11.53.12.69.17.12.4.12.57,0,.64-.54,1.22-1.15,1.72-1.82.55-.65,1.08-1.31,1.59-1.99,1.03-1.35,1.98-2.76,2.86-4.21,1.76-2.9,3.21-5.97,4.33-9.16.68-1.79,1.17-3.64,1.48-5.53.05-.42-.6-.61-.73-.19"/>
        <path id="Trazado_1520" data-name="Trazado 1520" class="cls-13" d="m227.19,32.99c-.09.05-.19.1-.31.18s-.25.17-.39.27c-.76.57-1.47,1.22-2.11,1.93-.39.43-.79.9-1.17,1.42s-.77,1.06-1.13,1.63c-.7,1.12-1.33,2.29-1.88,3.5-.45.99-.74,2.04-.84,3.12-.14,1.44.02,2.89.46,4.27.07.21.15.42.24.63.15-.12.29-.26.42-.4.35-.38.67-.79.95-1.22.42-.66.78-1.35,1.07-2.08.37-.96.65-1.95.82-2.96.22-1.21.51-2.41.89-3.58.37-1.15.82-2.27,1.36-3.36.24-.5.5-.95.74-1.36l.35-.57.31-.49c.1-.15.18-.28.26-.4s.14-.22.19-.3c.1-.17.14-.28.11-.31s-.14,0-.32.09"/>
        <path id="Trazado_1521" data-name="Trazado 1521" class="cls-13" d="m231.82,40.99c-.08-.03-.37.34-.79.98-.22.31-.48.68-.77,1.11-.15.21-.31.42-.48.65s-.33.46-.53.7l-.58.73-.64.74c-.21.25-.45.5-.68.74l-.35.37c-.11.13-.24.24-.36.36l-.37.36c-.12.12-.24.24-.37.36l-.76.68c-.52.43-1.02.86-1.53,1.24-.47.38-.92.72-1.32,1.1-.2.19-.4.36-.59.54-.09.09-.19.18-.27.27l-.13.14-.13.13c-.62.64-1.21,1.31-1.77,2.01-.24.3-.46.59-.64.85s-.35.48-.48.67c-.26.38-.39.62-.39.62.21.03.42.04.62.03.2,0,.45-.01.75-.04.33-.04.66-.1.99-.18.18-.04.38-.09.58-.15s.41-.14.62-.23.44-.18.67-.28.45-.24.69-.37c.12-.07.24-.14.36-.21.06-.04.12-.07.18-.11l.18-.12c.24-.17.48-.35.73-.55l.18-.15c.06-.05.12-.11.18-.16.12-.11.24-.22.36-.34.25-.24.49-.49.71-.75.98-1.13,1.89-2.33,2.7-3.59.79-1.21,1.49-2.48,2.08-3.8.07-.15.14-.3.2-.44l.17-.43.32-.81c.18-.52.33-.98.44-1.37.2-.78.29-1.25.2-1.28"/>
        <path id="Trazado_1522" data-name="Trazado 1522" class="cls-13" d="m219.46,33.54c-.11.06-.24.14-.39.25s-.31.23-.49.37c-.96.78-1.81,1.69-2.53,2.69-.23.3-.44.63-.66.97-.11.17-.21.35-.31.53-.05.09-.11.18-.16.27l-.15.28c-.2.37-.38.76-.56,1.16l-.25.61c-.09.21-.15.42-.23.63-.29.86-.52,1.73-.67,2.63-.14.88-.22,1.76-.24,2.65-.01,1.5.3,2.99.93,4.36.48,1.06,1.15,2.02,1.96,2.84.3.3.63.59.98.84.31.22.58.39.81.52.24.13.48.25.73.35-.03-.23-.07-.45-.12-.68-.02-.11-.05-.23-.07-.36s-.06-.27-.09-.42-.07-.32-.11-.49-.09-.35-.13-.54c-.18-.74-.4-1.65-.66-2.71-.03-.13-.06-.27-.1-.4l-.05-.2-.05-.21c-.03-.14-.07-.28-.1-.42-.03-.14-.06-.29-.1-.44-.02-.07-.04-.15-.06-.22s-.03-.15-.05-.23c-.03-.15-.07-.31-.11-.47-.06-.32-.15-.65-.21-1-.31-1.49-.37-3.02-.18-4.52.1-.78.26-1.55.47-2.31.2-.72.46-1.42.76-2.11.07-.16.14-.32.22-.48l.23-.45.11-.22.12-.21.23-.41c.16-.26.3-.5.45-.73s.28-.43.41-.62l.62-.87c.14-.21.21-.34.18-.37s-.16.02-.38.15"/>
        <path id="Trazado_1523" data-name="Trazado 1523" class="cls-13" d="m213.84,57.87c-.19-.62-.44-1.23-.74-1.81-.62-1.21-1.32-2.45-1.89-3.68-.29-.6-.54-1.22-.75-1.84-.2-.58-.35-1.18-.46-1.79-.09-.53-.14-1.07-.14-1.61,0-.44.04-.87.1-1.3.12-.73.27-1.17.18-1.22s-.41.28-.79.97c-.22.41-.4.85-.53,1.3-.17.58-.28,1.17-.33,1.76-.06.69-.06,1.37,0,2.06.06.73.17,1.45.32,2.17.3,1.44.71,2.83,1.03,4.06.28,1.02.62,2.02,1.03,2.99.35.85.69,1.6.96,2.26s.49,1.24.62,1.67c.08.21.12.38.16.5l.06.18s.04-.04.12-.11c.11-.11.22-.22.32-.35.37-.48.66-1.03.83-1.61.13-.42.22-.85.26-1.29.05-.52.05-1.04,0-1.56-.06-.59-.18-1.17-.35-1.74"/>
        <path id="Trazado_1524" data-name="Trazado 1524" class="cls-13" d="m226.17,58.94c-.08.04-.17.09-.28.15s-.22.13-.36.21c-.53.31-1.26.75-2.12,1.18-.93.47-1.89.88-2.88,1.23-1,.35-2.02.62-3.06.82-.85.16-1.67.4-2.47.73-.74.28-1.43.65-2.08,1.1-.26.19-.51.41-.73.65-.1.11-.18.22-.25.31s-.13.2-.18.28c-.08.13-.14.27-.19.42-.04.1-.05.15-.05.15,0,0,.05,0,.13.02l.16.02.21.03c.31.04.73.12,1.25.21.66.12,1.34.16,2.01.14.23-.01.46-.03.68-.07.25-.03.49-.08.74-.14.25-.07.51-.14.77-.23s.52-.2.79-.32c1.11-.53,2.19-1.14,3.21-1.83.98-.66,1.9-1.41,2.75-2.22.64-.61,1.23-1.27,1.76-1.98.1-.13.18-.25.25-.36s.13-.2.17-.29c.09-.16.12-.26.09-.29s-.14,0-.29.08"/>
        <path id="Trazado_1525" data-name="Trazado 1525" class="cls-13" d="m193.47,69.82c-5.07-2.29-10.99-1.57-15.36,1.86-.73.58-1.42,1.21-2.08,1.87-.73.68-1.41,1.41-2.04,2.18-.31.43.25,1.06.68.69.58-.51,1.07-1.13,1.61-1.68.58-.6,1.18-1.18,1.81-1.73,4.15-3.61,9.99-4.56,15.08-2.44.21.07.44-.04.52-.25.07-.2-.02-.41-.21-.5"/>
        <path id="Trazado_1526" data-name="Trazado 1526" class="cls-13" d="m174.37,75.22c-.45.12-.87.3-1.28.53-.13.07-.26.15-.4.23s-.27.18-.41.29-.28.22-.42.34-.28.26-.42.4c-.65.67-1.19,1.44-1.58,2.29-.96,1.99-1.81,4.04-2.55,6.12-.65,1.88-.97,3.31-.82,3.37.17.07.97-1.08,2.11-2.57s2.6-3.34,3.92-4.82c.3-.34.57-.7.81-1.08.22-.34.42-.7.6-1.08.3-.65.53-1.32.69-2.01.07-.3.12-.59.16-.85s.07-.48.08-.67c.02-.2.03-.4.02-.61-.17.02-.34.06-.51.11"/>
        <path id="Trazado_1527" data-name="Trazado 1527" class="cls-13" d="m178.98,74.25c-.27-.55-.53-1.02-.72-1.35-.1-.17-.17-.3-.23-.39s-.09-.14-.09-.14c-.13.12-.25.25-.36.39-.3.38-.54.8-.72,1.26-.27.69-.42,1.41-.45,2.15-.04.95.09,1.89.36,2.8,1.16,4.01,2.53,9.73,2.87,9.67s.52-5.67.52-9.84c0-.88-.14-1.76-.4-2.61-.21-.67-.47-1.32-.78-1.94"/>
        <path id="Trazado_1528" data-name="Trazado 1528" class="cls-13" d="m177.35,70.61c-.17-.2-.36-.38-.57-.53-.26-.18-.55-.31-.85-.4-.6-.17-1.22-.2-1.83-.09-.56.1-1.11.27-1.63.52-.24.11-.46.22-.7.34s-.47.26-.71.4c-.96.58-2.06,1.17-3.17,1.72s-2.23,1.05-3.23,1.48c-2.01.85-3.55,1.4-3.51,1.58s1.62.18,3.78-.08c1.08-.13,2.3-.32,3.53-.57s2.48-.56,3.63-.89c.52-.15,1.03-.35,1.51-.58.46-.23.81-.44,1.09-.62s.5-.32.7-.43c.05-.03.11-.05.15-.08.04-.03.07-.05.11-.07.05-.02.1-.04.14-.05.05-.01.11-.02.16-.03.23-.02.46,0,.68.08.2.07.38.19.52.34.1.11.19.23.25.37l.07.15s.08-.08.12-.13c.02-.02.04-.05.06-.08s.04-.06.06-.1.05-.08.07-.12.04-.1.05-.15c.09-.28.11-.57.05-.85-.09-.42-.27-.8-.55-1.13"/>
        <path id="Trazado_1529" data-name="Trazado 1529" class="cls-13" d="m180.96,66.97c-.2-.39-.45-.76-.75-1.08-.33-.35-.71-.65-1.12-.89-.84-.48-1.71-.92-2.61-1.3-.79-.34-1.56-.72-2.3-1.16-.55-.33-1.07-.72-1.54-1.15-.36-.33-.57-.57-.65-.53s-.08.36.08.86c.1.3.22.59.37.87.19.35.4.69.64,1,.56.73,1.19,1.41,1.87,2.04.67.65,1.33,1.26,1.81,1.83.21.24.44.47.67.69.21.19.42.36.64.52.42.31.85.58,1.23.86.34.24.66.51.96.81.12.12.21.22.28.29l.1.11s.03-.03.09-.09c.08-.09.16-.19.22-.29.25-.39.39-.84.43-1.3.03-.33.01-.66-.05-.99-.07-.38-.2-.75-.37-1.1"/>
        <path id="Trazado_1530" data-name="Trazado 1530" class="cls-13" d="m185.26,77.92c-.05-.57-.11-1.14-.2-1.68-.07-.49-.2-.98-.38-1.45-.08-.22-.18-.43-.28-.64-.1-.2-.2-.39-.32-.58-.41-.64-.92-1.22-1.51-1.7-.23-.19-.47-.36-.73-.52-.23-.14-.44-.24-.61-.32-.18-.09-.37-.16-.56-.23-.04.17-.06.34-.08.51-.02.16-.03.36-.03.58s0,.48.01.75c0,.14.02.28.04.43s.03.3.05.46.05.32.09.49.07.34.11.52c.21.81.5,1.6.87,2.36.88,1.87,1.49,3.86,1.83,5.9.34,1.88.37,3.34.56,3.35.16.02.68-1.31.96-3.26.03-.24.07-.5.1-.76s.05-.53.07-.8.03-.55.05-.83.02-.57.02-.86,0-.58-.02-.87-.03-.58-.05-.87"/>
        <path id="Trazado_1531" data-name="Trazado 1531" class="cls-13" d="m186.02,62.72c-1.51-1.73-3.29-3.84-4.74-5.47s-2.56-2.81-2.7-2.71.47,1.53,1.37,3.44,2.07,4.31,3.08,6.34c.8,1.6,2.01,2.98,3.49,3.98.64.45,1.33.81,2.05,1.09.06-.68.01-1.37-.15-2.03-.39-1.73-1.22-3.33-2.41-4.64"/>
        <path id="Trazado_1532" data-name="Trazado 1532" class="cls-15" d="m198.07,81.51c-.58.11-1.14.31-1.65.6-.67.39-1.27.9-1.75,1.51-.55.69-1.15,1.46-1.72,2.23-.28.38-.56.77-.82,1.15l-.38.56c-.12.18-.25.37-.36.56-.22.35-.41.73-.55,1.12-.12.32-.19.66-.2,1,0,.23.03.45.11.66.07.14.12.21.17.2s.09-.09.13-.21c.06-.17.14-.33.23-.48.13-.22.28-.42.46-.6.23-.23.48-.44.74-.64.15-.11.3-.22.46-.33l.52-.36.54-.37.55-.37c.74-.5,1.49-.99,2.19-1.43.61-.38,1.14-.87,1.57-1.44.36-.48.67-1.01.9-1.57.17-.42.32-.84.43-1.28.04-.18.08-.35.11-.53-.15-.03-.31-.05-.46-.06-.4-.02-.81,0-1.2.09Z"/>
        <path id="Trazado_1533" data-name="Trazado 1533" class="cls-5" d="m206.21,67.67s10.47-4.93,10.3-7.43-7.88-7.16-9.45-7.62-4.78,12.89-4.78,12.89c0,0,2.42-13.65.69-14.11s-8.5-2.42-10.65.85c-1.24,1.89,4.32,13.92,4.32,13.92,0,0-7.13-12.02-7.91-11.55s-7.63,7.57-7.94,8.67c-.21.77,6.38,2.87,10.38,4.06-3.77-1.07-9.8-2.68-9.9-2.03-.15.94-.56,10.04.7,11.28.85.83,6.95-1.6,10.89-3.3-4.13,1.91-10.53,5.1-9.77,6.28,1.11,1.72,5.22,7.49,7.58,8.41,1.46.57,4.22-5.34,6.1-9.89-1.72,4.62-3.83,10.8-2.95,11.28,1.42.77,9.09.41,10.34-.54.88-.67-.31-8.16-1.09-12.53.86,4.4,2.48,11.85,3.59,11.73,1.57-.17,10.3-7.43,10.76-9.16.31-1.18-4.86-4.44-8.18-6.39,3.19,1.78,8.16,4.41,8.79,3.88.93-.79,1.19-10.04.55-11.92s-12.36,3.21-12.36,3.21"/>
        <path id="Trazado_1534" data-name="Trazado 1534" class="cls-14" d="m206.21,67.67s10.47-4.93,10.3-7.43-7.88-7.16-9.45-7.62-4.78,12.89-4.78,12.89c0,0,2.42-13.65.69-14.11s-8.5-2.42-10.65.85c-1.24,1.89,4.32,13.92,4.32,13.92,0,0-7.13-12.02-7.91-11.55s-7.63,7.57-7.94,8.67c-.21.77,6.38,2.87,10.38,4.06-3.77-1.07-9.8-2.68-9.9-2.03-.15.94-.56,10.04.7,11.28.85.83,6.95-1.6,10.89-3.3-4.13,1.91-10.53,5.1-9.77,6.28,1.11,1.72,5.22,7.49,7.58,8.41,1.46.57,4.22-5.34,6.1-9.89-1.72,4.62-3.83,10.8-2.95,11.28,1.42.77,9.09.41,10.34-.54.88-.67-.31-8.16-1.09-12.53.86,4.4,2.48,11.85,3.59,11.73,1.57-.17,10.3-7.43,10.76-9.16.31-1.18-4.86-4.44-8.18-6.39,3.19,1.78,8.16,4.41,8.79,3.88.93-.79,1.19-10.04.55-11.92s-12.36,3.21-12.36,3.21Z"/>
        <path id="Trazado_1535" data-name="Trazado 1535" class="cls-11" d="m212.17,60.3c-1.22-.76-10.26,6.37-10.26,6.37,0,0,7.79-7.61,7.15-8.9s-9.54-5.5-11.13-4.6.58,14.18.58,14.18c0,0-5.18-11.6-7.29-11.56s-6.33,6.28-6.57,8.37,9.81,5.8,10.21,6.24c0,0-11.02-.95-12.22.67s4.45,12.27,5.94,13.32,8.71-9.25,8.71-9.25c0,0-5.83,10.37-4.73,10.98s11.23,2.36,11.73.85-3.68-13.77-3.68-13.77c0,0,5.14,12.44,6.72,11.81s7.54-8.18,7.6-9.3-10.91-6.13-10.91-6.13c0,0,9.54,2.56,11,1.51s-1.62-10.03-2.84-10.79"/>
        <path id="Trazado_1536" data-name="Trazado 1536" class="cls-3" d="m195.09,67.62c1.13.77,1.98,1.31,1.98,1.31,0,0-.82-.57-1.98-1.31"/>
        <path id="Trazado_1537" data-name="Trazado 1537" class="cls-5" d="m199.92,68.91s1.14-10.08-1.58-11.11-8.54,4.26-8.83,5.17c-.2.61,3.27,3.08,5.58,4.65,1.16.74,1.98,1.31,1.98,1.31,0,0-.85-.55-1.98-1.31-2.64-1.69-7.05-4.28-7.67-3.13-.89,1.66-2.35,8.13-2.05,8.73s10.36-1.72,10.36-1.72c0,0-9.9,3.07-9.44,4.57s8.62,8.06,12.07,7.43c2.53-.46,1.39-6.38.6-9.51-.33-1.12-.53-1.91-.53-1.91,0,0,.24.77.53,1.91.86,2.89,2.66,8.01,4.49,7.67,2.55-.47,7.93-5.61,7.77-6.66s-9.2-5.05-9.2-5.05c0,0,10.84,3.09,10.98,1.73s-4.13-10.79-5.19-11.84-7.9,9.07-7.9,9.07"/>
        <path id="Trazado_1538" data-name="Trazado 1538" class="cls-14" d="m199.92,68.91s1.14-10.08-1.58-11.11-8.54,4.26-8.83,5.17c-.2.61,3.27,3.08,5.58,4.65,1.16.74,1.98,1.31,1.98,1.31,0,0-.85-.55-1.98-1.31-2.64-1.69-7.05-4.28-7.67-3.13-.89,1.66-2.35,8.13-2.05,8.73s10.36-1.72,10.36-1.72c0,0-9.9,3.07-9.44,4.57s8.62,8.06,12.07,7.43c2.53-.46,1.39-6.38.6-9.51-.33-1.12-.53-1.91-.53-1.91,0,0,.24.77.53,1.91.86,2.89,2.66,8.01,4.49,7.67,2.55-.47,7.93-5.61,7.77-6.66s-9.2-5.05-9.2-5.05c0,0,10.84,3.09,10.98,1.73s-4.13-10.79-5.19-11.84-7.9,9.07-7.9,9.07Z"/>
        <path id="Trazado_1539" data-name="Trazado 1539" class="cls-3" d="m198.97,73.99c-.29-1.14-.53-1.91-.53-1.91,0,0,.19.79.53,1.91"/>
        <path id="Trazado_1540" data-name="Trazado 1540" class="cls-11" d="m199.68,69.17c-.99,0-1.79.81-1.79,1.8,0,.99.81,1.79,1.8,1.79.99,0,1.79-.81,1.79-1.8,0,0,0,0,0,0,0-.99-.81-1.78-1.8-1.78"/>
        <path id="Trazado_1541" data-name="Trazado 1541" class="cls-16" d="m239.93,51.9c-.5-.14-1.03-.15-1.53-.04-.51.13-.97.4-1.33.77-.33.36-.58.78-.73,1.25-.09.29-.14.6-.13.91-.09.33-.1.67-.04,1,.05.21.11.42.2.62.19.4.5.74.89.97.83.49,1.85.54,2.71.12,1.53-.77,1.78-2.56,1.35-4.06-.15-.72-.68-1.31-1.38-1.54Z"/>
        <path id="Trazado_1542" data-name="Trazado 1542" class="cls-16" d="m238.79,53.53c-1.68.31-2.8,1.91-2.51,3.59.13.83.56,1.58,1.21,2.1l.46.27q-.3-.18,0,0c.15.1.3.18.47.25.44.18.92.24,1.39.17.65-.1,1.2-.51,1.48-1.11.05-.04.09-.08.13-.12.65-.64.98-1.53.9-2.43-.23-1.72-1.81-2.93-3.53-2.71Z"/>
        <path id="Trazado_1545" data-name="Trazado 1545" class="cls-12" d="m195.1,67.62c1.16.74,1.98,1.31,1.98,1.31,0,0-.85-.55-1.98-1.31"/>
        <path id="Trazado_1550" data-name="Trazado 1550" class="cls-12" d="m198.97,73.99c-.33-1.12-.53-1.91-.53-1.91,0,0,.24.77.53,1.91"/>
        <path id="Trazado_1552" data-name="Trazado 1552" class="cls-8" d="m107.81,60.76c1.65,13.7,20.69,13.76,20.24,17.12-.07.78,0,1.57.22,2.33.59-.01,1.21-.02,1.85-.01-.07-.82-.09-1.64-.06-2.45,0-.2.14-.36.34-.37.2,0,.36.14.37.34,0,.02,0,.03,0,.05,0,.82.06,1.64.17,2.45,2.18.03,4.55.13,6.84.26.03-.81.06-1.62.16-2.42-.01-.18.13-.34.31-.35.18-.01.34.13.35.31,0,.02,0,.03,0,.05.02.81-.02,1.63-.07,2.45,2.24.13,4.36.29,6.12.44.01-.15.02-.29.03-.44-.01-.58.06-1.15.2-1.71.04-.17.21-.27.38-.23.12.03.21.12.24.25.09.57.1,1.14.01,1.71-.01.16-.02.33-.04.49.59.05,1.12.1,1.59.14-.04.15-.09.31-.13.46.6-2.17,1.04-4.05,2.48-4.39,3.71-.88,21.46-6.39,20.16-20.09-1.35-14.21-5.5-26.96-32.44-28.27-21.27-1.03-31.2,16.29-29.32,31.9m44.34-14.39c9.4-3.41,11.33,5.04,10.93,9.55s-9.79,13.2-16.4,7.49c-5.62-4.86-4.05-13.58,5.46-17.03m-13.07,15.52c1.12.15,1.51,5.98,1.79,6.87s-4.8.54-5.2.15,2.89-7.09,3.4-7.02m-13.83-15.95c9.35,3.54,10.83,13.18,4.76,17.24-9.13,6.11-15.87-3.63-16.08-8.15s.49-13.2,11.32-9.09"/>
        <path id="Trazado_1553" data-name="Trazado 1553" class="cls-4" d="m142.67,56.24s-2.05,1.14-1.65,2.25,2.17,1.39,2.17,1.39c0,0-2.8.7-2.4,1.72s3.11.57,3.11.57c0,0-2.74,1.8-2.17,2.74s4.32-.67,4.32-.67c0,0-2.11,3.92-1.27,4.53s4.19-2.61,4.19-2.61c0,0,0,3.8,1.52,3.83s2.27-3.75,2.27-3.75c0,0,1.62,3.24,2.98,2.76s.5-4.04.5-4.04c0,0,2.63,3.6,3.91,2.78s-.57-5.16-.57-5.16c0,0,3.66,2.69,4.52,1.7s-1.6-4.34-1.6-4.34c0,0,3.51,1.51,3.96.42s-2.63-3.26-2.63-3.26c0,0,3.79.16,3.73-.94s-3.25-2.09-3.25-2.09c0,0,3.5-2.12,3.36-3.39s-3.88-.16-3.88-.16c0,0,2.5-2.4,1.77-3.85s-3.48.86-3.48.86c0,0,2.18-3.33.93-4.29s-2.66,2.06-2.66,2.06c0,0,.41-3.37-.93-3.99s-2.84,2.73-2.84,2.73c0,0,.56-2.77-1.11-3.23s-2.1,3.67-2.1,3.67c0,0-.7-2.88-2.56-2.84s-1.19,4.45-1.19,4.45c0,0-.61-3.3-2.39-2.92s-.19,5.06-.19,5.06c0,0-1.55-2.56-3.08-2s1.35,4.32,1.35,4.32c0,0-2.48-2.25-3.43-1.59s1.69,3.92,1.69,3.92c0,0-2.96.45-2.91,1.96.04,1.11,2,1.39,2,1.39m9.48-9.87c9.4-3.41,11.33,5.04,10.93,9.55s-9.79,13.2-16.4,7.49c-5.62-4.86-4.05-13.58,5.46-17.03"/>
        <path id="Trazado_1554" data-name="Trazado 1554" class="cls-6" d="m139.72,43.22c-.68-.01-1.33.33-1.7.9-.36.59-.37,1.34-.01,1.94.41.7,1.24,1.04,2.03.83.49-.08.91-.36,1.18-.77.55-.9.27-2.07-.62-2.62-.27-.16-.57-.26-.88-.28"/>
        <path id="Trazado_1555" data-name="Trazado 1555" class="cls-7" d="m135.06,39.37c-.45,0-.86.26-1.04.67-.03.06-.05.12-.06.19-.3.32-.42.76-.32,1.18.27.86,1.19,1.34,2.05,1.06.28-.09.53-.25.73-.48.29-.35.39-.81.29-1.25-.2-.77-.86-1.32-1.65-1.38"/>
        <path id="Trazado_1556" data-name="Trazado 1556" class="cls-7" d="m145.56,39.62c-.11-.12-.26-.21-.42-.25l-.06-.02c-.09-.05-.19-.09-.29-.11l-.31-.05c-.15,0-.31.02-.45.09-.23.09-.43.25-.56.46-.31.49-.34,1.11-.08,1.63.37.69,1.23.94,1.92.57.01,0,.02-.01.03-.02.33-.19.57-.5.67-.87.12-.47,0-.97-.33-1.32-.03-.04-.07-.07-.11-.1"/>
        <path id="Trazado_1557" data-name="Trazado 1557" class="cls-10" d="m148.81,30.42c-.37,1.37-.47,3.05.98,3.6,2.6.98,6.16.13,6.16.13,0,0,.35,3.47,4.87,5.33,1.09.5,2.31.62,3.48.37-3.03-4.22-7.81-7.55-15.49-9.42"/>
        <path id="Trazado_1558" data-name="Trazado 1558" class="cls-10" d="m114.85,37.32c1.31.61,3.8,1.36,5.85-.44,2.92-2.56,3.13-4.75,3.13-4.75,0,0,.9,1.28,3.77,1.09,1.73-.12,3.48-2.44,4.59-4.27-6.64.47-12.85,3.46-17.36,8.37"/>
        <path id="Trazado_1559" data-name="Trazado 1559" class="cls-4" d="m109.79,54.47c.14,1.44,2.92,1.75,2.92,1.75,0,0-2.8.96-2.24,2.32s3.36.57,3.36.57c0,0-3.06,1.29-1.91,2.75s3.72-.18,3.72-.18c0,0-2.59,2.9-.6,4.38s3.92-1.78,3.92-1.78c0,0-.91,3.27.93,3.99s2.5-2.48,2.5-2.48c0,0-.09,4.56,1.6,4.25s1.69-4.02,1.69-4.02c0,0,1.27,3.99,2.62,3.85s.95-4.96.95-4.96c0,0,2.3,3.08,3.41,2.43s-.66-4.65-.66-4.65c0,0,2.84,1.58,3.7.5s-1.87-3.33-1.87-3.33c0,0,2.93,1.16,3.21-.36s-2.22-2.66-2.22-2.66c0,0,2.37-.54,2.48-1.47s-2.15-1.9-2.15-1.9c0,0,2.8-.62,2.16-2.23s-4.13-.08-4.13-.08c0,0,4.03-3.29,2.88-4.58s-4.17,1.77-4.17,1.77c0,0,2.18-3.25.59-4.21s-3.59,2.12-3.59,2.12c0,0,1.43-3.77.17-4.39s-2.67,2.73-2.67,2.73c0,0,1.07-3.02-.6-3.81s-2.67,3.23-2.67,3.23c0,0,.67-3.95-1.51-4.33s-2.02,4.09-2.02,4.09c0,0-1.96-3.33-3.47-3.45s0,4.39,0,4.39c0,0-3-2-3.77-1.26s1.53,3.49,1.53,3.49c0,0-2.43-.89-3.04.11s2.57,2.5,2.57,2.5c0,0-3.3.19-3.32,1.45s2.66,1.74,2.66,1.74c0,0-3.04.28-2.9,1.71m15.46-8.52c9.35,3.54,10.83,13.18,4.76,17.24-9.13,6.11-15.87-3.63-16.08-8.15s.49-13.2,11.32-9.09"/>
        <path id="Trazado_1560" data-name="Trazado 1560" class="cls-8" d="m130.26,81.35c.17,1.25.54,2.47,1.12,3.6.12.19.37.24.55.12.15-.09.22-.27.17-.44-.32-1.11-.74-2.15-.97-3.3,1.75-.02,3.92.03,6.61.17-.05.93-.12,1.88-.1,2.81-.02.19.12.36.31.38.19.02.36-.12.38-.31,0-.02,0-.03,0-.05.1-.92.12-1.86.15-2.79,1.8.1,3.82.25,6.08.44-.01.13-.02.26-.04.39-.12,1.25-.27,2.5-.37,3.75-.01.18.12.33.3.34.15.01.29-.09.33-.24.26-1.22.44-2.46.56-3.7.02-.16.03-.32.04-.47.45.04.92.08,1.39.12-.94,3.28-2.48,6.96-8.43,7.02-4.89.05-8.34-4.18-9.69-7.79.48-.03,1.01-.05,1.6-.06"/>
        <path id="Trazado_1562" data-name="Trazado 1562" class="cls-12" d="m146.93,81.61c.04-.16.08-.31.13-.46h0c-.04.15-.09.31-.13.46"/>
      </g>
    </g>
  </g>
</svg>