<?xml version="1.0" encoding="UTF-8"?>
<svg id="Capa_2" data-name="Capa 2" xmlns="http://www.w3.org/2000/svg" xmlns:xlink="http://www.w3.org/1999/xlink" viewBox="0 0 1920 1731.27">
  <defs>
    <style>
      .cls-1 {
        clip-path: url(#clippath);
      }

      .cls-2 {
        fill: none;
      }

      .cls-2, .cls-3 {
        stroke-width: 0px;
      }

      .cls-4 {
        clip-path: url(#clippath-1);
      }

      .cls-5 {
        clip-path: url(#clippath-3);
      }

      .cls-6 {
        clip-path: url(#clippath-2);
      }

      .cls-3 {
        fill: #e14993;
      }
    </style>
    <clipPath id="clippath">
      <rect class="cls-2" width="34.8" height="866.64"/>
    </clipPath>
    <clipPath id="clippath-1">
      <rect class="cls-2" x="1885.2" width="34.8" height="866.64"/>
    </clipPath>
    <clipPath id="clippath-2">
      <rect class="cls-2" x="1885.2" y="864.64" width="34.8" height="866.64"/>
    </clipPath>
    <clipPath id="clippath-3">
      <rect class="cls-2" y="864.64" width="34.8" height="866.64"/>
    </clipPath>
  </defs>
  <g id="Capa_1-2" data-name="Capa 1">
    <g id="Grupo_388" data-name="Grupo 388">
      <rect id="Rectángulo_123" data-name="Rectángulo 123" class="cls-3" x="1" width="1918" height="12"/>
      <g class="cls-1">
        <g id="Grupo_8" data-name="Grupo 8">
          <path id="Trazado_2" data-name="Trazado 2" class="cls-3" d="m0,797.04v69.6c19.22,0,34.8-15.58,34.8-34.8h0c0-19.22-15.58-34.8-34.8-34.8h0m9.37,44.68c1.85,0,3.35,1.5,3.35,3.35s-1.5,3.35-3.35,3.35-3.35-1.5-3.35-3.35h0c0-1.85,1.5-3.35,3.35-3.35m7.01-15.23c2.96,0,5.35,2.4,5.35,5.35s-2.4,5.35-5.35,5.35-5.35-2.4-5.35-5.35c0-2.95,2.37-5.34,5.32-5.35h.04m-7.01-11.22c1.85,0,3.35,1.5,3.35,3.35s-1.5,3.35-3.35,3.35-3.35-1.5-3.35-3.35h0c0-1.85,1.5-3.34,3.35-3.35"/>
          <path id="Trazado_3" data-name="Trazado 3" class="cls-3" d="m0,730.62v69.6c19.22,0,34.8-15.58,34.8-34.8s-15.58-34.8-34.8-34.8m9.37,44.68c1.85,0,3.35,1.5,3.35,3.35s-1.5,3.35-3.35,3.35-3.35-1.5-3.35-3.35h0c0-1.85,1.5-3.34,3.35-3.35m7.01-15.23c2.96,0,5.35,2.4,5.35,5.35s-2.4,5.35-5.35,5.35-5.35-2.4-5.35-5.35c-.01-2.95,2.37-5.34,5.32-5.35h.04m-7.01-11.22c1.85,0,3.35,1.5,3.35,3.35s-1.5,3.35-3.35,3.35-3.35-1.5-3.35-3.35h0c0-1.85,1.5-3.34,3.35-3.35"/>
          <path id="Trazado_4" data-name="Trazado 4" class="cls-3" d="m0,664.2v69.6c19.22,0,34.8-15.58,34.8-34.8h0c0-19.22-15.58-34.8-34.8-34.8h0m9.37,44.68c1.85,0,3.35,1.5,3.35,3.35s-1.5,3.35-3.35,3.35-3.35-1.5-3.35-3.35h0c0-1.85,1.5-3.35,3.35-3.35m7.01-15.23c2.96,0,5.35,2.4,5.35,5.35s-2.4,5.35-5.35,5.35-5.35-2.4-5.35-5.35c-.01-2.95,2.37-5.34,5.32-5.35h.04m-7.01-11.22c1.85,0,3.35,1.5,3.35,3.35s-1.5,3.35-3.35,3.35-3.35-1.5-3.35-3.35c0-1.85,1.5-3.35,3.35-3.35"/>
          <path id="Trazado_5" data-name="Trazado 5" class="cls-3" d="m0,597.78v69.6c19.22.02,34.81-15.55,34.83-34.77.02-19.22-15.55-34.81-34.77-34.83h-.06m9.37,44.68c1.85,0,3.35,1.5,3.35,3.35s-1.5,3.35-3.35,3.35-3.35-1.5-3.35-3.35h0c0-1.85,1.5-3.34,3.35-3.35m7.01-15.23c2.96,0,5.35,2.4,5.35,5.35s-2.4,5.35-5.35,5.35-5.35-2.4-5.35-5.35c-.01-2.95,2.37-5.34,5.32-5.35h.04m-7.01-11.22c1.85,0,3.35,1.5,3.35,3.35s-1.5,3.35-3.35,3.35-3.35-1.5-3.35-3.35h0c0-1.85,1.5-3.35,3.35-3.35"/>
          <path id="Trazado_6" data-name="Trazado 6" class="cls-3" d="m0,531.36v69.6c19.22,0,34.8-15.58,34.8-34.8h0c0-19.22-15.58-34.8-34.8-34.8h0m9.37,44.68c1.85,0,3.35,1.5,3.35,3.35s-1.5,3.35-3.35,3.35-3.35-1.5-3.35-3.35h0c0-1.85,1.5-3.34,3.35-3.35m7.01-15.23c2.96,0,5.35,2.4,5.35,5.35s-2.4,5.35-5.35,5.35-5.35-2.4-5.35-5.35c-.01-2.95,2.37-5.34,5.32-5.35h.04m-7.01-11.22c1.85,0,3.35,1.5,3.35,3.35s-1.5,3.35-3.35,3.35-3.35-1.5-3.35-3.35h0c0-1.85,1.5-3.34,3.35-3.35"/>
          <path id="Trazado_7" data-name="Trazado 7" class="cls-3" d="m0,464.94v69.6c19.22,0,34.8-15.58,34.8-34.8h0c0-19.22-15.58-34.8-34.8-34.8h0m9.37,44.68c1.85,0,3.35,1.5,3.35,3.35s-1.5,3.35-3.35,3.35-3.35-1.5-3.35-3.35h0c0-1.85,1.5-3.35,3.35-3.35m7.01-15.23c2.96,0,5.35,2.4,5.35,5.35s-2.4,5.35-5.35,5.35-5.35-2.4-5.35-5.35c-.01-2.95,2.37-5.34,5.32-5.35h.04m-7.01-11.22c1.85,0,3.35,1.5,3.35,3.35s-1.5,3.35-3.35,3.35-3.35-1.5-3.35-3.35h0c0-1.85,1.5-3.35,3.35-3.35"/>
          <path id="Trazado_8" data-name="Trazado 8" class="cls-3" d="m0,398.52v69.6c19.22,0,34.8-15.58,34.8-34.8h0c0-19.22-15.58-34.8-34.8-34.8h0m9.37,44.68c1.85,0,3.35,1.5,3.35,3.35s-1.5,3.35-3.35,3.35-3.35-1.5-3.35-3.35h0c0-1.85,1.5-3.34,3.35-3.35m7.01-15.23c2.96,0,5.35,2.4,5.35,5.35s-2.4,5.35-5.35,5.35-5.35-2.4-5.35-5.35c-.01-2.95,2.37-5.34,5.32-5.35h.04m-7.01-11.22c1.85,0,3.35,1.5,3.35,3.35s-1.5,3.35-3.35,3.35-3.35-1.5-3.35-3.35h0c0-1.85,1.5-3.34,3.35-3.35"/>
          <path id="Trazado_9" data-name="Trazado 9" class="cls-3" d="m0,332.1v69.6c19.22,0,34.8-15.58,34.8-34.8h0c0-19.22-15.58-34.8-34.8-34.8m9.37,44.67c1.85,0,3.35,1.5,3.35,3.35s-1.5,3.35-3.35,3.35-3.35-1.5-3.35-3.35h0c0-1.85,1.5-3.35,3.35-3.35m7.01-15.23c2.96,0,5.35,2.4,5.35,5.35s-2.4,5.35-5.35,5.35-5.35-2.4-5.35-5.35c-.01-2.95,2.37-5.34,5.32-5.35h.04m-7.01-11.22c1.85,0,3.35,1.5,3.35,3.35s-1.5,3.35-3.35,3.35-3.35-1.5-3.35-3.35h0c0-1.85,1.5-3.34,3.35-3.35"/>
          <path id="Trazado_10" data-name="Trazado 10" class="cls-3" d="m0,265.68v69.6c19.22,0,34.8-15.58,34.8-34.8,0-19.22-15.58-34.8-34.8-34.8m9.37,44.68c1.85,0,3.35,1.5,3.35,3.35s-1.5,3.35-3.35,3.35-3.35-1.5-3.35-3.35c0,0,0,0,0,0,0-1.85,1.5-3.35,3.35-3.35m7.01-15.23c2.96,0,5.35,2.4,5.35,5.35s-2.4,5.35-5.35,5.35-5.35-2.4-5.35-5.35c-.01-2.95,2.37-5.34,5.32-5.35.01,0,.03,0,.04,0m-7.01-11.21c1.85,0,3.35,1.5,3.35,3.35s-1.5,3.35-3.35,3.35-3.35-1.5-3.35-3.35c0-1.85,1.5-3.35,3.35-3.35"/>
          <path id="Trazado_11" data-name="Trazado 11" class="cls-3" d="m0,199.26v69.6c19.22,0,34.8-15.58,34.8-34.8,0-19.22-15.58-34.8-34.8-34.8m9.37,44.68c1.85,0,3.35,1.5,3.35,3.35s-1.5,3.35-3.35,3.35-3.35-1.5-3.35-3.35c0-1.85,1.5-3.34,3.35-3.35m7.01-15.23c2.96,0,5.35,2.4,5.35,5.35s-2.4,5.35-5.35,5.35-5.35-2.4-5.35-5.35c-.01-2.95,2.37-5.34,5.32-5.35.01,0,.03,0,.04,0m-7.01-11.22c1.85,0,3.35,1.5,3.35,3.35s-1.5,3.35-3.35,3.35-3.35-1.5-3.35-3.35c0-1.85,1.5-3.34,3.35-3.35"/>
          <path id="Trazado_12" data-name="Trazado 12" class="cls-3" d="m0,132.84v69.6c19.22,0,34.8-15.58,34.8-34.8,0-19.22-15.58-34.8-34.8-34.8h0m9.37,44.68c1.85,0,3.35,1.5,3.35,3.35s-1.5,3.35-3.35,3.35-3.35-1.5-3.35-3.35c0-1.85,1.5-3.35,3.35-3.35m7.01-15.23c2.96,0,5.35,2.4,5.35,5.35s-2.4,5.35-5.35,5.35-5.35-2.4-5.35-5.35c-.01-2.95,2.37-5.34,5.32-5.35.01,0,.03,0,.04,0m-7.01-11.22c1.85,0,3.35,1.5,3.35,3.35s-1.5,3.35-3.35,3.35-3.35-1.5-3.35-3.35c0-1.85,1.5-3.35,3.35-3.35"/>
          <path id="Trazado_13" data-name="Trazado 13" class="cls-3" d="m0,66.42v69.6c19.22,0,34.8-15.58,34.8-34.8h0c0-19.22-15.58-34.8-34.8-34.8h0m9.37,44.68c1.85,0,3.35,1.5,3.35,3.35s-1.5,3.35-3.35,3.35-3.35-1.5-3.35-3.35h0c0-1.85,1.5-3.35,3.35-3.35m7.01-15.23c2.96,0,5.35,2.4,5.35,5.35s-2.4,5.35-5.35,5.35-5.35-2.4-5.35-5.35h0c0-2.95,2.37-5.34,5.32-5.35.01,0,.02,0,.04,0m-7.01-11.22c1.85,0,3.35,1.5,3.35,3.35s-1.5,3.35-3.35,3.35-3.35-1.5-3.35-3.35h0c0-1.85,1.5-3.35,3.35-3.35"/>
          <path id="Trazado_14" data-name="Trazado 14" class="cls-3" d="m0,0v69.6c19.22,0,34.8-15.58,34.8-34.8h0C34.8,15.58,19.22,0,0,0h0m9.37,44.68c1.85,0,3.35,1.5,3.35,3.35s-1.5,3.35-3.35,3.35-3.35-1.5-3.35-3.35c0-1.85,1.5-3.34,3.35-3.35m7.01-15.23c2.96,0,5.35,2.4,5.35,5.35s-2.4,5.35-5.35,5.35-5.35-2.4-5.35-5.35c-.01-2.95,2.37-5.34,5.32-5.35.01,0,.03,0,.04,0m-7.01-11.22c1.85,0,3.35,1.5,3.35,3.35s-1.5,3.35-3.35,3.35-3.35-1.5-3.35-3.35c0-1.85,1.5-3.34,3.35-3.35"/>
        </g>
      </g>
      <g id="Grupo_9" data-name="Grupo 9">
        <g class="cls-4">
          <g id="Grupo_10" data-name="Grupo 10">
            <path id="Trazado_15" data-name="Trazado 15" class="cls-3" d="m1885.2,831.84c0,19.22,15.58,34.8,34.8,34.8h0v-69.6c-19.22,0-34.8,15.58-34.8,34.8h0m28.78,13.22c0,1.85-1.5,3.35-3.35,3.35-1.85,0-3.35-1.5-3.35-3.35,0-1.85,1.5-3.35,3.35-3.35h0c1.85,0,3.35,1.5,3.35,3.35m-5.01-13.22c0,2.96-2.4,5.35-5.35,5.35s-5.35-2.4-5.35-5.35,2.4-5.35,5.35-5.35c2.95,0,5.35,2.4,5.35,5.35m5.01-13.22c0,1.85-1.5,3.35-3.35,3.35-1.85,0-3.35-1.5-3.35-3.35,0-1.85,1.5-3.35,3.35-3.35h0c1.85,0,3.35,1.5,3.35,3.35"/>
            <path id="Trazado_16" data-name="Trazado 16" class="cls-3" d="m1885.2,765.42c0,19.22,15.58,34.8,34.8,34.8h0v-69.6c-19.22,0-34.8,15.58-34.8,34.8h0m28.78,13.22c0,1.85-1.5,3.35-3.35,3.35-1.85,0-3.35-1.5-3.35-3.35,0-1.85,1.5-3.35,3.35-3.35h0c1.85,0,3.35,1.5,3.35,3.35m-5-13.22c0,2.96-2.4,5.35-5.35,5.35s-5.35-2.4-5.35-5.35,2.4-5.35,5.35-5.35c2.95,0,5.35,2.4,5.35,5.35m5.01-13.22c0,1.85-1.5,3.35-3.35,3.35-1.85,0-3.35-1.5-3.35-3.35,0-1.85,1.5-3.35,3.35-3.35h0c1.85,0,3.35,1.5,3.35,3.35"/>
            <path id="Trazado_17" data-name="Trazado 17" class="cls-3" d="m1885.2,699c0,19.22,15.58,34.8,34.8,34.8h0v-69.6c-19.22,0-34.8,15.58-34.8,34.8m28.78,13.22c0,1.85-1.5,3.35-3.35,3.35-1.85,0-3.35-1.5-3.35-3.35,0-1.85,1.5-3.35,3.35-3.35h0c1.85,0,3.35,1.5,3.35,3.35m-5.01-13.22c0,2.96-2.4,5.35-5.35,5.35s-5.35-2.4-5.35-5.35,2.4-5.35,5.35-5.35c2.95,0,5.35,2.4,5.35,5.35m5.01-13.22c0,1.85-1.5,3.35-3.35,3.35-1.85,0-3.35-1.5-3.35-3.35,0-1.85,1.5-3.35,3.35-3.35h0c1.85,0,3.35,1.5,3.35,3.35"/>
            <path id="Trazado_18" data-name="Trazado 18" class="cls-3" d="m1885.2,632.58c0,19.22,15.58,34.8,34.8,34.8h0v-69.6c-19.22,0-34.8,15.58-34.8,34.8h0m28.78,13.22c0,1.85-1.5,3.35-3.35,3.35s-3.35-1.5-3.35-3.35c0-1.85,1.5-3.35,3.35-3.35h0c1.85,0,3.35,1.5,3.35,3.35m-5.01-13.22c0,2.96-2.4,5.35-5.35,5.35s-5.35-2.4-5.35-5.35,2.4-5.35,5.35-5.35c2.95,0,5.35,2.4,5.35,5.35m5.01-13.22c0,1.85-1.5,3.35-3.35,3.35s-3.35-1.5-3.35-3.35c0-1.85,1.5-3.35,3.35-3.35h0c1.85,0,3.34,1.5,3.35,3.35"/>
            <path id="Trazado_19" data-name="Trazado 19" class="cls-3" d="m1885.2,566.16c0,19.22,15.58,34.8,34.8,34.8h0v-69.6c-19.22,0-34.8,15.58-34.8,34.8h0m28.78,13.22c0,1.85-1.5,3.35-3.35,3.35s-3.35-1.5-3.35-3.35c0-1.85,1.5-3.35,3.35-3.35h0c1.85,0,3.35,1.5,3.35,3.35m-5.01-13.22c0,2.96-2.4,5.35-5.35,5.35s-5.35-2.4-5.35-5.35,2.4-5.35,5.35-5.35c2.95,0,5.35,2.4,5.35,5.35m5.01-13.22c0,1.85-1.5,3.35-3.35,3.35s-3.35-1.5-3.35-3.35c0-1.85,1.5-3.35,3.35-3.35h0c1.85,0,3.35,1.5,3.35,3.35"/>
            <path id="Trazado_20" data-name="Trazado 20" class="cls-3" d="m1885.2,499.74c0,19.22,15.58,34.8,34.8,34.8h0v-69.6c-19.22,0-34.8,15.58-34.8,34.8h0m28.78,13.22c0,1.85-1.5,3.35-3.35,3.35s-3.35-1.5-3.35-3.35c0-1.85,1.5-3.35,3.35-3.35h0c1.85,0,3.35,1.5,3.35,3.35m-5.01-13.22c0,2.96-2.4,5.35-5.35,5.35s-5.35-2.4-5.35-5.35,2.4-5.35,5.35-5.35c2.95,0,5.35,2.4,5.35,5.35m5.01-13.22c0,1.85-1.5,3.35-3.35,3.35s-3.35-1.5-3.35-3.35c0-1.85,1.5-3.35,3.35-3.35h0c1.85,0,3.35,1.5,3.35,3.35"/>
            <path id="Trazado_21" data-name="Trazado 21" class="cls-3" d="m1885.2,433.32c0,19.22,15.58,34.8,34.8,34.8h0v-69.6c-19.22,0-34.8,15.58-34.8,34.8m28.78,13.22c0,1.85-1.5,3.35-3.35,3.35s-3.35-1.5-3.35-3.35c0-1.85,1.5-3.35,3.35-3.35h0c1.85,0,3.35,1.5,3.35,3.35m-5.01-13.22c0,2.96-2.4,5.35-5.35,5.35s-5.35-2.4-5.35-5.35,2.4-5.35,5.35-5.35c2.95,0,5.35,2.4,5.35,5.35m5.01-13.22c0,1.85-1.5,3.35-3.35,3.35s-3.35-1.5-3.35-3.35c0-1.85,1.5-3.35,3.35-3.35h0c1.85,0,3.35,1.5,3.35,3.35"/>
            <path id="Trazado_22" data-name="Trazado 22" class="cls-3" d="m1885.2,366.9c0,19.22,15.58,34.8,34.8,34.8h0v-69.6c-19.22,0-34.8,15.58-34.8,34.8h0m28.78,13.22c0,1.85-1.5,3.35-3.35,3.35s-3.35-1.5-3.35-3.35c0-1.85,1.5-3.35,3.35-3.35h0c1.85,0,3.35,1.5,3.35,3.35m-5.01-13.22c0,2.96-2.4,5.35-5.35,5.35s-5.35-2.4-5.35-5.35,2.4-5.35,5.35-5.35c2.95,0,5.35,2.4,5.35,5.35m5.01-13.22c0,1.85-1.5,3.35-3.35,3.35s-3.35-1.5-3.35-3.35c0-1.85,1.5-3.35,3.35-3.35h0c1.85,0,3.35,1.5,3.35,3.35"/>
            <path id="Trazado_23" data-name="Trazado 23" class="cls-3" d="m1885.2,300.48c0,19.22,15.58,34.8,34.8,34.8v-69.6c-19.22,0-34.8,15.58-34.8,34.8m28.78,13.22c0,1.85-1.5,3.35-3.35,3.35s-3.35-1.5-3.35-3.35c0-1.85,1.5-3.35,3.35-3.35,1.85,0,3.35,1.5,3.35,3.35m-5.01-13.22c0,2.96-2.4,5.35-5.35,5.35s-5.35-2.4-5.35-5.35,2.4-5.35,5.35-5.35c2.95,0,5.35,2.4,5.35,5.35m5.01-13.22c0,1.85-1.5,3.35-3.35,3.35s-3.35-1.5-3.35-3.35c0-1.85,1.5-3.35,3.35-3.35,1.85,0,3.35,1.5,3.35,3.35"/>
            <path id="Trazado_24" data-name="Trazado 24" class="cls-3" d="m1885.2,234.06c0,19.22,15.58,34.8,34.8,34.8v-69.6c-19.22,0-34.8,15.58-34.8,34.8m28.78,13.22c0,1.85-1.5,3.35-3.35,3.35s-3.35-1.5-3.35-3.35c0-1.85,1.5-3.35,3.35-3.35,1.85,0,3.35,1.5,3.35,3.35m-5.01-13.22c0,2.96-2.4,5.35-5.35,5.35s-5.35-2.4-5.35-5.35,2.4-5.35,5.35-5.35c2.95,0,5.35,2.4,5.35,5.35m5.01-13.22c0,1.85-1.5,3.35-3.35,3.35s-3.35-1.5-3.35-3.35c0-1.85,1.5-3.35,3.35-3.35,1.85,0,3.35,1.5,3.35,3.35"/>
            <path id="Trazado_25" data-name="Trazado 25" class="cls-3" d="m1885.2,167.64c0,19.22,15.58,34.8,34.8,34.8v-69.6c-19.22,0-34.8,15.58-34.8,34.8t0,0m28.78,13.22c0,1.85-1.5,3.35-3.35,3.35-1.85,0-3.35-1.5-3.35-3.35,0-1.85,1.5-3.35,3.35-3.35,1.85,0,3.35,1.5,3.35,3.35m-5.01-13.22c0,2.96-2.4,5.35-5.35,5.35s-5.35-2.4-5.35-5.35,2.4-5.35,5.35-5.35c2.95,0,5.35,2.4,5.35,5.35m5.01-13.22c0,1.85-1.5,3.35-3.35,3.35-1.85,0-3.35-1.5-3.35-3.35,0-1.85,1.5-3.35,3.35-3.35,1.85,0,3.35,1.5,3.35,3.35"/>
            <path id="Trazado_26" data-name="Trazado 26" class="cls-3" d="m1885.2,101.22c0,19.22,15.58,34.8,34.8,34.8h0v-69.6c-19.22,0-34.8,15.58-34.8,34.8h0m28.78,13.22c0,1.85-1.5,3.35-3.35,3.35s-3.35-1.5-3.35-3.35,1.5-3.35,3.35-3.35h0c1.85,0,3.35,1.5,3.35,3.35m-5.01-13.22c0,2.96-2.4,5.35-5.35,5.35-2.96,0-5.35-2.4-5.35-5.35,0-2.96,2.4-5.35,5.35-5.35,2.95,0,5.35,2.4,5.35,5.35m5.01-13.22c0,1.85-1.5,3.35-3.35,3.35s-3.35-1.5-3.35-3.35,1.5-3.35,3.35-3.35h0c1.85,0,3.35,1.5,3.35,3.35"/>
            <path id="Trazado_27" data-name="Trazado 27" class="cls-3" d="m1885.2,34.8c0,19.22,15.58,34.8,34.8,34.8h0V0c-19.22,0-34.8,15.58-34.8,34.8h0m28.78,13.22c0,1.85-1.5,3.35-3.35,3.35s-3.35-1.5-3.35-3.35,1.5-3.35,3.35-3.35c1.85,0,3.35,1.5,3.35,3.35m-5-13.22c0,2.96-2.4,5.35-5.35,5.35s-5.35-2.4-5.35-5.35,2.4-5.35,5.35-5.35h0c2.95,0,5.35,2.4,5.35,5.35m5.01-13.22c0,1.85-1.5,3.35-3.35,3.35s-3.35-1.5-3.35-3.35,1.5-3.35,3.35-3.35c1.85,0,3.34,1.5,3.35,3.35"/>
          </g>
        </g>
      </g>
      <g id="Grupo_12" data-name="Grupo 12">
        <g class="cls-6">
          <g id="Grupo_10-2" data-name="Grupo 10-2">
            <path id="Trazado_15-2" data-name="Trazado 15-2" class="cls-3" d="m1885.2,1696.47c0,19.22,15.58,34.8,34.8,34.8h0v-69.6c-19.22,0-34.8,15.58-34.8,34.8h0m28.78,13.22c0,1.85-1.5,3.35-3.35,3.35-1.85,0-3.35-1.5-3.35-3.35,0-1.85,1.5-3.35,3.35-3.35h0c1.85,0,3.35,1.5,3.35,3.35m-5.01-13.22c0,2.96-2.4,5.35-5.35,5.35s-5.35-2.4-5.35-5.35,2.4-5.35,5.35-5.35c2.95,0,5.35,2.4,5.35,5.35m5.01-13.22c0,1.85-1.5,3.35-3.35,3.35-1.85,0-3.35-1.5-3.35-3.35,0-1.85,1.5-3.35,3.35-3.35h0c1.85,0,3.35,1.5,3.35,3.35"/>
            <path id="Trazado_16-2" data-name="Trazado 16-2" class="cls-3" d="m1885.2,1630.05c0,19.22,15.58,34.8,34.8,34.8h0v-69.6c-19.22,0-34.8,15.58-34.8,34.8h0m28.78,13.22c0,1.85-1.5,3.35-3.35,3.35-1.85,0-3.35-1.5-3.35-3.35,0-1.85,1.5-3.35,3.35-3.35h0c1.85,0,3.35,1.5,3.35,3.35m-5-13.22c0,2.96-2.4,5.35-5.35,5.35s-5.35-2.4-5.35-5.35,2.4-5.35,5.35-5.35c2.95,0,5.35,2.4,5.35,5.35m5.01-13.22c0,1.85-1.5,3.35-3.35,3.35-1.85,0-3.35-1.5-3.35-3.35,0-1.85,1.5-3.35,3.35-3.35h0c1.85,0,3.35,1.5,3.35,3.35"/>
            <path id="Trazado_17-2" data-name="Trazado 17-2" class="cls-3" d="m1885.2,1563.63c0,19.22,15.58,34.8,34.8,34.8h0v-69.6c-19.22,0-34.8,15.58-34.8,34.8m28.78,13.22c0,1.85-1.5,3.35-3.35,3.35-1.85,0-3.35-1.5-3.35-3.35,0-1.85,1.5-3.35,3.35-3.35h0c1.85,0,3.35,1.5,3.35,3.35m-5.01-13.22c0,2.96-2.4,5.35-5.35,5.35s-5.35-2.4-5.35-5.35,2.4-5.35,5.35-5.35c2.95,0,5.35,2.4,5.35,5.35m5.01-13.22c0,1.85-1.5,3.35-3.35,3.35-1.85,0-3.35-1.5-3.35-3.35,0-1.85,1.5-3.35,3.35-3.35h0c1.85,0,3.35,1.5,3.35,3.35"/>
            <path id="Trazado_18-2" data-name="Trazado 18-2" class="cls-3" d="m1885.2,1497.21c0,19.22,15.58,34.8,34.8,34.8h0v-69.6c-19.22,0-34.8,15.58-34.8,34.8h0m28.78,13.22c0,1.85-1.5,3.35-3.35,3.35s-3.35-1.5-3.35-3.35c0-1.85,1.5-3.35,3.35-3.35h0c1.85,0,3.35,1.5,3.35,3.35m-5.01-13.22c0,2.96-2.4,5.35-5.35,5.35s-5.35-2.4-5.35-5.35,2.4-5.35,5.35-5.35c2.95,0,5.35,2.4,5.35,5.35m5.01-13.22c0,1.85-1.5,3.35-3.35,3.35s-3.35-1.5-3.35-3.35c0-1.85,1.5-3.35,3.35-3.35h0c1.85,0,3.34,1.5,3.35,3.35"/>
            <path id="Trazado_19-2" data-name="Trazado 19-2" class="cls-3" d="m1885.2,1430.79c0,19.22,15.58,34.8,34.8,34.8h0v-69.6c-19.22,0-34.8,15.58-34.8,34.8h0m28.78,13.22c0,1.85-1.5,3.35-3.35,3.35s-3.35-1.5-3.35-3.35c0-1.85,1.5-3.35,3.35-3.35h0c1.85,0,3.35,1.5,3.35,3.35m-5.01-13.22c0,2.96-2.4,5.35-5.35,5.35s-5.35-2.4-5.35-5.35,2.4-5.35,5.35-5.35c2.95,0,5.35,2.4,5.35,5.35m5.01-13.22c0,1.85-1.5,3.35-3.35,3.35s-3.35-1.5-3.35-3.35c0-1.85,1.5-3.35,3.35-3.35h0c1.85,0,3.35,1.5,3.35,3.35"/>
            <path id="Trazado_20-2" data-name="Trazado 20-2" class="cls-3" d="m1885.2,1364.37c0,19.22,15.58,34.8,34.8,34.8h0v-69.6c-19.22,0-34.8,15.58-34.8,34.8h0m28.78,13.22c0,1.85-1.5,3.35-3.35,3.35s-3.35-1.5-3.35-3.35c0-1.85,1.5-3.35,3.35-3.35h0c1.85,0,3.35,1.5,3.35,3.35m-5.01-13.22c0,2.96-2.4,5.35-5.35,5.35s-5.35-2.4-5.35-5.35,2.4-5.35,5.35-5.35c2.95,0,5.35,2.4,5.35,5.35m5.01-13.22c0,1.85-1.5,3.35-3.35,3.35s-3.35-1.5-3.35-3.35c0-1.85,1.5-3.35,3.35-3.35h0c1.85,0,3.35,1.5,3.35,3.35"/>
            <path id="Trazado_21-2" data-name="Trazado 21-2" class="cls-3" d="m1885.2,1297.95c0,19.22,15.58,34.8,34.8,34.8h0v-69.6c-19.22,0-34.8,15.58-34.8,34.8m28.78,13.22c0,1.85-1.5,3.35-3.35,3.35s-3.35-1.5-3.35-3.35c0-1.85,1.5-3.35,3.35-3.35h0c1.85,0,3.35,1.5,3.35,3.35m-5.01-13.22c0,2.96-2.4,5.35-5.35,5.35s-5.35-2.4-5.35-5.35,2.4-5.35,5.35-5.35c2.95,0,5.35,2.4,5.35,5.35m5.01-13.22c0,1.85-1.5,3.35-3.35,3.35s-3.35-1.5-3.35-3.35c0-1.85,1.5-3.35,3.35-3.35h0c1.85,0,3.35,1.5,3.35,3.35"/>
            <path id="Trazado_22-2" data-name="Trazado 22-2" class="cls-3" d="m1885.2,1231.53c0,19.22,15.58,34.8,34.8,34.8h0v-69.6c-19.22,0-34.8,15.58-34.8,34.8h0m28.78,13.22c0,1.85-1.5,3.35-3.35,3.35s-3.35-1.5-3.35-3.35c0-1.85,1.5-3.35,3.35-3.35h0c1.85,0,3.35,1.5,3.35,3.35m-5.01-13.22c0,2.96-2.4,5.35-5.35,5.35s-5.35-2.4-5.35-5.35,2.4-5.35,5.35-5.35c2.95,0,5.35,2.4,5.35,5.35m5.01-13.22c0,1.85-1.5,3.35-3.35,3.35s-3.35-1.5-3.35-3.35c0-1.85,1.5-3.35,3.35-3.35h0c1.85,0,3.35,1.5,3.35,3.35"/>
            <path id="Trazado_23-2" data-name="Trazado 23-2" class="cls-3" d="m1885.2,1165.11c0,19.22,15.58,34.8,34.8,34.8v-69.6c-19.22,0-34.8,15.58-34.8,34.8m28.78,13.22c0,1.85-1.5,3.35-3.35,3.35s-3.35-1.5-3.35-3.35c0-1.85,1.5-3.35,3.35-3.35,1.85,0,3.35,1.5,3.35,3.35m-5.01-13.22c0,2.96-2.4,5.35-5.35,5.35s-5.35-2.4-5.35-5.35,2.4-5.35,5.35-5.35c2.95,0,5.35,2.4,5.35,5.35m5.01-13.22c0,1.85-1.5,3.35-3.35,3.35s-3.35-1.5-3.35-3.35c0-1.85,1.5-3.35,3.35-3.35,1.85,0,3.35,1.5,3.35,3.35"/>
            <path id="Trazado_24-2" data-name="Trazado 24-2" class="cls-3" d="m1885.2,1098.69c0,19.22,15.58,34.8,34.8,34.8v-69.6c-19.22,0-34.8,15.58-34.8,34.8m28.78,13.22c0,1.85-1.5,3.35-3.35,3.35s-3.35-1.5-3.35-3.35c0-1.85,1.5-3.35,3.35-3.35,1.85,0,3.35,1.5,3.35,3.35m-5.01-13.22c0,2.96-2.4,5.35-5.35,5.35s-5.35-2.4-5.35-5.35,2.4-5.35,5.35-5.35c2.95,0,5.35,2.4,5.35,5.35m5.01-13.22c0,1.85-1.5,3.35-3.35,3.35s-3.35-1.5-3.35-3.35c0-1.85,1.5-3.35,3.35-3.35,1.85,0,3.35,1.5,3.35,3.35"/>
            <path id="Trazado_25-2" data-name="Trazado 25-2" class="cls-3" d="m1885.2,1032.27c0,19.22,15.58,34.8,34.8,34.8v-69.6c-19.22,0-34.8,15.58-34.8,34.8t0,0m28.78,13.22c0,1.85-1.5,3.35-3.35,3.35-1.85,0-3.35-1.5-3.35-3.35,0-1.85,1.5-3.35,3.35-3.35,1.85,0,3.35,1.5,3.35,3.35m-5.01-13.22c0,2.96-2.4,5.35-5.35,5.35s-5.35-2.4-5.35-5.35,2.4-5.35,5.35-5.35c2.95,0,5.35,2.4,5.35,5.35m5.01-13.22c0,1.85-1.5,3.35-3.35,3.35-1.85,0-3.35-1.5-3.35-3.35,0-1.85,1.5-3.35,3.35-3.35,1.85,0,3.35,1.5,3.35,3.35"/>
            <path id="Trazado_26-2" data-name="Trazado 26-2" class="cls-3" d="m1885.2,965.85c0,19.22,15.58,34.8,34.8,34.8h0v-69.6c-19.22,0-34.8,15.58-34.8,34.8h0m28.78,13.22c0,1.85-1.5,3.35-3.35,3.35s-3.35-1.5-3.35-3.35,1.5-3.35,3.35-3.35h0c1.85,0,3.35,1.5,3.35,3.35m-5.01-13.22c0,2.96-2.4,5.35-5.35,5.35-2.96,0-5.35-2.4-5.35-5.35,0-2.96,2.4-5.35,5.35-5.35,2.95,0,5.35,2.4,5.35,5.35m5.01-13.22c0,1.85-1.5,3.35-3.35,3.35s-3.35-1.5-3.35-3.35,1.5-3.35,3.35-3.35h0c1.85,0,3.35,1.5,3.35,3.35"/>
            <path id="Trazado_27-2" data-name="Trazado 27-2" class="cls-3" d="m1885.2,899.44c0,19.22,15.58,34.8,34.8,34.8h0v-69.6c-19.22,0-34.8,15.58-34.8,34.8h0m28.78,13.22c0,1.85-1.5,3.35-3.35,3.35s-3.35-1.5-3.35-3.35,1.5-3.35,3.35-3.35c1.85,0,3.35,1.5,3.35,3.35m-5-13.22c0,2.96-2.4,5.35-5.35,5.35s-5.35-2.4-5.35-5.35,2.4-5.35,5.35-5.35h0c2.95,0,5.35,2.4,5.35,5.35m5.01-13.22c0,1.85-1.5,3.35-3.35,3.35s-3.35-1.5-3.35-3.35,1.5-3.35,3.35-3.35c1.85,0,3.34,1.5,3.35,3.35"/>
          </g>
        </g>
      </g>
      <g id="Grupo_11" data-name="Grupo 11">
        <g class="cls-5">
          <g id="Grupo_8-2" data-name="Grupo 8-2">
            <path id="Trazado_2-2" data-name="Trazado 2-2" class="cls-3" d="m0,1661.67v69.6c19.22,0,34.8-15.58,34.8-34.8h0c0-19.22-15.58-34.8-34.8-34.8h0m9.37,44.68c1.85,0,3.35,1.5,3.35,3.35s-1.5,3.35-3.35,3.35-3.35-1.5-3.35-3.35h0c0-1.85,1.5-3.35,3.35-3.35m7.01-15.23c2.96,0,5.35,2.4,5.35,5.35s-2.4,5.35-5.35,5.35-5.35-2.4-5.35-5.35c0-2.95,2.37-5.34,5.32-5.35h.04m-7.01-11.22c1.85,0,3.35,1.5,3.35,3.35s-1.5,3.35-3.35,3.35-3.35-1.5-3.35-3.35h0c0-1.85,1.5-3.34,3.35-3.35"/>
            <path id="Trazado_3-2" data-name="Trazado 3-2" class="cls-3" d="m0,1595.25v69.6c19.22,0,34.8-15.58,34.8-34.8s-15.58-34.8-34.8-34.8m9.37,44.68c1.85,0,3.35,1.5,3.35,3.35s-1.5,3.35-3.35,3.35-3.35-1.5-3.35-3.35h0c0-1.85,1.5-3.34,3.35-3.35m7.01-15.23c2.96,0,5.35,2.4,5.35,5.35s-2.4,5.35-5.35,5.35-5.35-2.4-5.35-5.35c-.01-2.95,2.37-5.34,5.32-5.35h.04m-7.01-11.22c1.85,0,3.35,1.5,3.35,3.35s-1.5,3.35-3.35,3.35-3.35-1.5-3.35-3.35h0c0-1.85,1.5-3.34,3.35-3.35"/>
            <path id="Trazado_4-2" data-name="Trazado 4-2" class="cls-3" d="m0,1528.83v69.6c19.22,0,34.8-15.58,34.8-34.8h0c0-19.22-15.58-34.8-34.8-34.8h0m9.37,44.68c1.85,0,3.35,1.5,3.35,3.35s-1.5,3.35-3.35,3.35-3.35-1.5-3.35-3.35h0c0-1.85,1.5-3.35,3.35-3.35m7.01-15.23c2.96,0,5.35,2.4,5.35,5.35s-2.4,5.35-5.35,5.35-5.35-2.4-5.35-5.35c-.01-2.95,2.37-5.34,5.32-5.35h.04m-7.01-11.22c1.85,0,3.35,1.5,3.35,3.35s-1.5,3.35-3.35,3.35-3.35-1.5-3.35-3.35c0-1.85,1.5-3.35,3.35-3.35"/>
            <path id="Trazado_5-2" data-name="Trazado 5-2" class="cls-3" d="m0,1462.41v69.6c19.22.02,34.81-15.55,34.83-34.77.02-19.22-15.55-34.81-34.77-34.83h-.06m9.37,44.68c1.85,0,3.35,1.5,3.35,3.35s-1.5,3.35-3.35,3.35-3.35-1.5-3.35-3.35h0c0-1.85,1.5-3.34,3.35-3.35m7.01-15.23c2.96,0,5.35,2.4,5.35,5.35s-2.4,5.35-5.35,5.35-5.35-2.4-5.35-5.35c-.01-2.95,2.37-5.34,5.32-5.35h.04m-7.01-11.22c1.85,0,3.35,1.5,3.35,3.35s-1.5,3.35-3.35,3.35-3.35-1.5-3.35-3.35h0c0-1.85,1.5-3.35,3.35-3.35"/>
            <path id="Trazado_6-2" data-name="Trazado 6-2" class="cls-3" d="m0,1395.99v69.6c19.22,0,34.8-15.58,34.8-34.8h0c0-19.22-15.58-34.8-34.8-34.8h0m9.37,44.68c1.85,0,3.35,1.5,3.35,3.35s-1.5,3.35-3.35,3.35-3.35-1.5-3.35-3.35h0c0-1.85,1.5-3.34,3.35-3.35m7.01-15.23c2.96,0,5.35,2.4,5.35,5.35s-2.4,5.35-5.35,5.35-5.35-2.4-5.35-5.35c-.01-2.95,2.37-5.34,5.32-5.35h.04m-7.01-11.22c1.85,0,3.35,1.5,3.35,3.35s-1.5,3.35-3.35,3.35-3.35-1.5-3.35-3.35h0c0-1.85,1.5-3.34,3.35-3.35"/>
            <path id="Trazado_7-2" data-name="Trazado 7-2" class="cls-3" d="m0,1329.57v69.6c19.22,0,34.8-15.58,34.8-34.8h0c0-19.22-15.58-34.8-34.8-34.8h0m9.37,44.68c1.85,0,3.35,1.5,3.35,3.35s-1.5,3.35-3.35,3.35-3.35-1.5-3.35-3.35h0c0-1.85,1.5-3.35,3.35-3.35m7.01-15.23c2.96,0,5.35,2.4,5.35,5.35s-2.4,5.35-5.35,5.35-5.35-2.4-5.35-5.35c-.01-2.95,2.37-5.34,5.32-5.35h.04m-7.01-11.22c1.85,0,3.35,1.5,3.35,3.35s-1.5,3.35-3.35,3.35-3.35-1.5-3.35-3.35h0c0-1.85,1.5-3.35,3.35-3.35"/>
            <path id="Trazado_8-2" data-name="Trazado 8-2" class="cls-3" d="m0,1263.15v69.6c19.22,0,34.8-15.58,34.8-34.8h0c0-19.22-15.58-34.8-34.8-34.8h0m9.37,44.68c1.85,0,3.35,1.5,3.35,3.35s-1.5,3.35-3.35,3.35-3.35-1.5-3.35-3.35h0c0-1.85,1.5-3.34,3.35-3.35m7.01-15.23c2.96,0,5.35,2.4,5.35,5.35s-2.4,5.35-5.35,5.35-5.35-2.4-5.35-5.35c-.01-2.95,2.37-5.34,5.32-5.35h.04m-7.01-11.22c1.85,0,3.35,1.5,3.35,3.35s-1.5,3.35-3.35,3.35-3.35-1.5-3.35-3.35h0c0-1.85,1.5-3.34,3.35-3.35"/>
            <path id="Trazado_9-2" data-name="Trazado 9-2" class="cls-3" d="m0,1196.73v69.6c19.22,0,34.8-15.58,34.8-34.8h0c0-19.22-15.58-34.8-34.8-34.8m9.37,44.67c1.85,0,3.35,1.5,3.35,3.35s-1.5,3.35-3.35,3.35-3.35-1.5-3.35-3.35h0c0-1.85,1.5-3.35,3.35-3.35m7.01-15.23c2.96,0,5.35,2.4,5.35,5.35s-2.4,5.35-5.35,5.35-5.35-2.4-5.35-5.35c-.01-2.95,2.37-5.34,5.32-5.35h.04m-7.01-11.22c1.85,0,3.35,1.5,3.35,3.35s-1.5,3.35-3.35,3.35-3.35-1.5-3.35-3.35h0c0-1.85,1.5-3.34,3.35-3.35"/>
            <path id="Trazado_10-2" data-name="Trazado 10-2" class="cls-3" d="m0,1130.31v69.6c19.22,0,34.8-15.58,34.8-34.8,0-19.22-15.58-34.8-34.8-34.8m9.37,44.68c1.85,0,3.35,1.5,3.35,3.35s-1.5,3.35-3.35,3.35-3.35-1.5-3.35-3.35c0,0,0,0,0,0,0-1.85,1.5-3.35,3.35-3.35m7.01-15.23c2.96,0,5.35,2.4,5.35,5.35s-2.4,5.35-5.35,5.35-5.35-2.4-5.35-5.35c-.01-2.95,2.37-5.34,5.32-5.35.01,0,.03,0,.04,0m-7.01-11.21c1.85,0,3.35,1.5,3.35,3.35s-1.5,3.35-3.35,3.35-3.35-1.5-3.35-3.35c0-1.85,1.5-3.35,3.35-3.35"/>
            <path id="Trazado_11-2" data-name="Trazado 11-2" class="cls-3" d="m0,1063.89v69.6c19.22,0,34.8-15.58,34.8-34.8,0-19.22-15.58-34.8-34.8-34.8m9.37,44.68c1.85,0,3.35,1.5,3.35,3.35s-1.5,3.35-3.35,3.35-3.35-1.5-3.35-3.35c0-1.85,1.5-3.34,3.35-3.35m7.01-15.23c2.96,0,5.35,2.4,5.35,5.35s-2.4,5.35-5.35,5.35-5.35-2.4-5.35-5.35c-.01-2.95,2.37-5.34,5.32-5.35.01,0,.03,0,.04,0m-7.01-11.22c1.85,0,3.35,1.5,3.35,3.35s-1.5,3.35-3.35,3.35-3.35-1.5-3.35-3.35c0-1.85,1.5-3.34,3.35-3.35"/>
            <path id="Trazado_12-2" data-name="Trazado 12-2" class="cls-3" d="m0,997.47v69.6c19.22,0,34.8-15.58,34.8-34.8,0-19.22-15.58-34.8-34.8-34.8h0m9.37,44.68c1.85,0,3.35,1.5,3.35,3.35s-1.5,3.35-3.35,3.35-3.35-1.5-3.35-3.35c0-1.85,1.5-3.35,3.35-3.35m7.01-15.23c2.96,0,5.35,2.4,5.35,5.35s-2.4,5.35-5.35,5.35-5.35-2.4-5.35-5.35c-.01-2.95,2.37-5.34,5.32-5.35.01,0,.03,0,.04,0m-7.01-11.22c1.85,0,3.35,1.5,3.35,3.35s-1.5,3.35-3.35,3.35-3.35-1.5-3.35-3.35c0-1.85,1.5-3.35,3.35-3.35"/>
            <path id="Trazado_13-2" data-name="Trazado 13-2" class="cls-3" d="m0,931.06v69.6c19.22,0,34.8-15.58,34.8-34.8h0c0-19.22-15.58-34.8-34.8-34.8h0m9.37,44.68c1.85,0,3.35,1.5,3.35,3.35s-1.5,3.35-3.35,3.35-3.35-1.5-3.35-3.35h0c0-1.85,1.5-3.35,3.35-3.35m7.01-15.23c2.96,0,5.35,2.4,5.35,5.35s-2.4,5.35-5.35,5.35-5.35-2.4-5.35-5.35h0c0-2.95,2.37-5.34,5.32-5.35.01,0,.02,0,.04,0m-7.01-11.22c1.85,0,3.35,1.5,3.35,3.35s-1.5,3.35-3.35,3.35-3.35-1.5-3.35-3.35h0c0-1.85,1.5-3.35,3.35-3.35"/>
            <path id="Trazado_14-2" data-name="Trazado 14-2" class="cls-3" d="m0,864.64v69.6c19.22,0,34.8-15.58,34.8-34.8h0C34.8,880.22,19.22,864.64,0,864.64h0m9.37,44.68c1.85,0,3.35,1.5,3.35,3.35s-1.5,3.35-3.35,3.35-3.35-1.5-3.35-3.35c0-1.85,1.5-3.34,3.35-3.35m7.01-15.23c2.96,0,5.35,2.4,5.35,5.35s-2.4,5.35-5.35,5.35-5.35-2.4-5.35-5.35c-.01-2.95,2.37-5.34,5.32-5.35.01,0,.03,0,.04,0m-7.01-11.22c1.85,0,3.35,1.5,3.35,3.35s-1.5,3.35-3.35,3.35-3.35-1.5-3.35-3.35c0-1.85,1.5-3.34,3.35-3.35"/>
          </g>
        </g>
      </g>
    </g>
  </g>
</svg>