<?xml version="1.0" encoding="UTF-8"?>
<svg id="Capa_2" data-name="Capa 2" xmlns="http://www.w3.org/2000/svg" xmlns:xlink="http://www.w3.org/1999/xlink" viewBox="0 0 1791.32 80.7">
  <defs>
    <style>
      .cls-1 {
        clip-path: url(#clippath);
      }

      .cls-2 {
        fill: none;
      }

      .cls-2, .cls-3, .cls-4 {
        stroke-width: 0px;
      }

      .cls-3 {
        fill: #db3614;
      }

      .cls-4 {
        fill: #fce900;
      }
    </style>
    <clipPath id="clippath">
      <rect class="cls-2" width="1791.32" height="80.7"/>
    </clipPath>
  </defs>
  <g id="Capa_1-2" data-name="Capa 1">
    <g id="Grupo_40" data-name="Grupo 40">
      <g class="cls-1">
        <g id="Grupo_39" data-name="Grupo 39">
          <path id="Trazado_1563" data-name="Trazado 1563" class="cls-3" d="m1591.58.09c-3.19,3.83-6.02,8-8.91,12.06-.1.18-.07.4.07.54,2.35,2.8,4.69,5.61,7.01,8.44.79.95,1.76,2.89,3.26,2.97,1.14.06,2.1-1.48,2.73-2.13,2.76-2.84,5.51-5.72,8.13-8.68.12-.13.15-.32.06-.48-3.24-4.89-7.4-9.1-12.25-12.4-.12-.07-.27-.03-.34.09-.06.1-.04.23.04.31,2.89,2.74,6.06,5.07,8.65,8.13,2.43,2.85,2.9,4.12.34,6.85-1.68,1.79-3.32,4.05-5.24,5.57-2.56,2.04-3.4.83-5.31-1.48-1.55-1.64-2.99-3.38-4.31-5.2-1.92-3.05-.19-4.63,1.75-7.36,1.62-2.27,3.28-4.52,4.74-6.89.16-.26-.23-.58-.43-.34"/>
          <path id="Trazado_1564" data-name="Trazado 1564" class="cls-3" d="m1642.83,2.4c-3.19,3.83-6.02,8-8.9,12.06-.1.18-.07.4.07.54,2.35,2.8,4.69,5.61,7.01,8.44.79.95,1.76,2.89,3.26,2.97,1.13.06,2.1-1.48,2.73-2.13,2.76-2.84,5.51-5.72,8.13-8.68.12-.13.15-.32.06-.48-3.24-4.89-7.4-9.1-12.25-12.4-.12-.07-.28-.02-.34.1-.05.1-.04.21.04.29,2.89,2.74,6.06,5.07,8.66,8.13,2.43,2.85,2.9,4.12.33,6.85-1.68,1.79-3.32,4.05-5.24,5.57-2.56,2.04-3.4.83-5.31-1.48-1.55-1.64-2.99-3.38-4.31-5.2-1.92-3.05-.19-4.63,1.75-7.36,1.62-2.27,3.28-4.52,4.74-6.89.16-.26-.23-.58-.43-.34"/>
          <path id="Trazado_1565" data-name="Trazado 1565" class="cls-4" d="m1623.52,13.93c-.15,2.77-2.53,4.9-5.3,4.74s-4.9-2.53-4.74-5.3c.15-2.77,2.53-4.9,5.3-4.74,2.77.15,4.9,2.52,4.75,5.3,0,0,0,0,0,0"/>
          <path id="Trazado_1566" data-name="Trazado 1566" class="cls-4" d="m1677.94,18.86c-.93,2.62-3.81,3.98-6.43,3.04-2.62-.93-3.98-3.81-3.04-6.43.93-2.62,3.81-3.98,6.43-3.04,2.62.93,3.98,3.81,3.05,6.43,0,0,0,0,0,0"/>
          <path id="Trazado_1567" data-name="Trazado 1567" class="cls-3" d="m1706.35,10c-3.48,3.53-6.61,7.42-9.81,11.2-.14.15-.17.37-.07.54,2.27,3.22,4.46,6.5,6.77,9.69.56.78,1.37,2.47,2.54,2.59,1.1.11,2.3-1.34,2.95-1.92,2.97-2.61,5.96-5.24,8.82-7.98.12-.13.15-.32.06-.48-2.83-5.13-6.63-9.66-11.18-13.35-.24-.18-.48.19-.3.4,2.8,3.14,5.9,5.87,8.34,9.35,1.71,2.44,2.01,3.48-.03,5.76-1.36,1.52-3.93,4.24-5.68,5.12-3.6,1.8-5.33-.74-7.18-3.39-1.2-1.73-3.43-3.86-3.28-5.98.16-2.21,2.9-4.41,4.32-6.09s2.84-3.36,4.16-5.13c.19-.26-.22-.55-.43-.34"/>
          <path id="Trazado_1568" data-name="Trazado 1568" class="cls-3" d="m1757.22,16.55c-3.48,3.53-6.61,7.42-9.81,11.2-.14.15-.17.37-.07.54,2.27,3.22,4.46,6.5,6.77,9.69.56.78,1.37,2.47,2.54,2.59,1.1.11,2.3-1.34,2.95-1.92,2.97-2.61,5.96-5.24,8.82-7.98.12-.13.15-.32.06-.48-2.83-5.13-6.63-9.66-11.18-13.35-.24-.18-.48.19-.3.4,2.8,3.14,5.9,5.87,8.34,9.35,1.71,2.44,2.01,3.48-.03,5.76-1.36,1.52-3.93,4.24-5.68,5.12-3.6,1.8-5.33-.74-7.18-3.39-1.2-1.73-3.43-3.86-3.28-5.98.16-2.21,2.9-4.41,4.32-6.09s2.84-3.36,4.16-5.13c.19-.26-.22-.55-.43-.33"/>
          <path id="Trazado_1569" data-name="Trazado 1569" class="cls-4" d="m1737.04,26.43c-.38,2.75-2.92,4.67-5.67,4.29-2.75-.38-4.67-2.92-4.29-5.67.38-2.75,2.92-4.67,5.67-4.29,2.75.38,4.67,2.92,4.29,5.67,0,0,0,0,0,0"/>
          <path id="Trazado_1570" data-name="Trazado 1570" class="cls-4" d="m1790.87,35.85c-1.15,2.53-4.13,3.65-6.66,2.5-2.53-1.15-3.65-4.13-2.5-6.66,1.15-2.53,4.13-3.65,6.66-2.5,0,0,0,0,0,0,2.53,1.15,3.65,4.13,2.5,6.66"/>
          <path id="Trazado_1571" data-name="Trazado 1571" class="cls-3" d="m1363.5,16.64c-2.42,4.31-4.38,8.92-6.44,13.42-.1.18-.07.4.07.54,3.05,2.49,6.05,5.06,9.12,7.51.75.6,1.98,2.02,3.15,1.82,1.14-.2,1.85-1.9,2.33-2.63,2.17-3.31,4.33-6.65,6.36-10.05.09-.15.06-.35-.06-.48-4.1-4.18-8.98-7.53-14.35-9.86-.27-.11-.42.31-.19.46,3.78,2.42,7.66,4.34,11.12,7.26,2.8,2.35,1.71,3.85.03,6.5-1.07,1.69-2.54,5.34-4.1,6.45-2.29,1.62-4.95-1.14-6.92-2.76-1.72-1.42-5.27-3.21-5.07-5.81.14-1.77,2.04-4.37,2.79-6.01.94-2.04,1.89-4.06,2.68-6.16.11-.3-.35-.48-.51-.21"/>
          <path id="Trazado_1572" data-name="Trazado 1572" class="cls-3" d="m1414.27,9.3c-2.42,4.31-4.38,8.92-6.44,13.42-.1.18-.07.4.07.54,3.05,2.49,6.05,5.06,9.12,7.51.75.6,1.98,2.02,3.15,1.82,1.14-.2,1.85-1.9,2.33-2.63,2.17-3.31,4.33-6.65,6.36-10.05.09-.15.06-.35-.06-.48-4.1-4.18-8.98-7.53-14.35-9.86-.27-.11-.42.31-.19.46,3.78,2.42,7.66,4.34,11.12,7.26,2.8,2.35,1.71,3.85.03,6.5-1.07,1.69-2.54,5.34-4.1,6.45-2.29,1.62-4.95-1.14-6.92-2.76-1.72-1.42-5.27-3.21-5.07-5.81.14-1.77,2.04-4.37,2.79-6.01.94-2.04,1.89-4.06,2.68-6.16.11-.3-.35-.48-.51-.21"/>
          <path id="Trazado_1573" data-name="Trazado 1573" class="cls-4" d="m1397.47,24.24c.37,2.75-1.56,5.28-4.31,5.65s-5.28-1.56-5.65-4.31c-.37-2.75,1.56-5.28,4.31-5.65,2.75-.37,5.28,1.56,5.66,4.31"/>
          <path id="Trazado_1574" data-name="Trazado 1574" class="cls-4" d="m1451.86,18.88c-.43,2.74-3,4.62-5.74,4.2-2.74-.43-4.62-3-4.2-5.74.43-2.74,3-4.62,5.74-4.2,2.74.42,4.63,2.99,4.2,5.74,0,0,0,0,0,0"/>
          <path id="Trazado_1575" data-name="Trazado 1575" class="cls-3" d="m1478.09,4.87c-2.77,4.1-5.11,8.54-7.54,12.85-.1.18-.07.4.07.54,2.84,2.73,5.62,5.52,8.47,8.24.66.63,1.81,2.18,3,2.04,1.09-.13,1.99-1.77,2.52-2.45,2.43-3.13,4.87-6.27,7.17-9.49.09-.15.06-.35-.06-.48-3.73-4.49-8.29-8.22-13.43-10.98-.12-.07-.27-.03-.34.09-.07.12-.03.27.09.34,3.55,2.71,7.31,4.98,10.48,8.17,2.18,2.19,1.82,2.94.48,5.13-1.31,2.2-2.86,4.24-4.62,6.09-1.29,1.24-2.57,2.12-4.07,1.51-.81-.33-1.78-1.74-2.42-2.36-1.54-1.5-4.5-3.38-5.43-5.31-1.04-2.16,1.14-4.59,2.16-6.39,1.36-2.4,2.77-4.78,3.95-7.28.08-.13.03-.3-.1-.38-.13-.08-.3-.03-.38.1"/>
          <path id="Trazado_1576" data-name="Trazado 1576" class="cls-3" d="m1529.29,1.77c-2.77,4.1-5.11,8.54-7.54,12.85-.1.18-.07.4.07.54,2.84,2.73,5.62,5.52,8.47,8.24.66.63,1.81,2.18,3,2.04,1.09-.13,1.99-1.77,2.52-2.45,2.43-3.13,4.87-6.27,7.17-9.49.09-.15.06-.35-.06-.48-3.73-4.49-8.28-8.22-13.43-10.98-.12-.06-.28-.01-.34.11-.06.11-.02.25.08.32,3.55,2.71,7.31,4.98,10.48,8.17,2.18,2.19,1.82,2.94.48,5.13-1.31,2.2-2.86,4.24-4.62,6.09-1.29,1.24-2.57,2.12-4.07,1.51-.81-.33-1.78-1.74-2.42-2.36-1.54-1.5-4.5-3.38-5.43-5.31-1.04-2.16,1.14-4.59,2.16-6.39,1.36-2.4,2.77-4.78,3.95-7.28.08-.13.03-.3-.1-.38s-.3-.03-.38.1"/>
          <path id="Trazado_1577" data-name="Trazado 1577" class="cls-4" d="m1511.33,15.24c.14,2.77-1.99,5.14-4.77,5.28-2.77.14-5.14-1.99-5.28-4.77-.14-2.77,1.99-5.14,4.77-5.28,2.77-.14,5.14,1.99,5.28,4.77"/>
          <path id="Trazado_1578" data-name="Trazado 1578" class="cls-4" d="m1565.97,14.4c-.65,2.7-3.37,4.36-6.07,3.71-2.7-.65-4.36-3.37-3.71-6.07.65-2.7,3.37-4.36,6.07-3.71,0,0,0,0,0,0,2.7.66,4.35,3.37,3.7,6.07"/>
          <path id="Trazado_1579" data-name="Trazado 1579" class="cls-3" d="m683.58,13.09c-3.19,3.83-6.02,7.99-8.9,12.06-.1.18-.07.4.07.54,2.35,2.8,4.69,5.61,7.01,8.44.79.95,1.76,2.89,3.26,2.97,1.13.06,2.1-1.48,2.73-2.13,2.76-2.84,5.51-5.72,8.13-8.68.12-.13.15-.32.06-.48-3.24-4.89-7.4-9.1-12.25-12.4-.12-.07-.27-.04-.35.08-.06.1-.05.24.04.32,2.89,2.74,6.06,5.07,8.66,8.12,2.43,2.85,2.9,4.12.34,6.85-1.68,1.79-3.32,4.05-5.24,5.57-2.57,2.04-3.4.83-5.31-1.48-1.55-1.64-2.99-3.38-4.31-5.2-1.92-3.05-.19-4.63,1.75-7.36,1.62-2.27,3.28-4.52,4.74-6.89.16-.26-.23-.58-.43-.34"/>
          <path id="Trazado_1580" data-name="Trazado 1580" class="cls-3" d="m734.83,15.4c-3.19,3.83-6.02,8-8.9,12.06-.1.18-.07.4.07.54,2.35,2.8,4.69,5.61,7.01,8.44.79.95,1.76,2.89,3.26,2.97,1.13.06,2.1-1.48,2.73-2.13,2.76-2.84,5.51-5.72,8.13-8.68.12-.13.15-.32.06-.48-3.24-4.89-7.4-9.1-12.25-12.4-.12-.07-.28-.02-.34.1-.05.1-.03.22.04.3,2.89,2.74,6.06,5.07,8.66,8.12,2.43,2.85,2.9,4.12.34,6.85-1.68,1.79-3.32,4.05-5.24,5.57-2.57,2.04-3.4.83-5.31-1.48-1.55-1.64-2.99-3.38-4.31-5.2-1.92-3.05-.19-4.63,1.75-7.36,1.62-2.27,3.28-4.52,4.74-6.89.16-.26-.23-.58-.43-.34"/>
          <path id="Trazado_1581" data-name="Trazado 1581" class="cls-4" d="m715.52,26.94c-.15,2.77-2.53,4.9-5.3,4.74s-4.9-2.53-4.74-5.3c.15-2.77,2.53-4.9,5.3-4.74,2.77.15,4.9,2.52,4.75,5.3,0,0,0,0,0,0"/>
          <path id="Trazado_1582" data-name="Trazado 1582" class="cls-4" d="m769.95,31.86c-.93,2.62-3.81,3.98-6.43,3.04-2.62-.93-3.98-3.81-3.04-6.43.93-2.62,3.81-3.98,6.43-3.04,2.62.93,3.98,3.81,3.05,6.43,0,0,0,0,0,0"/>
          <path id="Trazado_1583" data-name="Trazado 1583" class="cls-3" d="m798.35,23c-3.48,3.53-6.61,7.42-9.81,11.2-.14.15-.17.37-.07.54,2.27,3.22,4.47,6.49,6.77,9.69.56.78,1.37,2.47,2.54,2.59,1.1.11,2.29-1.34,2.95-1.92,2.97-2.61,5.96-5.24,8.82-7.98.12-.13.15-.32.06-.48-2.83-5.13-6.63-9.66-11.18-13.35-.24-.18-.48.19-.3.4,2.8,3.14,5.9,5.87,8.34,9.35,1.71,2.44,2.01,3.48-.03,5.76-1.36,1.52-3.92,4.24-5.68,5.12-3.6,1.8-5.33-.74-7.18-3.39-1.2-1.73-3.43-3.86-3.28-5.98.16-2.21,2.9-4.41,4.33-6.09s2.84-3.36,4.16-5.13c.19-.26-.22-.55-.43-.33"/>
          <path id="Trazado_1584" data-name="Trazado 1584" class="cls-3" d="m849.22,29.55c-3.48,3.53-6.61,7.42-9.81,11.2-.14.15-.17.37-.07.54,2.27,3.22,4.47,6.5,6.77,9.69.56.78,1.37,2.47,2.54,2.59,1.1.11,2.29-1.34,2.95-1.92,2.97-2.61,5.96-5.24,8.82-7.98.12-.13.15-.32.06-.48-2.83-5.13-6.63-9.66-11.18-13.35-.24-.18-.48.19-.3.4,2.8,3.14,5.9,5.87,8.34,9.35,1.71,2.44,2.01,3.48-.03,5.76-1.36,1.52-3.92,4.24-5.68,5.12-3.6,1.8-5.33-.74-7.18-3.39-1.2-1.73-3.43-3.86-3.28-5.98.16-2.21,2.9-4.41,4.33-6.09s2.84-3.36,4.16-5.13c.19-.26-.22-.55-.43-.33"/>
          <path id="Trazado_1585" data-name="Trazado 1585" class="cls-4" d="m829.04,39.43c-.38,2.75-2.92,4.67-5.67,4.29-2.75-.38-4.67-2.92-4.29-5.67.38-2.75,2.92-4.67,5.67-4.29,2.75.38,4.67,2.92,4.29,5.67"/>
          <path id="Trazado_1586" data-name="Trazado 1586" class="cls-4" d="m882.87,48.85c-1.15,2.53-4.13,3.65-6.66,2.5-2.53-1.15-3.65-4.13-2.5-6.66,1.15-2.53,4.13-3.65,6.66-2.5,0,0,0,0,0,0,2.53,1.15,3.65,4.13,2.5,6.66"/>
          <path id="Trazado_1587" data-name="Trazado 1587" class="cls-3" d="m455.5,29.64c-2.42,4.31-4.38,8.92-6.44,13.42-.1.18-.07.4.07.54,3.05,2.49,6.05,5.06,9.12,7.51.75.6,1.98,2.02,3.15,1.82,1.14-.2,1.85-1.9,2.33-2.63,2.17-3.31,4.33-6.65,6.36-10.05.09-.15.06-.35-.06-.48-4.1-4.18-8.98-7.53-14.36-9.86-.27-.11-.42.31-.19.46,3.77,2.42,7.66,4.34,11.12,7.26,2.8,2.35,1.71,3.85.03,6.5-1.08,1.69-2.54,5.35-4.1,6.45-2.29,1.62-4.95-1.14-6.92-2.76-1.72-1.42-5.27-3.21-5.07-5.81.14-1.77,2.04-4.37,2.79-6.01.94-2.04,1.89-4.06,2.68-6.16.11-.3-.35-.48-.51-.21"/>
          <path id="Trazado_1588" data-name="Trazado 1588" class="cls-3" d="m506.27,22.3c-2.42,4.31-4.38,8.92-6.44,13.42-.1.18-.07.4.07.54,3.05,2.49,6.05,5.06,9.12,7.51.75.6,1.98,2.02,3.15,1.82,1.14-.2,1.85-1.9,2.33-2.63,2.17-3.31,4.34-6.65,6.36-10.05.09-.15.06-.35-.06-.48-4.1-4.18-8.98-7.53-14.36-9.86-.27-.11-.42.31-.19.46,3.77,2.42,7.66,4.34,11.12,7.26,2.79,2.36,1.71,3.85.03,6.5-1.08,1.69-2.53,5.35-4.1,6.45-2.29,1.62-4.95-1.14-6.92-2.76-1.72-1.42-5.27-3.21-5.07-5.81.14-1.77,2.04-4.37,2.79-6.01.94-2.04,1.89-4.06,2.68-6.16.11-.3-.35-.48-.51-.21"/>
          <path id="Trazado_1589" data-name="Trazado 1589" class="cls-4" d="m489.47,37.24c.37,2.75-1.56,5.28-4.31,5.65-2.75.37-5.28-1.56-5.65-4.31-.37-2.75,1.56-5.28,4.31-5.65,2.75-.37,5.28,1.56,5.65,4.31"/>
          <path id="Trazado_1590" data-name="Trazado 1590" class="cls-4" d="m543.86,31.88c-.43,2.74-3,4.62-5.74,4.2-2.74-.43-4.62-3-4.2-5.74.43-2.74,3-4.62,5.74-4.2,2.74.42,4.63,2.99,4.2,5.74,0,0,0,0,0,0"/>
          <path id="Trazado_1591" data-name="Trazado 1591" class="cls-3" d="m570.09,17.87c-2.77,4.1-5.11,8.54-7.54,12.85-.1.18-.07.4.07.54,2.84,2.73,5.62,5.52,8.47,8.24.66.63,1.81,2.18,3,2.04,1.09-.13,1.99-1.77,2.52-2.45,2.43-3.13,4.87-6.27,7.17-9.49.09-.15.06-.35-.06-.48-3.73-4.49-8.28-8.22-13.43-10.98-.12-.06-.28-.01-.34.11-.06.11-.02.25.08.32,3.55,2.71,7.31,4.98,10.48,8.17,2.18,2.19,1.83,2.94.48,5.13-1.31,2.2-2.86,4.24-4.62,6.09-1.29,1.24-2.57,2.12-4.07,1.51-.81-.33-1.78-1.74-2.42-2.36-1.54-1.51-4.5-3.38-5.43-5.31-1.04-2.16,1.14-4.59,2.16-6.39,1.36-2.41,2.77-4.78,3.95-7.28.08-.13.03-.3-.1-.38s-.3-.03-.38.1"/>
          <path id="Trazado_1592" data-name="Trazado 1592" class="cls-3" d="m621.29,14.76c-2.77,4.1-5.11,8.54-7.54,12.85-.1.18-.07.4.07.54,2.84,2.73,5.62,5.52,8.47,8.24.66.63,1.81,2.18,3,2.04,1.09-.13,1.99-1.77,2.52-2.46,2.43-3.13,4.87-6.27,7.17-9.49.09-.15.06-.35-.06-.48-3.73-4.49-8.29-8.22-13.43-10.98-.12-.07-.27-.03-.34.09-.07.12-.03.27.09.34h0c3.55,2.71,7.31,4.98,10.48,8.17,2.18,2.19,1.83,2.94.48,5.13-1.31,2.2-2.86,4.24-4.62,6.09-1.29,1.24-2.57,2.12-4.07,1.51-.81-.33-1.78-1.74-2.42-2.36-1.54-1.51-4.5-3.38-5.43-5.31-1.04-2.16,1.14-4.59,2.16-6.39,1.36-2.41,2.77-4.78,3.95-7.28.08-.13.03-.3-.1-.38-.13-.08-.3-.03-.38.1"/>
          <path id="Trazado_1593" data-name="Trazado 1593" class="cls-4" d="m603.33,28.24c.14,2.77-1.99,5.14-4.77,5.28-2.77.14-5.14-1.99-5.28-4.77-.14-2.77,1.99-5.14,4.77-5.28,2.77-.14,5.14,1.99,5.28,4.77"/>
          <path id="Trazado_1594" data-name="Trazado 1594" class="cls-4" d="m657.97,27.4c-.65,2.7-3.37,4.36-6.07,3.71-2.7-.65-4.36-3.37-3.71-6.07s3.37-4.36,6.07-3.71h0c2.7.66,4.35,3.37,3.7,6.07"/>
          <path id="Trazado_1595" data-name="Trazado 1595" class="cls-3" d="m1140.02,80.28c-2.14-3.45-8.94-9.72-7.03-13.59.91-1.84,2.99-3.62,4.31-5.2,2.02-2.44,2.93-4.44,5.85-2.13,1.67,1.54,3.22,3.19,4.66,4.95,2.47,2.63,3.31,3.81.73,6.91-2.73,3.29-6.07,5.77-9.14,8.69-.09.1-.08.26.02.36.08.07.19.08.28.04,4.85-3.3,9.01-7.51,12.25-12.4.09-.15.06-.35-.06-.48-2.44-2.75-5.02-5.39-7.55-8.07-.65-.69-1.98-2.88-3.32-2.75-1.28.13-1.98,1.45-2.72,2.32-2.56,2.99-5.02,6.07-7.55,9.09-.14.15-.17.37-.07.54,2.89,4.06,5.71,8.23,8.9,12.06.2.24.6-.07.43-.33"/>
          <path id="Trazado_1596" data-name="Trazado 1596" class="cls-3" d="m1191.26,77.97c-2.14-3.45-8.94-9.72-7.03-13.59.91-1.84,2.99-3.62,4.31-5.2,2.02-2.44,2.93-4.44,5.85-2.13,1.67,1.54,3.22,3.19,4.66,4.95,2.47,2.63,3.31,3.8.73,6.91-2.73,3.29-6.07,5.77-9.14,8.69-.09.1-.09.26.01.36.08.07.2.09.29.04,4.85-3.3,9.01-7.51,12.25-12.39.09-.15.06-.35-.06-.48-2.44-2.75-5.02-5.39-7.55-8.07-.65-.69-1.98-2.88-3.32-2.75-1.28.13-1.98,1.45-2.72,2.32-2.56,2.99-5.02,6.07-7.55,9.09-.14.15-.17.37-.07.54,2.89,4.06,5.71,8.23,8.9,12.06.2.24.6-.07.43-.33"/>
          <path id="Trazado_1597" data-name="Trazado 1597" class="cls-4" d="m1171.52,66.76c-.15-2.77-2.53-4.9-5.3-4.74-2.77.15-4.9,2.53-4.74,5.3.15,2.77,2.53,4.9,5.3,4.74,2.77-.15,4.9-2.52,4.75-5.3,0,0,0,0,0,0"/>
          <path id="Trazado_1598" data-name="Trazado 1598" class="cls-4" d="m1225.94,61.84c-.93-2.62-3.81-3.98-6.43-3.04-2.62.93-3.98,3.81-3.04,6.43.93,2.62,3.81,3.98,6.43,3.04,2.62-.93,3.98-3.81,3.05-6.43,0,0,0,0,0,0"/>
          <path id="Trazado_1599" data-name="Trazado 1599" class="cls-3" d="m1254.78,70.36c-1.13-1.53-2.33-2.97-3.56-4.42-1.35-1.59-4.07-3.76-4.83-5.67-.95-2.41,1.43-4.59,2.7-6.42,1.92-2.75,3.47-6.44,7.67-4.08,1.81,1.02,3.5,3.15,5.05,4.55,2.17,1.96,2.82,3.17,1.09,5.7-2.55,3.74-5.78,6.64-8.77,9.98-.18.2.07.58.31.39,4.55-3.69,8.35-8.22,11.18-13.35.09-.15.06-.35-.06-.48-2.86-2.73-5.83-5.38-8.82-7.98-.68-.59-1.84-2.02-2.95-1.92-1.17.12-2,1.83-2.54,2.59-2.29,3.2-4.5,6.47-6.77,9.69-.1.18-.07.4.07.54,3.19,3.78,6.33,7.68,9.81,11.2.21.22.62-.08.43-.33"/>
          <path id="Trazado_1600" data-name="Trazado 1600" class="cls-3" d="m1305.66,63.81c-1.13-1.53-2.33-2.97-3.56-4.42-1.35-1.59-4.07-3.76-4.83-5.67-.95-2.41,1.43-4.59,2.7-6.42,1.92-2.75,3.47-6.44,7.67-4.08,1.81,1.02,3.5,3.15,5.05,4.55,2.17,1.96,2.82,3.17,1.09,5.7-2.55,3.74-5.78,6.64-8.77,9.98-.18.2.07.58.31.4,4.55-3.69,8.35-8.22,11.18-13.35.09-.15.06-.35-.06-.48-2.86-2.73-5.83-5.38-8.82-7.98-.68-.59-1.84-2.02-2.95-1.92-1.17.12-2,1.83-2.54,2.59-2.29,3.2-4.5,6.47-6.77,9.69-.1.18-.07.4.07.54,3.19,3.78,6.33,7.68,9.81,11.2.21.22.62-.08.43-.33"/>
          <path id="Trazado_1601" data-name="Trazado 1601" class="cls-4" d="m1285.04,54.27c-.38-2.75-2.92-4.67-5.67-4.29-2.75.38-4.67,2.92-4.29,5.67.38,2.75,2.92,4.67,5.67,4.29,2.75-.38,4.67-2.92,4.29-5.67,0,0,0,0,0,0"/>
          <path id="Trazado_1602" data-name="Trazado 1602" class="cls-4" d="m1338.87,44.85c-1.15-2.53-4.13-3.65-6.66-2.5-2.53,1.15-3.65,4.13-2.5,6.66,1.15,2.53,4.13,3.65,6.66,2.5,0,0,0,0,0,0,2.53-1.15,3.65-4.13,2.5-6.66"/>
          <path id="Trazado_1603" data-name="Trazado 1603" class="cls-3" d="m912,63.85c-1.41-3.73-4.26-7.56-5.11-11.42-.67-3.03,1.94-4.27,4.06-6.02,2.01-1.66,5.15-5.21,7.57-3.3,1.47,1.16,2.63,4.14,3.65,5.74,1.65,2.59,3.16,4.15,1.01,6.72-2.95,3.5-7.93,5.34-11.7,7.76-.23.15-.08.57.19.46,5.38-2.33,10.25-5.68,14.35-9.86.12-.13.15-.32.06-.48-2.03-3.4-4.2-6.73-6.36-10.05-.47-.72-1.22-2.44-2.33-2.63-1.16-.2-2.43,1.24-3.15,1.82-3.07,2.48-6.07,5.03-9.12,7.51-.14.15-.17.37-.07.54,2.06,4.5,4.02,9.11,6.44,13.42.15.27.62.09.51-.21"/>
          <path id="Trazado_1604" data-name="Trazado 1604" class="cls-3" d="m962.77,71.18c-1.41-3.73-4.26-7.56-5.11-11.42-.67-3.03,1.94-4.27,4.06-6.02,2.01-1.66,5.15-5.21,7.57-3.3,1.47,1.16,2.63,4.14,3.65,5.74,1.65,2.59,3.16,4.15,1.01,6.72-2.95,3.5-7.93,5.34-11.7,7.76-.23.14-.08.57.19.46,5.38-2.33,10.25-5.68,14.35-9.86.12-.13.15-.32.06-.48-2.03-3.4-4.2-6.73-6.36-10.05-.47-.72-1.22-2.44-2.33-2.63-1.16-.2-2.43,1.24-3.15,1.82-3.07,2.48-6.07,5.03-9.12,7.51-.14.15-.17.37-.07.54,2.06,4.5,4.02,9.11,6.44,13.42.15.27.62.09.5-.21"/>
          <path id="Trazado_1605" data-name="Trazado 1605" class="cls-4" d="m945.47,56.46c.37-2.75-1.56-5.28-4.31-5.65-2.75-.37-5.28,1.56-5.65,4.31-.37,2.75,1.56,5.28,4.31,5.65,2.75.37,5.28-1.56,5.66-4.31"/>
          <path id="Trazado_1606" data-name="Trazado 1606" class="cls-4" d="m999.86,61.82c-.43-2.74-3-4.62-5.74-4.2-2.74.43-4.62,3-4.2,5.74.43,2.74,3,4.62,5.74,4.2,2.74-.42,4.63-2.99,4.2-5.74,0,0,0,0,0,0"/>
          <path id="Trazado_1607" data-name="Trazado 1607" class="cls-3" d="m1026.56,75.56c-1.07-2.25-2.32-4.39-3.54-6.56-1.01-1.78-2.95-4.05-2.72-6.07.23-2.08,3.45-4.28,4.98-5.76,2.58-2.52,3.62-4.9,7.09-1.44,1.49,1.71,2.86,3.52,4.11,5.41,1.59,2.1,2.26,3.01.57,5.27-2.79,3.72-7.4,5.94-11.02,8.71-.12.08-.15.23-.07.35.07.1.21.14.32.08,5.14-2.76,9.7-6.49,13.43-10.98.12-.13.15-.32.06-.47-2.3-3.22-4.73-6.38-7.17-9.49-.56-.71-1.42-2.33-2.52-2.46-1.22-.14-2.33,1.41-3,2.04-2.86,2.71-5.63,5.51-8.47,8.24-.14.15-.17.37-.07.54,2.43,4.31,4.77,8.75,7.54,12.85.08.13.25.18.38.1.13-.08.18-.25.1-.38"/>
          <path id="Trazado_1608" data-name="Trazado 1608" class="cls-3" d="m1077.77,78.66c-1.07-2.25-2.32-4.39-3.54-6.56-1.01-1.78-2.95-4.05-2.72-6.07.23-2.08,3.45-4.28,4.98-5.76,2.58-2.52,3.62-4.9,7.09-1.44,1.49,1.71,2.86,3.52,4.11,5.41,1.59,2.1,2.27,3.01.57,5.27-2.79,3.72-7.4,5.94-11.02,8.71-.12.08-.15.23-.07.35.07.1.21.14.32.08,5.14-2.76,9.7-6.49,13.43-10.98.12-.13.15-.32.06-.47-2.3-3.22-4.73-6.38-7.17-9.49-.56-.71-1.42-2.33-2.52-2.46-1.22-.14-2.33,1.41-3,2.04-2.86,2.7-5.63,5.51-8.47,8.24-.14.15-.17.37-.07.54,2.43,4.31,4.77,8.75,7.54,12.85.08.13.25.18.38.1.13-.08.18-.25.1-.38"/>
          <path id="Trazado_1609" data-name="Trazado 1609" class="cls-4" d="m1059.33,65.46c.14-2.77-1.99-5.14-4.77-5.28-2.77-.14-5.14,1.99-5.28,4.77-.14,2.77,1.99,5.14,4.77,5.28,2.77.14,5.14-1.99,5.28-4.77"/>
          <path id="Trazado_1610" data-name="Trazado 1610" class="cls-4" d="m1113.97,66.3c-.65-2.7-3.37-4.36-6.07-3.71-2.7.65-4.36,3.37-3.71,6.07.65,2.7,3.37,4.36,6.07,3.71,0,0,0,0,0,0,2.7-.66,4.35-3.37,3.7-6.07"/>
          <path id="Trazado_1611" data-name="Trazado 1611" class="cls-3" d="m235.02,75.28c-2.14-3.45-8.94-9.72-7.03-13.59.91-1.84,2.99-3.62,4.31-5.2,2.02-2.44,2.93-4.44,5.85-2.13,1.67,1.54,3.22,3.19,4.66,4.95,2.47,2.63,3.31,3.81.74,6.91-2.74,3.29-6.07,5.77-9.14,8.69-.09.1-.09.26.01.36.08.07.2.09.29.04,4.85-3.3,9.01-7.51,12.25-12.4.09-.15.06-.35-.06-.48-2.44-2.75-5.02-5.39-7.55-8.07-.65-.69-1.98-2.88-3.32-2.75-1.28.13-1.98,1.45-2.72,2.32-2.56,2.99-5.02,6.07-7.55,9.09-.14.15-.17.37-.07.54,2.89,4.06,5.71,8.23,8.9,12.06.2.24.6-.07.43-.33"/>
          <path id="Trazado_1612" data-name="Trazado 1612" class="cls-3" d="m286.26,72.97c-2.14-3.45-8.94-9.72-7.03-13.59.91-1.84,2.99-3.62,4.31-5.2,2.02-2.44,2.93-4.44,5.85-2.13,1.67,1.54,3.22,3.19,4.66,4.95,2.47,2.63,3.31,3.81.73,6.91-2.73,3.29-6.07,5.77-9.14,8.69-.09.1-.08.26.02.36.08.07.19.08.28.04,4.85-3.3,9.01-7.51,12.25-12.4.09-.15.06-.35-.06-.48-2.44-2.75-5.02-5.39-7.55-8.07-.65-.69-1.98-2.88-3.32-2.75-1.28.13-1.98,1.45-2.72,2.32-2.56,2.99-5.02,6.07-7.55,9.09-.14.15-.17.37-.07.54,2.89,4.06,5.71,8.23,8.9,12.06.2.24.6-.07.43-.33"/>
          <path id="Trazado_1613" data-name="Trazado 1613" class="cls-4" d="m266.52,61.76c-.15-2.77-2.53-4.9-5.3-4.74-2.77.15-4.9,2.53-4.74,5.3.15,2.77,2.53,4.9,5.3,4.74,2.77-.15,4.9-2.52,4.75-5.3,0,0,0,0,0,0"/>
          <path id="Trazado_1614" data-name="Trazado 1614" class="cls-4" d="m320.95,56.84c-.93-2.62-3.81-3.98-6.43-3.04-2.62.93-3.98,3.81-3.04,6.43.93,2.62,3.81,3.98,6.43,3.04,2.62-.93,3.98-3.81,3.05-6.43,0,0,0,0,0,0"/>
          <path id="Trazado_1615" data-name="Trazado 1615" class="cls-3" d="m349.78,65.36c-1.13-1.53-2.33-2.97-3.56-4.42-1.35-1.59-4.07-3.76-4.83-5.67-.95-2.41,1.43-4.59,2.7-6.42,1.92-2.75,3.48-6.44,7.67-4.08,1.82,1.02,3.5,3.15,5.05,4.55,2.17,1.96,2.82,3.17,1.09,5.7-2.55,3.74-5.78,6.64-8.77,9.98-.18.2.07.58.3.39,4.55-3.69,8.35-8.22,11.18-13.35.09-.15.06-.35-.06-.48-2.86-2.73-5.83-5.38-8.82-7.98-.68-.59-1.84-2.02-2.95-1.92-1.17.12-2,1.83-2.54,2.59-2.29,3.2-4.5,6.47-6.77,9.69-.1.18-.07.4.07.54,3.19,3.78,6.33,7.68,9.81,11.2.21.22.62-.08.43-.33"/>
          <path id="Trazado_1616" data-name="Trazado 1616" class="cls-3" d="m400.66,58.81c-1.13-1.53-2.33-2.97-3.56-4.42-1.35-1.59-4.07-3.76-4.83-5.67-.95-2.41,1.43-4.59,2.7-6.42,1.92-2.75,3.48-6.44,7.67-4.08,1.82,1.02,3.5,3.15,5.05,4.55,2.17,1.96,2.82,3.17,1.09,5.7-2.55,3.74-5.78,6.64-8.77,9.98-.18.2.07.58.3.4,4.55-3.69,8.35-8.22,11.18-13.35.09-.15.06-.35-.06-.48-2.86-2.73-5.83-5.38-8.82-7.98-.68-.59-1.84-2.02-2.95-1.92-1.17.12-2,1.83-2.54,2.59-2.29,3.2-4.5,6.47-6.77,9.69-.1.18-.07.4.07.54,3.19,3.78,6.33,7.68,9.81,11.2.21.22.62-.08.43-.33"/>
          <path id="Trazado_1617" data-name="Trazado 1617" class="cls-4" d="m380.04,49.27c-.38-2.75-2.92-4.67-5.67-4.29-2.75.38-4.67,2.92-4.29,5.67.38,2.75,2.92,4.67,5.67,4.29,2.75-.38,4.67-2.92,4.29-5.67"/>
          <path id="Trazado_1618" data-name="Trazado 1618" class="cls-4" d="m433.87,39.85c-1.15-2.53-4.13-3.65-6.66-2.5-2.53,1.15-3.65,4.13-2.5,6.66,1.15,2.53,4.13,3.65,6.66,2.5,0,0,0,0,0,0,2.53-1.15,3.65-4.13,2.5-6.66"/>
          <path id="Trazado_1619" data-name="Trazado 1619" class="cls-3" d="m7,58.85c-1.4-3.73-4.26-7.56-5.11-11.42-.67-3.03,1.94-4.27,4.06-6.02,2.01-1.66,5.15-5.21,7.57-3.3,1.47,1.16,2.63,4.14,3.65,5.74,1.65,2.59,3.17,4.15,1.01,6.72-2.95,3.5-7.93,5.34-11.7,7.76-.22.15-.08.57.2.46,5.37-2.33,10.25-5.68,14.35-9.86.12-.13.15-.32.06-.48-2.03-3.4-4.2-6.73-6.36-10.05-.47-.72-1.22-2.44-2.32-2.63-1.16-.2-2.43,1.24-3.15,1.82-3.06,2.48-6.07,5.03-9.12,7.51-.14.15-.17.37-.07.54,2.06,4.5,4.02,9.11,6.44,13.42.15.27.62.09.51-.21"/>
          <path id="Trazado_1620" data-name="Trazado 1620" class="cls-3" d="m57.77,66.18c-1.41-3.73-4.26-7.56-5.11-11.42-.67-3.03,1.94-4.27,4.06-6.02,2.01-1.66,5.15-5.21,7.57-3.3,1.47,1.16,2.63,4.14,3.65,5.74,1.65,2.59,3.17,4.15,1.01,6.72-2.95,3.5-7.93,5.34-11.7,7.76-.23.14-.08.57.19.46,5.38-2.33,10.25-5.68,14.35-9.86.12-.13.15-.32.06-.48-2.03-3.4-4.2-6.73-6.36-10.05-.46-.72-1.22-2.44-2.33-2.63-1.16-.2-2.43,1.24-3.15,1.82-3.06,2.48-6.07,5.03-9.12,7.51-.14.15-.17.37-.07.54,2.06,4.5,4.02,9.11,6.44,13.42.15.27.62.09.51-.21"/>
          <path id="Trazado_1621" data-name="Trazado 1621" class="cls-4" d="m40.47,51.46c.37-2.75-1.56-5.28-4.31-5.65-2.75-.37-5.28,1.56-5.65,4.31-.37,2.75,1.56,5.28,4.31,5.65,2.75.37,5.28-1.56,5.65-4.31"/>
          <path id="Trazado_1622" data-name="Trazado 1622" class="cls-4" d="m94.86,56.82c-.43-2.74-3-4.62-5.74-4.2-2.74.43-4.62,3-4.2,5.74.43,2.74,3,4.62,5.74,4.2,2.74-.42,4.63-2.99,4.2-5.74,0,0,0,0,0,0"/>
          <path id="Trazado_1623" data-name="Trazado 1623" class="cls-3" d="m121.56,70.56c-1.07-2.25-2.32-4.39-3.54-6.56-1.01-1.78-2.95-4.05-2.72-6.07.23-2.08,3.45-4.28,4.98-5.76,2.58-2.52,3.62-4.9,7.09-1.44,1.49,1.71,2.86,3.52,4.11,5.41,1.59,2.1,2.26,3.01.57,5.27-2.79,3.72-7.4,5.94-11.02,8.71-.12.08-.15.23-.07.35.07.11.21.14.33.09,5.14-2.76,9.7-6.49,13.43-10.98.12-.13.15-.32.06-.47-2.3-3.22-4.73-6.38-7.17-9.49-.56-.71-1.42-2.33-2.52-2.45-1.22-.14-2.33,1.41-3,2.04-2.86,2.71-5.63,5.51-8.47,8.24-.14.15-.17.37-.07.54,2.43,4.31,4.76,8.75,7.54,12.85.08.13.25.17.38.09.12-.08.17-.24.1-.37"/>
          <path id="Trazado_1624" data-name="Trazado 1624" class="cls-3" d="m172.77,73.66c-1.07-2.25-2.32-4.39-3.54-6.56-1.01-1.78-2.95-4.05-2.72-6.07.23-2.08,3.45-4.28,4.98-5.76,2.58-2.52,3.62-4.9,7.09-1.44,1.49,1.71,2.86,3.52,4.11,5.41,1.59,2.1,2.26,3.01.57,5.27-2.79,3.72-7.4,5.94-11.02,8.71-.12.08-.15.23-.07.35.07.1.21.14.32.08,5.14-2.76,9.7-6.49,13.43-10.98.12-.13.15-.32.06-.47-2.3-3.22-4.73-6.38-7.17-9.49-.56-.71-1.42-2.33-2.52-2.45-1.22-.14-2.33,1.41-3,2.04-2.86,2.7-5.63,5.51-8.47,8.24-.14.15-.17.37-.07.54,2.43,4.31,4.76,8.75,7.54,12.85.08.13.25.18.38.1.13-.08.18-.25.1-.38h0"/>
          <path id="Trazado_1625" data-name="Trazado 1625" class="cls-4" d="m154.33,60.46c.14-2.77-1.99-5.14-4.77-5.28s-5.14,1.99-5.28,4.77c-.14,2.77,1.99,5.14,4.77,5.28,2.77.14,5.14-1.99,5.28-4.77"/>
          <path id="Trazado_1626" data-name="Trazado 1626" class="cls-4" d="m208.97,61.3c-.65-2.7-3.37-4.36-6.07-3.71-2.7.65-4.36,3.37-3.71,6.07.65,2.7,3.37,4.36,6.07,3.71,0,0,0,0,0,0,2.7-.65,4.36-3.37,3.71-6.07,0,0,0,0,0,0"/>
        </g>
      </g>
    </g>
  </g>
</svg>