<?xml version="1.0" encoding="UTF-8"?>
<svg id="Capa_2" data-name="Capa 2" xmlns="http://www.w3.org/2000/svg" viewBox="0 0 600.79 620.78">
  <defs>
    <style>
      .cls-1 {
        stroke: #1a8869;
      }

      .cls-1, .cls-2, .cls-3 {
        stroke-linejoin: round;
      }

      .cls-1, .cls-2, .cls-3, .cls-4, .cls-5, .cls-6, .cls-7, .cls-8 {
        fill: none;
      }

      .cls-1, .cls-2, .cls-3, .cls-5 {
        stroke-linecap: round;
      }

      .cls-2 {
        stroke: #91cbbb;
      }

      .cls-3 {
        stroke: #60bba2;
      }

      .cls-4 {
        stroke-width: .12px;
      }

      .cls-4, .cls-5 {
        stroke: #f47520;
      }

      .cls-4, .cls-6, .cls-7, .cls-8 {
        stroke-miterlimit: 10;
      }

      .cls-5 {
        stroke-miterlimit: 90;
      }

      .cls-6 {
        stroke: #009671;
      }

      .cls-9 {
        fill: #f47520;
      }

      .cls-9, .cls-10, .cls-11, .cls-12, .cls-13, .cls-14, .cls-15, .cls-16, .cls-17, .cls-18, .cls-19, .cls-20, .cls-21, .cls-22, .cls-23, .cls-24, .cls-25, .cls-26 {
        stroke-width: 0px;
      }

      .cls-10 {
        fill: #7aceda;
      }

      .cls-11 {
        fill: #5861ab;
      }

      .cls-12 {
        fill: #404041;
      }

      .cls-13 {
        fill: #231f20;
      }

      .cls-14 {
        fill: #e04326;
      }

      .cls-15 {
        fill: #e1519c;
      }

      .cls-16 {
        fill: #be1f49;
      }

      .cls-17 {
        fill: #a77532;
      }

      .cls-18 {
        fill: #8e5a30;
      }

      .cls-19 {
        fill: #f37421;
      }

      .cls-20 {
        fill: #fff;
      }

      .cls-21 {
        fill: #fff4ea;
      }

      .cls-22 {
        fill: #fbad2d;
      }

      .cls-23 {
        fill: #f2722a;
      }

      .cls-24 {
        fill: #f68c28;
      }

      .cls-25 {
        fill: #009772;
      }

      .cls-26 {
        fill: #007b51;
      }

      .cls-7 {
        stroke: #801c1d;
      }

      .cls-7, .cls-8 {
        stroke-width: .5px;
      }

      .cls-8 {
        stroke: #e04326;
      }
    </style>
  </defs>
  <g id="Layer_1" data-name="Layer 1">
    <g>
      <line class="cls-2" x1="22.55" y1="533.78" x2="13.55" y2="140.28"/>
      <line class="cls-3" x1="28.55" y1="530.69" x2="5.55" y2="149.58"/>
      <line class="cls-1" x1="13.55" y1="533.78" x2="20.55" y2="163.01"/>
      <line class="cls-2" x1="418.92" y1="601.78" x2="76.55" y2="607.78"/>
      <line class="cls-3" x1="418.92" y1="593.78" x2="76.55" y2="612.78"/>
      <line class="cls-1" x1="437.05" y1="608.78" x2="87.75" y2="602.3"/>
      <path class="cls-6" d="m545.06,500.48c3.12,5.19,14.69-10.41,18.87-2.51,4.18,7.9-14.64,16.96-16,21.08s-5.67,33.63-5.67,33.63c0,0-1.64-28.74-3.76-30.58-2.12-1.83-16.57,5.99-19.33.5-2.76-5.49,13.98-9.82,12.63-12.89-1.35-3.07-25.76-.74-25.1-7.87.66-7.13,21.82-6.16,20.82-9.52-1-3.36-17.89-22.24-9.39-29.3,10.27-8.53,18.37,17.06,20.07,19.83,1.7,2.77,3.03-18.68,9.92-15.43,6.89,3.25-6.17,27.87-3.05,33.06Z"/>
      <path class="cls-25" d="m582.18,503.61c-.63,2.51,15-8.83,17.89-3.19,2.89,5.65-23.6,12.27-24.84,16.91-1.24,4.65,17.99,2.28,15.69,9.04-2.31,6.76-19.67-.94-23.5.63-3.82,1.56-11.96,25.4-11.96,25.4,0,0,1.67-24.33,1.35-26.54-.32-2.2-17.57-5.81-15.88-10.43,1.7-4.62,17.07,2.22,18.16-.26,1.09-2.47-18.57-14.68-13.21-18.33,5.36-3.65,20.37,8.62,21.92,6.17,1.56-2.44,1.94-22.42,13.06-21.69,13.43.89,1.95,19.77,1.32,22.27"/>
      <path class="cls-25" d="m499.79,584.54c1.83-1.16,18.42-2.23,18.42-2.23,0,0-19.21,7.94-20.53,10.21-1.33,2.27,1.31,20.84-4.61,21.82-5.92.98-11.33-10.32-13.96-9.48-2.63.85-11.82,17.69-17.01,14.33-5.19-3.36,3.9-11.46,1.38-13.34-2.52-1.88-21.07,6.77-22.99-2.74-1.93-9.52,20.01-7.64,21.24-10.87,1.23-3.23-6.6-5.75-3.95-10.28,2.65-4.54,24.55,4.72,25.17,3.11.62-1.62-12.48-12.15-6.85-16.02,5.63-3.86,21.86,16.65,23.69,15.49"/>
      <path class="cls-5" d="m541.89,517.82s8.71-28.69,18.44-26.13c9.73,2.56-4.1,32.78-4.1,32.78,0,0,18.44-22.54,26.64-15.88,8.2,6.66-15.88,28.17-15.88,28.17,0,0,24.59-14.85,28.69-4.61,4.1,10.24-25.1,25.61-25.1,25.61,0,0,30.23-5.12,29.71,8.2-.51,13.32-30.22,8.71-30.22,8.71,0,0,25.96,13.6,20.49,19.98-9.22,10.76-30.22-7.17-30.22-7.17,0,0,7.68,28.17-3.07,29.71-10.76,1.53-14.86-22.03-14.86-22.03,0,0-1.54,25.61-11.78,25.1-10.24-.51-6.66-27.15-6.66-27.15,0,0-13.32,23.56-21,17.93-7.68-5.64,5.63-28.69,5.63-28.69,0,0-23.56,12.29-26.64.51-3.07-11.78,19.47-15.37,19.47-15.37,0,0-30.22,1.02-28.17-7.68,2.05-8.71,28.17-9.73,28.17-9.73,0,0-25.61-4.1-23.05-14.34,2.56-10.25,25.61-1.54,25.61-1.54,0,0-21.52-10.76-16.39-19.47,5.12-8.71,23.57,6.66,23.57,6.66,0,0-10.76-21-1.54-25.61,9.22-4.61,16.9,21,16.9,21,0,0,1.54-29.71,11.78-27.66,10.24,2.05,3.59,28.69,3.59,28.69Z"/>
      <path class="cls-22" d="m524.78,569.19c.87-.41,1.49-.63,1.73-.63.27,0-.4.26-1.73.63"/>
      <path class="cls-22" d="m539.83,531.49s15.64-22.59,24.91-17.96c9.27,4.64-16.8,28.97-16.8,28.97,0,0,31.28-17.96,35.34-8.11,4.05,9.85-30.13,18.54-30.13,18.54,0,0,37.08-3.47,35.34,8.11-1.74,11.59-31.86,3.47-31.86,3.47,0,0,34.09,14.35,27.81,22.6-9.27,12.16-37.08-11.01-37.08-11.01,0,0-5.79,35.34-13.91,28.39-8.11-6.95,2.32-30.12,2.32-30.12,0,0-24.33,29.54-27.81,17.38-2.99-10.44,11.54-20.03,16.8-22.54,1.33-.38,2-.63,1.73-.63-.25,0-.87.22-1.73.63-7.19,2.06-33.6,7.81-33.6-2.95,0-12.75,31.28-10.43,31.28-10.43,0,0-32.44-5.79-27.23-17.38,5.21-11.59,26.65,6.37,26.65,6.37,0,0-17.38-23.17-7.53-28.39,9.85-5.21,13.91,19.7,13.91,19.7,0,0-3.48-29.54,4.63-31.28,8.11-1.74,6.95,26.65,6.95,26.65"/>
      <path class="cls-9" d="m539.32,548.56s9.22-17.93,15.37-15.37c6.15,2.56-12.29,23.05-12.29,23.05,0,0,18.95-7.68,22.03,1.02,3.07,8.71-22.03,5.64-22.03,5.64,0,0,8.71,16.91,1.02,17.42s-5.64-21.52-5.64-21.52c0,0-31.25,9.73-33.81.51-2.56-9.22,27.66-8.71,27.66-8.71,0,0-12.8-13.32-5.12-19.98,7.68-6.66,12.81,17.93,12.81,17.93"/>
      <path class="cls-13" d="m539.32,548.56s22.03-9.73,24.08-5.12c2.05,4.61-21,12.81-21,12.81,0,0,25.1,26.13,14.85,30.74-10.24,4.61-21-25.1-21-25.1,0,0-12.03,28.57-18.44,18.95-7.17-10.76,13.32-19.47,13.32-19.47,0,0-24.08-13.32-19.98-18.44,4.1-5.12,19.98,3.76,21,5.29,1.03,1.54,8.71-17.59,13.83-14.51,5.13,3.07-6.66,14.85-6.66,14.85Z"/>
      <path class="cls-4" d="m539.32,548.56s22.03-9.73,24.08-5.12c2.05,4.61-21,12.81-21,12.81,0,0,25.1,26.13,14.85,30.74-10.24,4.61-21-25.1-21-25.1,0,0-12.03,28.57-18.44,18.95-7.17-10.76,13.32-19.47,13.32-19.47,0,0-24.08-13.32-19.98-18.44,4.1-5.12,19.98,3.76,21,5.29,1.03,1.54,8.71-17.59,13.83-14.51,5.13,3.07-6.66,14.85-6.66,14.85Z"/>
      <path class="cls-22" d="m547.01,548.05c2.56,7.17-10.76,5.12-10.76,5.12,0,0,15.88,16.9,10.76,18.95-5.13,2.05-12.81-14.85-12.81-14.85,0,0-18.44,4.1-14.86-6.66,1.38-4.15,12.29,0,12.29,0,0,0,12.81-9.73,15.37-2.56"/>
      <path class="cls-6" d="m55.6,120.02c-3.11-5.18-14.65,10.39-18.82,2.51-4.16-7.89,14.61-16.92,15.96-21.03,1.36-4.12,5.66-33.55,5.66-33.55,0,0,1.64,28.68,3.75,30.5,2.11,1.83,16.53-5.97,19.29-.5,2.75,5.47-13.95,9.8-12.6,12.86,1.35,3.06,25.7.74,25.04,7.86-.66,7.11-21.77,6.14-20.77,9.5,1,3.35,17.84,22.19,9.37,29.23-10.24,8.51-18.32-17.02-20.02-19.79s-3.03,18.64-9.9,15.39c-6.87-3.24,6.16-27.8,3.05-32.99Z"/>
      <path class="cls-25" d="m18.56,116.9c.63-2.5-14.97,8.81-17.84,3.18-2.88-5.63,23.55-12.24,24.78-16.87,1.23-4.64-17.95-2.27-15.65-9.02,2.3-6.75,19.63.93,23.44-.63,3.81-1.56,11.93-25.34,11.93-25.34,0,0-1.66,24.27-1.34,26.48.32,2.2,17.53,5.8,15.84,10.41-1.7,4.61-17.02-2.21-18.12.26-1.09,2.47,18.52,14.65,13.18,18.29-5.34,3.64-20.32-8.6-21.87-6.16-1.55,2.44-1.94,22.37-13.03,21.64-13.4-.88-1.95-19.73-1.32-22.22"/>
      <path class="cls-25" d="m100.77,36.16c-1.82,1.15-18.37,2.23-18.37,2.23,0,0,19.16-7.92,20.48-10.19,1.32-2.27-1.31-20.79,4.6-21.77,5.91-.98,11.3,10.3,13.93,9.45,2.62-.85,11.79-17.65,16.97-14.29,5.18,3.35-3.89,11.43-1.38,13.31,2.51,1.88,21.02-6.76,22.94,2.74,1.92,9.49-19.96,7.62-21.19,10.84-1.23,3.22,6.58,5.73,3.94,10.26-2.65,4.53-24.5-4.72-25.11-3.1-.61,1.61,12.45,12.12,6.83,15.98-5.62,3.85-21.81-16.61-23.63-15.46"/>
      <path class="cls-5" d="m58.77,102.72s-8.69,28.62-18.4,26.06c-9.71-2.55,4.09-32.71,4.09-32.71,0,0-18.4,22.48-26.57,15.84-8.18-6.64,15.84-28.11,15.84-28.11,0,0-24.53,14.82-28.62,4.6-4.09-10.22,25.04-25.55,25.04-25.55,0,0-30.15,5.11-29.64-8.18.51-13.29,30.15-8.69,30.15-8.69,0,0-25.9-13.57-20.44-19.93,9.2-10.73,30.15,7.15,30.15,7.15,0,0-7.67-28.11,3.06-29.64,10.73-1.53,14.82,21.98,14.82,21.98,0,0,1.53-25.55,11.76-25.04,10.22.51,6.64,27.09,6.64,27.09,0,0,13.29-23.51,20.95-17.89,7.67,5.62-5.62,28.62-5.62,28.62,0,0,23.51-12.26,26.57-.51,3.07,11.76-19.42,15.33-19.42,15.33,0,0,30.15-1.02,28.11,7.67-2.04,8.69-28.11,9.71-28.11,9.71,0,0,25.55,4.09,23,14.31-2.56,10.22-25.55,1.53-25.55,1.53,0,0,21.47,10.73,16.35,19.42-5.11,8.69-23.51-6.65-23.51-6.65,0,0,10.73,20.96,1.53,25.55-9.2,4.6-16.86-20.95-16.86-20.95,0,0-1.53,29.64-11.76,27.6-10.22-2.04-3.58-28.62-3.58-28.62Z"/>
      <path class="cls-22" d="m75.84,51.47c-.87.41-1.48.63-1.73.63-.27,0,.4-.25,1.73-.63"/>
      <path class="cls-22" d="m60.82,89.09s-15.61,22.54-24.85,17.92c-9.25-4.62,16.76-28.9,16.76-28.9,0,0-31.21,17.91-35.26,8.09-4.04-9.83,30.06-18.5,30.06-18.5,0,0-36.99,3.47-35.26-8.09,1.73-11.56,31.79-3.46,31.79-3.46,0,0-34.01-14.32-27.74-22.54,9.25-12.14,36.99,10.98,36.99,10.98,0,0,5.78-35.25,13.87-28.32,8.09,6.94-2.31,30.05-2.31,30.05,0,0,24.28-29.47,27.74-17.34,2.98,10.42-11.51,19.99-16.76,22.49-1.33.38-2,.63-1.73.63.25,0,.86-.22,1.73-.63,7.18-2.05,33.53-7.79,33.53,2.94,0,12.72-31.21,10.4-31.21,10.4,0,0,32.36,5.78,27.16,17.34-5.2,11.56-26.59-6.36-26.59-6.36,0,0,17.34,23.12,7.51,28.32-9.83,5.2-13.87-19.65-13.87-19.65,0,0,3.47,29.47-4.62,31.21-8.09,1.73-6.94-26.59-6.94-26.59"/>
      <path class="cls-9" d="m61.32,72.06s-9.2,17.89-15.33,15.33c-6.13-2.56,12.27-23,12.27-23,0,0-18.91,7.67-21.98-1.02-3.06-8.69,21.98-5.62,21.98-5.62,0,0-8.69-16.87-1.02-17.38,7.67-.51,5.62,21.47,5.62,21.47,0,0,31.17-9.71,33.73-.51,2.55,9.19-27.6,8.69-27.6,8.69,0,0,12.78,13.29,5.11,19.93-7.66,6.64-12.78-17.89-12.78-17.89"/>
      <path class="cls-13" d="m61.32,72.06s-21.98,9.71-24.02,5.11c-2.04-4.6,20.95-12.78,20.95-12.78,0,0-25.04-26.06-14.82-30.66,10.22-4.6,20.96,25.04,20.96,25.04,0,0,12-28.5,18.4-18.91,7.15,10.73-13.29,19.42-13.29,19.42,0,0,24.02,13.28,19.93,18.4-4.09,5.11-19.93-3.75-20.95-5.28-1.02-1.53-8.69,17.55-13.8,14.48-5.11-3.07,6.64-14.82,6.64-14.82Z"/>
      <path class="cls-4" d="m61.32,72.06s-21.98,9.71-24.02,5.11c-2.04-4.6,20.95-12.78,20.95-12.78,0,0-25.04-26.06-14.82-30.66,10.22-4.6,20.96,25.04,20.96,25.04,0,0,12-28.5,18.4-18.91,7.15,10.73-13.29,19.42-13.29,19.42,0,0,24.02,13.28,19.93,18.4-4.09,5.11-19.93-3.75-20.95-5.28-1.02-1.53-8.69,17.55-13.8,14.48-5.11-3.07,6.64-14.82,6.64-14.82Z"/>
      <path class="cls-22" d="m53.66,72.57c-2.55-7.16,10.73-5.11,10.73-5.11,0,0-15.84-16.86-10.73-18.91,5.11-2.05,12.78,14.82,12.78,14.82,0,0,18.4-4.09,14.82,6.64-1.38,4.14-12.27,0-12.27,0,0,0-12.78,9.71-15.33,2.56"/>
      <g>
        <path class="cls-20" d="m4.31,590.83c6.11,15.65,28.58,9.92,29.07,14.02.09.78.43,1.71.96,2.68.69-.19,1.42-.39,2.18-.58-.34-.97-.61-1.95-.82-2.87-.13-.59.69-.78.84-.2.26.96.57,1.91.95,2.83,2.58-.63,5.41-1.23,8.14-1.78-.21-.96-.42-1.93-.55-2.9-.07-.54.62-.73.77-.18.27.95.47,1.93.67,2.91,2.68-.52,5.23-.98,7.35-1.35-.03-.18-.06-.35-.09-.53-.13-.68-.35-1.39-.29-2.07.04-.4.52-.55.73-.17.34.61.41,1.34.54,2.01.04.2.07.39.11.59.71-.12,1.35-.23,1.92-.32,0,.19,0,.39-.01.58.05-2.74-.01-5.09,1.59-5.93,4.11-2.16,23.35-14.07,17.64-29.82-5.92-16.34-14.69-30.1-46.84-23.44-25.38,5.26-31.82,28.69-24.85,46.53Zm47.88-30.46c10.04-6.88,14.89,2.5,15.8,7.93.91,5.43-7.52,18.54-17.05,13.82-8.11-4.02-8.91-14.77,1.25-21.74Zm-10.67,22.28c1.36-.16,3.6,6.59,4.21,7.55.61.96-5.49,2.09-6.08,1.75-.59-.34,1.24-9.23,1.87-9.31Zm-21.16-14.59c12.1,1.33,16.78,12.24,10.86,18.88-8.9,9.98-19.81.55-21.43-4.71-1.62-5.26-3.44-15.7,10.57-14.16Z"/>
        <g>
          <path class="cls-11" d="m44.02,574.89s-2.07,1.97-1.26,3.15c.81,1.18,2.98.98,2.98.98,0,0-3.09,1.68-2.3,2.76.78,1.08,3.84-.28,3.84-.28,0,0-2.68,2.96-1.72,3.89s4.88-2.11,4.88-2.11c0,0-1.29,5.27-.12,5.73,1.17.46,4.14-4.36,4.14-4.36,0,0,1.16,4.47,2.96,4.05,1.8-.43,1.53-5.11,1.53-5.11,0,0,2.9,3.33,4.36,2.35,1.46-.98-.64-4.92-.64-4.92,0,0,4.19,3.44,5.45,2.09,1.26-1.35-2.24-5.91-2.24-5.91,0,0,5.13,2.06,5.85.62s-3.2-4.62-3.2-4.62c0,0,4.6.71,4.79-.71s-4.1-3.04-4.1-3.04c0,0,4.52-.96,4.11-2.24-.41-1.28-4.47-1.48-4.47-1.48,0,0,3.48-3.57,2.93-5.02-.55-1.45-4.62.99-4.62.99,0,0,2.21-3.58.91-5.07-1.3-1.49-3.84,2.07-3.84,2.07,0,0,1.55-4.59-.21-5.33s-2.51,3.23-2.51,3.23c0,0-.55-4.09-2.31-4.41-1.76-.32-2.52,4.08-2.52,4.08,0,0-.18-3.44-2.3-3.47-2.12-.03-1.36,4.97-1.36,4.97,0,0-1.7-3.19-3.88-2.57-2.18.62-.05,5.6-.05,5.6,0,0-1.72-3.71-3.7-2.71-1.98,1,1.32,6.02,1.32,6.02,0,0-2.61-2.55-4.24-1.42-1.63,1.13,2.91,4.7,2.91,4.7,0,0-3.61-1.89-4.52-.83-.91,1.06,3.19,4.1,3.19,4.1,0,0-3.36,1.43-2.83,3.2.38,1.3,2.78,1.03,2.78,1.03Zm8.17-14.52c10.04-6.88,14.89,2.5,15.8,7.93.91,5.43-7.52,18.54-17.05,13.82-8.11-4.02-8.91-14.77,1.25-21.74Z"/>
          <g>
            <path class="cls-20" d="m37.03,608.28c.62,1.46,1.42,2.83,2.41,3.91.38.41,1.06-.08.76-.59-.71-1.21-1.53-2.31-2.15-3.6,2.06-.55,4.63-1.16,7.84-1.81.22,1.12.43,2.25.73,3.35.16.58.91.38.82-.19-.16-1.12-.42-2.23-.67-3.33,2.15-.43,4.58-.87,7.31-1.34.03.16.05.32.08.47.24,1.51.45,3.03.7,4.53.08.48.8.41.78-.07-.06-1.5-.23-3.05-.47-4.54-.03-.19-.06-.38-.09-.57.54-.09,1.1-.18,1.67-.28-.12,4.15-.8,8.96-7.8,10.84-5.75,1.55-11.1-2.39-13.79-6.23.56-.18,1.18-.37,1.86-.56Z"/>
            <path class="cls-12" d="m34.38,607.6c.2.37.44.74.69,1.11-.26-.37-.49-.74-.69-1.11Z"/>
          </g>
          <path class="cls-14" d="m36.59,560.45c-.79.18-1.48.8-1.73,1.58-.25.8-.03,1.71.57,2.29.73.71,1.79.85,2.65.37.53-.24.97-.68,1.16-1.27.53-1.63-.95-3.36-2.65-2.97Z"/>
          <path class="cls-10" d="m29.92,557.33c-.53.17-.93.54-1.03,1.11-.01.08-.02.16-.02.24-.26.46-.26,1.02-.02,1.49.41.78,1.42,1.12,2.25.85.53-.17.98-.49,1.22-1.01.23-.5.22-1.07-.04-1.56-.41-.76-1.51-1.39-2.36-1.12Z"/>
          <path class="cls-10" d="m42.38,554.42c-.17-.11-.37-.17-.58-.17-.03,0-.05,0-.08,0-.13-.03-.25-.06-.38-.05-.13.01-.25.02-.38.04-.19.04-.36.12-.5.24-.24.18-.43.42-.52.72-.2.67-.07,1.42.4,1.94.64.71,1.79.73,2.47.05.32-.32.52-.77.53-1.23,0-.59-.3-1.14-.8-1.46-.05-.03-.1-.06-.16-.09Z"/>
          <path class="cls-24" d="m43.35,614.97c1.77.51,3.67.62,5.61.1,2.36-.64,4-1.61,5.15-2.77-4.69-1.22-8.88,1.28-10.76,2.68Z"/>
          <g>
            <path class="cls-24" d="m43.41,542.59c-.02,1.73.37,3.74,2.25,3.94,3.36.37,7.3-1.73,7.3-1.73,0,0,1.47,3.98,7.36,4.8,1.79.25,3.17-.07,4.22-.63-4.85-4.05-11.5-6.52-21.13-6.39Z"/>
            <path class="cls-24" d="m5.47,561.06c1.73.32,4.9.44,6.77-2.3,2.67-3.9,2.25-6.55,2.25-6.55,0,0,1.45,1.24,4.78.14,2.01-.67,3.36-3.94,4.11-6.43-8.61,3.09-14.47,8.59-17.91,15.14Z"/>
          </g>
        </g>
        <path class="cls-11" d="m4.73,582.81c.6,1.65,3.97,1.17,3.97,1.17,0,0-3.01,1.98-1.94,3.41s4.14-.35,4.14-.35c0,0-3.22,2.45-1.42,3.82,1.8,1.37,4.33-1.34,4.33-1.34,0,0-2.17,4.21.63,5.34,2.8,1.13,4.08-3.29,4.08-3.29,0,0-.08,4.13,2.31,4.41,2.39.28,2.19-3.68,2.19-3.68,0,0,1.28,5.4,3.18,4.52,1.9-.87.76-5.25.76-5.25,0,0,2.71,4.32,4.26,3.74,1.55-.58-.4-6.13-.4-6.13,0,0,3.65,2.94,4.76,1.83,1.11-1.11-2.2-5.28-2.2-5.28,0,0,3.82,1,4.52-.54s-3.22-3.35-3.22-3.35c0,0,3.81.47,3.68-1.4-.13-1.87-3.43-2.46-3.43-2.46,0,0,2.63-1.36,2.47-2.48s-3.12-1.58-3.12-1.58c0,0,3.11-1.58,1.86-3.29-1.25-1.71-4.9,1.16-4.9,1.16,0,0,3.75-5.11,2-6.28-1.75-1.17-4.38,3.36-4.38,3.36,0,0,1.58-4.49-.58-5.14-2.16-.65-3.58,3.59-3.58,3.59,0,0,.54-4.88-1.13-5.22-1.66-.34-2.32,4.03-2.32,4.03,0,0,.35-3.88-1.86-4.31s-2.18,4.63-2.18,4.63c0,0-.41-4.86-3.11-4.65-2.69.21-1.14,5.44-1.14,5.44,0,0-3.32-3.33-5.14-3.01-1.82.33,1.33,5.17,1.33,5.17,0,0-4.14-1.45-4.83-.34-.69,1.11,2.87,3.65,2.87,3.65,0,0-3.14-.31-3.55,1.05-.42,1.36,3.78,2.17,3.78,2.17,0,0-3.83,1.22-3.47,2.72.35,1.5,3.67,1.24,3.67,1.24,0,0-3.5,1.25-2.9,2.9Zm15.63-14.75c12.1,1.33,16.78,12.24,10.86,18.88-8.9,9.98-19.81.55-21.43-4.71-1.62-5.26-3.44-15.7,10.57-14.16Z"/>
      </g>
    </g>
    <g>
      <g>
        <path class="cls-21" d="m91.26,571.16c1.63.98,1.35,3.31.94,6.17.91.2,2.41.54,4.3.98.05-.21.1-.42.15-.64.18-.73.29-1.52.71-2.15.26-.4.82-.19.85.25.05.75-.24,1.5-.42,2.23-.05.19-.09.38-.13.57,2.47.58,5.45,1.3,8.57,2.1.27-1.04.53-2.1.89-3.11.21-.58,1.01-.32.9.27-.19,1.04-.48,2.08-.76,3.11,3.19.83,6.47,1.73,9.48,2.64.47-.97.88-1.98,1.22-3,.2-.62,1.16-.34.98.29-.28.99-.63,2.04-1.07,3.06,1.67.52,3.24,1.04,4.62,1.55.4-1.1.66-2.12.81-2.94.86-4.88,24.54.83,32.7-17.56,11.21-25.26-5.13-53.65-26.62-59.04-29.54-7.4-50.47,11.17-54.69,30.79-4.22,19.62,11.8,31.57,16.57,34.42Zm49.38-29.73c16.86-.92,14.16,12.07,11.87,18.26-2.28,6.18-12.66,13.06-25.94,4.23-4.08-2.72-.49-21.69,14.07-22.49Zm-31.97,20.23c.55-.99,3.81-6.98,5.39-6.57.73.19,2.33,9.22,1.62,9.43-.71.22-7.78-1.48-7.01-2.87Zm-28.02-23.38c1.44-6.43,4.43-14.82,17.81-9.04,13.38,5.78,6.57,26.48,1.67,26.68-17.6.75-20.92-11.21-19.48-17.64Z"/>
        <path class="cls-21" d="m96.2,579.67c-.04.2-.09.41-.13.61-.33,1.6-.6,3.27-.73,4.9-.04.52.8.66.91.14.36-1.62.66-3.25,1-4.88.04-.17.07-.34.11-.51,3.18.74,6.01,1.43,8.51,2.08-.33,1.18-.68,2.37-.91,3.57-.12.62.75.9.96.28.4-1.17.68-2.38.99-3.58,3.74.98,6.73,1.86,9.12,2.64-.77,1.34-1.77,2.47-2.65,3.73-.37.54.4,1.13.87.71,1.2-1.08,2.19-2.51,2.98-4.05,1.96.67,3.46,1.25,4.61,1.77-2.46,5.16-8.22,10.88-20.73,6.78-10.04-3.29-9.8-9.85-9.09-15.16,1.46.32,2.86.64,4.19.95Z"/>
      </g>
      <g>
        <path class="cls-14" d="m129.38,505.95c-10.04-2.52-19.09-2.03-26.83.48-.5,1.23-.59,2.54.69,3.34,2.92,1.83,8.46-1.93,8.46-1.93,0,0-2.09,3.81,1.22,4.98,3.31,1.17,7.92-4.01,7.92-4.01,0,0,.78,5.81,5.42,6.41,4.63.6,6.17-3.95,6.17-3.95,0,0,.77,7.15,5.41,7.75,4.63.6,2.73-5.35,2.73-5.35,0,0,2.65,7.32,6.85,7.41,1,.02,1.91-.31,2.73-.83-5.42-7.07-12.74-12.3-20.77-14.31Z"/>
        <path class="cls-14" d="m92.7,566.3s4.65-6.19,2-8.52c-2.65-2.32-7.99,4.05-7.99,4.05,0,0-1.24-6.65-3.93-6.68-1.72-.02-2.17,3.67-2.26,6.32,3.91,5.08,8.53,8.36,10.74,9.68.96.57,1.26,1.62,1.26,2.96,3.27-2.43,8.7-6.9,8.07-9.34-.9-3.47-7.89,1.52-7.89,1.52Z"/>
        <path class="cls-14" d="m141.87,570.05c-2.39-1.47-6.74,5.45-6.74,5.45,0,0-.57-6.32-3.79-7.15-3.22-.82-2.81,7.77-2.81,7.77,0,0-5.93-8.16-8.35-5.16-1.59,1.97,1.31,7.34,3.5,10.83,1.88-2.04,9.89-1.55,17.77-4.16.95-3.36,1.59-6.85.41-7.58Z"/>
        <path class="cls-10" d="m116.55,548.44c-.78-.23-1.62-.07-2.23.46-.6.42-.94,1.17-.76,1.93.16.71.73,1.22,1.35,1.57.82.46,1.81.55,2.6-.03.8-.58,1.21-1.69.72-2.62-.34-.66-.97-1.11-1.67-1.32Z"/>
        <path class="cls-10" d="m118.81,543.14c-.27-.15-.54-.25-.86-.25-.27,0-.61.07-.84.23-.2.14-.4.29-.53.5-.03.05-.05.1-.08.14-.18.16-.32.37-.38.62-.12.44-.08.9.15,1.29.16.28.41.55.7.71.72.39,1.61.37,2.24-.2.64-.59.73-1.53.33-2.28-.16-.3-.44-.59-.73-.75Z"/>
        <path class="cls-10" d="m120.46,537.82c-.08-.01-.13-.02-.16-.02-.62-.41-1.43-.39-2.01.14-.63.58-.81,1.55-.39,2.31.44.79,1.39,1.16,2.26.94.42-.11.8-.35,1.08-.69.16-.19.27-.42.34-.66.05-.17.09-.36.08-.53-.01-.27-.05-.54-.19-.78-.21-.38-.58-.63-1-.7Z"/>
        <path class="cls-26" d="m100,588.32c-.11-.15-.22-.3-.33-.45-.37-.5-.91-.74-1.53-.67-.41.05-.77.21-1.06.49-.02.01-.05.02-.07.03-.38.21-.57.51-.73.87.03-.06.06-.12.08-.19-.05.1-.09.19-.13.28-.01.03-.03.06-.04.09.01-.03.02-.05.03-.08-.06.16-.11.32-.12.52,0,.1,0,.17.02.29.03.27.09.49.21.74.25.48.7.84,1.21.99.56.17,1.11.09,1.64-.14.43-.18.71-.5,1-.85.06-.13.12-.26.17-.39.07-.21.08-.42.04-.63-.04-.37-.19-.61-.41-.91Z"/>
        <path class="cls-26" d="m103.95,588.97c-.25.12-.46.31-.63.54-1.07.61-1.27,2.2-.41,3.09.92.95,2.42.78,3.23-.21.72-.87.88-2.24.01-3.09-.59-.58-1.48-.7-2.2-.33Z"/>
        <path class="cls-26" d="m110.3,590.66c-.4-.01-.79.12-1.1.4-.09.08-.16.18-.23.27-.17.19-.3.4-.36.66-.08.33-.09.64-.03.98.08.39.29.76.57,1.04.78.81,2.16.8,2.93-.01.67-.7.79-1.73.35-2.59-.39-.77-1.36-1.09-2.14-.75Z"/>
        <path class="cls-11" d="m109.54,544.47c-4.8-.26,2.73,8.12,2.73,8.12,0,0,2.06-7.86-2.73-8.12Z"/>
        <path class="cls-11" d="m117.75,554.46s9.36-3.91,6.98-6.27c-2.38-2.37-6.98,6.27-6.98,6.27Z"/>
      </g>
      <path class="cls-10" d="m80.64,538.27c-.2.9-.3,1.91-.29,2.97-2.29-2.8-2.93-6.73-2.02-7.53,1.21-1.05,2.3.04,2.3.04,0,0-1.87-4.53-.47-5.78,1.4-1.25,3.94.14,3.94.14,0,0-.45-6.29,2.06-6.96,2.51-.67,5.5,4.83,5.5,4.83,0,0,1.8-3.06,3.94-2.04,1.22.58,1.88,3.04,2.23,5.05-12.83-5.23-15.76,2.96-17.18,9.29Z"/>
      <path class="cls-10" d="m152.51,559.69c2.28-6.18,4.99-19.18-11.87-18.26-1.07.06-2.06.24-3.01.48.29-2.05,1.1-5.07,3.34-4.83,3.36.35,4.38,3.86,4.38,3.86,0,0,3.81-4.65,6.62-3.3,2.81,1.34,1.53,6.1,1.53,6.1,0,0,3.27-1.09,3.78,1.11.5,2.2-1.21,5.41-1.21,5.41,0,0,2.24.66,1.68,3.45-.45,2.21-4.18,5.7-5.7,7.05.18-.35.35-.71.48-1.06Z"/>
      <path class="cls-23" d="m108.07,520.22c3.95,1.1,7.23-2.98,11.2-1.93,3.97,1.05,4.93,4.11,4.93,4.11,0,0,2.41-2.13,6.34-.97,3.94,1.15,4.63,6.35,8.58,7.45,1.77.49,3.72-.83,3.72-.83,0,0-3.35,8.23-12.26,5.74-6.74-1.88-7.47-7.51-7.47-7.51,0,0-3.54,4.44-10.27,2.56-8.91-2.49-7.52-11.25-7.52-11.25,0,0,.99,2.14,2.75,2.64Z"/>
    </g>
    <g>
      <path class="cls-14" d="m71.29,525.72c2.99,2.04-3.77,10.22-3.77,10.22,0,0,.79-12.27,3.77-10.22Z"/>
      <path class="cls-14" d="m64.53,536.42s-13.68-2.83-11.32-5.35c2.36-2.52,11.32,5.35,11.32,5.35Z"/>
      <path class="cls-14" d="m64.69,518.33c3.3.63-.79,11.32-.79,11.32,0,0-2.52-11.95.79-11.32Z"/>
      <path class="cls-8" d="m56.2,522.11c4.72-1.1,5.19,8.65,5.19,8.65,0,0-9.91-7.55-5.19-8.65Z"/>
      <path class="cls-14" d="m50.54,526.67s-11.95-.47-9.43-3.46c2.52-2.99,9.43,3.46,9.43,3.46Z"/>
      <path class="cls-14" d="m51.32,511.73c3.3-.47,1.57,8.18,1.57,8.18,0,0-4.87-7.71-1.57-8.18Z"/>
      <path class="cls-14" d="m47.7,531.38s-11.01,1.1-9.59-1.73c1.42-2.83,9.59,1.73,9.59,1.73Z"/>
      <path class="cls-14" d="m60.44,510.63c2.2.63-2.2,6.92-2.2,6.92,0,0,0-7.55,2.2-6.92Z"/>
      <path class="cls-8" d="m48.33,519.91s-9.75-3.14-6.45-7.08c3.3-3.93,6.45,7.08,6.45,7.08Z"/>
    </g>
    <g>
      <path class="cls-7" d="m209.26,563.6c3.07-1.32,9.51,8.82,9.51,8.82,0,0,3.01-10.59,6.4-9.49,3.39,1.1,1.63,11.26,1.32,14.4-.31,3.14-2.11,17.27-3.02,17.12-.92-.15-5.49-5.01-8.64-9.18-7.01-9.29-9.4-20.03-5.57-21.67Z"/>
      <path class="cls-16" d="m228.31,584.74c.41-.07.82-.03,1.24.01.41.04.85.05,1.22.23.45.22.54.87.2,1.22-.11.11-.22.19-.38.23-.05.01-.09.02-.14.02,0,0,0,0,0,0-.31.01-.63-.02-.94-.05-.37-.04-.82-.03-1.16-.17-.33-.12-.58-.36-.59-.73,0-.31.22-.7.55-.76Z"/>
      <path class="cls-16" d="m227.59,588.97c.41-.16,1.01-.04,1.42.1.47.16.86.38,1.24.7.3.25.32.74.1,1.04-.24.33-.65.41-1.02.24-.28-.13-.54-.23-.84-.32-.35-.1-.74-.12-1.06-.29-.65-.34-.47-1.23.15-1.46Z"/>
      <g>
        <path class="cls-16" d="m228.48,594.22s-.02-.02.01.02c0,0,0-.01-.01-.02Z"/>
        <path class="cls-16" d="m226.55,593.07c.45.04.81.23,1.17.48.17.12.34.24.5.38.1.09.17.18.26.28.04.05.16.2.18.22.25.31.11.82-.18,1.04-.33.26-.73.23-1.06-.03-.08-.06-.19-.13-.33-.24-.05-.03-.05-.04,0,0-.05-.04-.1-.07-.15-.11,0,0-.09-.06-.11-.07-.27-.18-.59-.3-.82-.53-.24-.23-.32-.58-.2-.89.11-.28.42-.56.74-.53Z"/>
      </g>
      <path class="cls-16" d="m222.77,595.99c.24-.36.78-.55,1.13-.18.29.31.34.68.4,1.09.05.33.11.67.01,1-.09.32-.33.55-.67.6-.29.05-.68-.08-.82-.37-.17-.36-.2-.71-.21-1.1-.01-.34-.04-.75.16-1.04Z"/>
      <path class="cls-16" d="m217.15,593.03c.28-.28.52-.59.8-.87.64-.63,1.64.1,1.26.91-.2.42-.5.79-.81,1.13-.32.37-.69.76-1.16.92-.68.22-1.27-.56-.95-1.17.2-.37.56-.62.86-.92Z"/>
      <path class="cls-16" d="m214.38,588.85c.12-.1.24-.19.38-.26.18-.1.42-.16.57-.22.32-.13.72.1.85.39.14.32.04.63-.21.85-.16.2-.37.34-.55.5-.25.21-.46.46-.74.64-.68.43-1.44-.35-1.11-1.04.17-.36.5-.62.81-.86Z"/>
      <path class="cls-16" d="m212.16,584.07c.8.08.96,1.05.22,1.38-.57.25-1.08.62-1.64.87-.26.12-.62-.04-.79-.25-.19-.24-.22-.55-.09-.83.38-.8,1.46-1.26,2.3-1.17Z"/>
      <path class="cls-16" d="m206.24,579.95c.78-.49,1.76-.72,2.66-.86.75-.12,1.13,1.14.43,1.45-.83.37-1.78.72-2.69.74-.71.01-1.01-.96-.4-1.34Z"/>
      <path class="cls-16" d="m204.94,573.25c.33-.14.75-.11,1.11-.11.38,0,.79-.06,1.13.15.5.3.47.91.04,1.25-.31.24-.76.22-1.14.26-.36.04-.75.1-1.11,0-.34-.1-.6-.4-.61-.76,0-.38.24-.65.57-.78Z"/>
      <path class="cls-16" d="m202.28,567.61c.52-.05,1.07.05,1.58.09.51.05,1.07.06,1.56.21.83.26.66,1.34-.16,1.45-.52.07-1.06-.02-1.58-.06-.52-.04-1.07-.04-1.57-.18-.87-.24-.69-1.44.17-1.53Z"/>
      <path class="cls-16" d="m204.15,562.21c.51-.1,1.01.05,1.46.3.19.11.39.24.56.38.16.14.32.34.4.43.28.3.33.76.04,1.07-.28.3-.77.32-1.07.04-.03-.03-.04-.04-.05-.05,0,0-.03,0-.06-.03-.06-.03-.12-.07-.18-.11-.13-.08-.26-.16-.4-.22-.06-.03-.13-.06-.19-.08-.01,0-.02,0-.02-.01,0,0-.02,0-.05-.02-.2-.06-.41-.12-.58-.23-.27-.18-.45-.44-.41-.79.04-.29.25-.62.56-.68Z"/>
      <path class="cls-16" d="m208.94,558.77c1.07.46,1.63,1.81,1.57,2.89-.04.79-1.24,1.09-1.45.23-.09-.36-.24-.74-.42-1.06-.2-.36-.48-.63-.72-.97-.48-.69.38-1.37,1.02-1.09Z"/>
      <path class="cls-16" d="m214.17,558.55c.3,1.05.38,2.45.07,3.5-.19.65-.98.59-1.22.03-.45-1.01-.53-2.41-.39-3.5.11-.81,1.33-.76,1.54-.04Z"/>
      <path class="cls-16" d="m225.78,561.34c.54-.44.84-1.15,1.39-1.56.45-.33,1.26.06,1.2.65-.1.96-.9,1.58-1.69,2.01-.31.17-.7.13-.93-.16-.2-.25-.25-.71.03-.94Z"/>
      <path class="cls-16" d="m229.37,581.15c.41-.1.83-.08,1.24-.11.4-.03.79-.1,1.18-.11.68-.02,1.08,1.04.41,1.36-.78.37-1.94.62-2.8.37-.69-.21-.83-1.32-.04-1.5Z"/>
      <path class="cls-16" d="m230.17,576.98c.37-.19.75-.22,1.15-.28.31-.04.64-.1.95-.1.37,0,.72.09.95.41.19.27.22.61.04.9-.17.27-.46.38-.73.33-.21.03-.48.09-.72.13-.46.08-.93.19-1.4.11-.67-.12-.87-1.18-.24-1.5Z"/>
      <path class="cls-16" d="m230.72,571.33c.25-.16.54-.2.81-.3.24-.09.48-.19.72-.28.35-.12.74.08.88.41.16.36.02.69-.28.93-.24.19-.53.32-.82.43-.28.11-.6.24-.9.21-.34-.03-.64-.2-.74-.54-.1-.32.04-.68.32-.86Z"/>
      <path class="cls-16" d="m229.24,566.35c.25-.3.65-.48.99-.65.37-.18.78-.4,1.21-.37.56.03,1.07.79.55,1.24-.29.25-.62.36-.96.53-.34.16-.64.41-1.01.52-.76.22-1.26-.69-.78-1.26Z"/>
      <path class="cls-16" d="m228.28,563.06c.48-.25.84-.58,1.23-.93.26-.24.63-.31.93-.09.28.21.39.59.21.91-.38.68-1.09,1.13-1.82,1.33-.7.19-1.25-.86-.55-1.22Z"/>
      <path class="cls-16" d="m221.45,558.79c.04-.36.47-.59.79-.55.37.05.64.34.66.71.03.58-.01,1.21-.14,1.77-.07.28-.34.5-.63.5-.26,0-.6-.19-.65-.47-.11-.65-.1-1.31-.03-1.97Z"/>
      <path class="cls-16" d="m217.53,560.94c.01-.37.25-.68.62-.74.33-.05.75.15.82.51.15.83.28,1.8.17,2.63-.09.75-1.26.71-1.44.04-.11-.4-.11-.82-.13-1.23-.03-.4-.06-.81-.04-1.21Z"/>
      <path class="cls-16" d="m219.17,575.88c4.22.29,3.04,13.48,3.04,13.48,0,0-7.82-13.82-3.04-13.48Z"/>
    </g>
    <g>
      <path class="cls-18" d="m171.87,558.6c9.97-5.02,20,.9,24.9,10.63,4.9,9.73,1.79,20.45-8.17,25.47-9.97,5.02-25.2,2.44-30.1-7.29-4.9-9.73,3.4-23.79,13.37-28.81Z"/>
      <path class="cls-17" d="m178.55,570.87c3.7.4,6.2,3.29,5.79,7.09-.41,3.79-3.99,7.69-7.69,7.28-3.7-.4-6.2-5.4-5.78-9.2.41-3.79,3.98-5.57,7.69-5.17Z"/>
      <path class="cls-17" d="m162.88,575.44c1.15-.76,5.38-.63,6.87-.02,1.48.61,3.8,1.26,3.8,1.26l-.66-2.75s-2.86-.46-4.09-2.19c-1.23-1.73-3.13-6.03-3.13-6.39,0-.16-.3-.87-.63-1.65,1.7-1.73,3.57-3.23,5.54-4.39,1.24.87,3.99,2.61,4.66,5.11.84,3.11,1.25,7.7,1.25,7.7l4.67,1.36s3.35-3.77,7.07-4.47c3.72-.7,6.84.99,7.56.81.29-.07.81.03,1.34.17.92,2.01,1.51,4.05,1.76,6.07-.4.23-.99.59-1.53,1.02-.9.73-6.71,3.38-9.97,3.57-3.25.19-6.44-.92-6.44-.92,0,0,.94,1.88,2.43,3.75,1.49,1.88,3.63,4.33,3.81,5.95.16,1.43.27,4.69.18,5.83-2.21.94-4.62,1.54-7.1,1.79-.59-.59-1.34-1.38-1.92-2.18-1.16-1.59-2.65-5.63-2.59-6.93.07-1.3-.66-5.1-.66-5.1l-1.95-.65s-2.78,1.31-3.72,1.96c-.94.65-5.96,2.55-10.04,1.8-.61-.11-1.16-.26-1.67-.42-.82-2.53-.87-5.28-.32-8.04,1.85-.6,4.71-1.56,5.47-2.07Z"/>
    </g>
    <circle class="cls-15" cx="310.37" cy="581.24" r="1.76"/>
    <path class="cls-15" d="m305.55,585.61l-.08-.47c-.01-.34.06-.65.22-.95.11-.23.27-.42.48-.56.17-.17.38-.28.62-.35.23-.08.47-.1.71-.06.25,0,.49.07.71.2.14.1.27.19.41.29.24.23.4.5.5.81.03.16.05.31.08.47.01.34-.06.65-.22.95-.11.23-.27.42-.48.56-.17.17-.38.28-.62.35-.23.08-.47.1-.71.06-.25,0-.49-.07-.71-.2-.14-.1-.27-.19-.41-.29-.24-.23-.4-.5-.5-.81Z"/>
    <path class="cls-15" d="m301.41,587.16c.52-.97,1.86-1.44,2.84-.87.98.58,1.42,1.8.87,2.84-.52.97-1.86,1.44-2.84.87-.98-.58-1.42-1.8-.87-2.84Z"/>
    <path class="cls-15" d="m296.18,590.31c-.03-.18-.06-.36-.09-.53-.01-.38.07-.74.25-1.08.13-.26.31-.47.54-.63.2-.19.43-.32.71-.4.27-.09.54-.11.81-.07.29,0,.55.08.81.22.15.11.31.22.46.33.27.26.46.56.57.92.03.18.06.36.09.53.01.38-.07.74-.25,1.08-.13.26-.31.47-.54.63-.2.19-.43.32-.71.4-.27.09-.54.11-.81.07-.29,0-.55-.08-.81-.22-.15-.11-.31-.22-.46-.33-.27-.26-.46-.56-.57-.92Z"/>
    <path class="cls-15" d="m291.24,587.6c.48-.91,1.74-1.35,2.66-.81.92.54,1.33,1.69.81,2.66-.48.91-1.74,1.35-2.66.81-.92-.54-1.33-1.69-.81-2.66Z"/>
    <path class="cls-15" d="m286.5,586.42c-.03-.16-.06-.32-.08-.49-.01-.35.06-.68.23-.98.12-.24.28-.43.5-.58.18-.17.4-.29.64-.36.24-.08.49-.1.74-.06.26,0,.5.07.73.2.14.1.28.2.42.3.25.23.42.51.52.84.03.16.06.32.08.49.01.35-.06.68-.23.98-.12.24-.28.43-.5.58-.18.17-.4.29-.64.36-.24.08-.49.1-.74.06-.26,0-.5-.07-.73-.2-.14-.1-.28-.2-.42-.3-.25-.23-.42-.51-.52-.84Z"/>
    <circle class="cls-15" cx="283.26" cy="588.19" r="1.74"/>
    <path class="cls-15" d="m277.27,585.61c.46-.86,1.66-1.29,2.53-.77.87.52,1.27,1.61.77,2.53-.46.86-1.66,1.29-2.53.77-.87-.52-1.27-1.61-.77-2.53Z"/>
    <path class="cls-15" d="m273.07,583.17c.47-.89,1.7-1.32,2.6-.79.9.53,1.3,1.65.79,2.6-.47.89-1.7,1.32-2.6.79-.9-.53-1.3-1.65-.79-2.6Z"/>
    <path class="cls-15" d="m267.43,585.38c-.03-.17-.06-.33-.08-.5-.01-.36.06-.69.23-1.01.12-.24.29-.44.51-.59.19-.18.41-.3.66-.37.25-.09.5-.11.75-.06.27,0,.52.07.75.21.14.1.29.21.43.31.25.24.43.53.53.86l.08.5c.01.36-.06.69-.23,1.01-.12.24-.29.44-.51.59-.19.18-.41.3-.66.37-.25.09-.5.11-.75.06-.27,0-.52-.07-.75-.21-.14-.1-.29-.21-.43-.31-.25-.24-.43-.53-.53-.86Z"/>
    <path class="cls-15" d="m264.04,589.48c-.16-.17-.27-.36-.33-.59-.08-.22-.1-.45-.06-.68,0-.24.06-.46.19-.67.09-.13.18-.26.28-.39.22-.23.47-.38.77-.48.15-.03.3-.05.45-.08.32-.01.62.06.9.21,0,0,.01,0,.02,0,.28.15.51.36.68.63.09.15.16.32.2.49.05.14.08.29.08.45.01.3-.05.58-.19.85-.14.26-.34.47-.59.63-.13.08-.27.14-.42.18-.17.06-.34.09-.52.1-.32.01-.62-.06-.9-.21,0,0-.01,0-.02-.01-.22-.11-.4-.26-.53-.46Z"/>
    <path class="cls-15" d="m259.31,593.39c-.03-.17-.06-.34-.09-.51-.01-.36.06-.7.23-1.02.12-.25.29-.45.52-.6.19-.18.41-.31.67-.37.25-.09.51-.11.76-.06.27,0,.52.07.76.21.15.1.29.21.44.31.26.24.43.53.54.87.03.17.06.34.09.51.01.36-.06.7-.23,1.02-.12.25-.29.45-.52.6-.19.18-.41.31-.67.37-.25.09-.51.11-.76.06-.27,0-.52-.07-.76-.21-.15-.1-.29-.21-.44-.31-.26-.24-.43-.53-.54-.87Z"/>
    <path class="cls-15" d="m253.76,594.82c-.03-.16-.06-.33-.08-.49-.01-.35.06-.68.23-.99.12-.24.28-.43.5-.58.18-.18.4-.3.65-.36.24-.08.49-.1.74-.06.26,0,.51.07.74.2.14.1.28.2.42.3.25.24.42.52.52.84.03.16.06.33.08.49.01.35-.06.68-.23.99-.12.24-.28.43-.5.58-.18.18-.4.3-.65.36-.24.08-.49.1-.74.06-.26,0-.51-.07-.74-.2-.14-.1-.28-.2-.42-.3-.25-.24-.42-.52-.52-.84Z"/>
    <path class="cls-15" d="m248.37,595.81c-.03-.17-.06-.33-.08-.5-.01-.35.06-.69.23-1,.12-.24.29-.44.51-.59.18-.18.4-.3.66-.37.25-.09.5-.11.75-.06.27,0,.52.07.75.21.14.1.29.21.43.31.25.24.43.52.53.86.03.17.06.33.08.5.01.35-.06.69-.23,1-.12.24-.29.44-.51.59-.18.18-.4.3-.66.37-.25.09-.5.11-.75.06-.27,0-.52-.07-.75-.21-.14-.1-.29-.21-.43-.31-.25-.24-.43-.52-.53-.86Z"/>
    <path class="cls-15" d="m243.39,594.96c-.03-.16-.06-.33-.08-.49-.01-.35.06-.68.23-.99.12-.24.28-.44.5-.58.18-.18.4-.3.65-.36.24-.08.49-.1.74-.06.26,0,.51.07.74.2.14.1.28.2.42.3.25.24.42.52.52.84l.08.49c.01.35-.06.68-.23.99-.12.24-.28.44-.5.58-.18.18-.4.3-.65.36-.24.08-.49.1-.74.06-.26,0-.51-.07-.74-.2-.14-.1-.28-.2-.42-.3-.25-.24-.42-.52-.52-.84Z"/>
    <path class="cls-15" d="m239.28,591.74l-.08-.48c-.01-.34.06-.67.22-.98.12-.24.28-.43.49-.57.18-.17.39-.29.64-.36.24-.08.48-.1.73-.06.26,0,.5.07.73.2.14.1.28.2.42.3.24.23.41.51.51.83l.08.48c.01.34-.06.67-.22.98-.12.24-.28.43-.49.57-.18.17-.39.29-.64.36-.24.08-.48.1-.73.06-.26,0-.5-.07-.73-.2-.14-.1-.28-.2-.42-.3-.24-.23-.41-.51-.51-.83Z"/>
    <path class="cls-15" d="m239.84,585.86c.45-.85,1.63-1.26,2.48-.76.86.51,1.24,1.58.76,2.48-.45.85-1.63,1.26-2.48.76-.86-.51-1.24-1.58-.76-2.48Z"/>
    <path class="cls-15" d="m242.17,582.95c-.03-.16-.05-.32-.08-.47-.01-.34.06-.66.22-.96.11-.23.27-.42.48-.56.18-.17.39-.29.63-.35.24-.08.47-.1.72-.06.25,0,.49.07.71.2l.41.29c.24.23.41.5.5.82.03.16.05.32.08.47.01.34-.06.66-.22.96-.11.23-.27.42-.48.56-.18.17-.39.29-.63.35-.24.08-.47.1-.72.06-.25,0-.49-.07-.71-.2-.14-.1-.27-.2-.41-.29-.24-.23-.41-.5-.5-.82Z"/>
    <path class="cls-15" d="m246.51,580.44l-.08-.45c-.01-.32.06-.63.21-.91.11-.22.26-.4.46-.54.17-.16.37-.27.6-.33.22-.08.45-.1.68-.06.24,0,.47.06.68.19.13.09.26.19.39.28.23.22.39.48.48.78l.08.45c.01.32-.06.63-.21.91-.11.22-.26.4-.46.54-.17.16-.37.27-.6.33-.22.08-.45.1-.68.06-.24,0-.47-.06-.68-.19-.13-.09-.26-.19-.39-.28-.23-.22-.39-.48-.48-.78Z"/>
    <path class="cls-15" d="m251.14,580.5c-.06-.12-.11-.24-.17-.37-.07-.2-.08-.4-.05-.6,0-.21.06-.41.17-.6,0-.01,0-.02.01-.03,0,0,0,0,0-.01.08-.12.17-.23.25-.35,0,0,.01-.02.02-.03,0,0,0,0,.01-.01.11-.09.22-.18.32-.26.02-.01.04-.03.06-.04.13-.06.25-.11.38-.17,0,0,.01,0,.02,0,.14-.05.29-.07.44-.07.01,0,.02,0,.03,0,.07,0,.37.02.44.04.07.02.36.13.43.16.01,0,.02,0,.03.02.05.03.33.23.37.27.05.04.25.29.28.34.04.06.09.21.1.21.03.06.07.14.1.22.02.14.05.27.07.41-.01.14-.02.28-.04.42-.05.13-.1.27-.15.4-.1.2-.23.36-.41.48-.1.1-.21.17-.35.22-.12.07-.25.11-.39.12-.14.04-.27.05-.41.02-.08,0-.16-.01-.24-.03-.04,0-.09,0-.13-.02-.14,0-.28-.03-.4-.09-.21-.06-.39-.16-.54-.32-.09-.11-.17-.21-.26-.32Z"/>
    <path class="cls-15" d="m255.28,582.97c-.17-.17-.28-.38-.34-.62-.03-.16-.05-.31-.08-.47.01-.16.03-.32.04-.48.06-.15.11-.31.17-.46.1-.13.19-.27.29-.4.12-.1.25-.2.37-.3.2-.14.42-.21.66-.23.16-.05.31-.05.47-.02.25,0,.48.07.7.19.02.01.05.03.07.04.22.11.39.26.53.45.16.17.27.36.33.59.03.15.05.3.08.44.01.32-.06.62-.21.9-.01.02-.02.05-.04.07-.1.13-.19.27-.29.4-.12.1-.25.2-.37.3-.2.14-.42.21-.66.23-.16.05-.31.05-.47.02-.17,0-.32-.03-.47-.11-.16-.04-.31-.11-.43-.23-.15-.08-.26-.19-.35-.33Z"/>
    <path class="cls-15" d="m253.88,587.02c-.03-.16-.06-.33-.08-.49-.01-.35.06-.68.23-.99.12-.24.28-.43.5-.58.18-.17.4-.3.65-.36.24-.08.49-.1.74-.06.26,0,.51.07.74.2.14.1.28.2.42.3.25.24.42.52.52.84l.08.49c.01.35-.06.68-.23.99-.12.24-.28.43-.5.58-.18.17-.4.3-.65.36-.24.08-.49.1-.74.06-.26,0-.51-.07-.74-.2-.14-.1-.28-.2-.42-.3-.25-.24-.42-.52-.52-.84Z"/>
    <path class="cls-15" d="m249.63,589.6s0,0,0,0c-.13-.19-.2-.41-.22-.63-.04-.15-.05-.3-.02-.45,0-.24.06-.46.19-.67v-.02c.12-.22.27-.4.46-.53.17-.16.36-.27.59-.33.22-.08.45-.1.67-.06.24,0,.46.06.67.19.13.09.26.18.38.28.22.21.38.47.47.77.03.15.05.3.08.45.01.32-.06.62-.21.9v.02c-.1.13-.2.26-.29.38-.16.18-.34.3-.56.38-.12.08-.26.12-.4.13-.14.04-.28.05-.42.04-.05,0-.1,0-.16-.02-.21,0-.4-.06-.59-.17-.12-.09-.24-.17-.36-.26-.12-.12-.22-.25-.3-.39Z"/>
    <path class="cls-19" d="m146.23,583.92s-3.05-1.77-2.25-2.89c.8-1.12,3.29,1.93,3.29,1.93,0,0-1.2-4.34.96-3.94,2.17.4.16,3.86.16,3.86,0,0,3.78-1.2,4.18.24.4,1.45-3.37,1.2-3.37,1.2,0,0,3.45,2.01,1.85,3.29-1.61,1.29-2.81-2.73-2.81-2.73,0,0-.32,3.78-1.69,3.37-1.37-.4.4-3.21.4-3.21,0,0-3.37,1.37-3.7-.08s2.97-1.04,2.97-1.04Z"/>
    <path class="cls-19" d="m132.95,590.61s-5.16-2.99-3.8-4.89c1.36-1.9,5.57,3.26,5.57,3.26,0,0-2.04-7.33,1.63-6.65,3.67.68.27,6.52.27,6.52,0,0,6.38-2.04,7.06.41.68,2.44-5.7,2.04-5.7,2.04,0,0,5.84,3.39,3.12,5.57-2.72,2.17-4.75-4.62-4.75-4.62,0,0-.54,6.38-2.85,5.7-2.31-.68.68-5.43.68-5.43,0,0-5.7,2.31-6.25-.14-.54-2.44,5.02-1.77,5.02-1.77Z"/>
    <path class="cls-19" d="m76.13,589.28c.7-1.58,4.53,1.52,4.53,1.52,0,0-2.58-5.01.18-5.07,2.76-.06,1.18,4.68,1.18,4.68,0,0,4.32-2.44,5.18-.77.86,1.67-3.83,2.34-3.83,2.34,0,0,4.75,1.58,3.11,3.56-1.64,1.99-4.14-2.63-4.14-2.63,0,0,.57,4.71-1.21,4.56-1.78-.14-.33-4.04-.33-4.04,0,0-3.79,2.53-4.55.85-.76-1.69,3.38-2.04,3.38-2.04,0,0-4.19-1.39-3.49-2.97Z"/>
    <path class="cls-19" d="m187.99,548.44s-5.49-2.56-3.18-4.42c2.31-1.87,4.08,3.2,4.08,3.2,0,0,1.23-5.55,3.06-4.69s-.88,5.13-.88,5.13c0,0,5.07-1.78,4.98.99-.09,2.76-5.25.49-5.25.49,0,0,3.58,3.63,1.97,4.67-1.6,1.04-2.93-3.22-2.93-3.22,0,0-1.55,4.64-3.31,3.71-1.76-.93,1.53-3.95,1.53-3.95,0,0-4.47,1.58-4.92-.23-.45-1.8,4.85-1.68,4.85-1.68Z"/>
    <path class="cls-19" d="m168.72,543.67s-2.66-4.96-.62-5.81c2.03-.85,2.85,5.38,2.85,5.38,0,0,2.01-6.9,4.61-4.53,2.61,2.37-3.02,5.37-3.02,5.37,0,0,6.13,1.54,5.46,3.84-.67,2.3-5.59-1.2-5.59-1.2,0,0,3,5.63-.26,6.02-3.26.39-1.52-6.07-1.52-6.07,0,0-3.61,4.85-5.12,3.16-1.52-1.69,3.24-4.02,3.24-4.02,0,0-5.72-.98-4.95-3.21.78-2.23,4.91,1.08,4.91,1.08Z"/>
  </g>
</svg>