<?xml version="1.0" encoding="UTF-8"?>
<svg id="Capa_2" data-name="Capa 2" xmlns="http://www.w3.org/2000/svg" viewBox="0 0 600.08 620.08">
  <defs>
    <style>
      .cls-1, .cls-2, .cls-3, .cls-4 {
        fill-rule: evenodd;
      }

      .cls-1, .cls-2, .cls-3, .cls-4, .cls-5, .cls-6, .cls-7, .cls-8, .cls-9, .cls-10, .cls-11, .cls-12, .cls-13, .cls-14 {
        stroke-width: 0px;
      }

      .cls-1, .cls-5 {
        fill: #52bbe8;
      }

      .cls-2, .cls-7 {
        fill: #ce1296;
      }

      .cls-3 {
        fill: #f78d29;
      }

      .cls-4, .cls-9 {
        fill: #9f31d7;
      }

      .cls-6 {
        fill: #5861ac;
      }

      .cls-8 {
        fill: #e14425;
      }

      .cls-10 {
        fill: #7bcfdb;
      }

      .cls-11 {
        fill: #fff5eb;
      }

      .cls-12 {
        fill: #f78d28;
      }

      .cls-13 {
        fill: #037b51;
      }

      .cls-14 {
        fill: #009772;
      }
    </style>
  </defs>
  <g id="Layer_1" data-name="Layer 1">
    <path class="cls-4" d="m31.9,597.14c.81-.8,1.47-1.83,1.93-2.93,1-2.44.98-5.27-.79-6.97-.52-.5-1.19-.9-2.04-1.17-.05-.02-.1-.03-.16-.04-2.38-.46-6.81,4.62-6.87,8.59-.01.7.11,1.37.41,1.97.37.75,1.02,1.38,2.01,1.83,2.04.92,4.02.2,5.5-1.27Zm-19.39,3.25c.31.27.63.5.96.7,1.58.96,3.35,1.11,5-.34,1.4-1.23,1.75-2.89,1.41-4.54-.07-.32-.16-.64-.27-.95-.97-2.67-3.59-5.11-6.27-5.45-.55-.07-1.1-.05-1.65.08-.9.21-1.77.71-2.54,1.57-.77.85-.55,2.71.28,4.63.25.59.57,1.18.93,1.75.61.96,1.34,1.86,2.16,2.56Zm9.93,3.22c.36.06.83.05,1.28-.03.96-.15,1.85-.57,1.54-1.08-.42-.69-.96-2.54-1.55-3.45-.25-.38-.5-.6-.76-.48-.13.06-.26.25-.39.53-.5,1.07-.95,3.4-.77,4.11.05.21.3.34.65.39Zm-14.27-16.75c-2.23.28-4.96.94-4.96.94-.06.79-.26,7.9.6,8.17.31.1,1.27.15,2.4.17-.06-.29-.11-.59-.17-.89-.51-2.77.44-5.73,2.13-8.39Zm3.43-4.77c-.02-2.34-.17-5-.7-5.17-.91-.29-7.02-.2-7.76.09-.74.29-1.11,9.28.18,9.42.74.08,3.37-.21,5.46-.47.04-.06.09-.12.13-.18,0,0,.8-1.82,2.69-3.69Zm9.43-3.94c-.09-1.39-.33-2.47-.75-2.52-1.21-.14-7.75.79-7.75.79-.03.44-.11,2.78-.03,4.85,1.93-1.6,4.71-3.03,8.53-3.12Zm10.21,3.25c0-2.48-.11-5.72-.7-5.91-.91-.29-7.02-.2-7.76.09-.25.1-.46,1.18-.57,2.58,4.27.18,7.17,1.69,9.04,3.23Zm1.8,1.82c1.43.2,6.39.12,7.04-.14.7-.27,1.04-8.75-.17-8.88-1.21-.14-7.75.79-7.75.79-.05.66-.2,5.67.25,7.51.24.25.44.49.63.72Zm4.9,10.85c1.82-.31,3.54-.73,3.54-.73.06-.79.26-7.9-.6-8.17-.72-.23-4.82-.21-6.58-.04,2.08,3.13,3.27,6.61,3.64,8.94Zm-4.7,8.22c.1,1.06.28,1.84.56,1.93.91.29,7.02.21,7.76-.09.74-.29,1.1-9.28-.18-9.42-.5-.06-1.86.06-3.34.22,0,.08.01.16.02.24.14,3.09-2.65,5.56-4.82,7.11Zm-2.12,2.58c.64-.09,1.05-.14,1.05-.14.02-.21.04-.87.06-1.73-.83.55-1.41.92-1.45,1.07-.04.2.14.42.34.81Zm-6.74,7.77c.08,1.54.25,2.84.61,2.95.86.27,6.62.19,7.32-.09.7-.28,1.04-8.75-.17-8.88-.12-.01-.29-.02-.49-.01.06.64.02,1.44-.19,2.48-.4,1.91-3.71,3.06-7.07,3.54Zm-7.89-5.05c-.5.04-.87.09-1.02.15-.7.28-1.04,8.74.17,8.88,1.21.14,7.75-.79,7.75-.79.03-.31.07-1.6.07-3.07-2.93.32-5.68.12-6.32-.53-1.23-1.27-.79-3.95-.65-4.63Zm-9.9-9.73c-.97.04-1.75.11-1.98.21-.7.28-1.04,8.74.17,8.88,1,.11,5.61-.5,7.2-.72-2.96-1.52-4.42-4.38-5.39-8.37Zm5.91,10.2c-1.21-.13-7.75.79-7.75.79-.06.79-.26,7.9.6,8.17.86.27,6.62.19,7.32-.09.7-.27,1.04-8.74-.17-8.88Zm22.61-1.76c-.7.28-1.04,8.75.17,8.88,1.21.14,7.75-.79,7.75-.79.06-.79.26-7.9-.6-8.17-.86-.27-6.62-.19-7.32.09ZM.8,575.82c1.8-.67,38.7-2.89,40.62-1.95,1.92.94,5.2,41.24,3.45,42.14-2.45,1.26-40.34,4.39-42.35,2.2-2.01-2.19-3.52-41.71-1.72-42.38Z"/>
    <path class="cls-4" d="m233.44,597.14c.81-.8,1.47-1.83,1.93-2.93,1-2.44.98-5.27-.79-6.97-.52-.5-1.19-.9-2.04-1.17-.05-.02-.1-.03-.16-.04-2.38-.46-6.81,4.62-6.87,8.59-.01.7.11,1.37.41,1.97.37.75,1.02,1.38,2.01,1.83,2.04.92,4.02.2,5.5-1.27Zm-19.39,3.25c.31.27.63.5.96.7,1.58.96,3.35,1.11,5-.34,1.4-1.23,1.75-2.89,1.41-4.54-.07-.32-.16-.64-.27-.95-.97-2.67-3.59-5.11-6.27-5.45-.55-.07-1.1-.05-1.65.08-.9.21-1.77.71-2.54,1.57-.77.85-.55,2.71.28,4.63.25.59.57,1.18.92,1.75.61.96,1.34,1.86,2.16,2.56Zm9.93,3.22c.36.06.83.05,1.28-.03.96-.15,1.85-.57,1.54-1.08-.42-.69-.96-2.54-1.55-3.45-.25-.38-.5-.6-.76-.48-.13.06-.26.25-.39.53-.5,1.07-.95,3.4-.77,4.11.05.21.3.34.65.39Zm-14.27-16.75c-2.23.28-4.96.94-4.96.94-.06.79-.26,7.9.6,8.17.31.1,1.27.15,2.4.17-.06-.29-.11-.59-.17-.89-.51-2.77.44-5.73,2.13-8.39Zm3.43-4.77c-.02-2.34-.17-5-.7-5.17-.91-.29-7.02-.2-7.76.09-.74.29-1.11,9.28.18,9.42.74.08,3.37-.21,5.46-.47.04-.06.09-.12.13-.18,0,0,.8-1.82,2.69-3.69Zm9.43-3.94c-.09-1.39-.33-2.47-.75-2.52-1.21-.14-7.75.79-7.75.79-.03.44-.11,2.78-.03,4.85,1.93-1.6,4.71-3.03,8.53-3.12Zm10.21,3.25c0-2.48-.11-5.72-.7-5.91-.91-.29-7.02-.2-7.76.09-.25.1-.46,1.18-.57,2.58,4.27.18,7.17,1.69,9.04,3.23Zm1.8,1.82c1.43.2,6.39.12,7.04-.14.7-.27,1.04-8.75-.17-8.88-1.21-.14-7.75.79-7.75.79-.05.66-.2,5.67.25,7.51.24.25.44.49.63.72Zm4.9,10.85c1.82-.31,3.54-.73,3.54-.73.06-.79.26-7.9-.6-8.17-.72-.23-4.82-.21-6.58-.04,2.08,3.13,3.27,6.61,3.64,8.94Zm-4.7,8.22c.1,1.06.28,1.84.56,1.93.91.29,7.02.21,7.76-.09.74-.29,1.1-9.28-.18-9.42-.5-.06-1.86.06-3.34.22,0,.08.01.16.02.24.14,3.09-2.65,5.56-4.82,7.11Zm-2.12,2.58c.64-.09,1.05-.14,1.05-.14.02-.21.04-.87.06-1.73-.83.55-1.41.92-1.45,1.07-.04.2.14.42.34.81Zm-6.74,7.77c.08,1.54.25,2.84.61,2.95.86.27,6.62.19,7.32-.09.7-.28,1.04-8.75-.17-8.88-.12-.01-.29-.02-.49-.01.06.64.02,1.44-.19,2.48-.4,1.91-3.71,3.06-7.07,3.54Zm-7.89-5.05c-.5.04-.87.09-1.02.15-.7.28-1.04,8.74.17,8.88,1.21.14,7.75-.79,7.75-.79.02-.31.07-1.6.07-3.07-2.93.32-5.68.12-6.32-.53-1.23-1.27-.79-3.95-.65-4.63Zm-9.9-9.73c-.97.04-1.75.11-1.98.21-.7.28-1.04,8.74.17,8.88,1,.11,5.61-.5,7.2-.72-2.96-1.52-4.42-4.38-5.39-8.37Zm5.91,10.2c-1.21-.13-7.75.79-7.75.79-.06.79-.26,7.9.6,8.17.86.27,6.62.19,7.32-.09.7-.27,1.04-8.74-.17-8.88Zm22.61-1.76c-.7.28-1.04,8.75.17,8.88,1.21.14,7.75-.79,7.75-.79.06-.79.26-7.9-.6-8.17-.86-.27-6.62-.19-7.32.09Zm-34.3-30.47c1.8-.67,38.7-2.89,40.62-1.95,1.92.94,5.2,41.24,3.45,42.14-2.45,1.26-40.34,4.39-42.35,2.2-2.01-2.19-3.52-41.71-1.72-42.38Z"/>
    <path class="cls-4" d="m434.98,597.14c.81-.8,1.48-1.83,1.93-2.93,1-2.44.98-5.27-.78-6.97-.52-.5-1.2-.9-2.04-1.17-.05-.02-.1-.03-.16-.04-2.38-.46-6.81,4.62-6.88,8.59-.01.7.11,1.37.41,1.97.37.75,1.02,1.38,2.01,1.83,2.04.92,4.01.2,5.5-1.27Zm-19.39,3.25c.31.27.63.5.96.7,1.58.96,3.35,1.11,5-.34,1.4-1.23,1.75-2.89,1.4-4.54-.07-.32-.16-.64-.27-.95-.97-2.67-3.59-5.11-6.27-5.45-.55-.07-1.1-.05-1.65.08-.9.21-1.77.71-2.54,1.57-.77.85-.55,2.71.28,4.63.25.59.56,1.18.92,1.75.61.96,1.35,1.86,2.16,2.56Zm9.93,3.22c.36.06.83.05,1.28-.03.96-.15,1.85-.57,1.54-1.08-.42-.69-.97-2.54-1.55-3.45-.25-.38-.5-.6-.75-.48-.13.06-.26.25-.39.53-.5,1.07-.95,3.4-.77,4.11.05.21.3.34.65.39Zm-14.26-16.75c-2.23.28-4.96.94-4.96.94-.06.79-.26,7.9.6,8.17.31.1,1.27.15,2.4.17-.06-.29-.12-.59-.17-.89-.5-2.77.44-5.73,2.13-8.39Zm3.43-4.77c-.02-2.34-.17-5-.7-5.17-.91-.29-7.02-.2-7.76.09s-1.1,9.28.18,9.42c.74.08,3.37-.21,5.46-.47.05-.06.09-.12.13-.18,0,0,.8-1.82,2.69-3.69Zm9.43-3.94c-.09-1.39-.33-2.47-.75-2.52-1.21-.14-7.75.79-7.75.79-.03.44-.11,2.78-.03,4.85,1.93-1.6,4.7-3.03,8.53-3.12Zm10.21,3.25c0-2.48-.11-5.72-.7-5.91-.92-.29-7.02-.2-7.76.09-.25.1-.46,1.18-.58,2.58,4.27.18,7.17,1.69,9.04,3.23Zm1.8,1.82c1.43.2,6.39.12,7.04-.14.7-.27,1.05-8.75-.17-8.88-1.21-.14-7.75.79-7.75.79-.05.66-.2,5.67.25,7.51.24.25.45.49.63.72Zm4.9,10.85c1.82-.31,3.54-.73,3.54-.73.07-.79.26-7.9-.6-8.17-.72-.23-4.83-.21-6.58-.04,2.08,3.13,3.27,6.61,3.64,8.94Zm-4.71,8.22c.11,1.06.28,1.84.56,1.93.91.29,7.02.21,7.76-.09.74-.29,1.1-9.28-.18-9.42-.5-.06-1.86.06-3.34.22,0,.08.01.16.02.24.14,3.09-2.65,5.56-4.83,7.11Zm-2.12,2.58c.64-.09,1.05-.14,1.05-.14.02-.21.05-.87.06-1.73-.83.55-1.41.92-1.45,1.07-.05.2.13.42.34.81Zm-6.74,7.77c.08,1.54.25,2.84.61,2.95.86.27,6.62.19,7.32-.09.7-.28,1.04-8.75-.17-8.88-.12-.01-.28-.02-.49-.01.06.64.02,1.44-.19,2.48-.4,1.91-3.72,3.06-7.07,3.54Zm-7.89-5.05c-.5.04-.87.09-1.02.15-.7.28-1.04,8.74.17,8.88,1.21.14,7.75-.79,7.75-.79.03-.31.07-1.6.07-3.07-2.93.32-5.68.12-6.32-.53-1.23-1.27-.78-3.95-.65-4.63Zm-9.9-9.73c-.97.04-1.75.11-1.98.21-.7.28-1.04,8.74.17,8.88,1,.11,5.6-.5,7.2-.72-2.96-1.52-4.42-4.38-5.4-8.37Zm5.91,10.2c-1.21-.13-7.75.79-7.75.79-.06.79-.26,7.9.6,8.17.86.27,6.62.19,7.32-.09.7-.27,1.04-8.74-.17-8.88Zm22.61-1.76c-.7.28-1.05,8.75.17,8.88,1.21.14,7.75-.79,7.75-.79.06-.79.26-7.9-.6-8.17-.86-.27-6.61-.19-7.31.09Zm-34.3-30.47c1.8-.67,38.7-2.89,40.62-1.95,1.92.94,5.2,41.24,3.45,42.14-2.45,1.26-40.35,4.39-42.35,2.2-2.01-2.19-3.52-41.71-1.72-42.38Z"/>
    <path class="cls-2" d="m81.36,596.67c.91-.69,1.7-1.62,2.3-2.65,1.31-2.29,1.66-5.1.13-7.01-.45-.57-1.07-1.05-1.87-1.42-.05-.02-.1-.04-.15-.06-2.29-.77-7.35,3.69-7.94,7.61-.1.7-.07,1.37.15,2,.27.79.83,1.51,1.76,2.08,1.91,1.18,3.96.72,5.62-.54Zm-19.65.69c.27.3.56.58.86.82,1.44,1.16,3.17,1.54,5,.32,1.55-1.04,2.11-2.64,1.99-4.32-.02-.33-.07-.65-.15-.98-.61-2.78-2.89-5.54-5.5-6.22-.54-.14-1.09-.19-1.64-.14-.92.09-1.85.47-2.72,1.22-.87.75-.9,2.62-.33,4.62.18.62.41,1.24.69,1.86.47,1.03,1.09,2.02,1.81,2.82Zm9.42,4.49c.35.11.81.15,1.27.14.97-.03,1.91-.32,1.67-.87-.33-.74-.62-2.65-1.08-3.62-.19-.41-.42-.66-.69-.58-.13.04-.29.21-.46.47-.64.99-1.39,3.24-1.3,3.97.03.22.26.37.59.48Zm-11.95-18.47c-2.25-.02-5.04.28-5.04.28-.16.78-1.29,7.8-.48,8.18.3.14,1.24.32,2.36.48-.02-.3-.04-.6-.05-.91-.14-2.81,1.18-5.62,3.21-8.04Zm4.03-4.28c.29-2.32.49-4.97-.02-5.21-.87-.41-6.93-1.12-7.71-.93-.77.19-2.31,9.05-1.05,9.37.72.18,3.37.23,5.47.24.05-.06.1-.11.16-.17,0,0,1.04-1.7,3.15-3.3Zm9.87-2.68c.09-1.39,0-2.49-.42-2.6-1.18-.3-7.78-.23-7.78-.23-.09.43-.47,2.74-.66,4.81,2.12-1.34,5.06-2.39,8.86-1.98Zm9.69,4.55c.33-2.46.64-5.68.08-5.95-.87-.41-6.93-1.12-7.71-.93-.26.07-.61,1.11-.91,2.49,4.21.74,6.88,2.61,8.54,4.39Zm1.55,2.04c1.39.39,6.32.95,7,.78.73-.18,2.18-8.53.99-8.83-1.18-.3-7.78-.23-7.78-.23-.14.65-.94,5.6-.74,7.48.2.28.38.54.53.79Zm3.44,11.4c1.85-.07,3.61-.26,3.61-.26.17-.78,1.29-7.8.48-8.18-.68-.32-4.76-.84-6.52-.9,1.66,3.38,2.38,6.98,2.44,9.34Zm-5.74,7.53c-.04,1.07.04,1.86.3,1.99.87.41,6.93,1.12,7.71.93.77-.19,2.31-9.06,1.05-9.36-.49-.12-1.85-.19-3.34-.22,0,.08,0,.16-.02.24-.26,3.08-3.36,5.16-5.71,6.42Zm-2.44,2.28c.64,0,1.06,0,1.06,0,.04-.21.16-.86.28-1.71-.89.44-1.52.73-1.58.87-.07.19.08.44.24.84Zm-7.7,6.83c-.13,1.53-.12,2.85.22,3.01.82.38,6.53,1.06,7.27.87.73-.18,2.18-8.53.99-8.83-.12-.03-.28-.05-.49-.08-.02.64-.17,1.43-.51,2.43-.64,1.84-4.08,2.55-7.47,2.59Zm-7.16-6.03c-.5-.03-.87-.03-1.03.01-.73.18-2.17,8.53-.99,8.83,1.18.3,7.78.23,7.78.23.07-.31.28-1.58.47-3.04-2.95-.07-5.65-.63-6.19-1.35-1.05-1.42-.26-4.02-.04-4.68Zm-8.54-10.94c-.97-.08-1.75-.12-1.99-.06-.73.18-2.18,8.53-.99,8.83.98.24,5.62.24,7.23.23-2.73-1.9-3.81-4.92-4.25-9Zm4.53,10.88c-1.18-.29-7.78-.23-7.78-.23-.16.78-1.29,7.8-.48,8.18.82.38,6.53,1.06,7.27.87.73-.18,2.18-8.53.99-8.83Zm22.64,1.21c-.73.18-2.18,8.53-.99,8.83,1.18.3,7.78.23,7.78.23.17-.78,1.29-7.8.48-8.18-.82-.38-6.53-1.06-7.26-.87Zm-30.02-34.7c1.87-.43,38.75,2.19,40.53,3.37,1.78,1.18-.24,41.57-2.09,42.23-2.59.93-40.57-.92-42.28-3.36-1.7-2.44,1.97-41.81,3.84-42.24Z"/>
    <path class="cls-2" d="m282.9,596.67c.91-.69,1.7-1.62,2.3-2.65,1.31-2.29,1.66-5.1.13-7.01-.45-.57-1.06-1.05-1.87-1.42-.05-.02-.1-.04-.15-.06-2.29-.77-7.35,3.69-7.94,7.61-.1.7-.07,1.37.15,2,.27.79.83,1.51,1.76,2.08,1.91,1.18,3.96.72,5.62-.54Zm-19.65.69c.27.3.56.58.86.82,1.44,1.16,3.17,1.54,5,.32,1.55-1.04,2.11-2.64,1.99-4.32-.02-.33-.07-.65-.15-.98-.61-2.78-2.89-5.54-5.51-6.22-.54-.14-1.09-.19-1.64-.14-.92.09-1.85.47-2.72,1.22-.87.75-.9,2.62-.33,4.62.18.62.41,1.24.69,1.86.47,1.03,1.09,2.02,1.81,2.82Zm9.42,4.49c.35.11.81.15,1.27.14.97-.03,1.91-.32,1.67-.87-.33-.74-.62-2.65-1.08-3.62-.2-.41-.42-.66-.69-.58-.13.04-.29.21-.46.47-.64.99-1.39,3.24-1.3,3.97.03.22.26.37.59.48Zm-11.95-18.47c-2.25-.02-5.04.28-5.04.28-.16.78-1.29,7.8-.48,8.18.3.14,1.24.32,2.36.48-.02-.3-.04-.6-.05-.91-.14-2.81,1.18-5.62,3.21-8.04Zm4.03-4.28c.29-2.32.49-4.97-.02-5.21-.87-.41-6.93-1.12-7.71-.93-.77.19-2.31,9.05-1.05,9.37.72.18,3.37.23,5.47.24.05-.06.1-.11.16-.17,0,0,1.04-1.7,3.15-3.3Zm9.87-2.68c.09-1.39,0-2.49-.42-2.6-1.18-.3-7.78-.23-7.78-.23-.09.43-.47,2.74-.66,4.81,2.12-1.34,5.06-2.39,8.86-1.98Zm9.69,4.55c.33-2.46.64-5.68.08-5.95-.87-.41-6.93-1.12-7.71-.93-.26.07-.61,1.11-.91,2.49,4.21.74,6.88,2.61,8.54,4.39Zm1.55,2.04c1.39.39,6.32.95,7,.78.73-.18,2.18-8.53.99-8.83-1.18-.3-7.78-.23-7.78-.23-.14.65-.94,5.6-.74,7.48.2.28.38.54.53.79Zm3.44,11.4c1.85-.07,3.61-.26,3.61-.26.17-.78,1.29-7.8.48-8.18-.68-.32-4.75-.84-6.52-.9,1.66,3.38,2.38,6.98,2.44,9.34Zm-5.74,7.53c-.04,1.07.04,1.86.3,1.99.87.41,6.93,1.12,7.71.93.77-.19,2.31-9.06,1.05-9.36-.49-.12-1.85-.19-3.34-.22,0,.08-.01.16-.02.24-.26,3.08-3.36,5.16-5.71,6.42Zm-2.44,2.28c.64,0,1.06,0,1.06,0,.04-.21.16-.86.28-1.71-.89.44-1.52.73-1.58.87-.07.19.08.44.24.84Zm-7.7,6.83c-.13,1.53-.12,2.85.22,3.01.82.38,6.53,1.06,7.27.87.73-.18,2.18-8.53.99-8.83-.12-.03-.28-.05-.49-.08-.02.64-.17,1.43-.51,2.43-.64,1.84-4.08,2.55-7.47,2.59Zm-7.16-6.03c-.5-.03-.87-.03-1.03.01-.73.18-2.17,8.53-.99,8.83,1.18.3,7.78.23,7.78.23.07-.31.28-1.58.47-3.04-2.95-.07-5.65-.63-6.19-1.35-1.05-1.42-.26-4.02-.04-4.68Zm-8.54-10.94c-.97-.08-1.75-.12-1.99-.06-.73.18-2.18,8.53-.99,8.83.98.24,5.62.24,7.23.23-2.73-1.9-3.81-4.92-4.25-9Zm4.53,10.88c-1.18-.29-7.78-.23-7.78-.23-.16.78-1.29,7.8-.48,8.18.82.38,6.53,1.06,7.26.87.73-.18,2.18-8.53.99-8.83Zm22.64,1.21c-.73.18-2.18,8.53-.99,8.83,1.18.3,7.78.23,7.78.23.17-.78,1.29-7.8.48-8.18-.82-.38-6.53-1.06-7.27-.87Zm-30.02-34.7c1.87-.43,38.75,2.19,40.53,3.37,1.78,1.18-.24,41.57-2.09,42.23-2.59.93-40.57-.92-42.28-3.36-1.7-2.44,1.97-41.81,3.84-42.24Z"/>
    <path class="cls-2" d="m484.44,596.67c.91-.69,1.7-1.62,2.3-2.65,1.31-2.29,1.66-5.1.13-7.01-.45-.57-1.07-1.05-1.87-1.42-.05-.02-.1-.04-.15-.06-2.3-.77-7.35,3.69-7.94,7.61-.1.7-.07,1.37.15,2,.27.79.83,1.51,1.75,2.08,1.9,1.18,3.95.72,5.62-.54Zm-19.65.69c.27.3.56.58.86.82,1.44,1.16,3.17,1.54,5,.32,1.55-1.04,2.11-2.64,1.99-4.32-.02-.33-.07-.65-.15-.98-.61-2.78-2.89-5.54-5.5-6.22-.54-.14-1.09-.19-1.64-.14-.92.09-1.85.47-2.73,1.22-.87.75-.9,2.62-.33,4.62.18.62.41,1.24.69,1.86.48,1.03,1.09,2.02,1.81,2.82Zm9.42,4.49c.35.11.81.15,1.27.14.97-.03,1.91-.32,1.67-.87-.33-.74-.63-2.65-1.08-3.62-.2-.41-.42-.66-.69-.58-.13.04-.29.21-.45.47-.64.99-1.39,3.24-1.3,3.97.02.22.26.37.59.48Zm-11.96-18.47c-2.25-.02-5.04.28-5.04.28-.16.78-1.29,7.8-.48,8.18.3.14,1.24.32,2.36.48-.02-.3-.04-.6-.05-.91-.14-2.81,1.18-5.62,3.2-8.04Zm4.03-4.28c.29-2.32.49-4.97-.02-5.21-.87-.41-6.93-1.12-7.71-.93-.78.19-2.31,9.05-1.05,9.37.73.18,3.37.23,5.48.24.05-.06.1-.11.15-.17,0,0,1.04-1.7,3.15-3.3Zm9.87-2.68c.09-1.39,0-2.49-.42-2.6-1.18-.3-7.78-.23-7.78-.23-.09.43-.48,2.74-.66,4.81,2.12-1.34,5.06-2.39,8.86-1.98Zm9.69,4.55c.33-2.46.64-5.68.07-5.95-.87-.41-6.93-1.12-7.71-.93-.26.07-.61,1.11-.9,2.49,4.2.74,6.88,2.61,8.54,4.39Zm1.55,2.04c1.39.39,6.33.95,7,.78.73-.18,2.18-8.53,1-8.83-1.18-.3-7.78-.23-7.78-.23-.13.65-.94,5.6-.74,7.48.2.28.38.54.53.79Zm3.44,11.4c1.85-.07,3.6-.26,3.6-.26.17-.78,1.29-7.8.48-8.18-.68-.32-4.75-.84-6.52-.9,1.65,3.38,2.38,6.98,2.44,9.34Zm-5.74,7.53c-.04,1.07.03,1.86.3,1.99.87.41,6.93,1.12,7.71.93.78-.19,2.31-9.06,1.05-9.36-.49-.12-1.85-.19-3.34-.22,0,.08,0,.16-.02.24-.26,3.08-3.35,5.16-5.71,6.42Zm-2.44,2.28c.64,0,1.05,0,1.05,0,.05-.21.16-.86.28-1.71-.89.44-1.52.73-1.58.87-.07.19.08.44.24.84Zm-7.7,6.83c-.13,1.53-.12,2.85.22,3.01.82.38,6.53,1.06,7.27.87.73-.18,2.18-8.53.99-8.83-.11-.03-.28-.05-.49-.08-.03.64-.17,1.43-.51,2.43-.64,1.84-4.08,2.55-7.48,2.59Zm-7.16-6.03c-.5-.03-.88-.03-1.03.01-.73.18-2.17,8.53-.99,8.83,1.18.3,7.78.23,7.78.23.06-.31.28-1.58.47-3.04-2.95-.07-5.65-.63-6.19-1.35-1.05-1.42-.26-4.02-.04-4.68Zm-8.54-10.94c-.97-.08-1.75-.12-1.99-.06-.73.18-2.18,8.53-.99,8.83.98.24,5.62.24,7.23.23-2.73-1.9-3.81-4.92-4.25-9Zm4.53,10.88c-1.18-.29-7.78-.23-7.78-.23-.16.78-1.29,7.8-.48,8.18.82.38,6.53,1.06,7.26.87.73-.18,2.18-8.53,1-8.83Zm22.64,1.21c-.73.18-2.18,8.53-1,8.83,1.18.3,7.78.23,7.78.23.17-.78,1.29-7.8.48-8.18-.82-.38-6.53-1.06-7.26-.87Zm-30.02-34.7c1.87-.43,38.75,2.19,40.53,3.37,1.78,1.18-.24,41.57-2.09,42.23-2.59.93-40.57-.92-42.28-3.36-1.7-2.44,1.97-41.81,3.84-42.24Z"/>
    <path class="cls-1" d="m129.54,594.94c.73-.87,1.3-1.95,1.65-3.09.78-2.52.5-5.34-1.41-6.87-.56-.45-1.27-.79-2.13-.98-.05-.01-.11-.02-.16-.03-2.41-.25-6.36,5.22-6.07,9.17.05.7.24,1.35.59,1.92.44.71,1.14,1.28,2.17,1.64,2.12.73,4.02-.17,5.36-1.77Zm-19.02,4.99c.33.24.67.44,1.02.61,1.66.82,3.43.81,4.95-.79,1.28-1.35,1.48-3.04.99-4.65-.09-.31-.21-.62-.36-.92-1.21-2.57-4.04-4.77-6.74-4.86-.56-.02-1.1.05-1.63.23-.88.29-1.7.86-2.39,1.79-.68.92-.3,2.75.7,4.58.31.56.67,1.12,1.08,1.66.69.9,1.51,1.73,2.38,2.36Zm10.18,2.3c.37.03.83-.03,1.27-.14.94-.24,1.79-.73,1.44-1.21-.48-.65-1.19-2.44-1.85-3.29-.28-.36-.55-.55-.8-.41-.12.07-.24.27-.34.56-.4,1.11-.64,3.47-.4,4.16.07.2.33.31.68.33Zm-15.73-15.38c-2.2.48-4.85,1.38-4.85,1.38.01.79.45,7.89,1.34,8.08.32.07,1.28.04,2.4-.05-.08-.29-.17-.58-.25-.87-.75-2.71-.08-5.74,1.36-8.54Zm2.98-5.06c-.23-2.33-.62-4.96-1.17-5.08-.94-.21-7.01.43-7.72.79-.71.36-.26,9.34,1.03,9.37.75.02,3.34-.52,5.39-.97.04-.07.08-.13.12-.2,0,0,.64-1.89,2.35-3.92Zm9.03-4.78c-.22-1.38-.55-2.43-.98-2.44-1.22-.03-7.64,1.49-7.64,1.49,0,.44.14,2.78.41,4.83,1.77-1.77,4.41-3.45,8.21-3.88Zm10.46,2.31c-.22-2.47-.63-5.68-1.24-5.82-.94-.21-7.01.43-7.72.79-.24.12-.35,1.22-.34,2.63,4.27-.2,7.29,1.03,9.29,2.4Zm1.96,1.65c1.44.07,6.38-.47,7-.78.67-.34.25-8.8-.97-8.83-1.22-.03-7.64,1.49-7.64,1.49.01.66.32,5.67.93,7.46.26.23.49.45.69.66Zm5.86,10.36c1.79-.48,3.46-1.05,3.46-1.05,0-.79-.46-7.89-1.34-8.08-.73-.16-4.82.23-6.56.56,2.36,2.93,3.86,6.28,4.44,8.57Zm-3.94,8.61c.2,1.05.45,1.81.73,1.87.94.21,7.01-.43,7.72-.79.71-.36.26-9.34-1.03-9.37-.5-.01-1.85.23-3.3.52.01.08.03.16.04.24.42,3.06-2.14,5.77-4.16,7.52Zm-1.88,2.76c.62-.14,1.03-.24,1.03-.24,0-.21-.04-.87-.1-1.73-.77.63-1.32,1.05-1.34,1.2-.03.2.17.41.42.77Zm-6.01,8.35c.22,1.52.51,2.81.87,2.89.88.19,6.61-.41,7.28-.75.67-.34.25-8.8-.97-8.83-.12,0-.29,0-.49.03.12.63.15,1.43.03,2.49-.22,1.94-3.42,3.39-6.72,4.17Zm-8.31-4.31c-.49.08-.86.17-1,.24-.67.34-.24,8.8.97,8.83,1.22.03,7.64-1.49,7.64-1.49,0-.31-.07-1.6-.21-3.07-2.89.58-5.65.63-6.34.04-1.34-1.15-1.14-3.86-1.07-4.55Zm-10.74-8.79c-.96.13-1.73.27-1.95.38-.67.34-.25,8.8.97,8.83,1,.02,5.54-1,7.11-1.37-3.08-1.25-4.8-3.96-6.13-7.84Zm6.81,9.62c-1.22-.02-7.64,1.49-7.64,1.49.01.79.46,7.89,1.34,8.08.88.19,6.61-.41,7.28-.75.67-.34.25-8.8-.97-8.83Zm22.35-3.8c-.67.34-.25,8.8.97,8.83,1.22.03,7.64-1.49,7.64-1.49,0-.79-.45-7.89-1.34-8.08-.88-.19-6.61.41-7.28.75Zm-36.92-27.24c1.73-.83,38.28-6.39,40.27-5.63,2,.76,8.92,40.6,7.26,41.65-2.32,1.48-39.78,8.03-41.98,6.03-2.2-2-7.28-41.22-5.55-42.05Z"/>
    <path class="cls-1" d="m331.09,594.94c.73-.87,1.3-1.95,1.65-3.09.78-2.52.5-5.34-1.41-6.87-.56-.45-1.27-.79-2.13-.98-.05-.01-.11-.02-.16-.03-2.41-.25-6.36,5.22-6.07,9.17.05.7.24,1.35.59,1.92.44.71,1.14,1.28,2.17,1.64,2.12.73,4.02-.17,5.36-1.77Zm-19.02,4.99c.33.24.67.44,1.02.61,1.66.82,3.43.81,4.95-.79,1.28-1.35,1.48-3.04.99-4.65-.09-.31-.21-.62-.36-.92-1.21-2.57-4.04-4.77-6.74-4.86-.56-.02-1.1.05-1.63.23-.88.29-1.7.86-2.39,1.79-.68.92-.3,2.75.7,4.58.31.56.67,1.12,1.08,1.66.69.9,1.51,1.73,2.38,2.36Zm10.18,2.3c.37.03.83-.03,1.27-.14.94-.24,1.79-.73,1.44-1.21-.48-.65-1.19-2.44-1.85-3.29-.28-.36-.55-.55-.8-.41-.12.07-.24.27-.34.56-.4,1.11-.64,3.47-.4,4.16.07.2.33.31.68.33Zm-15.73-15.38c-2.2.48-4.85,1.38-4.85,1.38.01.79.46,7.89,1.34,8.08.32.07,1.28.04,2.4-.05-.08-.29-.17-.58-.25-.87-.75-2.71-.08-5.74,1.36-8.54Zm2.98-5.06c-.23-2.33-.62-4.96-1.17-5.08-.94-.21-7.01.43-7.72.79-.71.36-.26,9.34,1.03,9.37.75.02,3.34-.52,5.39-.97.04-.07.08-.13.12-.2,0,0,.64-1.89,2.35-3.92Zm9.03-4.78c-.22-1.38-.55-2.43-.98-2.44-1.22-.03-7.64,1.49-7.64,1.49,0,.44.14,2.78.41,4.83,1.77-1.77,4.41-3.45,8.21-3.88Zm10.46,2.31c-.22-2.47-.63-5.68-1.24-5.82-.94-.21-7.01.43-7.72.79-.24.12-.35,1.22-.34,2.63,4.27-.2,7.29,1.03,9.29,2.4Zm1.96,1.65c1.44.07,6.38-.47,7-.78.67-.34.25-8.8-.97-8.83-1.22-.03-7.64,1.49-7.64,1.49.01.66.32,5.67.93,7.46.26.23.49.45.69.66Zm5.86,10.36c1.79-.48,3.46-1.05,3.46-1.05,0-.79-.46-7.89-1.34-8.08-.73-.16-4.82.23-6.56.56,2.36,2.93,3.86,6.28,4.44,8.57Zm-3.94,8.61c.2,1.05.45,1.81.73,1.87.94.21,7.01-.43,7.72-.79.71-.36.26-9.34-1.03-9.37-.5-.01-1.85.23-3.3.52.01.08.03.16.04.24.42,3.06-2.14,5.77-4.16,7.52Zm-1.88,2.76c.62-.14,1.03-.24,1.03-.24,0-.21-.04-.87-.1-1.73-.77.63-1.32,1.05-1.34,1.2-.02.2.17.41.42.77Zm-6.01,8.35c.22,1.52.51,2.81.87,2.89.88.19,6.61-.41,7.28-.75.67-.34.25-8.8-.97-8.83-.12,0-.29,0-.49.03.12.63.15,1.43.03,2.49-.22,1.94-3.42,3.39-6.72,4.17Zm-8.31-4.31c-.49.08-.86.17-1,.24-.67.34-.24,8.8.97,8.83,1.22.03,7.64-1.49,7.64-1.49,0-.31-.07-1.6-.21-3.07-2.89.58-5.65.63-6.34.04-1.34-1.15-1.14-3.86-1.07-4.55Zm-10.74-8.79c-.96.13-1.73.27-1.95.38-.67.34-.25,8.8.97,8.83,1,.02,5.54-1,7.11-1.37-3.08-1.25-4.8-3.96-6.13-7.84Zm6.81,9.62c-1.22-.02-7.64,1.49-7.64,1.49.01.79.45,7.89,1.34,8.08.88.19,6.61-.41,7.28-.75.67-.34.25-8.8-.97-8.83Zm22.35-3.8c-.67.34-.25,8.8.97,8.83,1.22.03,7.64-1.49,7.64-1.49,0-.79-.45-7.89-1.34-8.08-.88-.19-6.61.41-7.28.75Zm-36.92-27.24c1.73-.83,38.28-6.39,40.27-5.63,2,.76,8.92,40.6,7.26,41.65-2.32,1.48-39.78,8.03-41.98,6.03-2.2-2-7.28-41.22-5.55-42.05Z"/>
    <path class="cls-1" d="m532.63,594.94c.73-.87,1.3-1.95,1.66-3.09.78-2.52.5-5.34-1.42-6.87-.56-.45-1.27-.79-2.13-.98-.05-.01-.1-.02-.16-.03-2.41-.25-6.36,5.22-6.07,9.17.05.7.24,1.35.59,1.92.44.71,1.14,1.28,2.17,1.64,2.12.73,4.02-.17,5.36-1.77Zm-19.01,4.99c.33.24.67.44,1.02.61,1.66.82,3.44.81,4.95-.79,1.28-1.35,1.48-3.04.99-4.65-.1-.31-.21-.62-.36-.92-1.21-2.57-4.04-4.77-6.74-4.86-.55-.02-1.1.05-1.63.23-.88.29-1.7.86-2.39,1.79-.69.92-.3,2.75.7,4.58.3.56.67,1.12,1.08,1.66.69.9,1.5,1.73,2.38,2.36Zm10.18,2.3c.37.03.83-.03,1.27-.14.94-.24,1.8-.73,1.44-1.21-.48-.65-1.19-2.44-1.85-3.29-.28-.36-.55-.55-.8-.41-.12.07-.23.27-.34.56-.4,1.11-.64,3.47-.4,4.16.08.2.33.31.68.33Zm-15.73-15.38c-2.19.48-4.85,1.38-4.85,1.38.02.79.46,7.89,1.34,8.08.32.07,1.28.04,2.4-.05-.08-.29-.17-.58-.25-.87-.75-2.71-.08-5.74,1.36-8.54Zm2.99-5.06c-.23-2.33-.62-4.96-1.17-5.08-.94-.21-7.01.43-7.72.79-.71.36-.26,9.34,1.03,9.37.75.02,3.34-.52,5.39-.97.04-.07.08-.13.12-.2,0,0,.63-1.89,2.35-3.92Zm9.03-4.78c-.22-1.38-.55-2.43-.98-2.44-1.22-.03-7.64,1.49-7.64,1.49,0,.44.14,2.78.41,4.83,1.78-1.77,4.41-3.45,8.21-3.88Zm10.46,2.31c-.22-2.47-.63-5.68-1.23-5.82-.94-.21-7.01.43-7.72.79-.24.12-.35,1.22-.34,2.63,4.27-.2,7.29,1.03,9.29,2.4Zm1.96,1.65c1.44.07,6.38-.47,7-.78.68-.34.25-8.8-.97-8.83-1.22-.03-7.64,1.49-7.64,1.49,0,.66.32,5.67.93,7.46.26.23.49.45.69.66Zm5.86,10.36c1.79-.48,3.46-1.05,3.46-1.05,0-.79-.45-7.89-1.34-8.08-.73-.16-4.82.23-6.56.56,2.36,2.93,3.86,6.28,4.44,8.57Zm-3.94,8.61c.2,1.05.45,1.81.73,1.87.94.21,7.01-.43,7.73-.79.71-.36.26-9.34-1.04-9.37-.5-.01-1.85.23-3.3.52.01.08.02.16.04.24.42,3.06-2.14,5.77-4.16,7.52Zm-1.88,2.76c.63-.14,1.03-.24,1.03-.24,0-.21-.04-.87-.1-1.73-.78.63-1.33,1.05-1.35,1.2-.02.2.18.41.42.77Zm-6.01,8.35c.22,1.52.51,2.81.88,2.89.88.19,6.61-.41,7.28-.75.68-.34.25-8.8-.98-8.83-.12,0-.28,0-.49.03.12.63.15,1.43.03,2.49-.22,1.94-3.42,3.39-6.72,4.17Zm-8.31-4.31c-.49.08-.85.17-1,.24-.68.34-.24,8.8.97,8.83,1.22.03,7.64-1.49,7.64-1.49,0-.31-.08-1.6-.21-3.07-2.89.58-5.65.63-6.34.04-1.34-1.15-1.14-3.86-1.07-4.55Zm-10.74-8.79c-.96.13-1.73.27-1.95.38-.67.34-.25,8.8.98,8.83,1,.02,5.54-1,7.11-1.37-3.08-1.25-4.8-3.96-6.13-7.84Zm6.81,9.62c-1.22-.02-7.64,1.49-7.64,1.49.02.79.46,7.89,1.34,8.08.88.19,6.61-.41,7.28-.75.68-.34.25-8.8-.98-8.83Zm22.36-3.8c-.68.34-.25,8.8.97,8.83,1.22.03,7.64-1.49,7.64-1.49,0-.79-.45-7.89-1.34-8.08-.88-.19-6.61.41-7.28.75Zm-36.92-27.24c1.73-.83,38.28-6.39,40.27-5.63,2,.76,8.92,40.6,7.26,41.65-2.32,1.48-39.78,8.03-41.98,6.03-2.2-2-7.28-41.22-5.55-42.05Z"/>
    <path class="cls-3" d="m182.11,598.69c.97-.6,1.85-1.44,2.55-2.41,1.53-2.14,2.16-4.91.83-6.96-.39-.61-.96-1.15-1.72-1.6-.05-.03-.09-.05-.14-.08-2.21-.99-7.68,2.95-8.65,6.79-.17.68-.2,1.36-.05,2.01.19.81.68,1.58,1.54,2.24,1.78,1.36,3.86,1.11,5.65.02Zm-19.62-1.26c.24.33.5.63.77.9,1.31,1.3,3,1.85,4.95.81,1.65-.88,2.36-2.41,2.41-4.1,0-.33,0-.66-.05-.99-.34-2.82-2.33-5.8-4.86-6.74-.52-.19-1.06-.3-1.62-.3-.92,0-1.88.28-2.83.95-.94.66-1.15,2.52-.78,4.57.11.63.28,1.28.5,1.92.37,1.08.88,2.12,1.52,2.99Zm8.93,5.4c.34.14.79.23,1.25.27.97.07,1.93-.13,1.75-.7-.25-.76-.36-2.69-.72-3.71-.15-.43-.35-.7-.63-.64-.14.03-.31.18-.5.43-.73.93-1.7,3.09-1.69,3.82,0,.22.22.4.54.53Zm-10.07-19.56c-2.23-.24-5.04-.22-5.04-.22-.24.76-2.06,7.63-1.28,8.09.28.17,1.2.44,2.3.71,0-.3.02-.6.04-.91.14-2.81,1.74-5.47,3.99-7.68Zm4.43-3.86c.52-2.28.98-4.9.5-5.19-.82-.49-6.79-1.8-7.58-1.69-.79.12-3.19,8.78-1.98,9.21.7.25,3.33.56,5.42.79.06-.05.11-.1.17-.15,0,0,1.2-1.59,3.46-2.98Zm10.08-1.68c.23-1.38.25-2.48-.16-2.63-1.15-.41-7.72-1-7.72-1-.13.42-.74,2.68-1.13,4.72,2.24-1.12,5.28-1.88,9.02-1.09Zm9.19,5.49c.57-2.41,1.2-5.59.66-5.91-.82-.49-6.79-1.8-7.58-1.69-.27.04-.72,1.05-1.15,2.39,4.11,1.15,6.59,3.28,8.06,5.21Zm1.34,2.18c1.34.52,6.2,1.57,6.89,1.47.75-.11,3.01-8.28,1.86-8.68-1.15-.41-7.72-1-7.72-1-.2.63-1.49,5.48-1.47,7.37.17.3.32.58.45.84Zm2.29,11.68c1.85.11,3.61.1,3.61.1.24-.76,2.06-7.63,1.28-8.09-.65-.39-4.65-1.31-6.4-1.54,1.31,3.52,1.68,7.18,1.5,9.53Zm-6.46,6.92c-.14,1.06-.15,1.86.11,2.01.82.49,6.79,1.8,7.58,1.69.79-.12,3.19-8.78,1.98-9.21-.48-.17-1.83-.37-3.3-.55-.01.08-.03.16-.04.24-.57,3.04-3.85,4.8-6.32,5.82Zm-2.65,2.03c.64.06,1.05.1,1.05.1.06-.2.24-.84.45-1.68-.93.35-1.59.57-1.65.71-.09.19.04.44.15.86Zm-8.34,6.03c-.28,1.51-.41,2.82-.08,3.02.78.46,6.4,1.7,7.14,1.59.75-.11,3.01-8.28,1.86-8.68-.11-.04-.27-.08-.48-.12-.09.63-.31,1.41-.75,2.37-.82,1.77-4.32,2.13-7.69,1.84Zm-6.53-6.71c-.5-.08-.87-.11-1.02-.09-.74.11-3.01,8.28-1.86,8.68,1.15.41,7.72,1,7.72,1,.1-.3.44-1.55.77-2.98-2.92-.36-5.56-1.18-6.03-1.96-.9-1.52.14-4.02.43-4.66Zm-7.42-11.73c-.95-.18-1.73-.29-1.97-.25-.74.11-3.01,8.28-1.86,8.68.95.34,5.57.8,7.17.95-2.53-2.16-3.3-5.27-3.34-9.38Zm3.43,11.28c-1.15-.41-7.72-1-7.72-1-.24.76-2.06,7.63-1.28,8.09.78.46,6.4,1.7,7.14,1.59.75-.11,3.01-8.28,1.86-8.68Zm22.41,3.45c-.75.11-3.01,8.28-1.86,8.68,1.15.41,7.72,1,7.72,1,.24-.76,2.06-7.63,1.28-8.09-.78-.46-6.4-1.7-7.14-1.59Zm-26.43-37.5c1.91-.24,38.34,6.02,39.99,7.37,1.65,1.35-4.36,41.34-6.27,41.81-2.67.67-40.28-4.94-41.73-7.53-1.45-2.6,6.1-41.41,8.01-41.65Z"/>
    <path class="cls-3" d="m383.66,598.69c.97-.6,1.85-1.44,2.55-2.41,1.53-2.14,2.15-4.91.83-6.96-.39-.61-.95-1.15-1.72-1.6-.05-.03-.1-.05-.15-.08-2.2-.99-7.68,2.95-8.65,6.79-.17.68-.2,1.36-.05,2.01.19.81.68,1.58,1.54,2.24,1.78,1.36,3.86,1.11,5.65.02Zm-19.62-1.26c.24.33.5.63.77.9,1.31,1.3,3,1.85,4.95.81,1.65-.88,2.36-2.41,2.41-4.1,0-.33,0-.66-.05-.99-.34-2.82-2.33-5.8-4.86-6.74-.52-.19-1.06-.3-1.62-.3-.92,0-1.88.28-2.83.95-.94.66-1.15,2.52-.78,4.57.11.63.28,1.28.5,1.92.37,1.08.88,2.12,1.52,2.99Zm8.93,5.4c.34.14.79.23,1.25.27.97.07,1.93-.13,1.75-.7-.25-.76-.36-2.69-.72-3.71-.15-.43-.35-.7-.63-.64-.14.03-.31.18-.5.43-.73.93-1.7,3.09-1.69,3.82,0,.22.22.4.54.53Zm-10.07-19.56c-2.23-.24-5.04-.22-5.04-.22-.24.76-2.06,7.63-1.28,8.09.28.17,1.2.44,2.3.71,0-.3.02-.6.04-.91.14-2.81,1.74-5.47,3.99-7.68Zm4.43-3.86c.52-2.28.98-4.9.5-5.19-.82-.49-6.79-1.8-7.58-1.69-.79.12-3.19,8.78-1.98,9.21.7.25,3.33.56,5.42.79.06-.05.11-.1.17-.15,0,0,1.2-1.59,3.46-2.98Zm10.08-1.68c.23-1.38.25-2.48-.16-2.63-1.15-.41-7.72-1-7.72-1-.13.42-.74,2.68-1.13,4.72,2.24-1.12,5.28-1.88,9.02-1.09Zm9.2,5.49c.57-2.41,1.2-5.59.66-5.91-.82-.49-6.79-1.8-7.58-1.69-.27.04-.72,1.05-1.15,2.39,4.11,1.15,6.59,3.28,8.06,5.21Zm1.34,2.18c1.34.52,6.2,1.57,6.89,1.47.75-.11,3.01-8.28,1.86-8.68-1.15-.41-7.72-1-7.72-1-.2.63-1.49,5.48-1.48,7.37.17.3.32.58.45.84Zm2.29,11.68c1.85.11,3.61.1,3.61.1.25-.76,2.06-7.63,1.29-8.09-.65-.39-4.65-1.31-6.4-1.54,1.32,3.52,1.68,7.18,1.5,9.53Zm-6.45,6.92c-.14,1.06-.15,1.86.1,2.01.82.49,6.78,1.8,7.58,1.69.79-.12,3.2-8.78,1.98-9.21-.48-.17-1.83-.37-3.3-.55-.01.08-.02.16-.04.24-.57,3.04-3.85,4.8-6.32,5.82Zm-2.65,2.03c.64.06,1.05.1,1.05.1.06-.2.24-.84.45-1.68-.93.35-1.59.57-1.65.71-.09.19.04.44.15.86Zm-8.34,6.03c-.28,1.51-.41,2.82-.08,3.02.78.46,6.4,1.7,7.14,1.59.75-.11,3.01-8.28,1.86-8.68-.11-.04-.27-.08-.48-.12-.09.63-.31,1.41-.75,2.37-.82,1.77-4.32,2.13-7.69,1.84Zm-6.53-6.71c-.5-.08-.87-.11-1.02-.09-.74.11-3.01,8.28-1.86,8.68,1.15.41,7.72,1,7.72,1,.1-.3.44-1.55.77-2.98-2.92-.36-5.56-1.18-6.03-1.96-.9-1.52.14-4.02.43-4.66Zm-7.42-11.73c-.95-.18-1.73-.29-1.97-.25-.74.11-3.01,8.28-1.86,8.68.95.34,5.57.8,7.17.95-2.53-2.16-3.3-5.27-3.34-9.38Zm3.43,11.28c-1.15-.41-7.72-1-7.72-1-.24.76-2.06,7.63-1.28,8.09.78.46,6.4,1.7,7.14,1.59.75-.11,3.01-8.28,1.86-8.68Zm22.41,3.45c-.75.11-3.01,8.28-1.87,8.68,1.15.41,7.73,1,7.73,1,.24-.76,2.06-7.63,1.28-8.09-.78-.46-6.4-1.7-7.14-1.59Zm-26.43-37.5c1.91-.24,38.34,6.02,39.99,7.37,1.65,1.35-4.35,41.34-6.26,41.81-2.68.67-40.28-4.94-41.74-7.53-1.45-2.6,6.1-41.41,8.01-41.65Z"/>
    <path class="cls-3" d="m585.2,598.69c.97-.6,1.85-1.44,2.55-2.41,1.53-2.14,2.16-4.91.83-6.96-.39-.61-.95-1.15-1.71-1.6-.05-.03-.1-.05-.15-.08-2.21-.99-7.68,2.95-8.66,6.79-.17.68-.2,1.36-.05,2.01.2.81.68,1.58,1.54,2.24,1.78,1.36,3.87,1.11,5.65.02Zm-19.62-1.26c.24.33.5.63.78.9,1.31,1.3,3,1.85,4.95.81,1.65-.88,2.36-2.41,2.4-4.1,0-.33,0-.66-.05-.99-.34-2.82-2.33-5.8-4.86-6.74-.52-.19-1.06-.3-1.62-.3-.92,0-1.88.28-2.83.95-.94.66-1.15,2.52-.78,4.57.11.63.28,1.28.5,1.92.37,1.08.88,2.12,1.52,2.99Zm8.93,5.4c.34.14.8.23,1.25.27.97.07,1.93-.13,1.75-.7-.25-.76-.36-2.69-.72-3.71-.15-.43-.35-.7-.63-.64-.14.03-.31.18-.5.43-.73.93-1.7,3.09-1.69,3.82,0,.22.22.4.54.53Zm-10.06-19.56c-2.23-.24-5.04-.22-5.04-.22-.24.76-2.06,7.63-1.29,8.09.28.17,1.2.44,2.3.71,0-.3.02-.6.04-.91.14-2.81,1.74-5.47,3.99-7.68Zm4.43-3.86c.52-2.28.98-4.9.5-5.19-.82-.49-6.79-1.8-7.58-1.69-.79.12-3.2,8.78-1.98,9.21.7.25,3.33.56,5.42.79.06-.05.11-.1.17-.15,0,0,1.2-1.59,3.46-2.98Zm10.08-1.68c.23-1.38.25-2.48-.16-2.63-1.15-.41-7.73-1-7.73-1-.13.42-.74,2.68-1.13,4.72,2.24-1.12,5.28-1.88,9.02-1.09Zm9.19,5.49c.58-2.41,1.2-5.59.66-5.91-.82-.49-6.79-1.8-7.58-1.69-.27.04-.72,1.05-1.15,2.39,4.11,1.15,6.59,3.28,8.06,5.21Zm1.34,2.18c1.35.52,6.2,1.57,6.89,1.47.75-.11,3.01-8.28,1.86-8.68-1.15-.41-7.72-1-7.72-1-.2.63-1.49,5.48-1.48,7.37.17.3.32.58.45.84Zm2.3,11.68c1.85.11,3.61.1,3.61.1.24-.76,2.06-7.63,1.28-8.09-.65-.39-4.65-1.31-6.4-1.54,1.31,3.52,1.68,7.18,1.5,9.53Zm-6.46,6.92c-.14,1.06-.15,1.86.1,2.01.83.49,6.79,1.8,7.58,1.69.79-.12,3.19-8.78,1.98-9.21-.48-.17-1.83-.37-3.3-.55-.01.08-.03.16-.04.24-.57,3.04-3.85,4.8-6.32,5.82Zm-2.65,2.03c.64.06,1.05.1,1.05.1.07-.2.24-.84.45-1.68-.93.35-1.58.57-1.65.71-.09.19.03.44.15.86Zm-8.34,6.03c-.28,1.51-.4,2.82-.08,3.02.78.46,6.4,1.7,7.14,1.59.75-.11,3.01-8.28,1.86-8.68-.11-.04-.28-.08-.48-.12-.09.63-.3,1.41-.75,2.37-.82,1.77-4.31,2.13-7.69,1.84Zm-6.53-6.71c-.5-.08-.87-.11-1.03-.09-.75.11-3.01,8.28-1.86,8.68,1.15.41,7.72,1,7.72,1,.1-.3.44-1.55.77-2.98-2.93-.36-5.56-1.18-6.03-1.96-.9-1.52.14-4.02.43-4.66Zm-7.42-11.73c-.95-.18-1.73-.29-1.97-.25-.75.11-3.01,8.28-1.86,8.68.95.34,5.57.8,7.18.95-2.53-2.16-3.3-5.27-3.34-9.38Zm3.43,11.28c-1.15-.41-7.72-1-7.72-1-.24.76-2.06,7.63-1.28,8.09.78.46,6.4,1.7,7.14,1.59.75-.11,3.01-8.28,1.86-8.68Zm22.41,3.45c-.75.11-3.01,8.28-1.86,8.68,1.15.41,7.72,1,7.72,1,.24-.76,2.06-7.63,1.28-8.09-.78-.46-6.4-1.7-7.14-1.59Zm-26.43-37.5c1.9-.24,38.34,6.02,39.99,7.37,1.65,1.35-4.36,41.34-6.27,41.81-2.67.67-40.28-4.94-41.73-7.53-1.45-2.6,6.1-41.41,8.01-41.65Z"/>
    <path class="cls-4" d="m218.46,23.75c.32-1.03.42-2.19.31-3.32-.24-2.49-1.52-4.85-3.76-5.49-.66-.19-1.4-.23-2.23-.08-.05,0-.1.02-.15.04-2.2.67-3.65,6.9-1.94,10.26.3.59.7,1.1,1.22,1.46.65.46,1.47.7,2.5.64,2.12-.14,3.45-1.62,4.05-3.51Zm-14.81,11.35c.38.09.75.14,1.12.17,1.75.1,3.3-.56,4.04-2.51.63-1.65.18-3.2-.84-4.43-.2-.24-.42-.46-.65-.68-2-1.81-5.29-2.69-7.68-1.78-.49.19-.95.45-1.35.8-.66.58-1.17,1.38-1.43,2.45-.26,1.06.75,2.52,2.29,3.75.47.38,1,.74,1.55,1.06.94.54,1.95.96,2.95,1.18Zm9.75-1.72c.33-.11.71-.33,1.06-.59.74-.55,1.3-1.3.81-1.59-.66-.39-1.94-1.7-2.83-2.2-.38-.21-.69-.28-.85-.07-.08.11-.11.33-.09.62.06,1.12.71,3.27,1.18,3.79.14.15.4.15.72.04Zm-19.41-7.69c-1.74,1.23-3.74,2.99-3.74,2.99.3.69,3.29,6.74,4.14,6.58.31-.05,1.13-.44,2.09-.93-.18-.22-.36-.44-.54-.67-1.66-2.1-2.18-4.99-1.95-7.98Zm.75-5.53c-1.06-1.95-2.36-4.11-2.89-4.02-.89.16-5.98,2.95-6.47,3.53-.49.58,3.2,8.27,4.34,7.82.66-.26,2.73-1.68,4.36-2.83,0-.08.02-.15.03-.22,0,0-.14-1.88.62-4.29Zm6.15-7.5c-.7-1.13-1.37-1.93-1.75-1.78-1.08.43-6.14,4.11-6.14,4.11.17.38,1.15,2.38,2.14,4.08.9-2.2,2.6-4.64,5.76-6.41Zm10-1.82c-1.1-2.08-2.64-4.74-3.22-4.64-.9.16-5.98,2.95-6.47,3.53-.17.19.14,1.19.67,2.42,3.66-1.74,6.76-1.77,9.01-1.31Zm2.32.72c1.29-.46,5.41-2.75,5.84-3.25.47-.54-3.02-7.79-4.09-7.37-1.08.43-6.14,4.11-6.14,4.11.25.58,2.36,4.85,3.55,6.18.31.1.59.22.85.32Zm8.93,6.91c1.39-1.07,2.64-2.18,2.64-2.18-.3-.69-3.29-6.74-4.14-6.58-.7.13-4.14,1.97-5.54,2.9,3.14,1.7,5.68,4.08,7.03,5.87Zm-.29,8.98c.56.84,1.05,1.42,1.33,1.37.9-.16,5.97-2.95,6.47-3.53.49-.58-3.2-8.27-4.34-7.82-.45.18-1.53.88-2.7,1.67.04.07.08.13.12.2,1.49,2.53.25,5.84-.88,8.11Zm-.63,3.1c.49-.35.81-.59.81-.59-.08-.18-.35-.75-.72-1.48-.45.83-.78,1.4-.74,1.55.05.19.3.29.65.52Zm-2.19,9.51c.75,1.25,1.47,2.27,1.83,2.2.84-.15,5.63-2.78,6.09-3.33.47-.54-3.02-7.79-4.09-7.37-.1.04-.25.11-.42.21.33.51.66,1.2.94,2.16.52,1.78-1.75,4.22-4.35,6.12Zm-8.86-.72c-.4.26-.69.46-.79.58-.46.54,3.02,7.79,4.09,7.36,1.08-.42,6.14-4.11,6.14-4.11-.12-.27-.65-1.38-1.31-2.6-2.32,1.57-4.71,2.63-5.53,2.37-1.59-.52-2.41-2.96-2.6-3.6Zm-12.62-3.75c-.79.47-1.41.87-1.57,1.05-.46.55,3.02,7.79,4.09,7.37.89-.35,4.48-2.91,5.72-3.8-3.16.04-5.65-1.7-8.24-4.61Zm9.49,5.92c-1.07.43-6.14,4.11-6.14,4.11.3.69,3.29,6.73,4.14,6.58.84-.15,5.63-2.78,6.09-3.33.47-.54-3.02-7.79-4.09-7.37Zm18.16-11.53c-.46.55,3.02,7.8,4.09,7.37,1.08-.42,6.14-4.11,6.14-4.11-.3-.69-3.29-6.74-4.14-6.58-.84.15-5.63,2.78-6.09,3.33Zm-42.3-10.28C184.12,18.35,214.06.07,216.09,0c2.03-.07,22.71,32.25,21.64,33.78-1.49,2.15-31.86,21.63-34.52,20.69-2.66-.95-21.5-33.39-20.29-34.76Z"/>
    <path class="cls-4" d="m381.62,23.75c-.32-1.03-.43-2.19-.31-3.32.24-2.49,1.52-4.85,3.76-5.49.66-.19,1.4-.23,2.23-.08.05,0,.1.02.15.04,2.2.67,3.65,6.9,1.94,10.26-.3.59-.7,1.1-1.22,1.46-.65.46-1.48.7-2.5.64-2.12-.14-3.45-1.62-4.04-3.51Zm14.81,11.35c-.38.09-.75.14-1.12.17-1.75.1-3.3-.56-4.04-2.51-.63-1.65-.18-3.2.85-4.43.2-.24.42-.46.65-.68,2-1.81,5.29-2.69,7.68-1.78.49.19.95.45,1.35.8.66.58,1.17,1.38,1.43,2.45.26,1.06-.75,2.52-2.29,3.75-.48.38-1,.74-1.55,1.06-.94.54-1.95.96-2.95,1.18Zm-9.75-1.72c-.33-.11-.71-.33-1.06-.59-.74-.55-1.3-1.3-.82-1.59.66-.39,1.94-1.7,2.83-2.2.38-.21.68-.28.85-.07.08.11.11.33.09.62-.05,1.12-.71,3.27-1.18,3.79-.14.15-.4.15-.72.04Zm19.41-7.69c1.75,1.23,3.74,2.99,3.74,2.99-.3.69-3.3,6.74-4.14,6.58-.31-.05-1.13-.44-2.08-.93.18-.22.36-.44.54-.67,1.65-2.1,2.18-4.99,1.95-7.98Zm-.75-5.53c1.06-1.95,2.36-4.11,2.89-4.02.9.16,5.98,2.95,6.47,3.53.49.58-3.2,8.27-4.35,7.82-.65-.26-2.73-1.68-4.36-2.83,0-.08-.02-.15-.03-.22,0,0,.14-1.88-.62-4.29Zm-6.15-7.5c.7-1.13,1.37-1.93,1.75-1.78,1.08.43,6.14,4.11,6.14,4.11-.17.38-1.15,2.38-2.14,4.08-.9-2.2-2.6-4.64-5.75-6.41Zm-10-1.82c1.1-2.08,2.64-4.74,3.22-4.64.9.16,5.98,2.95,6.47,3.53.17.19-.14,1.19-.67,2.42-3.65-1.74-6.75-1.77-9.01-1.31Zm-2.32.72c-1.29-.46-5.41-2.75-5.84-3.25-.47-.54,3.02-7.79,4.09-7.37,1.08.43,6.14,4.11,6.14,4.11-.25.58-2.36,4.85-3.55,6.18-.3.1-.59.22-.84.32Zm-8.94,6.91c-1.39-1.07-2.64-2.18-2.64-2.18.3-.69,3.29-6.74,4.14-6.58.7.13,4.14,1.97,5.53,2.9-3.14,1.7-5.68,4.08-7.03,5.87Zm.29,8.98c-.56.84-1.05,1.42-1.33,1.37-.9-.16-5.97-2.95-6.47-3.53-.49-.58,3.2-8.27,4.34-7.82.45.18,1.54.88,2.7,1.67-.04.07-.08.13-.12.2-1.49,2.53-.25,5.84.88,8.11Zm.63,3.1c-.49-.35-.81-.59-.81-.59.08-.18.35-.75.72-1.48.45.83.78,1.4.74,1.55-.05.19-.3.29-.65.52Zm2.19,9.51c-.75,1.25-1.47,2.27-1.83,2.2-.84-.15-5.63-2.78-6.09-3.33-.47-.54,3.02-7.79,4.09-7.37.1.04.25.11.42.21-.33.51-.66,1.2-.94,2.16-.52,1.78,1.75,4.22,4.35,6.12Zm8.85-.72c.4.26.69.46.79.58.46.54-3.02,7.79-4.09,7.36-1.08-.42-6.14-4.11-6.14-4.11.12-.27.65-1.38,1.31-2.6,2.31,1.57,4.71,2.63,5.53,2.37,1.59-.52,2.41-2.96,2.6-3.6Zm12.63-3.75c.79.47,1.41.87,1.57,1.05.46.55-3.02,7.79-4.09,7.37-.89-.35-4.48-2.91-5.72-3.8,3.16.04,5.65-1.7,8.24-4.61Zm-9.49,5.92c1.08.43,6.14,4.11,6.14,4.11-.3.69-3.3,6.73-4.14,6.58-.84-.15-5.63-2.78-6.1-3.33-.46-.54,3.02-7.79,4.09-7.37Zm-18.16-11.53c.46.55-3.02,7.8-4.09,7.37-1.08-.42-6.14-4.11-6.14-4.11.3-.69,3.29-6.74,4.14-6.58s5.63,2.78,6.09,3.33Zm42.3-10.28C415.95,18.35,386.01.07,383.99,0c-2.03-.07-22.71,32.25-21.64,33.78,1.49,2.15,31.86,21.63,34.52,20.69,2.66-.95,21.5-33.39,20.29-34.76Z"/>
    <path class="cls-3" d="m422.65,45.56c-.46-.98-.71-2.11-.76-3.24-.09-2.5.85-5.01,2.98-5.95.63-.28,1.36-.41,2.2-.37.05,0,.1,0,.15.01,2.27.37,4.55,6.35,3.31,9.9-.22.63-.55,1.18-1.01,1.62-.58.54-1.36.9-2.39.97-2.12.15-3.64-1.13-4.48-2.93Zm16.21,9.24c-.36.13-.73.24-1.09.31-1.72.34-3.35-.1-4.34-1.94-.85-1.55-.61-3.15.24-4.51.16-.26.35-.51.55-.76,1.74-2.06,4.87-3.38,7.37-2.8.52.12,1,.32,1.44.61.73.48,1.35,1.2,1.75,2.23.4,1.01-.4,2.6-1.76,4.03-.42.44-.89.87-1.4,1.26-.85.66-1.8,1.22-2.76,1.58Zm-9.9-.39c-.34-.06-.75-.23-1.13-.44-.8-.45-1.46-1.11-1.02-1.46.6-.48,1.69-1.95,2.51-2.56.35-.26.64-.37.83-.18.09.1.15.31.18.6.1,1.12-.26,3.34-.66,3.91-.12.17-.38.2-.7.14Zm18.19-10.24c1.9.98,4.1,2.46,4.1,2.46-.2.73-2.35,7.12-3.2,7.08-.31-.01-1.18-.28-2.19-.64.15-.24.29-.49.44-.74,1.36-2.3,1.48-5.24.85-8.16Zm-1.5-5.38c.78-2.08,1.78-4.39,2.32-4.37.91.04,6.32,2.12,6.88,2.62.57.5-2.05,8.62-3.25,8.33-.69-.17-2.93-1.29-4.7-2.21-.02-.07-.04-.14-.06-.21,0,0-.12-1.89-1.19-4.17Zm-7.11-6.6c.54-1.21,1.1-2.1,1.5-2,1.13.28,6.64,3.24,6.64,3.24-.12.4-.82,2.51-1.56,4.33-1.2-2.05-3.2-4.24-6.58-5.57Zm-10.15-.45c.8-2.21,1.97-5.05,2.56-5.03.91.04,6.32,2.12,6.88,2.62.19.17.02,1.2-.33,2.49-3.86-1.23-6.93-.84-9.11-.08Zm-2.2,1.03c-1.34-.29-5.73-1.99-6.23-2.43-.53-.48,1.93-8.13,3.06-7.86,1.13.28,6.64,3.24,6.64,3.24-.17.6-1.68,5.12-2.68,6.61-.29.14-.55.29-.79.43Zm-7.92,8.06c-1.52-.88-2.91-1.81-2.91-1.81.2-.73,2.35-7.12,3.21-7.08.71.03,4.36,1.4,5.88,2.13-2.88,2.1-5.08,4.81-6.17,6.77Zm1.5,8.86c-.44.91-.85,1.55-1.13,1.54-.91-.04-6.32-2.12-6.88-2.62-.57-.5,2.05-8.63,3.24-8.33.47.11,1.64.66,2.9,1.29-.03.08-.06.15-.09.21-1.14,2.7.54,5.82,1.97,7.91Zm1.04,2.99c-.54-.28-.89-.47-.89-.47.05-.19.25-.79.52-1.56.55.77.95,1.28.94,1.43-.03.19-.26.33-.57.6Zm3.46,9.13c-.58,1.35-1.15,2.45-1.51,2.43-.85-.04-5.95-2-6.49-2.47-.53-.48,1.93-8.13,3.06-7.86.11.03.26.08.44.15-.26.55-.49,1.28-.64,2.27-.28,1.83,2.3,3.95,5.14,5.47Zm8.68-1.91c.43.2.75.37.86.47.53.48-1.94,8.13-3.06,7.85-1.13-.27-6.64-3.24-6.64-3.24.08-.28.46-1.45.95-2.75,2.51,1.24,5.03,1.97,5.8,1.59,1.51-.73,1.99-3.26,2.09-3.91Zm12-5.42c.85.35,1.52.67,1.69.83.53.48-1.93,8.13-3.06,7.86-.93-.23-4.83-2.28-6.18-3,3.13-.39,5.37-2.45,7.54-5.69Zm-8.61,7.15c1.13.28,6.64,3.24,6.64,3.24-.21.73-2.35,7.12-3.21,7.08-.86-.04-5.95-1.99-6.49-2.47-.54-.48,1.93-8.13,3.05-7.85Zm-19.56-8.97c.53.48-1.93,8.13-3.06,7.86-1.12-.28-6.64-3.24-6.64-3.24.2-.73,2.35-7.12,3.21-7.08.85.04,5.95,2,6.49,2.47Zm40.52-15.91c-1.38-1.19-33.52-15.25-35.53-15.04-2.02.21-18.13,35.03-16.87,36.4,1.77,1.93,34.5,17.12,37,15.82,2.5-1.3,16.78-36,15.4-37.18Z"/>
    <path class="cls-1" d="m472.47,58.45c-.82-.7-1.53-1.63-2.03-2.64-1.12-2.23-1.3-4.92.25-6.65.46-.51,1.07-.94,1.85-1.25.05-.02.1-.04.15-.05,2.22-.6,6.76,3.9,7.11,7.64.06.67,0,1.3-.25,1.89-.3.73-.87,1.38-1.78,1.87-1.87,1.01-3.79.47-5.3-.82Zm18.58,1.72c-.28.28-.56.52-.86.73-1.43,1.02-3.09,1.29-4.75.03-1.41-1.07-1.86-2.61-1.65-4.2.04-.31.1-.62.19-.93.73-2.6,3.04-5.09,5.55-5.59.52-.1,1.04-.13,1.56-.05.87.13,1.72.55,2.51,1.31.79.75.71,2.53.06,4.4-.2.58-.45,1.16-.75,1.72-.5.95-1.14,1.85-1.86,2.58Zm-9.17,3.74c-.34.08-.78.1-1.21.07-.92-.08-1.79-.41-1.53-.91.35-.68.73-2.47,1.22-3.37.21-.38.43-.6.68-.51.13.05.26.22.4.47.55.98,1.14,3.15,1.02,3.83-.04.2-.26.34-.58.42Zm12.33-16.84c2.13.11,4.75.54,4.75.54.11.75.8,7.46,0,7.78-.29.11-1.19.23-2.26.32.03-.28.07-.56.1-.85.28-2.66-.82-5.38-2.6-7.78Zm-3.58-4.28c-.15-2.22-.19-4.74.3-4.94.85-.34,6.63-.68,7.36-.46.72.23,1.69,8.7.49,8.93-.7.13-3.2.04-5.2-.06-.05-.06-.09-.11-.14-.17,0,0-.89-1.67-2.8-3.3Zm-9.2-3.07c0-1.33.14-2.36.54-2.44,1.14-.22,7.38.21,7.38.21.06.41.3,2.63.37,4.59-1.93-1.38-4.67-2.54-8.29-2.36Zm-9.43,3.79c-.18-2.35-.3-5.42.25-5.64.85-.34,6.63-.68,7.36-.46.24.08.51,1.09.72,2.4-4.03.48-6.66,2.1-8.33,3.7Zm-1.58,1.85c-1.34.29-6.04.55-6.67.36-.68-.21-1.6-8.21-.46-8.42,1.14-.21,7.38.21,7.38.21.1.62.59,5.35.29,7.13-.2.25-.38.5-.54.73Zm-3.88,10.61c-1.75-.17-3.4-.44-3.4-.44-.12-.75-.8-7.46,0-7.78.66-.27,4.55-.54,6.23-.5-1.75,3.11-2.64,6.48-2.82,8.71Zm5.03,7.44c-.02,1.01-.14,1.77-.4,1.87-.85.34-6.63.68-7.35.46-.73-.23-1.7-8.71-.49-8.93.47-.09,1.77-.08,3.18-.02v.23c.08,2.93,2.9,5.07,5.06,6.39Zm2.18,2.3c-.6-.04-1-.06-1-.06-.03-.2-.1-.83-.18-1.64.82.47,1.4.77,1.45.91.05.19-.1.41-.27.79Zm6.92,6.88c.04,1.46-.04,2.7-.37,2.84-.8.32-6.25.65-6.93.43-.68-.21-1.6-8.21-.46-8.42.11-.02.27-.03.47-.05-.01.61.08,1.37.35,2.33.51,1.78,3.73,2.64,6.94,2.86Zm7.11-5.33c.48,0,.83.02.97.07.68.21,1.6,8.2.46,8.41-1.14.22-7.38-.21-7.38-.21-.05-.29-.18-1.51-.28-2.9,2.8.09,5.39-.29,5.94-.95,1.07-1.29.47-3.79.29-4.43Zm8.69-9.9c.92-.02,1.66-.01,1.88.06.68.21,1.6,8.2.46,8.41-.94.18-5.34-.08-6.87-.17,2.7-1.65,3.88-4.45,4.52-8.3Zm-4.88,10.07c1.13-.21,7.38.21,7.38.21.11.75.8,7.46,0,7.78-.79.32-6.25.64-6.93.43-.68-.21-1.6-8.2-.46-8.41Zm-21.52-.09c.68.22,1.6,8.21.46,8.42-1.14.21-7.38-.21-7.38-.21-.12-.75-.8-7.46,0-7.78.8-.32,6.25-.65,6.93-.43Zm30.33-31.24c-1.75-.51-36.83-.03-38.58.99-1.75,1.02-2.03,39.39-.32,40.12,2.4,1.03,38.48,1.34,40.23-.88,1.75-2.22.41-39.72-1.34-40.23Z"/>
    <path class="cls-2" d="m519.55,52.26c-1-.4-1.96-1.05-2.76-1.85-1.78-1.76-2.8-4.25-1.88-6.38.27-.63.71-1.23,1.35-1.77.04-.03.08-.06.13-.09,1.91-1.28,7.65,1.54,9.17,4.98.27.61.4,1.24.36,1.87-.05.79-.38,1.59-1.09,2.34-1.45,1.55-3.44,1.65-5.28.91Zm18.16-4.29c-.17.35-.37.67-.58.97-1.02,1.43-2.52,2.2-4.5,1.54-1.68-.56-2.59-1.88-2.9-3.46-.06-.3-.1-.61-.11-.93-.13-2.7,1.26-5.79,3.48-7.07.46-.26.95-.45,1.47-.54.87-.15,1.81-.03,2.8.44.99.47,1.48,2.18,1.46,4.15,0,.61-.06,1.24-.17,1.87-.18,1.07-.49,2.13-.95,3.04Zm-7.5,6.46c-.3.19-.71.35-1.13.45-.9.22-1.83.18-1.75-.38.12-.76-.09-2.58.09-3.59.07-.43.22-.7.48-.7.13,0,.32.12.54.32.83.75,2.08,2.62,2.18,3.31.03.2-.14.41-.42.58Zm6.32-19.89c2.05-.58,4.68-1,4.68-1,.34.67,3.13,6.81,2.48,7.37-.24.2-1.05.6-2.04,1.03-.05-.28-.12-.56-.18-.84-.58-2.61-2.49-4.85-4.95-6.55Zm-4.75-2.91c-.85-2.05-1.69-4.43-1.29-4.78.69-.59,6.07-2.76,6.83-2.78.75-.02,4.38,7.71,3.3,8.31-.62.35-3.03,1.05-4.95,1.59l-.19-.11s-1.37-1.3-3.71-2.23Zm-9.7.02c-.43-1.25-.62-2.28-.27-2.48,1.01-.57,7.07-2.15,7.07-2.15.19.37,1.12,2.39,1.81,4.23-2.28-.69-5.23-.93-8.61.4Zm-7.73,6.59c-.92-2.17-2.01-5.04-1.56-5.43.69-.59,6.07-2.76,6.82-2.78.25,0,.84.87,1.45,2.05-3.66,1.73-5.64,4.11-6.71,6.15Zm-.91,2.25c-1.18.7-5.55,2.45-6.21,2.46-.71.02-4.13-7.26-3.12-7.83,1.01-.57,7.07-2.16,7.07-2.16.28.56,2.26,4.89,2.55,6.66-.11.3-.21.6-.28.86Zm-.3,11.29c-1.71.4-3.37.67-3.37.67-.35-.67-3.13-6.81-2.48-7.37.55-.46,4.15-1.96,5.75-2.45-.67,3.5-.43,6.98.1,9.16Zm7.13,5.46c.3.97.44,1.72.22,1.9-.69.59-6.06,2.76-6.82,2.78-.76.02-4.38-7.71-3.31-8.31.42-.23,1.65-.63,3-1.03.02.07.05.15.08.22,1.01,2.75,4.37,3.88,6.83,4.45Zm2.8,1.48c-.59.16-.97.26-.97.26-.1-.18-.36-.75-.69-1.5.93.18,1.58.29,1.66.41.11.16.04.42,0,.83Zm8.76,4.32c.5,1.38.83,2.58.55,2.81-.65.56-5.72,2.6-6.43,2.62-.71.02-4.13-7.27-3.12-7.83.1-.05.24-.12.43-.19.18.58.51,1.27,1.08,2.1,1.05,1.53,4.38,1.31,7.49.5Zm5.04-7.31c.45-.15.8-.24.95-.25.71-.01,4.12,7.27,3.12,7.83-1.01.57-7.07,2.15-7.07,2.15-.14-.26-.65-1.38-1.19-2.66,2.68-.8,5.02-1.99,5.33-2.79.6-1.56-.77-3.74-1.14-4.29Zm5.08-12.15c.86-.32,1.57-.55,1.8-.55.72-.01,4.13,7.27,3.12,7.83-.83.47-5.09,1.63-6.56,2.02,2.03-2.42,2.26-5.45,1.64-9.3Zm-1.42,11.09c1.01-.56,7.07-2.15,7.07-2.15.34.67,3.13,6.81,2.48,7.37-.65.55-5.72,2.6-6.43,2.62-.71.02-4.13-7.27-3.12-7.83Zm-20.42,6.78c.72-.02,4.13,7.26,3.12,7.83-1.01.57-7.07,2.16-7.07,2.16-.35-.67-3.14-6.81-2.48-7.37.65-.55,5.72-2.6,6.43-2.61Zm18.79-39.27c-1.82.07-34.92,11.7-36.25,13.23-1.33,1.53,10.62,37.99,12.48,38.13,2.6.2,36.9-10.99,37.85-13.65.95-2.66-12.26-37.78-14.09-37.7Z"/>
    <path class="cls-4" d="m565.77,33.58c-1.07-.17-2.14-.6-3.1-1.21-2.12-1.34-3.65-3.54-3.22-5.83.13-.68.43-1.35.93-2.02.03-.04.07-.08.1-.12,1.59-1.66,7.81-.16,10.03,2.87.4.54.67,1.12.76,1.75.12.78-.03,1.63-.55,2.52-1.08,1.83-3,2.36-4.96,2.03Zm16.79-8.13c-.1.38-.21.74-.36,1.08-.69,1.61-1.98,2.7-4.05,2.48-1.76-.18-2.94-1.28-3.58-2.75-.13-.28-.23-.58-.31-.89-.71-2.6-.02-5.93,1.86-7.66.39-.36.83-.65,1.32-.85.81-.33,1.76-.43,2.83-.18,1.06.24,1.91,1.8,2.32,3.73.13.6.21,1.23.25,1.86.06,1.08-.02,2.18-.27,3.17Zm-5.92,7.94c-.25.25-.62.49-1,.68-.83.41-1.75.58-1.78.01-.05-.76-.65-2.5-.7-3.52-.02-.43.06-.74.32-.79.13-.03.34.05.59.2.98.55,2.6,2.1,2.85,2.75.07.19-.05.43-.28.66Zm1.85-20.79c1.88-1.01,4.35-2,4.35-2,.48.58,4.54,5.97,4.02,6.65-.19.25-.9.82-1.77,1.45-.11-.26-.23-.52-.35-.78-1.13-2.42-3.48-4.19-6.25-5.32Zm-5.28-1.81c-1.27-1.82-2.61-3.95-2.29-4.38.55-.73,5.32-4.01,6.05-4.19.74-.18,5.95,6.58,5.03,7.39-.53.47-2.73,1.69-4.48,2.63-.07-.02-.14-.05-.21-.07,0,0-1.62-.97-4.1-1.38Zm-9.46,2.13c-.69-1.13-1.1-2.09-.8-2.36.86-.77,6.43-3.64,6.43-3.64.27.32,1.61,2.09,2.68,3.74-2.37-.18-5.31.24-8.31,2.26Zm-6.12,8.12c-1.37-1.92-3.05-4.49-2.7-4.96.55-.73,5.33-4.01,6.06-4.19.25-.06,1,.66,1.86,1.68-3.2,2.49-4.62,5.24-5.22,7.47Zm-.4,2.4c-.99.94-4.88,3.6-5.53,3.75-.7.17-5.61-6.2-4.74-6.97.86-.77,6.43-3.64,6.43-3.64.4.48,3.27,4.28,3.93,5.95-.05.32-.07.62-.09.9Zm2.16,11.08c-1.58.76-3.14,1.38-3.14,1.38-.48-.58-4.54-5.97-4.03-6.65.43-.57,3.62-2.81,5.08-3.65.1,3.57,1.09,6.91,2.08,8.92Zm8.15,3.78c.5.88.8,1.58.63,1.8-.55.73-5.32,4.01-6.06,4.19-.73.18-5.95-6.58-5.03-7.39.35-.32,1.47-.98,2.7-1.66.04.07.08.14.13.2,1.58,2.47,5.1,2.84,7.63,2.86Zm3.06.83c-.54.28-.89.46-.89.46-.13-.15-.52-.65-1-1.31.95-.02,1.6-.06,1.71.04.14.13.13.4.18.81Zm9.48,2.32c.78,1.23,1.36,2.34,1.15,2.62-.52.68-5.02,3.78-5.71,3.95-.69.17-5.6-6.2-4.74-6.97.08-.07.21-.17.38-.28.3.53.78,1.13,1.51,1.81,1.35,1.26,4.56.33,7.42-1.14Zm3.33-8.23c.41-.25.72-.41.87-.45.7-.17,5.6,6.2,4.75,6.97-.86.77-6.43,3.64-6.43,3.64-.19-.23-.93-1.2-1.73-2.34,2.44-1.37,4.46-3.03,4.6-3.88.25-1.65-1.56-3.48-2.04-3.94Zm2.33-12.96c.77-.5,1.41-.87,1.64-.93.69-.17,5.6,6.2,4.74,6.96-.71.64-4.61,2.69-5.97,3.4,1.45-2.8,1.02-5.82-.42-9.44Zm1.02,11.14c.86-.77,6.43-3.64,6.43-3.64.48.58,4.54,5.97,4.02,6.65-.52.68-5.02,3.78-5.71,3.95-.7.17-5.61-6.2-4.75-6.97Zm-18.46,11.05c.7-.17,5.61,6.2,4.75,6.96-.86.77-6.43,3.64-6.43,3.64-.48-.58-4.54-5.97-4.02-6.65.52-.69,5.02-3.78,5.71-3.95ZM578.13,0c-1.76.47-31.55,19-32.51,20.78-.97,1.78,18.61,34.78,20.46,34.51,2.59-.37,33.64-18.74,33.99-21.54.35-2.8-20.17-34.22-21.94-33.75Z"/>
    <path class="cls-3" d="m177.42,45.56c.46-.98.72-2.11.76-3.24.09-2.5-.85-5.01-2.98-5.95-.63-.28-1.36-.41-2.2-.37-.05,0-.1,0-.15.01-2.27.37-4.55,6.35-3.31,9.9.22.63.55,1.18,1.01,1.62.58.54,1.36.9,2.39.97,2.12.15,3.64-1.13,4.48-2.93Zm-16.21,9.24c.36.13.73.24,1.09.31,1.72.34,3.35-.1,4.34-1.94.84-1.55.61-3.15-.24-4.51-.16-.26-.35-.51-.55-.76-1.74-2.06-4.87-3.38-7.37-2.8-.51.12-1,.32-1.44.61-.73.48-1.34,1.2-1.75,2.23-.4,1.01.4,2.6,1.77,4.03.42.44.89.87,1.4,1.26.85.66,1.81,1.22,2.76,1.58Zm9.89-.39c.34-.06.75-.23,1.13-.44.8-.45,1.46-1.11,1.02-1.46-.6-.48-1.69-1.95-2.51-2.56-.35-.26-.64-.37-.83-.18-.09.1-.15.31-.18.6-.1,1.12.26,3.34.66,3.91.12.17.38.2.7.14Zm-18.19-10.24c-1.89.98-4.11,2.46-4.11,2.46.21.73,2.35,7.12,3.21,7.08.31-.01,1.18-.28,2.19-.64-.15-.24-.29-.49-.44-.74-1.36-2.3-1.48-5.24-.85-8.16Zm1.49-5.38c-.78-2.08-1.78-4.39-2.32-4.37-.91.04-6.32,2.12-6.89,2.62-.57.5,2.05,8.62,3.25,8.33.69-.17,2.93-1.29,4.71-2.21.02-.07.04-.14.06-.21,0,0,.12-1.89,1.19-4.17Zm7.11-6.6c-.54-1.21-1.1-2.1-1.5-2-1.12.28-6.64,3.24-6.64,3.24.11.4.81,2.51,1.56,4.33,1.19-2.05,3.2-4.24,6.57-5.57Zm10.15-.45c-.81-2.21-1.97-5.05-2.56-5.03-.91.04-6.32,2.12-6.89,2.62-.19.17-.02,1.2.34,2.49,3.86-1.23,6.94-.84,9.11-.08Zm2.2,1.03c1.34-.29,5.73-1.99,6.22-2.43.54-.48-1.93-8.13-3.06-7.86-1.12.28-6.64,3.24-6.64,3.24.17.6,1.68,5.12,2.68,6.61.29.14.56.29.79.43Zm7.92,8.06c1.52-.88,2.92-1.81,2.92-1.81-.2-.73-2.35-7.12-3.21-7.08-.71.03-4.37,1.4-5.88,2.13,2.88,2.1,5.08,4.81,6.17,6.77Zm-1.5,8.86c.44.91.85,1.55,1.13,1.54.91-.04,6.32-2.12,6.89-2.62.57-.5-2.05-8.63-3.25-8.33-.47.11-1.64.66-2.9,1.29.03.08.06.15.09.21,1.14,2.7-.55,5.82-1.97,7.91Zm-1.04,2.99c.54-.28.88-.47.88-.47-.05-.19-.25-.79-.52-1.56-.56.77-.96,1.28-.94,1.43.03.19.26.33.57.6Zm-3.46,9.13c.57,1.35,1.15,2.45,1.51,2.43.86-.04,5.96-2,6.49-2.47.53-.48-1.93-8.13-3.06-7.86-.11.03-.26.08-.44.15.26.55.49,1.28.64,2.27.27,1.83-2.31,3.95-5.14,5.47Zm-8.68-1.91c-.43.2-.75.37-.86.47-.53.48,1.94,8.13,3.06,7.85,1.12-.27,6.64-3.24,6.64-3.24-.08-.28-.46-1.45-.95-2.75-2.51,1.24-5.02,1.97-5.8,1.59-1.51-.73-1.99-3.26-2.09-3.91Zm-12-5.42c-.85.35-1.52.67-1.69.83-.53.48,1.93,8.13,3.06,7.86.93-.23,4.83-2.28,6.18-3-3.13-.39-5.37-2.45-7.54-5.69Zm8.6,7.15c-1.12.28-6.64,3.24-6.64,3.24.21.73,2.35,7.12,3.21,7.08.86-.04,5.96-1.99,6.49-2.47.53-.48-1.93-8.13-3.06-7.85Zm19.56-8.97c-.53.48,1.93,8.13,3.06,7.86,1.12-.28,6.64-3.24,6.64-3.24-.2-.73-2.35-7.12-3.21-7.08-.86.04-5.96,2-6.49,2.47Zm-40.52-15.91c1.38-1.19,33.52-15.25,35.54-15.04,2.02.21,18.13,35.03,16.87,36.4-1.77,1.93-34.49,17.12-37,15.82-2.51-1.3-16.79-36-15.4-37.18Z"/>
    <path class="cls-1" d="m127.61,58.45c.82-.7,1.52-1.63,2.03-2.64,1.12-2.23,1.3-4.92-.26-6.65-.46-.51-1.07-.94-1.85-1.25-.05-.02-.1-.04-.15-.05-2.22-.6-6.76,3.9-7.11,7.64-.06.67.01,1.3.25,1.89.3.73.87,1.38,1.78,1.87,1.87,1.01,3.79.47,5.3-.82Zm-18.58,1.72c.27.28.56.52.86.73,1.42,1.02,3.09,1.29,4.76.03,1.41-1.07,1.86-2.61,1.65-4.2-.04-.31-.1-.62-.19-.93-.73-2.6-3.04-5.09-5.55-5.59-.52-.1-1.04-.13-1.56-.05-.87.13-1.72.55-2.51,1.31-.78.75-.71,2.53-.06,4.4.2.58.45,1.16.75,1.72.51.95,1.14,1.85,1.86,2.58Zm9.17,3.74c.34.08.78.1,1.21.07.92-.08,1.79-.41,1.54-.91-.35-.68-.74-2.47-1.22-3.37-.21-.38-.43-.6-.68-.51-.12.05-.26.22-.41.47-.55.98-1.14,3.15-1.02,3.83.04.2.26.34.58.42Zm-12.33-16.84c-2.13.11-4.76.54-4.76.54-.11.75-.8,7.46,0,7.78.29.11,1.19.23,2.26.32-.03-.28-.07-.56-.1-.85-.28-2.66.82-5.38,2.6-7.78Zm3.58-4.28c.15-2.22.19-4.74-.3-4.94-.84-.34-6.63-.68-7.35-.46-.72.23-1.69,8.7-.49,8.93.7.13,3.2.04,5.2-.06.05-.06.09-.11.14-.17,0,0,.89-1.67,2.8-3.3Zm9.2-3.07c0-1.33-.14-2.36-.54-2.44-1.14-.22-7.39.21-7.39.21-.06.41-.3,2.63-.37,4.59,1.94-1.38,4.67-2.54,8.29-2.36Zm9.43,3.79c.18-2.35.3-5.42-.25-5.64-.84-.34-6.63-.68-7.35-.46-.24.08-.52,1.09-.72,2.4,4.02.48,6.66,2.1,8.33,3.7Zm1.58,1.85c1.34.29,6.04.55,6.67.36.68-.21,1.6-8.21.46-8.42-1.14-.21-7.39.21-7.39.21-.09.62-.58,5.35-.29,7.13.21.25.39.5.54.73Zm3.88,10.61c1.75-.17,3.4-.44,3.4-.44.12-.75.8-7.46,0-7.78-.66-.27-4.55-.54-6.23-.5,1.75,3.11,2.64,6.48,2.82,8.71Zm-5.03,7.44c.03,1.01.14,1.77.4,1.87.84.34,6.63.68,7.35.46.72-.23,1.69-8.71.49-8.93-.47-.09-1.77-.08-3.17-.02,0,.08,0,.16,0,.23-.08,2.93-2.9,5.07-5.06,6.39Zm-2.18,2.3c.61-.04,1-.06,1-.06.03-.2.1-.83.18-1.64-.82.47-1.4.77-1.44.91-.06.19.1.41.27.79Zm-6.92,6.88c-.04,1.46.04,2.7.37,2.84.8.32,6.25.65,6.93.43.68-.21,1.6-8.21.46-8.42-.11-.02-.27-.03-.47-.05.01.61-.08,1.37-.36,2.33-.51,1.78-3.73,2.64-6.94,2.86Zm-7.11-5.33c-.48,0-.83.02-.97.07-.68.21-1.6,8.2-.46,8.41,1.14.22,7.39-.21,7.39-.21.05-.29.18-1.51.28-2.9-2.79.09-5.39-.29-5.94-.95-1.07-1.29-.47-3.79-.29-4.43Zm-8.69-9.9c-.92-.02-1.66-.01-1.88.06-.68.21-1.6,8.2-.46,8.41.94.18,5.34-.08,6.86-.17-2.69-1.65-3.88-4.45-4.52-8.3Zm4.88,10.07c-1.14-.21-7.39.21-7.39.21-.11.75-.8,7.46,0,7.78.8.32,6.25.64,6.93.43.68-.21,1.6-8.2.46-8.41Zm21.52-.09c-.68.22-1.6,8.21-.46,8.42,1.14.21,7.39-.21,7.39-.21.12-.75.8-7.46,0-7.78-.8-.32-6.25-.65-6.93-.43Zm-30.33-31.24c1.75-.51,36.83-.03,38.57.99,1.75,1.02,2.03,39.39.32,40.12-2.41,1.03-38.49,1.34-40.23-.88-1.75-2.22-.41-39.72,1.34-40.23Z"/>
    <path class="cls-2" d="m80.52,52.26c1-.4,1.96-1.05,2.77-1.85,1.77-1.76,2.79-4.25,1.87-6.38-.27-.63-.71-1.23-1.35-1.77-.04-.03-.08-.06-.12-.09-1.91-1.28-7.65,1.54-9.17,4.98-.27.61-.41,1.24-.36,1.87.05.79.38,1.59,1.09,2.34,1.45,1.55,3.44,1.65,5.28.91Zm-18.16-4.29c.17.35.37.67.58.97,1.02,1.43,2.52,2.2,4.5,1.54,1.68-.56,2.59-1.88,2.9-3.46.06-.3.1-.61.11-.93.13-2.7-1.26-5.79-3.48-7.07-.46-.26-.95-.45-1.47-.54-.86-.15-1.81-.03-2.8.44-.98.47-1.48,2.18-1.45,4.15,0,.61.06,1.24.16,1.87.18,1.07.49,2.13.95,3.04Zm7.5,6.46c.29.19.71.35,1.13.45.9.22,1.83.18,1.75-.38-.11-.76.09-2.58-.09-3.59-.08-.43-.22-.7-.48-.7-.13,0-.32.12-.54.32-.83.75-2.08,2.62-2.19,3.31-.03.2.14.41.42.58Zm-6.32-19.89c-2.05-.58-4.68-1-4.68-1-.34.67-3.13,6.81-2.48,7.37.24.2,1.06.6,2.04,1.03.06-.28.12-.56.18-.84.58-2.61,2.49-4.85,4.95-6.55Zm4.76-2.91c.84-2.05,1.69-4.43,1.29-4.78-.69-.59-6.07-2.76-6.82-2.78-.76-.02-4.38,7.71-3.31,8.31.62.35,3.03,1.05,4.95,1.59.06-.04.12-.08.18-.11,0,0,1.37-1.3,3.71-2.23Zm9.7.02c.43-1.25.62-2.28.27-2.48-1.01-.57-7.07-2.15-7.07-2.15-.19.37-1.12,2.39-1.81,4.23,2.27-.69,5.23-.93,8.61.4Zm7.73,6.59c.92-2.17,2.01-5.04,1.56-5.43-.69-.59-6.07-2.76-6.82-2.78-.25,0-.83.87-1.45,2.05,3.66,1.73,5.65,4.11,6.72,6.15Zm.91,2.25c1.17.7,5.55,2.45,6.21,2.46.71.02,4.13-7.26,3.12-7.83-1.01-.57-7.07-2.16-7.07-2.16-.29.56-2.26,4.89-2.55,6.66.11.3.21.6.28.86Zm.3,11.29c1.71.4,3.37.67,3.37.67.35-.67,3.13-6.81,2.48-7.37-.54-.46-4.14-1.96-5.75-2.45.67,3.5.43,6.98-.1,9.16Zm-7.14,5.46c-.3.97-.43,1.72-.22,1.9.69.59,6.06,2.76,6.82,2.78.76.02,4.38-7.71,3.31-8.31-.42-.23-1.65-.63-3-1.03-.03.07-.05.15-.08.22-1.01,2.75-4.36,3.88-6.84,4.45Zm-2.8,1.48c.59.16.97.26.97.26.09-.18.36-.75.69-1.5-.93.18-1.58.29-1.66.41-.11.16-.04.42,0,.83Zm-8.76,4.32c-.5,1.38-.83,2.58-.55,2.81.65.56,5.72,2.6,6.43,2.62.71.02,4.13-7.27,3.12-7.83-.1-.05-.24-.12-.43-.19-.18.58-.51,1.27-1.08,2.1-1.05,1.53-4.38,1.31-7.49.5Zm-5.04-7.31c-.45-.15-.79-.24-.94-.25-.71-.01-4.13,7.27-3.12,7.83,1.01.57,7.07,2.15,7.07,2.15.14-.26.65-1.38,1.19-2.66-2.68-.8-5.02-1.99-5.33-2.79-.61-1.56.76-3.74,1.14-4.29Zm-5.08-12.15c-.86-.32-1.57-.55-1.8-.55-.71-.01-4.13,7.27-3.12,7.83.83.47,5.09,1.63,6.56,2.02-2.03-2.42-2.26-5.45-1.64-9.3Zm1.42,11.09c-1.01-.56-7.07-2.15-7.07-2.15-.34.67-3.13,6.81-2.48,7.37.65.55,5.72,2.6,6.43,2.62.71.02,4.13-7.27,3.12-7.83Zm20.42,6.78c-.71-.02-4.13,7.26-3.12,7.83,1.01.57,7.07,2.16,7.07,2.16.35-.67,3.13-6.81,2.48-7.37-.65-.55-5.72-2.6-6.43-2.61Zm-18.79-39.27c1.82.07,34.92,11.7,36.25,13.23,1.33,1.53-10.62,37.99-12.48,38.13-2.61.2-36.91-10.99-37.86-13.65-.95-2.66,12.26-37.78,14.09-37.7Z"/>
    <path class="cls-4" d="m34.3,33.58c1.07-.17,2.14-.6,3.1-1.21,2.11-1.34,3.65-3.54,3.22-5.83-.13-.68-.43-1.35-.93-2.02-.03-.04-.06-.08-.1-.12-1.58-1.66-7.8-.16-10.03,2.87-.4.54-.67,1.12-.76,1.75-.12.78.03,1.63.55,2.52,1.08,1.83,3,2.36,4.96,2.03Zm-16.79-8.13c.09.38.21.74.36,1.08.69,1.61,1.98,2.7,4.06,2.48,1.76-.18,2.94-1.28,3.58-2.75.12-.28.23-.58.31-.89.72-2.6.03-5.93-1.86-7.66-.39-.36-.83-.65-1.32-.85-.81-.33-1.76-.43-2.83-.18-1.06.24-1.91,1.8-2.32,3.73-.13.6-.21,1.23-.25,1.86-.06,1.08.02,2.18.27,3.17Zm5.92,7.94c.25.25.61.49,1,.68.83.41,1.75.58,1.79.01.05-.76.65-2.5.69-3.52.02-.43-.06-.74-.32-.79-.13-.03-.34.05-.59.2-.98.55-2.6,2.1-2.85,2.75-.07.19.05.43.28.66Zm-1.85-20.79c-1.88-1.01-4.35-2-4.35-2-.48.58-4.54,5.97-4.02,6.65.19.25.9.82,1.77,1.45.12-.26.23-.52.36-.78,1.13-2.42,3.48-4.19,6.25-5.32Zm5.28-1.81c1.27-1.82,2.61-3.95,2.29-4.38-.55-.73-5.32-4.01-6.06-4.19-.73-.18-5.95,6.58-5.03,7.39.53.47,2.72,1.69,4.48,2.63.07-.02.14-.05.2-.07,0,0,1.62-.97,4.11-1.38Zm9.46,2.13c.69-1.13,1.1-2.09.8-2.36-.86-.77-6.43-3.64-6.43-3.64-.26.32-1.61,2.09-2.68,3.74,2.37-.18,5.31.24,8.32,2.26Zm6.12,8.12c1.37-1.92,3.05-4.49,2.7-4.96-.55-.73-5.32-4.01-6.06-4.19-.25-.06-1,.66-1.86,1.68,3.2,2.49,4.62,5.24,5.22,7.47Zm.4,2.4c.99.94,4.89,3.6,5.53,3.75.69.17,5.61-6.2,4.74-6.97-.86-.77-6.43-3.64-6.43-3.64-.4.48-3.27,4.28-3.93,5.95.05.32.07.62.09.9Zm-2.16,11.08c1.58.76,3.14,1.38,3.14,1.38.48-.58,4.54-5.97,4.02-6.65-.43-.57-3.62-2.81-5.08-3.65-.11,3.57-1.09,6.91-2.09,8.92Zm-8.15,3.78c-.5.88-.8,1.58-.63,1.8.55.73,5.32,4.01,6.06,4.19.73.18,5.95-6.58,5.03-7.39-.36-.32-1.47-.98-2.7-1.66-.04.07-.08.14-.12.2-1.59,2.47-5.1,2.84-7.64,2.86Zm-3.06.83c.54.28.89.46.89.46.13-.15.51-.65,1-1.31-.94-.02-1.6-.06-1.71.04-.14.13-.13.4-.18.81Zm-9.48,2.32c-.78,1.23-1.37,2.34-1.15,2.62.52.68,5.02,3.78,5.71,3.95.69.17,5.61-6.2,4.74-6.97-.08-.07-.21-.17-.38-.28-.3.53-.77,1.13-1.51,1.81-1.35,1.26-4.56.33-7.42-1.14Zm-3.34-8.23c-.41-.25-.72-.41-.87-.45-.69-.17-5.6,6.2-4.74,6.97.86.77,6.43,3.64,6.43,3.64.19-.23.94-1.2,1.74-2.34-2.44-1.37-4.47-3.03-4.6-3.88-.25-1.65,1.56-3.48,2.04-3.94Zm-2.32-12.96c-.77-.5-1.41-.87-1.64-.93-.69-.17-5.61,6.2-4.74,6.96.71.64,4.61,2.69,5.97,3.4-1.45-2.8-1.02-5.82.42-9.44Zm-1.02,11.14c-.86-.77-6.43-3.64-6.43-3.64-.48.58-4.54,5.97-4.02,6.65.52.68,5.02,3.78,5.71,3.95.69.17,5.61-6.2,4.74-6.97Zm18.46,11.05c-.69-.17-5.61,6.2-4.74,6.96.86.77,6.43,3.64,6.43,3.64.48-.58,4.54-5.97,4.02-6.65-.52-.69-5.02-3.78-5.71-3.95ZM21.94,0c1.76.47,31.55,19,32.51,20.78.97,1.78-18.61,34.78-20.46,34.51C31.41,54.93.35,36.55,0,33.75-.35,30.95,20.18-.46,21.94,0Z"/>
    <path class="cls-11" d="m297.29,2.85c-37.6-.04-55.21,29.33-49.95,62.38,3.83,24.07,33.98,19.58,33.47,25.56-.09,1-.09,2.28.03,3.7,1.78-.17,3.77-.29,5.89-.38-.19-1.34-.28-2.67-.3-3.92,0-.8,1.19-.83,1.24-.03.07,1.31.24,2.61.49,3.9,3.8-.13,7.93-.16,11.91-.13,0-1.29-.02-2.6.08-3.88.06-.72,1.08-.78,1.14-.03.1,1.3.09,2.61.08,3.92,3.9.04,7.61.12,10.68.21,0-.24.02-.47.03-.71.02-.91-.08-1.88.21-2.74.17-.51.89-.58,1.07-.03.29.87.18,1.83.16,2.73,0,.26-.01.53-.02.79,2.35.07,4.21.15,5.34.19-.06.49-.12,1-.18,1.52.52-4.15.68-7.73,3.21-8.45,6.48-1.85,27.66-5.78,28.83-30.05,1.17-24.28-5.77-54.49-53.39-54.54m-14.5,65.11c-18.3,6.2-28.3-5.08-29.04-13.03-.75-7.95.14-24,19.58-17.67,16.79,5.46,15.08,28.79,9.46,30.7m21.66,2.93c.47,1.86-8.33,1.65-9.1,1.18-.76-.47,3.92-10.54,4.84-10.54,1.98,0,3.93,8.04,4.26,9.36m40.08-18.64c-.32,7.98-7.93,20.94-28.29,14.58-5.67-1.77-7.19-28.11,10.27-30.71,17.46-2.6,18.34,8.16,18.03,16.13"/>
    <path class="cls-6" d="m289.54,22.78c2.63-.81,8.57,5.14,9.95,5.33,1.38.18,9.4-7.02,11.33-3.5,1.93,3.52-10.49,24.48-11.33,24.39-3.09-.33-12.57-25.41-9.95-26.22"/>
    <path class="cls-12" d="m316.23,66.83c-2.59-.81-4.31-6.76-3.75-13.22-1.42,5.15-1.71,13.9,1.16,15.28,3.02,1.45,3.38-.88,3.41-1.84-.28-.08-.53-.13-.82-.22"/>
    <path class="cls-12" d="m317.19,67.08c.61,1.64,3.16,7.67,7.91,8.31,5.5.75,6.35-4.98,6.35-4.98,0,0,6.4,5.3,11.32,1.15,4.92-4.15.93-10.98.93-10.98,0,0,4.39,1.22,5.54-1.83.82-2.19-2.68-4.72-4.77-6.01-.59,7.87-8.07,19.86-27.29,14.34"/>
    <path class="cls-12" d="m282.78,67.96c-18.3,6.2-28.3-5.08-29.04-13.03-.15-1.63-.23-3.59-.1-5.63-2.6,3.38-4.97,7.01-4.35,8.43,1.27,2.95,3.63,1.84,3.63,1.84,0,0-3.24,12.46,2.65,15.43,5.9,2.97,10.46-4.6,10.46-4.6,0,0,2.7,6.33,8.05,5.59,5.35-.74,6.68-6.59,6.68-6.59,0,0,3.34,2.15,6.37-1.37,1.67-1.93.77-6.93-.43-11.1.14,5.53-1.52,10.21-3.91,11.02"/>
    <path class="cls-11" d="m313.42,95.87c-.01.25-.02.51-.04.76-.11,1.98-.32,4.01-.68,5.96-.11.62-1.14.52-1.11-.12.09-2,.24-4.02.35-6.02.01-.21.02-.42.03-.63-3.96-.13-7.48-.19-10.61-.21.01,1.49.06,2.99-.05,4.46-.05.77-1.15.83-1.21.03-.1-1.49-.05-3-.04-4.5-4.68-.01-8.45.08-11.5.25.49,1.81,1.31,3.45,1.95,5.2.27.74-.82,1.19-1.23.56-1.07-1.65-1.78-3.63-2.22-5.67-2.5.17-4.44.39-5.94.64,1.27,6.81,6.23,15.29,22.15,14.39,12.78-.73,14.54-8.47,15.36-14.91-1.81-.07-3.54-.14-5.2-.2"/>
    <path class="cls-11" d="m280.85,94.67c.06.58.13,1.18.24,1.79-.11-.62-.19-1.22-.24-1.79"/>
    <path class="cls-12" d="m300.24,7.66c6.27.5-.64,14.7-.95,14.56-1.13-.53-5.33-15.06.95-14.56"/>
    <path class="cls-13" d="m317.05,15.92c1.68.18,1.14,4.89-4.53,6.05,0,0,2.85-6.23,4.53-6.05"/>
    <path class="cls-13" d="m279.89,15.62c2.51-2.19,7.3,5.5,7.3,5.5,0,0-9.82-3.31-7.3-5.5"/>
    <path class="cls-13" d="m309.01,15.83c1.34,3.05-7.43,5.33-7.43,5.33,0,0,6.09-8.38,7.43-5.33"/>
    <path class="cls-13" d="m290.35,15.56c2.77-2.5,6.62,6.31,6.62,6.31,0,0-9.1-4.07-6.62-6.31"/>
    <path class="cls-14" d="m308.35,71.71c2.76-5.44,6.36-.4,5.32,2.31-1.05,2.71.13,9.05,2.1,11.68.3.4-10.18-8.56-7.42-13.99"/>
    <path class="cls-14" d="m286.67,71.96c1.61-2.5,5-1.14,5.21,2.43.21,3.57-6.62,11.36-6.62,11.36,3.42-5.9-.19-11.28,1.42-13.79"/>
    <path class="cls-14" d="m320.54,76.19c3.57-.32-3.13,8.13-3.13,8.13,0,0-.44-7.81,3.13-8.13"/>
    <path class="cls-14" d="m280.52,75.93c3.12-.31,2.79,8.2,2.79,8.2,0,0-5.91-7.89-2.79-8.2"/>
    <path class="cls-10" d="m305.59,45.98c.38-.61.95-1.05,1.59-1.28.12-.06.23-.11.35-.15,1.84-.61,3.77,1.1,3.67,2.95-.05,1.01-.5,1.95-1.37,2.51-.69.45-1.61.59-2.39.32-.76-.26-1.46-.73-1.84-1.46-.47-.9-.54-2,0-2.88"/>
    <path class="cls-10" d="m291.36,46.91c.61-.2,1.24-.16,1.82.05.25.04.48.11.7.23.7.3,1.25,1.02,1.44,1.75.26.98-.02,1.98-.7,2.72-.62.68-1.53.95-2.42.85-.83-.09-1.51-.48-2.04-1.12-.57-.7-.82-1.6-.62-2.49.21-.94.91-1.7,1.82-2"/>
    <path class="cls-10" d="m284.33,40.36c.08-.42.33-.81.61-1.13.15-.18.35-.34.55-.47.33-.22.8-.41,1.19-.38.05,0,.09,0,.13,0,.33-.09.67-.1,1-.02.18.03.42.14.57.22.17.09.33.22.48.35.18.16.36.36.48.56.35.6.47,1.33.32,2.01-.05.23-.16.48-.27.7-.08.17-.26.39-.38.53-.08.1-.18.16-.28.24-.48.39-1.03.6-1.66.62-.21,0-.45-.03-.65-.06-.04,0-.08-.02-.13-.03-.24-.06-.48-.16-.69-.28-.6-.35-1.05-.9-1.24-1.57-.13-.43-.12-.87-.04-1.3"/>
    <path class="cls-10" d="m309.91,34.9c.18-.43.58-.74,1.03-.91.15-.09.32-.17.52-.23.61-.19,1.11-.08,1.67.16.11.05.21.12.31.2.31.12.59.24.85.49.24.24.38.45.51.74.31.68.26,1.4-.07,2.05-.39.79-1.18,1.28-2.02,1.41-.96.16-1.89-.18-2.51-.93-.36-.45-.56-.96-.6-1.54-.04-.52.12-.96.32-1.43"/>
    <path class="cls-10" d="m270.73,25.29c1.14-.72,2.59-.81,3.76-.31,1,.28,1.85,1.07,2.16,2.09.11.38.15.74.14,1.09.07.37.06.78-.02,1.13-.13.59-.47,1.2-.93,1.6-.77.68-1.65.95-2.67.79-.09-.01-.18-.03-.27-.06-.23,0-.46-.04-.69-.1-1.24-.3-2.28-1.2-2.73-2.39-.53-1.41-.05-3.02,1.24-3.84"/>
    <path class="cls-10" d="m325.98,23.84c1.05-.3,2.2-.17,3.15.38.55.33,1,.77,1.35,1.31.34.54.42,1.15.29,1.73.07.68-.04,1.38-.36,2-1.23,2.42-4.97,2.65-6.39.27-1.21-2.02-.46-5,1.96-5.69"/>
    <path class="cls-10" d="m271.14,16.74c.74-.34,1.52-.35,2.27-.05.36.14.67.33.97.6.28.26.53.65.64,1.02.06.2.08.4.08.6.32.7.3,1.52-.07,2.22-.46.87-1.35,1.3-2.28,1.41-1.41.16-2.81-.83-3.23-2.15-.45-1.43.27-3.03,1.63-3.65"/>
    <path class="cls-10" d="m323.42,15.24c.5-.86,1.45-1.46,2.45-1.45,1.11,0,2.18.51,2.57,1.61.51.92.45,1.94.05,2.88-.48,1.12-1.75,1.86-2.94,1.56-.84-.21-1.65-.81-2.08-1.58-.52-.93-.6-2.08-.06-3.02"/>
    <path class="cls-12" d="m341.53,24.38c-.16,5.22-12.3-2.95-12.3-2.95,0,0,12.46-2.28,12.3,2.95"/>
    <path class="cls-12" d="m266.07,22.85s-8.34,5.89-8.88,2.33c-.54-3.56,8.88-2.33,8.88-2.33"/>
    <path class="cls-8" d="m301.58,102.53c7.72.35-.27,6.71-.27,6.71,0,0-7.46-7.06.27-6.71"/>
    <path class="cls-11" d="m573.28,547.27l-10.31-64.16s-8.61-.45-8.46-8.06c.14-7.61,10.06-5.01,13.98-1.4,0,0,3.6-9.61,8.76-7.16,5.15,2.45,3.63,10.29-.9,14.38l9.54,62.29c.07.11,15.28,4.73,11.92,11.85-2.47,5.23-9.6,4.93-14.68.1,0,0-5.52,9.46-12.91,5.01-7.38-4.45,3.06-12.84,3.06-12.84"/>
    <path class="cls-9" d="m586.89,548.66c.6-.63,1.37-.61,2.1-.23.7.37,1.3.88,1.97,1.31.66.43,1.34.81,2.02,1.21,1.58.94.17,3.41-1.49,2.78-1.64-.62-3.49-1.63-4.65-2.96-.52-.6-.48-1.55.06-2.11"/>
    <path class="cls-9" d="m572.84,554.8c.64-.71,1.3-1.42,1.95-2.12.69-.75,1.28-1.59,2.16-2.11,1.3-.77,2.76.84,2.28,2.11-.37.95-1.23,1.71-1.94,2.42-.68.68-1.38,1.28-2.15,1.84-.63.46-1.49.5-2.08-.06-.52-.49-.76-1.48-.22-2.07"/>
    <path class="cls-9" d="m571.08,478.06c.53-1.25,1.25-2.41,1.85-3.63.58-1.21,1-2.54,1.73-3.67.87-1.33,3.19-.49,2.93,1.11-.23,1.41-.93,2.73-1.58,3.98-.65,1.27-1.32,2.56-2.27,3.64-1.07,1.21-3.41.29-2.67-1.43"/>
    <path class="cls-9" d="m560.57,474.18c1.09.21,1.95.63,2.88,1.23.38.24.75.49,1.13.73.22.15.53.27.7.47,0,.01.02.02.02.03.43-.01.84.14,1.13.56l.05.07c.45.64.48,1.33.07,1.99-.92,1.5-2.63.61-3.73-.06-1.27-.78-2.59-1.48-3.48-2.7-.65-.9-.08-2.55,1.23-2.3"/>
    <path class="cls-9" d="m578.77,538.08c1.08-.18,2.1.38,2.56,1.36.44.91.28,2.21-.59,2.82-.36.25-.8.45-1.25.38-.02,0-.05,0-.07-.01-.63.15-1.25.15-1.83-.23-.64-.41-.87-1.28-.83-1.99.06-1.09.92-2.15,2.01-2.33"/>
    <path class="cls-9" d="m576.2,528.66c1.26-1.05,3.39-.49,3.98,1.04.39,1,.08,2.17-.95,2.64-.22.1-.46.15-.71.16-.54.29-1.22.34-1.78.13-1.64-.62-1.83-2.91-.54-3.98"/>
    <path class="cls-9" d="m575.85,518.1c1.27-.22,2.74.7,2.65,2.08.02.06.04.12.06.19.2.68-.18,1.43-.69,1.88-.35.31-.84.54-1.3.57-.69.05-1.31-.1-1.83-.58-.41-.38-.68-.87-.76-1.43-.18-1.25.6-2.49,1.88-2.71"/>
    <path class="cls-9" d="m572.57,509.07c.04-.35.15-.69.35-1.01.85-1.36,2.93-1.21,3.75.09.49.78.38,1.79-.22,2.46-.07.16-.14.31-.24.45-.3.44-.97.81-1.52.69-.43-.1-.76-.2-1.12-.47-.2-.15-.39-.35-.55-.56-.36-.34-.58-.8-.53-1.32.02-.12.04-.22.08-.33"/>
    <path class="cls-9" d="m570.38,496.7c.23-.21.5-.37.76-.52.1-.06.21-.12.32-.17.21-.11.43-.16.67-.14.31,0,.31-.01,0-.02,0-.12,1.08.03,1.17.06.44.14.93.51,1.1.95.04.13.08.26.12.39-.08-.29-.08-.3,0-.04.03.12.08.23.09.36.03.17.02.39,0,.57,0,.09-.1.43-.1.44-.02.06-.04.13-.05.19.2.48.05,1.11-.22,1.51-.81,1.18-2.59,1.44-3.69.51-1.22-1.02-1.39-2.96-.17-4.07"/>
    <path class="cls-9" d="m568.8,487.4c.51-1.57,2.5-2.41,3.9-1.4,1.18.84,1.61,2.64.63,3.8-.57.68-1.38,1.01-2.26.98-.69-.03-1.26-.34-1.67-.84-.04-.04-.08-.07-.12-.1-.62-.64-.76-1.6-.49-2.43"/>
    <path class="cls-11" d="m25.01,547.27l10.3-64.16s8.61-.45,8.46-8.06c-.14-7.61-10.06-5.01-13.98-1.4,0,0-3.6-9.61-8.75-7.16-5.16,2.45-3.63,10.29.9,14.38l-9.54,62.29c-.07.11-15.28,4.73-11.92,11.85,2.47,5.23,9.6,4.93,14.68.1,0,0,5.52,9.46,12.91,5.01,7.38-4.45-3.06-12.84-3.06-12.84"/>
    <path class="cls-9" d="m25.46,554.8c-.64-.71-1.3-1.42-1.95-2.12-.69-.75-1.28-1.59-2.17-2.11-1.29-.77-2.76.84-2.27,2.11.37.95,1.23,1.71,1.94,2.42.67.68,1.37,1.28,2.15,1.84.63.46,1.49.5,2.08-.06.52-.49.76-1.48.22-2.07"/>
    <path class="cls-9" d="m27.22,478.06c-.54-1.25-1.26-2.41-1.85-3.63-.58-1.21-1-2.54-1.74-3.67-.87-1.33-3.19-.49-2.93,1.11.23,1.41.93,2.73,1.57,3.98.66,1.27,1.32,2.56,2.27,3.64,1.06,1.21,3.41.29,2.67-1.43"/>
    <path class="cls-9" d="m37.73,474.18c-1.09.21-1.96.63-2.88,1.23-.37.24-.75.49-1.13.73-.22.15-.53.27-.7.47-.01.01-.02.02-.03.03-.42-.01-.84.14-1.12.56l-.05.07c-.44.64-.48,1.33-.07,1.99.92,1.5,2.64.61,3.73-.06,1.27-.78,2.59-1.48,3.48-2.7.65-.9.08-2.55-1.22-2.3"/>
    <path class="cls-9" d="m19.52,538.08c-1.07-.18-2.1.38-2.56,1.36-.44.91-.28,2.21.59,2.82.36.25.8.45,1.26.38.02,0,.05,0,.06-.01.62.15,1.25.15,1.83-.23.64-.41.87-1.28.83-1.99-.06-1.09-.92-2.15-2.01-2.33"/>
    <path class="cls-9" d="m22.09,528.66c-1.27-1.05-3.39-.49-3.98,1.04-.39,1-.08,2.17.95,2.64.22.1.46.15.71.16.54.29,1.22.34,1.78.13,1.64-.62,1.83-2.91.54-3.98"/>
    <path class="cls-9" d="m22.44,518.1c-1.27-.22-2.74.7-2.64,2.08-.02.06-.04.12-.06.19-.2.68.18,1.43.69,1.88.35.31.84.54,1.31.57.69.05,1.31-.1,1.83-.58.41-.38.68-.87.76-1.43.18-1.25-.61-2.49-1.88-2.71"/>
    <path class="cls-9" d="m25.73,509.07c-.04-.35-.15-.69-.35-1.01-.85-1.36-2.92-1.21-3.74.09-.49.78-.38,1.79.22,2.46.07.16.14.31.24.45.3.44.97.81,1.52.69.43-.1.76-.2,1.11-.47.21-.15.39-.35.55-.56.36-.34.58-.8.53-1.32-.01-.12-.04-.22-.08-.33"/>
    <path class="cls-9" d="m27.92,496.7c-.23-.21-.5-.37-.76-.52-.1-.06-.21-.12-.32-.17-.21-.11-.43-.16-.67-.14-.31,0-.31-.01,0-.02,0-.12-1.07.03-1.17.06-.44.14-.92.51-1.1.95-.04.13-.08.26-.12.39.07-.29.08-.3,0-.04-.04.12-.08.23-.09.36-.03.17-.02.39,0,.57.01.09.1.43.11.44.02.06.04.13.05.19-.21.48-.06,1.11.21,1.51.81,1.18,2.59,1.44,3.69.51,1.21-1.02,1.39-2.96.17-4.07"/>
    <path class="cls-9" d="m29.5,487.4c-.51-1.57-2.5-2.41-3.9-1.4-1.18.84-1.61,2.64-.63,3.8.57.68,1.38,1.01,2.26.98.69-.03,1.26-.34,1.67-.84.04-.04.08-.07.12-.1.62-.64.76-1.6.49-2.43"/>
    <path class="cls-11" d="m573.28,347.33l-10.31-64.16s-8.61-.45-8.46-8.06c.14-7.61,10.06-5.01,13.98-1.4,0,0,3.6-9.61,8.76-7.16,5.15,2.45,3.63,10.29-.9,14.38l9.54,62.29c.07.11,15.28,4.73,11.92,11.85-2.47,5.23-9.6,4.93-14.68.1,0,0-5.52,9.46-12.91,5.01-7.38-4.45,3.06-12.84,3.06-12.84"/>
    <path class="cls-5" d="m586.89,348.72c.6-.63,1.37-.61,2.1-.23.7.37,1.3.88,1.97,1.31.66.43,1.34.81,2.02,1.21,1.58.94.17,3.41-1.49,2.78-1.64-.62-3.49-1.63-4.65-2.96-.52-.6-.48-1.55.06-2.11"/>
    <path class="cls-5" d="m572.84,354.85c.64-.71,1.3-1.42,1.95-2.12.69-.75,1.28-1.59,2.16-2.11,1.3-.77,2.76.84,2.28,2.11-.37.95-1.23,1.71-1.94,2.42-.68.68-1.38,1.28-2.15,1.84-.63.46-1.49.5-2.08-.06-.52-.49-.76-1.48-.22-2.07"/>
    <path class="cls-5" d="m571.08,278.11c.53-1.25,1.25-2.41,1.85-3.63.58-1.21,1-2.54,1.73-3.67.87-1.33,3.19-.49,2.93,1.11-.23,1.41-.93,2.73-1.58,3.98-.65,1.27-1.32,2.56-2.27,3.64-1.07,1.21-3.41.29-2.67-1.43"/>
    <path class="cls-5" d="m560.57,274.23c1.09.21,1.95.63,2.88,1.23.38.24.75.49,1.13.73.22.15.53.27.7.47,0,.01.02.02.02.03.43-.01.84.14,1.13.56l.05.07c.45.64.48,1.33.07,1.99-.92,1.5-2.63.61-3.73-.06-1.27-.78-2.59-1.48-3.48-2.7-.65-.9-.08-2.55,1.23-2.3"/>
    <path class="cls-5" d="m578.77,338.14c1.08-.18,2.1.38,2.56,1.36.44.91.28,2.21-.59,2.82-.36.25-.8.45-1.25.38-.02,0-.05-.01-.07-.01-.63.15-1.25.15-1.83-.23-.64-.41-.87-1.28-.83-1.99.06-1.09.92-2.15,2.01-2.33"/>
    <path class="cls-5" d="m576.2,328.71c1.26-1.05,3.39-.49,3.98,1.04.39,1,.08,2.17-.95,2.64-.22.1-.46.15-.71.16-.54.29-1.22.34-1.78.13-1.64-.62-1.83-2.91-.54-3.98"/>
    <path class="cls-5" d="m575.85,318.16c1.27-.22,2.74.7,2.65,2.08.02.06.04.12.06.19.2.68-.18,1.43-.69,1.88-.35.31-.84.54-1.3.57-.69.05-1.31-.1-1.83-.58-.41-.38-.68-.87-.76-1.43-.18-1.25.6-2.49,1.88-2.71"/>
    <path class="cls-5" d="m572.57,309.13c.04-.35.15-.69.35-1.01.85-1.36,2.93-1.21,3.75.09.49.78.38,1.79-.22,2.46-.07.16-.14.31-.24.45-.3.44-.97.81-1.52.69-.43-.1-.76-.2-1.12-.47-.2-.15-.39-.35-.55-.56-.36-.34-.58-.8-.53-1.32.02-.12.04-.22.08-.33"/>
    <path class="cls-5" d="m570.38,296.75c.23-.21.5-.37.76-.52.1-.06.21-.12.32-.17.21-.11.43-.16.67-.14.31,0,.31-.01,0-.02,0-.12,1.08.03,1.17.06.44.14.93.51,1.1.95.04.13.08.26.12.39-.08-.29-.08-.3,0-.04.03.12.08.23.09.36.03.17.02.39,0,.57,0,.09-.1.43-.1.44-.02.06-.04.13-.05.19.2.48.05,1.11-.22,1.51-.81,1.18-2.59,1.44-3.69.51-1.22-1.02-1.39-2.96-.17-4.07"/>
    <path class="cls-5" d="m568.8,287.45c.51-1.57,2.5-2.41,3.9-1.4,1.18.84,1.61,2.64.63,3.8-.57.68-1.38,1.01-2.26.98-.69-.03-1.26-.34-1.67-.84-.04-.04-.08-.07-.12-.1-.62-.64-.76-1.6-.49-2.43"/>
    <path class="cls-11" d="m25.01,347.33l10.3-64.16s8.61-.45,8.46-8.06c-.14-7.61-10.06-5.01-13.98-1.4,0,0-3.6-9.61-8.75-7.16-5.16,2.45-3.63,10.29.9,14.38l-9.54,62.29c-.07.11-15.28,4.73-11.92,11.85,2.47,5.23,9.6,4.93,14.68.1,0,0,5.52,9.46,12.91,5.01,7.38-4.45-3.06-12.84-3.06-12.84"/>
    <path class="cls-5" d="m25.46,354.85c-.64-.71-1.3-1.42-1.95-2.12-.69-.75-1.28-1.59-2.17-2.11-1.29-.77-2.76.84-2.27,2.11.37.95,1.23,1.71,1.94,2.42.67.68,1.37,1.28,2.15,1.84.63.46,1.49.5,2.08-.06.52-.49.76-1.48.22-2.07"/>
    <path class="cls-5" d="m27.22,278.11c-.54-1.25-1.26-2.41-1.85-3.63-.58-1.21-1-2.54-1.74-3.67-.87-1.33-3.19-.49-2.93,1.11.23,1.41.93,2.73,1.57,3.98.66,1.27,1.32,2.56,2.27,3.64,1.06,1.21,3.41.29,2.67-1.43"/>
    <path class="cls-5" d="m37.73,274.23c-1.09.21-1.96.63-2.88,1.23-.37.24-.75.49-1.13.73-.22.15-.53.27-.7.47-.01.01-.02.02-.03.03-.42-.01-.84.14-1.12.56l-.05.07c-.44.64-.48,1.33-.07,1.99.92,1.5,2.64.61,3.73-.06,1.27-.78,2.59-1.48,3.48-2.7.65-.9.08-2.55-1.22-2.3"/>
    <path class="cls-5" d="m19.52,338.14c-1.07-.18-2.1.38-2.56,1.36-.44.91-.28,2.21.59,2.82.36.25.8.45,1.26.38.02,0,.05-.01.06-.01.62.15,1.25.15,1.83-.23.64-.41.87-1.28.83-1.99-.06-1.09-.92-2.15-2.01-2.33"/>
    <path class="cls-5" d="m22.09,328.71c-1.27-1.05-3.39-.49-3.98,1.04-.39,1-.08,2.17.95,2.64.22.1.46.15.71.16.54.29,1.22.34,1.78.13,1.64-.62,1.83-2.91.54-3.98"/>
    <path class="cls-5" d="m22.44,318.16c-1.27-.22-2.74.7-2.64,2.08-.02.06-.04.12-.06.19-.2.68.18,1.43.69,1.88.35.31.84.54,1.31.57.69.05,1.31-.1,1.83-.58.41-.38.68-.87.76-1.43.18-1.25-.61-2.49-1.88-2.71"/>
    <path class="cls-5" d="m25.73,309.13c-.04-.35-.15-.69-.35-1.01-.85-1.36-2.92-1.21-3.74.09-.49.78-.38,1.79.22,2.46.07.16.14.31.24.45.3.44.97.81,1.52.69.43-.1.76-.2,1.11-.47.21-.15.39-.35.55-.56.36-.34.58-.8.53-1.32-.01-.12-.04-.22-.08-.33"/>
    <path class="cls-5" d="m27.92,296.75c-.23-.21-.5-.37-.76-.52-.1-.06-.21-.12-.32-.17-.21-.11-.43-.16-.67-.14-.31,0-.31-.01,0-.02,0-.12-1.07.03-1.17.06-.44.14-.92.51-1.1.95-.04.13-.08.26-.12.39.07-.29.08-.3,0-.04-.04.12-.08.23-.09.36-.03.17-.02.39,0,.57.01.09.1.43.11.44.02.06.04.13.05.19-.21.48-.06,1.11.21,1.51.81,1.18,2.59,1.44,3.69.51,1.21-1.02,1.39-2.96.17-4.07"/>
    <path class="cls-5" d="m29.5,287.45c-.51-1.57-2.5-2.41-3.9-1.4-1.18.84-1.61,2.64-.63,3.8.57.68,1.38,1.01,2.26.98.69-.03,1.26-.34,1.67-.84.04-.04.08-.07.12-.1.62-.64.76-1.6.49-2.43"/>
    <path class="cls-11" d="m573.28,147.13l-10.31-64.16s-8.61-.45-8.46-8.06c.14-7.61,10.06-5,13.98-1.4,0,0,3.6-9.61,8.76-7.16,5.15,2.45,3.63,10.29-.9,14.38l9.54,62.29c.07.11,15.28,4.73,11.92,11.85-2.47,5.23-9.6,4.93-14.68.1,0,0-5.52,9.46-12.91,5.01-7.38-4.45,3.06-12.84,3.06-12.84"/>
    <path class="cls-9" d="m586.89,148.51c.6-.63,1.37-.61,2.1-.23.7.38,1.3.88,1.97,1.31.66.43,1.34.81,2.02,1.21,1.58.94.17,3.4-1.49,2.78-1.64-.63-3.49-1.63-4.65-2.97-.52-.6-.48-1.55.06-2.11"/>
    <path class="cls-9" d="m572.84,154.65c.64-.71,1.3-1.41,1.95-2.12.69-.75,1.28-1.59,2.16-2.11,1.3-.78,2.76.84,2.28,2.11-.37.95-1.23,1.71-1.94,2.42-.68.68-1.38,1.29-2.15,1.85-.63.46-1.49.5-2.08-.06-.52-.5-.76-1.48-.22-2.08"/>
    <path class="cls-9" d="m571.08,77.91c.53-1.25,1.25-2.41,1.85-3.63.58-1.21,1-2.54,1.73-3.67.87-1.33,3.19-.49,2.93,1.11-.23,1.4-.93,2.73-1.58,3.98-.65,1.27-1.32,2.56-2.27,3.64-1.07,1.21-3.41.29-2.67-1.43"/>
    <path class="cls-9" d="m560.57,74.03c1.09.21,1.95.63,2.88,1.23.38.24.75.49,1.13.73.22.15.53.27.7.47,0,.01.02.02.02.03.43,0,.84.15,1.13.55l.05.07c.45.64.48,1.33.07,1.99-.92,1.5-2.63.61-3.73-.06-1.27-.78-2.59-1.48-3.48-2.7-.65-.9-.08-2.55,1.23-2.3"/>
    <path class="cls-9" d="m578.77,137.93c1.08-.18,2.1.38,2.56,1.36.44.91.28,2.21-.59,2.82-.36.25-.8.45-1.25.38-.02,0-.05,0-.07-.01-.63.15-1.25.15-1.83-.23-.64-.41-.87-1.28-.83-1.99.06-1.09.92-2.15,2.01-2.33"/>
    <path class="cls-9" d="m576.2,128.51c1.26-1.05,3.39-.49,3.98,1.05.39,1,.08,2.17-.95,2.64-.22.1-.46.15-.71.16-.54.29-1.22.34-1.78.13-1.64-.62-1.83-2.9-.54-3.98"/>
    <path class="cls-9" d="m575.85,117.96c1.27-.22,2.74.7,2.65,2.08.02.06.04.13.06.19.2.68-.18,1.43-.69,1.88-.35.31-.84.54-1.3.57-.69.05-1.31-.1-1.83-.58-.41-.38-.68-.87-.76-1.43-.18-1.25.6-2.49,1.88-2.71"/>
    <path class="cls-9" d="m572.57,108.93c.04-.35.15-.69.35-1.01.85-1.36,2.93-1.21,3.75.09.49.78.38,1.79-.22,2.46-.07.15-.14.31-.24.45-.3.44-.97.81-1.52.69-.43-.1-.76-.2-1.12-.47-.2-.15-.39-.35-.55-.56-.36-.35-.58-.8-.53-1.33.02-.12.04-.23.08-.33"/>
    <path class="cls-9" d="m570.38,96.55c.23-.21.5-.37.76-.52.1-.06.21-.13.32-.18.21-.11.43-.15.67-.14.31,0,.31-.01,0-.02,0-.13,1.08.03,1.17.06.44.13.93.51,1.1.95.04.13.08.26.12.39-.08-.29-.08-.3,0-.03.03.12.08.23.09.36.03.17.02.39,0,.57,0,.09-.1.43-.1.44-.02.06-.04.13-.05.19.2.48.05,1.11-.22,1.51-.81,1.18-2.59,1.44-3.69.51-1.22-1.02-1.39-2.96-.17-4.08"/>
    <path class="cls-9" d="m568.8,87.25c.51-1.57,2.5-2.4,3.9-1.4,1.18.84,1.61,2.63.63,3.8-.57.68-1.38,1.01-2.26.98-.69-.03-1.26-.34-1.67-.84-.04-.04-.08-.07-.12-.1-.62-.64-.76-1.6-.49-2.43"/>
    <path class="cls-11" d="m25.01,147.13l10.3-64.16s8.61-.45,8.46-8.06c-.14-7.61-10.06-5-13.98-1.4,0,0-3.6-9.61-8.75-7.16-5.16,2.45-3.63,10.29.9,14.38l-9.54,62.29c-.07.11-15.28,4.73-11.92,11.85,2.47,5.23,9.6,4.93,14.68.1,0,0,5.52,9.46,12.91,5.01,7.38-4.45-3.06-12.84-3.06-12.84"/>
    <path class="cls-9" d="m25.46,154.65c-.64-.71-1.3-1.41-1.95-2.12-.69-.75-1.28-1.59-2.17-2.11-1.29-.78-2.76.84-2.27,2.11.37.95,1.23,1.71,1.94,2.42.67.68,1.37,1.29,2.15,1.85.63.46,1.49.5,2.08-.06.52-.5.76-1.48.22-2.08"/>
    <path class="cls-9" d="m27.22,77.91c-.54-1.25-1.26-2.41-1.85-3.63-.58-1.21-1-2.54-1.74-3.67-.87-1.33-3.19-.49-2.93,1.11.23,1.4.93,2.73,1.57,3.98.66,1.27,1.32,2.56,2.27,3.64,1.06,1.21,3.41.29,2.67-1.43"/>
    <path class="cls-9" d="m37.73,74.03c-1.09.21-1.96.63-2.88,1.23-.37.24-.75.49-1.13.73-.22.15-.53.27-.7.47-.01.01-.02.02-.03.03-.42,0-.84.15-1.12.55l-.05.07c-.44.64-.48,1.33-.07,1.99.92,1.5,2.64.61,3.73-.06,1.27-.78,2.59-1.48,3.48-2.7.65-.9.08-2.55-1.22-2.3"/>
    <path class="cls-9" d="m19.52,137.93c-1.07-.18-2.1.38-2.56,1.36-.44.91-.28,2.21.59,2.82.36.25.8.45,1.26.38.02,0,.05,0,.06-.01.62.15,1.25.15,1.83-.23.64-.41.87-1.28.83-1.99-.06-1.09-.92-2.15-2.01-2.33"/>
    <path class="cls-9" d="m22.09,128.51c-1.27-1.05-3.39-.49-3.98,1.05-.39,1-.08,2.17.95,2.64.22.1.46.15.71.16.54.29,1.22.34,1.78.13,1.64-.62,1.83-2.9.54-3.98"/>
    <path class="cls-9" d="m22.44,117.96c-1.27-.22-2.74.7-2.64,2.08-.02.06-.04.13-.06.19-.2.68.18,1.43.69,1.88.35.31.84.54,1.31.57.69.05,1.31-.1,1.83-.58.41-.38.68-.87.76-1.43.18-1.25-.61-2.49-1.88-2.71"/>
    <path class="cls-9" d="m25.73,108.93c-.04-.35-.15-.69-.35-1.01-.85-1.36-2.92-1.21-3.74.09-.49.78-.38,1.79.22,2.46.07.15.14.31.24.45.3.44.97.81,1.52.69.43-.1.76-.2,1.11-.47.21-.15.39-.35.55-.56.36-.35.58-.8.53-1.33-.01-.12-.04-.23-.08-.33"/>
    <path class="cls-9" d="m27.92,96.55c-.23-.21-.5-.37-.76-.52-.1-.06-.21-.13-.32-.18-.21-.11-.43-.15-.67-.14-.31,0-.31-.01,0-.02,0-.13-1.07.03-1.17.06-.44.13-.92.51-1.1.95-.04.13-.08.26-.12.39.07-.29.08-.3,0-.03-.04.12-.08.23-.09.36-.03.17-.02.39,0,.57.01.09.1.43.11.44.02.06.04.13.05.19-.21.48-.06,1.11.21,1.51.81,1.18,2.59,1.44,3.69.51,1.21-1.02,1.39-2.96.17-4.08"/>
    <path class="cls-9" d="m29.5,87.25c-.51-1.57-2.5-2.4-3.9-1.4-1.18.84-1.61,2.63-.63,3.8.57.68,1.38,1.01,2.26.98.69-.03,1.26-.34,1.67-.84.04-.04.08-.07.12-.1.62-.64.76-1.6.49-2.43"/>
    <path class="cls-11" d="m578.28,446.46l10.3-64.16s8.61-.45,8.46-8.06c-.14-7.61-10.06-5.01-13.99-1.4,0,0-3.6-9.61-8.75-7.16-5.16,2.45-3.63,10.29.9,14.38l-9.54,62.29c-.08.11-15.28,4.73-11.92,11.85,2.47,5.23,9.6,4.93,14.68.1,0,0,5.53,9.46,12.91,5.01,7.38-4.45-3.06-12.84-3.06-12.84"/>
    <path class="cls-12" d="m564.67,447.85c-.6-.63-1.37-.61-2.1-.23-.7.37-1.3.88-1.97,1.31-.65.43-1.34.81-2.02,1.21-1.57.94-.17,3.41,1.49,2.78,1.64-.62,3.49-1.63,4.65-2.96.52-.6.47-1.55-.06-2.11"/>
    <path class="cls-12" d="m578.73,453.98c-.64-.71-1.3-1.42-1.95-2.12-.69-.75-1.28-1.59-2.16-2.11-1.3-.77-2.77.84-2.28,2.11.37.95,1.23,1.71,1.94,2.42.68.68,1.38,1.28,2.15,1.84.63.46,1.49.5,2.08-.06.51-.49.76-1.48.22-2.07"/>
    <path class="cls-12" d="m580.48,377.24c-.53-1.25-1.25-2.41-1.85-3.63-.58-1.21-1-2.54-1.74-3.67-.87-1.33-3.19-.49-2.93,1.11.23,1.4.93,2.73,1.57,3.98.66,1.27,1.33,2.56,2.27,3.64,1.06,1.21,3.41.29,2.67-1.43"/>
    <path class="cls-12" d="m590.99,373.36c-1.09.21-1.95.63-2.88,1.23-.37.24-.75.49-1.13.73-.22.15-.53.27-.7.47,0,.01-.02.02-.03.03-.43-.01-.84.14-1.13.55l-.05.07c-.44.64-.48,1.33-.07,1.99.93,1.51,2.64.61,3.73-.06,1.27-.78,2.59-1.48,3.48-2.7.65-.9.08-2.55-1.23-2.3"/>
    <path class="cls-12" d="m572.79,437.26c-1.07-.18-2.1.38-2.56,1.36-.43.91-.28,2.21.59,2.82.37.25.8.45,1.26.38.02,0,.05-.01.06-.01.63.15,1.25.15,1.83-.23.63-.41.87-1.28.83-1.99-.06-1.09-.92-2.15-2.02-2.33"/>
    <path class="cls-12" d="m575.36,427.84c-1.26-1.05-3.39-.49-3.98,1.04-.39,1-.08,2.17.95,2.64.22.1.46.15.71.16.55.29,1.22.34,1.79.13,1.64-.62,1.83-2.91.54-3.98"/>
    <path class="cls-12" d="m575.7,417.29c-1.26-.22-2.74.69-2.64,2.08-.02.06-.04.12-.06.19-.2.68.18,1.43.69,1.88.35.31.84.54,1.3.57.69.05,1.31-.1,1.83-.58.41-.38.68-.87.76-1.43.18-1.25-.6-2.49-1.88-2.71"/>
    <path class="cls-12" d="m579,408.26c-.04-.35-.15-.69-.35-1.01-.85-1.36-2.93-1.21-3.75.09-.49.78-.38,1.79.22,2.46.07.16.15.31.25.45.3.44.97.81,1.52.69.43-.1.76-.2,1.11-.47.21-.15.39-.35.55-.56.36-.34.58-.8.53-1.32-.02-.12-.04-.23-.08-.33"/>
    <path class="cls-12" d="m581.18,395.88c-.23-.21-.5-.37-.76-.52-.1-.06-.21-.12-.32-.17-.21-.11-.43-.16-.67-.14-.3,0-.3-.01,0-.02,0-.12-1.08.03-1.18.06-.44.14-.92.51-1.1.95-.04.13-.08.26-.12.39.07-.29.07-.3,0-.04-.04.12-.07.23-.1.36-.03.17-.02.39,0,.57.01.09.1.43.11.44.02.06.04.13.05.19-.2.48-.05,1.11.21,1.51.81,1.18,2.6,1.44,3.7.51,1.21-1.02,1.39-2.96.18-4.07"/>
    <path class="cls-12" d="m582.77,386.58c-.52-1.57-2.5-2.41-3.9-1.4-1.18.84-1.61,2.64-.63,3.8.58.68,1.38,1.01,2.26.98.68-.03,1.26-.34,1.67-.84.04-.04.08-.07.11-.1.62-.64.76-1.6.5-2.42"/>
    <path class="cls-11" d="m20.02,446.46l-10.3-64.16s-8.61-.45-8.46-8.06c.14-7.61,10.06-5.01,13.98-1.4,0,0,3.6-9.61,8.75-7.16,5.16,2.45,3.63,10.29-.9,14.38l9.54,62.29c.07.11,15.28,4.73,11.92,11.85-2.47,5.23-9.6,4.93-14.68.1,0,0-5.52,9.46-12.91,5.01-7.38-4.45,3.06-12.84,3.06-12.84"/>
    <path class="cls-12" d="m33.62,447.85c.6-.63,1.37-.61,2.1-.23.69.37,1.3.88,1.97,1.31.66.43,1.34.81,2.02,1.21,1.57.94.17,3.41-1.49,2.78-1.64-.62-3.49-1.63-4.66-2.96-.52-.6-.47-1.55.06-2.11"/>
    <path class="cls-12" d="m19.57,453.98c.64-.71,1.3-1.42,1.95-2.12.69-.75,1.28-1.59,2.17-2.11,1.29-.77,2.76.84,2.27,2.11-.37.95-1.23,1.71-1.94,2.42-.67.68-1.37,1.28-2.15,1.84-.63.46-1.49.5-2.08-.06-.52-.49-.76-1.48-.22-2.07"/>
    <path class="cls-12" d="m17.82,377.24c.54-1.25,1.26-2.41,1.85-3.63.58-1.21,1-2.54,1.74-3.67.87-1.33,3.19-.49,2.93,1.11-.23,1.4-.93,2.73-1.57,3.98-.66,1.27-1.32,2.56-2.27,3.64-1.06,1.21-3.41.29-2.67-1.43"/>
    <path class="cls-12" d="m7.31,373.36c1.09.21,1.96.63,2.88,1.23.37.24.75.49,1.13.73.22.15.53.27.7.47.01.01.02.02.03.03.42-.01.84.14,1.12.55l.05.07c.44.64.48,1.33.07,1.99-.92,1.51-2.64.61-3.73-.06-1.27-.78-2.59-1.48-3.48-2.7-.65-.9-.08-2.55,1.22-2.3"/>
    <path class="cls-12" d="m25.51,437.26c1.07-.18,2.1.38,2.56,1.36.44.91.28,2.21-.59,2.82-.36.25-.8.45-1.26.38-.02,0-.05-.01-.06-.01-.62.15-1.25.15-1.83-.23-.64-.41-.87-1.28-.83-1.99.06-1.09.92-2.15,2.02-2.33"/>
    <path class="cls-12" d="m22.94,427.84c1.27-1.05,3.39-.49,3.98,1.04.39,1,.08,2.17-.95,2.64-.22.1-.46.15-.71.16-.54.29-1.22.34-1.78.13-1.64-.62-1.83-2.91-.54-3.98"/>
    <path class="cls-12" d="m22.59,417.29c1.27-.22,2.74.69,2.64,2.08.02.06.04.12.06.19.2.68-.18,1.43-.69,1.88-.35.31-.84.54-1.31.57-.69.05-1.31-.1-1.83-.58-.41-.38-.68-.87-.76-1.43-.18-1.25.61-2.49,1.88-2.71"/>
    <path class="cls-12" d="m19.3,408.26c.04-.35.15-.69.35-1.01.85-1.36,2.92-1.21,3.75.09.49.78.38,1.79-.22,2.46-.07.16-.14.31-.24.45-.3.44-.97.81-1.52.69-.43-.1-.76-.2-1.11-.47-.21-.15-.39-.35-.55-.56-.36-.34-.58-.8-.53-1.32.01-.12.04-.23.08-.33"/>
    <path class="cls-12" d="m17.11,395.88c.23-.21.5-.37.76-.52.1-.06.21-.12.32-.17.21-.11.43-.16.67-.14.31,0,.31-.01,0-.02,0-.12,1.07.03,1.17.06.44.14.92.51,1.1.95.04.13.08.26.12.39-.08-.29-.08-.3,0-.04.04.12.08.23.09.36.03.17.02.39,0,.57-.01.09-.1.43-.11.44-.02.06-.04.13-.05.19.21.48.06,1.11-.21,1.51-.81,1.18-2.59,1.44-3.69.51-1.21-1.02-1.39-2.96-.17-4.07"/>
    <path class="cls-12" d="m15.53,386.58c.51-1.57,2.5-2.41,3.9-1.4,1.18.84,1.61,2.64.63,3.8-.57.68-1.38,1.01-2.26.98-.69-.03-1.26-.34-1.67-.84-.04-.04-.08-.07-.12-.1-.62-.64-.76-1.6-.49-2.42"/>
    <path class="cls-11" d="m578.28,246.51l10.3-64.16s8.61-.45,8.46-8.06c-.14-7.61-10.06-5.01-13.99-1.4,0,0-3.6-9.61-8.75-7.16-5.16,2.45-3.63,10.29.9,14.38l-9.54,62.29c-.08.11-15.28,4.73-11.92,11.85,2.47,5.23,9.6,4.93,14.68.1,0,0,5.53,9.46,12.91,5.01,7.38-4.45-3.06-12.84-3.06-12.84"/>
    <path class="cls-7" d="m564.67,247.9c-.6-.63-1.37-.61-2.1-.23-.7.37-1.3.88-1.97,1.31-.65.43-1.34.81-2.02,1.21-1.57.94-.17,3.41,1.49,2.78,1.64-.62,3.49-1.63,4.65-2.96.52-.6.47-1.55-.06-2.11"/>
    <path class="cls-7" d="m578.73,254.04c-.64-.71-1.3-1.42-1.95-2.12-.69-.75-1.28-1.59-2.16-2.11-1.3-.77-2.77.84-2.28,2.11.37.95,1.23,1.71,1.94,2.42.68.68,1.38,1.28,2.15,1.84.63.46,1.49.5,2.08-.06.51-.49.76-1.48.22-2.07"/>
    <path class="cls-7" d="m580.48,177.3c-.53-1.25-1.25-2.41-1.85-3.63-.58-1.21-1-2.54-1.74-3.67-.87-1.33-3.19-.49-2.93,1.11.23,1.4.93,2.73,1.57,3.98.66,1.27,1.33,2.57,2.27,3.64,1.06,1.21,3.41.29,2.67-1.43"/>
    <path class="cls-7" d="m590.99,173.42c-1.09.21-1.95.63-2.88,1.23-.37.25-.75.49-1.13.73-.22.15-.53.27-.7.47,0,.01-.02.02-.03.03-.43-.01-.84.15-1.13.55l-.05.07c-.44.64-.48,1.33-.07,1.99.93,1.5,2.64.61,3.73-.06,1.27-.78,2.59-1.48,3.48-2.7.65-.9.08-2.55-1.23-2.3"/>
    <path class="cls-7" d="m572.79,237.32c-1.07-.18-2.1.38-2.56,1.36-.43.91-.28,2.21.59,2.82.37.25.8.45,1.26.38.02,0,.05-.01.06-.01.63.15,1.25.15,1.83-.23.63-.41.87-1.28.83-1.99-.06-1.09-.92-2.15-2.02-2.33"/>
    <path class="cls-7" d="m575.36,227.9c-1.26-1.05-3.39-.49-3.98,1.04-.39,1-.08,2.17.95,2.64.22.1.46.15.71.16.55.29,1.22.34,1.79.13,1.64-.62,1.83-2.91.54-3.98"/>
    <path class="cls-7" d="m575.7,217.34c-1.26-.22-2.74.69-2.64,2.08-.02.06-.04.12-.06.19-.2.68.18,1.43.69,1.88.35.31.84.54,1.3.57.69.05,1.31-.1,1.83-.58.41-.38.68-.87.76-1.43.18-1.25-.6-2.49-1.88-2.71"/>
    <path class="cls-7" d="m579,208.31c-.04-.35-.15-.7-.35-1.01-.85-1.36-2.93-1.21-3.75.09-.49.78-.38,1.79.22,2.46.07.15.15.31.25.45.3.44.97.81,1.52.69.43-.1.76-.2,1.11-.47.21-.15.39-.35.55-.56.36-.34.58-.8.53-1.32-.02-.12-.04-.23-.08-.33"/>
    <path class="cls-7" d="m581.18,195.94c-.23-.21-.5-.37-.76-.53-.1-.06-.21-.12-.32-.17-.21-.11-.43-.15-.67-.15-.3,0-.3,0,0-.02,0-.13-1.08.03-1.18.06-.44.14-.92.51-1.1.95-.04.13-.08.26-.12.39.07-.29.07-.3,0-.04-.04.12-.07.23-.1.36-.03.17-.02.39,0,.57.01.09.1.43.11.44.02.06.04.13.05.19-.2.48-.05,1.11.21,1.51.81,1.18,2.6,1.44,3.7.51,1.21-1.02,1.39-2.97.18-4.08"/>
    <path class="cls-7" d="m582.77,186.64c-.52-1.57-2.5-2.41-3.9-1.4-1.18.84-1.61,2.63-.63,3.8.58.68,1.38,1.01,2.26.98.68-.03,1.26-.34,1.67-.84.04-.04.08-.07.11-.1.62-.64.76-1.6.5-2.43"/>
    <path class="cls-11" d="m20.02,246.51l-10.3-64.16s-8.61-.45-8.46-8.06c.14-7.61,10.06-5.01,13.98-1.4,0,0,3.6-9.61,8.75-7.16,5.16,2.45,3.63,10.29-.9,14.38l9.54,62.29c.07.11,15.28,4.73,11.92,11.85-2.47,5.23-9.6,4.93-14.68.1,0,0-5.52,9.46-12.91,5.01-7.38-4.45,3.06-12.84,3.06-12.84"/>
    <path class="cls-7" d="m33.62,247.9c.6-.63,1.37-.61,2.1-.23.69.37,1.3.88,1.97,1.31.66.43,1.34.81,2.02,1.21,1.57.94.17,3.41-1.49,2.78-1.64-.62-3.49-1.63-4.66-2.96-.52-.6-.47-1.55.06-2.11"/>
    <path class="cls-7" d="m19.57,254.04c.64-.71,1.3-1.42,1.95-2.12.69-.75,1.28-1.59,2.17-2.11,1.29-.77,2.76.84,2.27,2.11-.37.95-1.23,1.71-1.94,2.42-.67.68-1.37,1.28-2.15,1.84-.63.46-1.49.5-2.08-.06-.52-.49-.76-1.48-.22-2.07"/>
    <path class="cls-7" d="m17.82,177.3c.54-1.25,1.26-2.41,1.85-3.63.58-1.21,1-2.54,1.74-3.67.87-1.33,3.19-.49,2.93,1.11-.23,1.4-.93,2.73-1.57,3.98-.66,1.27-1.32,2.57-2.27,3.64-1.06,1.21-3.41.29-2.67-1.43"/>
    <path class="cls-7" d="m7.31,173.42c1.09.21,1.96.63,2.88,1.23.37.25.75.49,1.13.73.22.15.53.27.7.47.01.01.02.02.03.03.42-.01.84.15,1.12.55l.05.07c.44.64.48,1.33.07,1.99-.92,1.5-2.64.61-3.73-.06-1.27-.78-2.59-1.48-3.48-2.7-.65-.9-.08-2.55,1.22-2.3"/>
    <path class="cls-7" d="m25.51,237.32c1.07-.18,2.1.38,2.56,1.36.44.91.28,2.21-.59,2.82-.36.25-.8.45-1.26.38-.02,0-.05-.01-.06-.01-.62.15-1.25.15-1.83-.23-.64-.41-.87-1.28-.83-1.99.06-1.09.92-2.15,2.02-2.33"/>
    <path class="cls-7" d="m22.94,227.9c1.27-1.05,3.39-.49,3.98,1.04.39,1,.08,2.17-.95,2.64-.22.1-.46.15-.71.16-.54.29-1.22.34-1.78.13-1.64-.62-1.83-2.91-.54-3.98"/>
    <path class="cls-7" d="m22.59,217.34c1.27-.22,2.74.69,2.64,2.08.02.06.04.12.06.19.2.68-.18,1.43-.69,1.88-.35.31-.84.54-1.31.57-.69.05-1.31-.1-1.83-.58-.41-.38-.68-.87-.76-1.43-.18-1.25.61-2.49,1.88-2.71"/>
    <path class="cls-7" d="m19.3,208.31c.04-.35.15-.7.35-1.01.85-1.36,2.92-1.21,3.75.09.49.78.38,1.79-.22,2.46-.07.15-.14.31-.24.45-.3.44-.97.81-1.52.69-.43-.1-.76-.2-1.11-.47-.21-.15-.39-.35-.55-.56-.36-.34-.58-.8-.53-1.32.01-.12.04-.23.08-.33"/>
    <path class="cls-7" d="m17.11,195.94c.23-.21.5-.37.76-.53.1-.06.21-.12.32-.17.21-.11.43-.15.67-.15.31,0,.31,0,0-.02,0-.13,1.07.03,1.17.06.44.14.92.51,1.1.95.04.13.08.26.12.39-.08-.29-.08-.3,0-.04.04.12.08.23.09.36.03.17.02.39,0,.57-.01.09-.1.43-.11.44-.02.06-.04.13-.05.19.21.48.06,1.11-.21,1.51-.81,1.18-2.59,1.44-3.69.51-1.21-1.02-1.39-2.97-.17-4.08"/>
    <path class="cls-7" d="m15.53,186.64c.51-1.57,2.5-2.41,3.9-1.4,1.18.84,1.61,2.63.63,3.8-.57.68-1.38,1.01-2.26.98-.69-.03-1.26-.34-1.67-.84-.04-.04-.08-.07-.12-.1-.62-.64-.76-1.6-.49-2.43"/>
  </g>
</svg>