<?xml version="1.0" encoding="UTF-8"?>
<svg id="Capa_2" data-name="Capa 2" xmlns="http://www.w3.org/2000/svg" xmlns:xlink="http://www.w3.org/1999/xlink" viewBox="0 0 3446 3446">
  <defs>
    <style>
      .cls-1 {
        clip-path: url(#clippath);
      }

      .cls-2 {
        fill: none;
      }

      .cls-2, .cls-3 {
        stroke-width: 0px;
      }

      .cls-4 {
        opacity: .09;
      }

      .cls-5 {
        clip-path: url(#clippath-1);
      }

      .cls-6 {
        clip-path: url(#clippath-2);
      }

      .cls-7 {
        opacity: .68;
      }

      .cls-3 {
        fill: #db3614;
      }
    </style>
    <clipPath id="clippath">
      <rect class="cls-2" width="3446" height="3446"/>
    </clipPath>
    <clipPath id="clippath-1">
      <rect class="cls-2" width="3446" height="3446"/>
    </clipPath>
    <clipPath id="clippath-2">
      <rect class="cls-2" width="3446" height="3446"/>
    </clipPath>
  </defs>
  <g id="Capa_1-2" data-name="Capa 1">
    <g class="cls-1">
      <g id="Grupo_6" data-name="Grupo 6" class="cls-7">
        <g id="Grupo_5" data-name="Grupo 5">
          <g class="cls-5">
            <g id="Grupo_4" data-name="Grupo 4">
              <g id="Grupo_3" data-name="Grupo 3" class="cls-4">
                <g id="Grupo_2" data-name="Grupo 2">
                  <g class="cls-6">
                    <g id="Grupo_1" data-name="Grupo 1">
                      <path id="Trazado_1" data-name="Trazado 1" class="cls-3" d="m3445.72,1661.88l-5.77-5.77-60.98,60.98-60.48-60.48,60.98-60.98-5.77-5.77-60.98,60.98-60.48-60.48,60.98-60.98-5.76-5.77-60.98,60.98-60.48-60.48,60.98-60.98-5.77-5.77-60.98,60.98-60.48-60.48,60.98-60.98-5.77-5.77-60.98,60.99-60.48-60.48,60.98-60.98-5.76-5.77-60.98,60.98-60.48-60.48,60.98-60.98-5.77-5.77-60.98,60.98-60.48-60.48,60.98-60.98-5.77-5.77-60.98,60.98-60.48-60.48,60.98-60.98-5.77-5.77-60.98,60.98-60.48-60.48,60.98-60.98-5.77-5.77-60.98,60.98-60.48-60.48,60.98-60.98-5.77-5.77-60.98,60.98-60.48-60.48,60.98-60.98-5.77-5.77-60.98,60.98-60.48-60.48,60.98-60.98-5.77-5.77-60.98,60.98-60.48-60.48,60.98-60.98-5.77-5.77-60.97,60.99-60.48-60.48,60.98-60.98-5.77-5.77-60.98,60.98-60.48-60.48,60.98-60.98-5.77-5.77-60.98,60.98-60.48-60.48,60.98-60.98-5.77-5.77-60.98,60.98-60.48-60.48,60.98-60.98-5.77-5.77-60.98,60.98-60.48-60.48,60.98-60.98-5.77-5.77-60.98,60.98-60.48-60.48,60.98-60.98-5.77-5.77-60.98,60.98-60.48-60.48,60.98-60.98-5.77-5.77-60.98,60.98-60.48-60.48,60.98-60.98-5.77-5.77-60.98,60.99-60.48-60.48,60.98-60.98-5.77-5.76-60.98,60.98-60.48-60.48,60.98-60.98-5.77-5.76-60.99,60.98-60.48-60.48,60.98-60.98-5.77-5.77-60.98,60.98-60.48-60.48,60.98-60.98-5.77-5.76-60.98,60.98L1661.88,0l-5.77,5.77,60.99,60.98-60.48,60.48-60.98-60.98-5.77,5.77,60.98,60.98-60.48,60.48-60.98-60.98-5.77,5.76,60.98,60.98-60.48,60.48-60.98-60.98-5.77,5.76,60.98,60.98-60.48,60.48-60.98-60.98-5.77,5.77,60.98,60.98-60.48,60.47-60.98-60.98-5.77,5.77,60.98,60.98-60.48,60.48-60.98-60.98-5.77,5.77,60.98,60.98-60.48,60.48-60.98-60.98-5.77,5.77,60.98,60.98-60.48,60.48-60.98-60.98-5.77,5.77,60.98,60.98-60.48,60.48-60.98-60.98-5.77,5.77,60.98,60.98-60.48,60.48-60.98-60.98-5.77,5.77,60.98,60.98-60.48,60.48-60.98-60.98-5.77,5.77,60.98,60.98-60.48,60.48-60.98-60.98-5.77,5.77,60.98,60.98-60.48,60.48-60.98-60.98-5.77,5.77,60.98,60.98-60.48,60.48-60.98-60.98-5.77,5.77,60.98,60.98-60.48,60.48-60.98-60.98-5.77,5.77,60.98,60.98-60.48,60.48-60.98-60.98-5.77,5.77,60.98,60.98-60.48,60.48-60.98-60.98-5.77,5.77,60.98,60.98-60.48,60.48-60.98-60.98-5.77,5.77,60.98,60.98-60.48,60.48-60.98-60.98-5.77,5.77,60.98,60.98-60.48,60.48-60.98-60.98-5.77,5.77,60.98,60.98-60.48,60.48-60.98-60.98-5.77,5.77,60.98,60.98-60.48,60.48-60.98-60.98-5.77,5.77,60.98,60.98-60.48,60.48-60.98-60.98-5.76,5.77,60.98,60.98-60.48,60.48-60.98-60.98-5.77,5.77,60.98,60.98-60.48,60.48-60.98-60.99-5.77,5.77,60.98,60.98L0,1783.84l5.77,5.77,60.98-60.98,60.48,60.48-60.98,60.98,5.77,5.77,60.98-60.98,60.48,60.48-60.98,60.98,5.76,5.77,60.98-60.98,60.48,60.48-60.98,60.98,5.77,5.77,60.98-60.98,60.48,60.48-60.98,60.98,5.77,5.77,60.98-60.98,60.48,60.48-60.98,60.98,5.77,5.77,60.98-60.98,60.48,60.48-60.98,60.98,5.77,5.77,60.98-60.98,60.48,60.48-60.98,60.98,5.77,5.77,60.98-60.98,60.48,60.48-60.98,60.98,5.77,5.77,60.98-60.98,60.48,60.48-60.98,60.98,5.77,5.77,60.98-60.98,60.48,60.48-60.98,60.98,5.77,5.77,60.98-60.98,60.48,60.48-60.98,60.98,5.77,5.77,60.98-60.98,60.48,60.48-60.98,60.98,5.77,5.77,60.98-60.98,60.48,60.48-60.98,60.98,5.77,5.77,60.98-60.98,60.48,60.48-60.98,60.98,5.77,5.77,60.98-60.98,60.48,60.48-60.98,60.98,5.77,5.77,60.98-60.98,60.48,60.48-60.98,60.98,5.77,5.77,60.98-60.98,60.48,60.48-60.98,60.98,5.77,5.77,60.98-60.98,60.48,60.48-60.98,60.98,5.77,5.77,60.98-60.98,60.48,60.48-60.98,60.98,5.77,5.77,60.98-60.98,60.48,60.48-60.98,60.98,5.77,5.76,60.98-60.98,60.48,60.48-60.98,60.98,5.77,5.77,60.98-60.98,60.48,60.48-60.98,60.98,5.77,5.77,60.98-60.98,60.48,60.48-60.98,60.98,5.77,5.77,60.98-60.98,60.48,60.48-60.98,60.98,5.77,5.76,60.98-60.98,60.48,60.48-60.98,60.98,5.77,5.77,60.98-60.98,60.98,60.98,5.77-5.77-60.98-60.98,60.48-60.48,60.98,60.98,5.77-5.76-60.98-60.98,60.48-60.48,60.98,60.98,5.77-5.77-60.98-60.98,60.48-60.48,60.98,60.98,5.77-5.77-60.98-60.98,60.48-60.48,60.98,60.98,5.77-5.77-60.99-60.98,60.48-60.48,60.98,60.98,5.77-5.76-60.98-60.98,60.48-60.48,60.98,60.98,5.77-5.77-60.98-60.98,60.48-60.48,60.98,60.98,5.77-5.77-60.98-60.98,60.48-60.48,60.98,60.98,5.77-5.77-60.98-60.98,60.48-60.48,60.98,60.98,5.77-5.77-60.98-60.98,60.48-60.48,60.98,60.98,5.77-5.77-60.98-60.98,60.48-60.48,60.98,60.98,5.77-5.77-60.98-60.98,60.48-60.48,60.98,60.98,5.77-5.77-60.98-60.98,60.48-60.48,60.98,60.98,5.77-5.77-60.98-60.98,60.48-60.48,60.98,60.98,5.77-5.77-60.98-60.98,60.48-60.48,60.98,60.98,5.77-5.77-60.98-60.98,60.48-60.48,60.98,60.98,5.77-5.77-60.98-60.98,60.48-60.48,60.97,60.99,5.77-5.77-60.98-60.98,60.48-60.48,60.98,60.98,5.77-5.77-60.98-60.98,60.48-60.48,60.98,60.98,5.77-5.77-60.98-60.98,60.48-60.48,60.98,60.98,5.76-5.77-60.98-60.98,60.48-60.48,60.98,60.98,5.77-5.77-60.98-60.98,60.48-60.48,60.98,60.98,5.77-5.77-60.98-60.98,60.48-60.48,60.98,60.98,5.76-5.77-60.98-60.98,60.48-60.48,60.98,60.98,5.77-5.77-60.98-60.98,60.48-60.48,60.98,60.98,5.77-5.77-60.98-60.98,60.98-60.98Zm-138.76-5.26l-60.48,60.48-60.48-60.48,60.48-60.48,60.48,60.48Zm-1578.34,0l60.48-60.48,60.48,60.48-60.48,60.48-60.48-60.48Zm54.71,66.24l-60.48,60.48-60.48-60.48,60.48-60.48,60.48,60.48Zm-60.48-72.01l-60.48-60.48,60.48-60.48,60.48,60.48-60.48,60.48Zm-5.77,5.77l-60.48,60.48-60.48-60.48,60.48-60.48,60.48,60.48Zm-66.24,66.24l-60.48,60.48-60.48-60.48,60.48-60.48,60.48,60.48Zm5.77,5.77l60.48,60.48-60.48,60.48-60.48-60.48,60.48-60.48Zm66.24,66.24l60.48,60.48-60.48,60.48-60.48-60.48,60.48-60.48Zm5.77-5.77l60.48-60.48,60.48,60.48-60.48,60.48-60.48-60.48Zm66.24-66.24l60.48-60.48,60.48,60.48-60.48,60.48-60.48-60.48Zm66.24-66.24l60.48-60.48,60.48,60.48-60.47,60.48-60.48-60.48Zm-5.77-5.77l-60.48-60.48,60.48-60.48,60.48,60.48-60.48,60.48Zm-66.24-66.24l-60.48-60.48,60.48-60.48,60.48,60.48-60.48,60.48Zm-66.24-66.24l-60.48-60.48,60.48-60.48,60.48,60.48-60.48,60.48Zm-5.77,5.77l-60.48,60.48-60.48-60.48,60.48-60.48,60.48,60.48Zm-66.24,66.24l-60.48,60.48-60.48-60.48,60.48-60.48,60.48,60.48Zm-66.24,66.24l-60.48,60.48-60.48-60.48,60.48-60.48,60.48,60.48Zm-66.24,66.24l-60.48,60.48-60.48-60.48,60.48-60.48,60.48,60.48Zm5.77,5.77l60.48,60.48-60.48,60.48-60.48-60.48,60.48-60.48Zm66.24,66.24l60.48,60.48-60.48,60.48-60.48-60.48,60.48-60.48Zm66.24,66.24l60.48,60.48-60.48,60.48-60.48-60.48,60.48-60.48Zm66.24,66.24l60.48,60.48-60.48,60.48-60.48-60.48,60.48-60.48Zm5.77-5.77l60.48-60.48,60.48,60.48-60.48,60.48-60.48-60.48Zm66.24-66.24l60.48-60.48,60.48,60.48-60.48,60.48-60.48-60.48Zm66.24-66.24l60.48-60.48,60.48,60.48-60.48,60.48-60.48-60.48Zm66.24-66.24l60.48-60.48,60.48,60.48-60.48,60.48-60.48-60.48Zm66.24-66.24l60.48-60.48,60.48,60.48-60.48,60.48-60.48-60.48Zm-5.77-5.77l-60.48-60.48,60.48-60.48,60.48,60.48-60.48,60.48Zm-66.24-66.24l-60.48-60.48,60.48-60.48,60.48,60.48-60.48,60.48Zm-66.24-66.24l-60.48-60.48,60.48-60.48,60.48,60.48-60.48,60.48Zm-66.24-66.24l-60.48-60.48,60.48-60.48,60.48,60.48-60.48,60.48Zm-66.24-66.24l-60.48-60.48,60.48-60.48,60.48,60.48-60.48,60.48Zm-5.77,5.77l-60.48,60.48-60.48-60.48,60.48-60.48,60.48,60.48Zm-66.24,66.24l-60.48,60.48-60.48-60.48,60.48-60.48,60.48,60.48Zm-66.24,66.24l-60.48,60.48-60.48-60.48,60.48-60.48,60.48,60.48Zm-66.24,66.24l-60.48,60.48-60.48-60.48,60.48-60.48,60.48,60.48Zm-66.24,66.24l-60.48,60.48-60.48-60.48,60.48-60.48,60.48,60.48Zm-66.24,66.24l-60.48,60.48-60.48-60.48,60.48-60.48,60.48,60.48Zm5.77,5.77l60.48,60.48-60.48,60.48-60.48-60.48,60.48-60.48Zm66.24,66.24l60.48,60.48-60.48,60.48-60.48-60.48,60.48-60.48Zm66.24,66.24l60.48,60.48-60.48,60.48-60.48-60.48,60.48-60.48Zm66.24,66.24l60.48,60.48-60.48,60.48-60.48-60.48,60.48-60.48Zm66.24,66.24l60.48,60.48-60.48,60.48-60.48-60.48,60.48-60.48Zm66.24,66.24l60.48,60.48-60.48,60.48-60.48-60.48,60.48-60.48Zm5.77-5.77l60.48-60.48,60.48,60.48-60.48,60.48-60.48-60.48Zm66.24-66.24l60.48-60.48,60.48,60.48-60.48,60.48-60.48-60.48Zm66.24-66.24l60.48-60.48,60.48,60.48-60.48,60.48-60.48-60.48Zm66.24-66.24l60.48-60.48,60.48,60.48-60.48,60.48-60.48-60.48Zm66.24-66.24l60.48-60.48,60.48,60.48-60.48,60.48-60.48-60.48Zm66.24-66.24l60.48-60.48,60.48,60.48-60.48,60.48-60.48-60.48Zm66.24-66.24l60.48-60.48,60.48,60.48-60.48,60.48-60.48-60.48Zm-5.77-5.77l-60.48-60.48,60.48-60.48,60.48,60.48-60.48,60.48Zm-66.24-66.24l-60.48-60.48,60.48-60.48,60.48,60.48-60.48,60.48Zm-66.24-66.24l-60.48-60.48,60.48-60.48,60.48,60.48-60.48,60.48Zm-66.24-66.24l-60.48-60.48,60.48-60.48,60.48,60.48-60.48,60.48Zm-66.24-66.24l-60.48-60.48,60.48-60.48,60.48,60.48-60.48,60.48Zm-66.24-66.24l-60.48-60.48,60.48-60.48,60.48,60.48-60.48,60.48Zm-66.24-66.24l-60.48-60.48,60.48-60.48,60.48,60.48-60.48,60.48Zm-5.77,5.77l-60.48,60.48-60.48-60.48,60.48-60.48,60.48,60.48Zm-66.24,66.24l-60.48,60.48-60.48-60.48,60.48-60.48,60.48,60.48Zm-66.24,66.24l-60.48,60.48-60.48-60.48,60.48-60.48,60.48,60.48Zm-66.24,66.24l-60.48,60.48-60.48-60.48,60.48-60.48,60.48,60.48Zm-66.24,66.24l-60.48,60.48-60.48-60.48,60.48-60.48,60.48,60.48Zm-66.24,66.24l-60.48,60.48-60.48-60.48,60.48-60.48,60.48,60.48Zm-66.24,66.24l-60.48,60.48-60.48-60.48,60.48-60.48,60.48,60.47Zm-66.24,66.24l-60.48,60.48-60.48-60.48,60.48-60.48,60.48,60.48Zm5.77,5.77l60.48,60.48-60.48,60.48-60.48-60.48,60.48-60.48Zm66.24,66.24l60.48,60.48-60.48,60.48-60.48-60.48,60.48-60.48Zm66.24,66.24l60.48,60.48-60.48,60.48-60.48-60.48,60.48-60.48Zm66.24,66.24l60.48,60.48-60.48,60.48-60.48-60.48,60.48-60.48Zm66.24,66.24l60.48,60.48-60.48,60.48-60.48-60.48,60.48-60.48Zm66.24,66.25l60.48,60.48-60.48,60.48-60.48-60.48,60.48-60.48Zm66.24,66.24l60.48,60.48-60.48,60.48-60.48-60.48,60.48-60.48Zm66.24,66.24l60.48,60.48-60.48,60.48-60.48-60.48,60.48-60.48Zm5.77-5.77l60.48-60.48,60.48,60.48-60.48,60.48-60.48-60.48Zm66.24-66.25l60.48-60.48,60.48,60.48-60.48,60.48-60.48-60.48Zm66.24-66.24l60.48-60.48,60.48,60.48-60.48,60.48-60.48-60.48Zm66.24-66.24l60.48-60.48,60.48,60.48-60.48,60.48-60.48-60.48Zm66.24-66.24l60.48-60.48,60.48,60.48-60.48,60.48-60.48-60.48Zm66.25-66.24l60.48-60.48,60.48,60.48-60.48,60.48-60.48-60.48Zm66.24-66.24l60.48-60.48,60.48,60.48-60.48,60.48-60.48-60.48Zm66.25-66.24l60.48-60.48,60.48,60.48-60.48,60.48-60.48-60.48Zm66.24-66.24l60.48-60.48,60.48,60.48-60.48,60.48-60.48-60.48Zm-5.77-5.77l-60.48-60.48,60.48-60.48,60.48,60.48-60.48,60.48Zm-66.25-66.24l-60.48-60.48,60.48-60.48,60.48,60.48-60.48,60.48Zm-66.24-66.24l-60.48-60.48,60.48-60.48,60.48,60.48-60.48,60.48Zm-66.25-66.24l-60.48-60.48,60.48-60.48,60.48,60.48-60.48,60.48Zm-66.24-66.24l-60.48-60.48,60.48-60.48,60.48,60.48-60.48,60.48Zm-66.24-66.24l-60.48-60.48,60.48-60.48,60.48,60.48-60.48,60.48Zm-66.24-66.24l-60.48-60.48,60.48-60.48,60.48,60.48-60.48,60.48Zm-66.24-66.24l-60.48-60.48,60.48-60.48,60.48,60.48-60.48,60.48Zm-66.24-66.24l-60.48-60.48,60.48-60.48,60.48,60.48-60.48,60.48Zm-5.77,5.77l-60.48,60.48-60.48-60.48,60.48-60.48,60.48,60.48Zm-66.24,66.24l-60.48,60.48-60.48-60.48,60.48-60.48,60.48,60.48Zm-66.24,66.24l-60.48,60.48-60.48-60.48,60.48-60.48,60.48,60.48Zm-66.24,66.24l-60.48,60.48-60.48-60.48,60.48-60.48,60.48,60.48Zm-66.24,66.24l-60.48,60.48-60.48-60.48,60.48-60.48,60.48,60.48Zm-66.24,66.24l-60.48,60.48-60.48-60.48,60.48-60.48,60.48,60.48Zm-66.24,66.24l-60.48,60.48-60.48-60.48,60.48-60.48,60.48,60.48Zm-66.24,66.24l-60.48,60.48-60.48-60.48,60.48-60.48,60.48,60.48Zm-66.24,66.24l-60.48,60.48-60.48-60.48,60.48-60.48,60.48,60.47Zm-66.24,66.24l-60.48,60.48-60.48-60.48,60.48-60.48,60.48,60.48Zm5.77,5.77l60.48,60.48-60.48,60.48-60.48-60.48,60.48-60.48Zm66.24,66.24l60.48,60.48-60.48,60.48-60.48-60.48,60.48-60.48Zm66.24,66.24l60.48,60.48-60.48,60.48-60.48-60.48,60.48-60.48Zm66.24,66.24l60.48,60.48-60.48,60.48-60.48-60.48,60.48-60.48Zm66.24,66.24l60.48,60.48-60.48,60.48-60.48-60.48,60.48-60.48Zm66.24,66.25l60.48,60.48-60.48,60.48-60.48-60.48,60.48-60.48Zm66.24,66.24l60.48,60.48-60.48,60.48-60.48-60.48,60.48-60.48Zm66.24,66.24l60.48,60.48-60.48,60.48-60.48-60.48,60.48-60.48Zm66.24,66.24l60.48,60.48-60.48,60.48-60.48-60.48,60.48-60.48Zm66.24,66.25l60.48,60.48-60.48,60.48-60.48-60.48,60.48-60.48Zm5.77-5.77l60.48-60.48,60.48,60.48-60.48,60.48-60.48-60.48Zm66.24-66.25l60.48-60.48,60.48,60.48-60.48,60.48-60.48-60.48Zm66.24-66.24l60.48-60.48,60.48,60.48-60.48,60.48-60.48-60.48Zm66.24-66.25l60.48-60.48,60.48,60.48-60.48,60.48-60.48-60.48Zm66.24-66.24l60.48-60.48,60.48,60.48-60.48,60.48-60.48-60.48Zm66.25-66.24l60.48-60.48,60.48,60.48-60.48,60.48-60.48-60.48Zm66.24-66.24l60.48-60.48,60.48,60.48-60.48,60.48-60.48-60.48Zm66.25-66.24l60.48-60.48,60.48,60.48-60.48,60.48-60.48-60.48Zm66.24-66.24l60.48-60.48,60.48,60.48-60.48,60.48-60.48-60.48Zm66.24-66.24l60.48-60.48,60.48,60.48-60.48,60.48-60.48-60.48Zm66.24-66.24l60.48-60.48,60.48,60.48-60.48,60.48-60.48-60.48Zm-5.77-5.77l-60.48-60.48,60.48-60.48,60.48,60.48-60.48,60.48Zm-66.24-66.24l-60.48-60.48,60.48-60.48,60.48,60.48-60.48,60.48Zm-66.25-66.24l-60.48-60.48,60.48-60.48,60.48,60.48-60.48,60.48Zm-66.25-66.24l-60.48-60.48,60.48-60.48,60.48,60.48-60.48,60.48Zm-66.25-66.24l-60.48-60.48,60.48-60.48,60.48,60.48-60.48,60.48Zm-66.24-66.24l-60.48-60.48,60.48-60.48,60.48,60.48-60.48,60.48Zm-66.24-66.24l-60.48-60.48,60.48-60.48,60.48,60.48-60.48,60.48Zm-66.24-66.24l-60.48-60.48,60.48-60.48,60.48,60.48-60.48,60.48Zm-66.24-66.24l-60.48-60.48,60.48-60.48,60.48,60.48-60.48,60.48Zm-66.24-66.24l-60.48-60.48,60.48-60.48,60.48,60.48-60.48,60.48Zm-66.24-66.24l-60.48-60.48,60.48-60.48,60.48,60.48-60.48,60.48Zm-5.77,5.77l-60.48,60.48-60.48-60.48,60.48-60.48,60.48,60.48Zm-66.24,66.24l-60.48,60.48-60.48-60.48,60.48-60.48,60.48,60.48Zm-66.24,66.24l-60.48,60.48-60.48-60.48,60.48-60.48,60.48,60.48Zm-66.24,66.24l-60.48,60.48-60.48-60.48,60.48-60.48,60.48,60.48Zm-66.24,66.24l-60.48,60.48-60.48-60.48,60.48-60.48,60.48,60.48Zm-66.24,66.24l-60.48,60.48-60.48-60.48,60.48-60.48,60.48,60.48Zm-66.24,66.24l-60.48,60.48-60.48-60.48,60.48-60.48,60.48,60.48Zm-66.24,66.24l-60.48,60.48-60.48-60.48,60.48-60.48,60.48,60.48Zm-66.24,66.24l-60.48,60.48-60.48-60.48,60.48-60.48,60.48,60.48Zm-66.24,66.24l-60.48,60.48-60.48-60.48,60.48-60.48,60.48,60.48Zm-66.24,66.24l-60.47,60.49-60.48-60.48,60.48-60.48,60.47,60.47Zm-66.24,66.24l-60.48,60.48-60.48-60.48,60.48-60.48,60.48,60.48Zm5.77,5.77l60.48,60.48-60.48,60.48-60.48-60.48,60.48-60.48Zm66.24,66.24l60.48,60.48-60.48,60.48-60.48-60.48,60.48-60.48Zm66.24,66.24l60.48,60.48-60.48,60.48-60.48-60.48,60.48-60.48Zm66.24,66.24l60.48,60.48-60.48,60.48-60.48-60.48,60.48-60.48Zm66.24,66.24l60.48,60.48-60.48,60.48-60.48-60.48,60.48-60.48Zm66.24,66.25l60.48,60.48-60.48,60.48-60.48-60.48,60.48-60.48Zm66.24,66.24l60.48,60.48-60.48,60.48-60.48-60.48,60.48-60.48Zm66.24,66.24l60.48,60.48-60.48,60.48-60.48-60.48,60.48-60.48Zm66.24,66.24l60.48,60.48-60.48,60.48-60.48-60.48,60.48-60.48Zm66.24,66.25l60.48,60.48-60.48,60.48-60.48-60.48,60.48-60.48Zm66.24,66.24l60.48,60.48-60.48,60.48-60.48-60.48,60.48-60.48Zm66.24,66.24l60.48,60.48-60.48,60.48-60.48-60.48,60.48-60.48Zm5.77-5.77l60.48-60.48,60.48,60.48-60.48,60.48-60.48-60.48Zm66.24-66.25l60.48-60.48,60.48,60.48-60.48,60.48-60.48-60.48Zm66.24-66.24l60.48-60.48,60.48,60.48-60.48,60.48-60.48-60.48Zm66.24-66.25l60.48-60.48,60.48,60.48-60.47,60.49-60.48-60.49Zm66.24-66.24l60.48-60.48,60.48,60.48-60.48,60.48-60.48-60.48Zm66.25-66.25l60.48-60.48,60.48,60.48-60.48,60.48-60.48-60.48Zm66.24-66.24l60.48-60.48,60.48,60.48-60.48,60.48-60.48-60.48Zm66.25-66.24l60.48-60.48,60.48,60.48-60.48,60.48-60.48-60.48Zm66.24-66.24l60.48-60.48,60.48,60.48-60.48,60.48-60.48-60.48Zm66.24-66.24l60.48-60.48,60.48,60.48-60.48,60.48-60.48-60.48Zm66.24-66.24l60.48-60.48,60.48,60.48-60.48,60.48-60.48-60.48Zm66.24-66.24l60.48-60.48,60.48,60.48-60.47,60.48-60.49-60.48Zm66.24-66.24l60.48-60.48,60.48,60.48-60.48,60.48-60.48-60.48Zm-5.76-5.77l-60.48-60.48,60.48-60.48,60.48,60.48-60.48,60.48Zm-66.25-66.24l-60.48-60.48,60.48-60.48,60.48,60.48-60.48,60.48Zm-66.25-66.24l-60.48-60.48,60.48-60.48,60.48,60.48-60.48,60.48Zm-66.24-66.24l-60.48-60.48,60.48-60.48,60.48,60.48-60.48,60.48Zm-66.25-66.24l-60.48-60.48,60.48-60.48,60.48,60.48-60.48,60.48Zm-66.25-66.24l-60.48-60.48,60.48-60.48,60.48,60.48-60.48,60.48Zm-66.24-66.24l-60.47-60.48,60.48-60.48,60.48,60.48-60.49,60.48Zm-66.25-66.24l-60.48-60.48,60.48-60.48,60.48,60.48-60.48,60.48Zm-66.24-66.24l-60.48-60.48,60.48-60.48,60.48,60.48-60.48,60.48Zm-66.23-66.24l-60.48-60.48,60.48-60.48,60.48,60.48-60.48,60.48Zm-66.24-66.24l-60.48-60.48,60.48-60.48,60.48,60.48-60.48,60.48Zm-66.24-66.24l-60.48-60.48,60.48-60.48,60.48,60.48-60.48,60.48Zm-66.24-66.24l-60.48-60.48,60.48-60.48,60.48,60.48-60.48,60.48Zm-5.77,5.77l-60.48,60.48-60.48-60.48,60.48-60.48,60.48,60.48Zm-66.24,66.24l-60.48,60.48-60.48-60.48,60.48-60.48,60.48,60.48Zm-66.24,66.24l-60.48,60.48-60.48-60.48,60.48-60.48,60.48,60.48Zm-66.24,66.24l-60.48,60.48-60.48-60.48,60.48-60.48,60.48,60.48Zm-66.24,66.24l-60.48,60.48-60.48-60.48,60.48-60.48,60.48,60.48Zm-66.24,66.24l-60.48,60.48-60.48-60.48,60.48-60.48,60.48,60.48Zm-66.24,66.24l-60.48,60.48-60.48-60.48,60.48-60.48,60.48,60.48Zm-66.24,66.24l-60.48,60.48-60.48-60.48,60.48-60.48,60.48,60.48Zm-66.24,66.24l-60.48,60.48-60.48-60.48,60.48-60.48,60.48,60.48Zm-66.24,66.24l-60.48,60.48-60.48-60.48,60.48-60.48,60.48,60.48Zm-66.24,66.24l-60.48,60.48-60.48-60.48,60.48-60.48,60.48,60.48Zm-66.24,66.24l-60.48,60.48-60.48-60.48,60.48-60.48,60.48,60.48Zm-66.24,66.24l-60.48,60.48-60.48-60.48,60.48-60.48,60.49,60.48Zm-66.24,66.24l-60.48,60.48-60.48-60.48,60.48-60.48,60.48,60.48Zm5.77,5.77l60.48,60.48-60.48,60.48-60.49-60.48,60.49-60.48Zm66.24,66.24l60.48,60.48-60.48,60.48-60.48-60.48,60.48-60.48Zm66.24,66.24l60.48,60.48-60.48,60.48-60.48-60.48,60.48-60.48Zm66.24,66.24l60.48,60.48-60.48,60.48-60.48-60.48,60.48-60.48Zm66.24,66.24l60.48,60.48-60.48,60.48-60.48-60.48,60.48-60.48Zm66.24,66.24l60.48,60.48-60.48,60.48-60.48-60.48,60.48-60.48Zm66.24,66.24l60.48,60.48-60.48,60.48-60.48-60.48,60.48-60.48Zm66.24,66.24l60.48,60.48-60.48,60.48-60.48-60.48,60.48-60.48Zm66.24,66.25l60.48,60.48-60.48,60.48-60.48-60.48,60.48-60.48Zm66.24,66.24l60.48,60.48-60.48,60.48-60.48-60.48,60.48-60.48Zm66.24,66.24l60.48,60.48-60.48,60.48-60.48-60.48,60.48-60.48Zm66.24,66.24l60.48,60.48-60.48,60.48-60.48-60.48,60.48-60.48Zm66.24,66.24l60.48,60.48-60.48,60.48-60.48-60.48,60.48-60.48Zm66.24,66.25l60.48,60.48-60.48,60.48-60.48-60.48,60.48-60.48Zm5.77-5.77l60.48-60.48,60.48,60.48-60.48,60.48-60.48-60.48Zm66.24-66.24l60.48-60.48,60.48,60.48-60.48,60.48-60.48-60.48Zm66.24-66.24l60.48-60.48,60.48,60.48-60.48,60.48-60.48-60.48Zm66.24-66.25l60.48-60.48,60.48,60.48-60.48,60.48-60.48-60.48Zm66.24-66.24l60.48-60.48,60.48,60.48-60.48,60.48-60.48-60.48Zm66.24-66.25l60.48-60.48,60.48,60.48-60.48,60.48-60.48-60.48Zm66.24-66.24l60.48-60.48,60.48,60.48-60.48,60.48-60.48-60.48Zm66.25-66.25l60.48-60.48,60.48,60.48-60.48,60.48-60.48-60.48Zm66.24-66.24l60.48-60.48,60.48,60.48-60.48,60.48-60.48-60.48Zm66.24-66.24l60.48-60.48,60.48,60.48-60.48,60.48-60.48-60.48Zm66.24-66.24l60.48-60.48,60.48,60.48-60.48,60.48-60.48-60.48Zm66.24-66.24l60.48-60.48,60.48,60.48-60.48,60.48-60.48-60.48Zm66.24-66.24l60.48-60.48,60.48,60.48-60.48,60.48-60.48-60.48Zm66.25-66.24l60.48-60.48,60.48,60.48-60.48,60.48-60.48-60.48Zm66.24-66.24l60.48-60.48,60.48,60.48-60.48,60.49-60.48-60.49Zm-5.77-5.77l-60.48-60.48,60.48-60.48,60.48,60.48-60.48,60.48Zm-66.24-66.24l-60.48-60.48,60.48-60.48,60.48,60.48-60.48,60.48Zm-66.25-66.24l-60.48-60.48,60.48-60.48,60.48,60.48-60.48,60.48Zm-66.24-66.24l-60.48-60.48,60.48-60.48,60.48,60.48-60.48,60.48Zm-66.25-66.24l-60.48-60.48,60.48-60.48,60.48,60.48-60.48,60.48Zm-66.24-66.24l-60.48-60.48,60.48-60.48,60.48,60.48-60.48,60.48Zm-66.25-66.24l-60.48-60.48,60.48-60.48,60.48,60.48-60.48,60.48Zm-66.25-66.24l-60.48-60.48,60.48-60.48,60.48,60.48-60.48,60.48Zm-66.24-66.24l-60.48-60.48,60.48-60.48,60.48,60.48-60.48,60.48Zm-66.25-66.24l-60.48-60.48,60.48-60.48,60.48,60.48-60.48,60.48Zm-66.24-66.24l-60.48-60.48,60.48-60.48,60.48,60.48-60.48,60.48Zm-66.24-66.24l-60.48-60.48,60.48-60.48,60.48,60.48-60.48,60.48Zm-66.24-66.24l-60.48-60.48,60.48-60.48,60.48,60.48-60.48,60.48Zm-66.24-66.24l-60.48-60.48,60.48-60.48,60.48,60.48-60.48,60.48Zm-66.24-66.24l-60.48-60.48,60.48-60.48,60.48,60.48-60.48,60.48Zm-5.77,5.77l-60.48,60.48-60.48-60.48,60.48-60.48,60.48,60.48Zm-66.24,66.24l-60.48,60.48-60.48-60.48,60.48-60.48,60.48,60.48Zm-66.24,66.24l-60.48,60.48-60.48-60.48,60.48-60.48,60.48,60.48Zm-66.24,66.24l-60.48,60.48-60.49-60.48,60.48-60.48,60.49,60.48Zm-66.24,66.24l-60.48,60.48-60.48-60.48,60.48-60.48,60.48,60.48Zm-66.24,66.24l-60.48,60.48-60.48-60.48,60.48-60.48,60.48,60.48Zm-66.24,66.24l-60.48,60.48-60.48-60.48,60.48-60.48,60.48,60.48Zm-66.24,66.24l-60.48,60.48-60.48-60.48,60.48-60.48,60.48,60.48Zm-66.24,66.24l-60.48,60.48-60.48-60.48,60.48-60.48,60.48,60.48Zm-66.24,66.24l-60.48,60.48-60.48-60.48,60.48-60.48,60.48,60.48Zm-66.24,66.24l-60.48,60.48-60.48-60.48,60.48-60.48,60.48,60.48Zm-66.24,66.24l-60.48,60.48-60.48-60.48,60.48-60.48,60.48,60.48Zm-66.24,66.24l-60.48,60.48-60.49-60.48,60.48-60.48,60.49,60.48Zm-66.24,66.24l-60.48,60.48-60.48-60.48,60.48-60.48,60.48,60.48Zm-66.24,66.24l-60.48,60.48-60.48-60.48,60.48-60.48,60.48,60.47Zm-66.24,66.24l-60.48,60.48-60.48-60.48,60.48-60.48,60.48,60.48Zm5.77,5.77l60.48,60.48-60.48,60.48-60.48-60.48,60.48-60.48Zm66.24,66.24l60.48,60.48-60.48,60.48-60.48-60.48,60.48-60.48Zm66.24,66.24l60.48,60.48-60.48,60.48-60.49-60.48,60.49-60.48Zm66.24,66.24l60.48,60.48-60.48,60.48-60.48-60.48,60.48-60.48Zm66.24,66.24l60.48,60.48-60.48,60.48-60.48-60.48,60.48-60.48Zm66.24,66.25l60.48,60.48-60.48,60.48-60.48-60.48,60.48-60.48Zm66.24,66.24l60.48,60.48-60.48,60.48-60.48-60.48,60.48-60.48Zm66.24,66.24l60.48,60.48-60.48,60.48-60.48-60.48,60.48-60.48Zm66.24,66.24l60.48,60.48-60.48,60.48-60.48-60.48,60.48-60.48Zm66.24,66.25l60.48,60.48-60.48,60.48-60.48-60.48,60.48-60.48Zm66.24,66.24l60.48,60.48-60.48,60.48-60.48-60.48,60.48-60.48Zm66.24,66.24l60.48,60.48-60.48,60.48-60.49-60.47,60.49-60.49Zm66.24,66.24l60.48,60.48-60.48,60.48-60.48-60.48,60.48-60.48Zm66.24,66.25l60.48,60.48-60.48,60.48-60.48-60.48,60.48-60.48Zm66.24,66.24l60.48,60.48-60.48,60.48-60.48-60.48,60.48-60.48Zm66.24,66.25l60.48,60.48-60.48,60.48-60.48-60.48,60.48-60.48Zm5.77-5.77l60.48-60.48,60.48,60.48-60.48,60.48-60.48-60.48Zm66.24-66.24l60.48-60.48,60.48,60.48-60.48,60.48-60.48-60.48Zm66.24-66.25l60.48-60.48,60.48,60.48-60.48,60.48-60.48-60.48Zm66.24-66.24l60.48-60.48,60.48,60.48-60.48,60.48-60.48-60.48Zm66.24-66.24l60.48-60.48,60.48,60.48-60.48,60.48-60.48-60.48Zm66.24-66.25l60.48-60.48,60.48,60.48-60.48,60.48-60.48-60.48Zm66.24-66.24l60.48-60.48,60.48,60.48-60.48,60.48-60.48-60.48Zm66.25-66.25l60.48-60.48,60.48,60.48-60.48,60.48-60.48-60.48Zm66.24-66.24l60.48-60.48,60.48,60.48-60.48,60.48-60.48-60.48Zm66.24-66.25l60.48-60.48,60.48,60.48-60.48,60.48-60.48-60.48Zm66.24-66.24l60.48-60.48,60.48,60.48-60.48,60.48-60.48-60.48Zm66.24-66.24l60.48-60.48,60.48,60.48-60.48,60.48-60.48-60.48Zm66.24-66.24l60.48-60.48,60.48,60.48-60.48,60.48-60.48-60.48Zm66.25-66.24l60.48-60.48,60.48,60.48-60.48,60.48-60.48-60.48Zm66.24-66.24l60.48-60.48,60.48,60.48-60.48,60.48-60.48-60.48Zm66.25-66.24l60.48-60.48,60.48,60.48-60.48,60.48-60.48-60.48Zm66.24-66.24l60.48-60.48,60.48,60.48-60.48,60.49-60.48-60.49Zm-5.77-5.77l-60.48-60.48,60.48-60.48,60.48,60.48-60.48,60.48Zm-66.24-66.24l-60.48-60.48,60.48-60.48,60.48,60.48-60.48,60.48Zm-66.24-66.24l-60.48-60.48,60.48-60.48,60.48,60.48-60.48,60.48Zm-66.24-66.24l-60.48-60.48,60.48-60.48,60.48,60.48-60.48,60.48Zm-66.25-66.24l-60.48-60.48,60.48-60.48,60.48,60.48-60.48,60.48Zm-66.24-66.24l-60.48-60.48,60.48-60.48,60.48,60.48-60.48,60.48Zm-66.25-66.24l-60.48-60.48,60.48-60.48,60.48,60.48-60.48,60.48Zm-66.24-66.24l-60.48-60.48,60.48-60.48,60.48,60.48-60.48,60.48Zm-66.25-66.24l-60.48-60.48,60.48-60.48,60.48,60.48-60.48,60.48Zm-66.25-66.24l-60.48-60.48,60.48-60.48,60.48,60.48-60.48,60.48Zm-66.24-66.24l-60.48-60.48,60.48-60.48,60.48,60.48-60.48,60.48Zm-66.25-66.24l-60.48-60.48,60.48-60.48,60.48,60.48-60.48,60.48Zm-66.24-66.24l-60.48-60.48,60.48-60.48,60.48,60.48-60.48,60.48Zm-66.24-66.24l-60.48-60.48,60.48-60.48,60.48,60.48-60.48,60.48Zm-66.24-66.24l-60.48-60.48,60.48-60.48,60.48,60.48-60.48,60.48Zm-66.24-66.24l-60.48-60.48,60.48-60.48,60.48,60.48-60.47,60.48Zm-66.24-66.24l-60.48-60.48,60.48-60.48,60.48,60.48-60.48,60.48Zm-5.77,5.76l-60.48,60.48-60.48-60.48,60.48-60.48,60.48,60.48Zm-66.24,66.24l-60.48,60.48-60.48-60.48,60.48-60.48,60.48,60.48Zm-66.24,66.24l-60.48,60.48-60.48-60.48,60.48-60.48,60.48,60.48Zm-66.24,66.24l-60.48,60.48-60.49-60.48,60.48-60.48,60.49,60.48Zm-66.24,66.24l-60.48,60.48-60.48-60.48,60.48-60.48,60.48,60.48Zm-66.24,66.24l-60.48,60.48-60.48-60.48,60.48-60.48,60.48,60.48Zm-66.24,66.24l-60.48,60.48-60.48-60.48,60.48-60.48,60.48,60.48Zm-66.24,66.24l-60.48,60.48-60.48-60.48,60.48-60.48,60.48,60.48Zm-66.24,66.24l-60.48,60.48-60.48-60.48,60.48-60.48,60.48,60.48Zm-66.24,66.24l-60.48,60.48-60.48-60.48,60.48-60.48,60.48,60.48Zm-66.24,66.24l-60.48,60.48-60.48-60.48,60.48-60.48,60.48,60.48Zm-66.24,66.24l-60.48,60.48-60.48-60.48,60.48-60.48,60.48,60.48Zm-66.24,66.24l-60.48,60.48-60.49-60.47,60.48-60.48,60.49,60.47Zm-66.24,66.24l-60.48,60.48-60.48-60.48,60.48-60.48,60.48,60.48Zm-66.24,66.24l-60.48,60.48-60.48-60.48,60.48-60.48,60.48,60.48Zm-66.24,66.24l-60.48,60.48-60.48-60.48,60.48-60.48,60.48,60.48Zm-66.24,66.24l-60.49,60.49-60.48-60.48,60.48-60.48,60.49,60.47Zm-66.24,66.24l-60.48,60.49-60.48-60.48,60.48-60.48,60.48,60.47Zm5.77,5.77l60.48,60.48-60.49,60.48-60.48-60.48,60.49-60.48Zm66.24,66.24l60.48,60.48-60.48,60.48-60.48-60.47,60.48-60.48Zm66.24,66.24l60.48,60.48-60.48,60.48-60.48-60.48,60.48-60.48Zm66.24,66.24l60.48,60.48-60.48,60.48-60.48-60.48,60.48-60.48Zm66.24,66.24l60.48,60.48-60.48,60.48-60.49-60.47,60.49-60.48Zm66.24,66.25l60.48,60.48-60.48,60.48-60.48-60.48,60.48-60.48Zm66.24,66.24l60.48,60.48-60.48,60.48-60.48-60.48,60.48-60.48Zm66.24,66.24l60.48,60.48-60.48,60.48-60.48-60.48,60.48-60.48Zm66.24,66.25l60.48,60.48-60.48,60.48-60.48-60.48,60.48-60.48Zm66.24,66.24l60.48,60.48-60.48,60.48-60.48-60.48,60.48-60.48Zm66.24,66.24l60.48,60.48-60.48,60.48-60.48-60.48,60.48-60.48Zm66.24,66.24l60.48,60.48-60.48,60.48-60.48-60.48,60.48-60.48Zm66.24,66.24l60.48,60.48-60.48,60.48-60.48-60.48,60.48-60.48Zm66.24,66.25l60.48,60.48-60.48,60.48-60.48-60.48,60.48-60.48Zm66.24,66.24l60.48,60.48-60.48,60.48-60.48-60.48,60.48-60.48Zm66.24,66.25l60.48,60.48-60.48,60.48-60.48-60.48,60.48-60.48Zm66.24,66.24l60.48,60.48-60.48,60.48-60.48-60.48,60.48-60.48Zm66.24,66.24l60.48,60.48-60.48,60.48-60.48-60.48,60.48-60.48Zm5.77-5.77l60.48-60.48,60.48,60.48-60.48,60.48-60.48-60.48Zm66.24-66.25l60.48-60.48,60.48,60.48-60.48,60.48-60.48-60.48Zm66.24-66.24l60.48-60.48,60.48,60.48-60.48,60.48-60.48-60.48Zm66.24-66.24l60.48-60.48,60.48,60.48-60.48,60.48-60.48-60.48Zm66.24-66.25l60.48-60.48,60.48,60.48-60.48,60.48-60.48-60.48Zm66.24-66.24l60.48-60.48,60.48,60.48-60.48,60.48-60.48-60.48Zm66.24-66.24l60.48-60.48,60.48,60.48-60.48,60.48-60.48-60.48Zm66.25-66.25l60.48-60.48,60.48,60.48-60.48,60.48-60.48-60.48Zm66.24-66.24l60.48-60.48,60.48,60.48-60.48,60.48-60.48-60.48Zm66.24-66.25l60.48-60.48,60.48,60.48-60.48,60.48-60.48-60.48Zm66.24-66.24l60.48-60.48,60.48,60.48-60.48,60.48-60.48-60.48Zm66.24-66.25l60.48-60.48,60.48,60.48-60.48,60.48-60.48-60.48Zm66.24-66.24l60.48-60.48,60.48,60.48-60.48,60.48-60.48-60.48Zm66.25-66.24l60.48-60.48,60.48,60.48-60.48,60.48-60.48-60.48Zm66.24-66.24l60.48-60.48,60.48,60.48-60.48,60.48-60.48-60.48Zm66.25-66.24l60.48-60.48,60.48,60.48-60.48,60.48-60.48-60.48Zm66.24-66.24l60.48-60.48,60.48,60.48-60.48,60.48-60.48-60.48Zm66.25-66.24l60.48-60.48,60.48,60.48-60.48,60.48-60.48-60.48Zm66.24-66.24l60.48-60.48,60.48,60.48-60.48,60.48-60.48-60.48Zm-5.77-5.77l-60.48-60.48,60.48-60.48,60.48,60.48-60.48,60.48Zm-66.25-66.24l-60.48-60.48,60.48-60.48,60.48,60.48-60.48,60.48Zm-66.25-66.24l-60.48-60.48,60.48-60.48,60.48,60.48-60.48,60.48Zm-66.24-66.24l-60.48-60.48,60.48-60.48,60.48,60.48-60.48,60.48Zm-66.24-66.24l-60.48-60.48,60.48-60.48,60.48,60.48-60.48,60.48Zm-66.24-66.24l-60.48-60.48,60.48-60.48,60.48,60.48-60.48,60.48Zm-66.25-66.24l-60.48-60.48,60.48-60.48,60.48,60.48-60.48,60.48Zm-66.24-66.24l-60.48-60.48,60.48-60.48,60.48,60.48-60.48,60.48Zm-66.25-66.24l-60.48-60.48,60.48-60.48,60.48,60.48-60.48,60.48Zm-66.24-66.24l-60.48-60.48,60.48-60.48,60.48,60.48-60.48,60.48Zm-66.25-66.24l-60.48-60.48,60.48-60.48,60.48,60.48-60.48,60.48Zm-66.25-66.24l-60.48-60.48,60.48-60.48,60.48,60.48-60.48,60.48Zm-66.24-66.24l-60.48-60.48,60.48-60.48,60.48,60.48-60.48,60.48Zm-66.25-66.24l-60.48-60.48,60.48-60.48,60.48,60.48-60.48,60.48Zm-66.24-66.24l-60.48-60.48,60.48-60.48,60.48,60.48-60.48,60.48Zm-66.24-66.24l-60.48-60.48,60.48-60.48,60.48,60.48-60.47,60.48Zm-66.24-66.24l-60.48-60.48,60.48-60.48,60.48,60.48-60.48,60.48Zm-66.24-66.24l-60.48-60.48,60.48-60.48,60.48,60.48-60.48,60.48Zm-66.24-66.24l-60.48-60.48,60.48-60.48,60.48,60.48-60.48,60.48Zm-5.77,5.77l-60.48,60.48-60.48-60.48,60.48-60.48,60.48,60.48Zm-66.24,66.24l-60.48,60.48-60.48-60.48,60.48-60.48,60.48,60.48Zm-66.25,66.24l-60.48,60.48-60.48-60.48,60.48-60.48,60.48,60.48Zm-66.24,66.24l-60.48,60.48-60.48-60.48,60.48-60.48,60.48,60.48Zm-66.24,66.24l-60.48,60.48-60.48-60.48,60.48-60.48,60.48,60.48Zm-66.24,66.24l-60.48,60.48-60.48-60.48,60.48-60.48,60.48,60.48Zm-66.24,66.24l-60.48,60.48-60.48-60.48,60.48-60.48,60.48,60.48Zm-66.24,66.24l-60.48,60.48-60.48-60.48,60.48-60.48,60.48,60.48Zm-66.24,66.24l-60.48,60.48-60.48-60.48,60.48-60.48,60.48,60.48Zm-66.24,66.24l-60.48,60.48-60.48-60.48,60.48-60.48,60.48,60.48Zm-66.24,66.24l-60.48,60.48-60.48-60.48,60.48-60.48,60.48,60.48Zm-66.24,66.25l-60.48,60.48-60.48-60.48,60.48-60.48,60.48,60.48Zm-66.24,66.24l-60.48,60.48-60.48-60.47,60.48-60.48,60.48,60.47Zm-66.24,66.24l-60.48,60.48-60.48-60.48,60.48-60.48,60.48,60.48Zm-66.24,66.24l-60.48,60.48-60.48-60.48,60.48-60.48,60.48,60.48Zm-66.24,66.24l-60.48,60.48-60.48-60.48,60.48-60.48,60.48,60.48Zm-66.24,66.24l-60.48,60.48-60.48-60.48,60.48-60.48,60.48,60.47Zm-66.24,66.24l-60.48,60.48-60.48-60.48,60.48-60.48,60.48,60.48Zm-66.24,66.24l-60.48,60.49-60.48-60.48,60.48-60.48,60.48,60.47Zm-66.24,66.24l-60.48,60.48-60.48-60.48,60.48-60.48,60.48,60.48Zm5.77,5.77l60.48,60.48-60.48,60.48-60.48-60.48,60.48-60.48Zm66.24,66.24l60.48,60.48-60.48,60.48-60.48-60.48,60.48-60.48Zm66.24,66.24l60.48,60.48-60.49,60.48-60.48-60.48,60.49-60.48Zm66.24,66.24l60.48,60.48-60.48,60.48-60.48-60.47,60.48-60.48Zm66.24,66.24l60.48,60.48-60.48,60.48-60.48-60.48,60.48-60.48Zm66.24,66.25l60.48,60.48-60.48,60.48-60.48-60.48,60.48-60.48Zm66.24,66.24l60.48,60.48-60.48,60.48-60.48-60.47,60.48-60.48Zm66.24,66.24l60.48,60.48-60.48,60.49-60.48-60.48,60.48-60.49Zm66.24,66.24l60.48,60.48-60.48,60.48-60.48-60.48,60.48-60.48Zm66.24,66.25l60.48,60.48-60.48,60.48-60.48-60.48,60.48-60.48Zm66.24,66.24l60.48,60.48-60.48,60.48-60.48-60.48,60.48-60.48Zm66.24,66.24l60.48,60.48-60.48,60.48-60.48-60.48,60.48-60.48Zm66.24,66.24l60.48,60.48-60.48,60.48-60.48-60.48,60.48-60.48Zm66.24,66.25l60.48,60.48-60.48,60.48-60.48-60.48,60.48-60.48Zm66.24,66.25l60.48,60.48-60.48,60.48-60.48-60.48,60.48-60.48Zm66.24,66.25l60.48,60.48-60.48,60.48-60.48-60.48,60.48-60.48Zm66.24,66.24l60.48,60.48-60.48,60.48-60.48-60.48,60.48-60.48Zm66.24,66.24l60.48,60.48-60.48,60.48-60.48-60.48,60.48-60.48Zm66.24,66.25l60.48,60.48-60.48,60.48-60.48-60.48,60.48-60.48Zm66.24,66.24l60.48,60.48-60.48,60.48-60.48-60.48,60.48-60.48Zm5.77-5.77l60.48-60.48,60.48,60.48-60.48,60.48-60.48-60.48Zm66.24-66.24l60.48-60.48,60.48,60.48-60.48,60.48-60.48-60.48Zm66.24-66.25l60.48-60.48,60.48,60.48-60.48,60.49-60.48-60.49Zm66.24-66.25l60.48-60.48,60.48,60.48-60.48,60.48-60.48-60.48Zm66.24-66.24l60.48-60.48,60.48,60.48-60.48,60.48-60.48-60.48Zm66.24-66.24l60.48-60.48,60.48,60.48-60.48,60.48-60.48-60.48Zm66.24-66.25l60.48-60.48,60.48,60.48-60.48,60.48-60.48-60.48Zm66.25-66.24l60.48-60.48,60.48,60.49-60.48,60.48-60.48-60.49Zm66.24-66.24l60.48-60.48,60.48,60.48-60.48,60.48-60.48-60.48Zm66.24-66.25l60.48-60.48,60.48,60.48-60.48,60.48-60.48-60.48Zm66.24-66.24l60.48-60.48,60.48,60.48-60.48,60.48-60.48-60.48Zm66.24-66.25l60.48-60.48,60.48,60.48-60.47,60.49-60.48-60.49Zm66.24-66.24l60.48-60.48,60.48,60.48-60.48,60.48-60.48-60.48Zm66.25-66.25l60.48-60.48,60.48,60.48-60.48,60.48-60.48-60.48Zm66.24-66.24l60.48-60.48,60.48,60.48-60.48,60.48-60.48-60.48Zm66.25-66.24l60.48-60.48,60.48,60.48-60.48,60.48-60.48-60.48Zm66.24-66.24l60.48-60.48,60.48,60.48-60.48,60.48-60.48-60.48Zm66.25-66.24l60.48-60.48,60.48,60.48-60.48,60.48-60.48-60.48Zm66.24-66.24l60.48-60.48,60.48,60.48-60.48,60.48-60.48-60.48Zm66.24-66.24l60.48-60.48,60.48,60.48-60.48,60.48-60.48-60.48Zm66.25-66.24l60.48-60.47,60.48,60.48-60.48,60.48-60.48-60.49Zm-5.77-5.77l-60.48-60.48,60.48-60.48,60.48,60.48-60.48,60.48Zm-66.25-66.24l-60.48-60.48,60.48-60.48,60.48,60.48-60.48,60.48Zm-66.25-66.24l-60.48-60.48,60.48-60.48,60.48,60.48-60.48,60.48Zm-66.24-66.24l-60.48-60.48,60.48-60.48,60.48,60.48-60.48,60.48Zm-66.25-66.24l-60.48-60.48,60.48-60.48,60.48,60.48-60.48,60.48Zm-66.24-66.24l-60.48-60.48,60.48-60.48,60.48,60.48-60.48,60.48Zm-66.24-66.24l-60.48-60.48,60.48-60.48,60.48,60.48-60.48,60.48Zm-66.24-66.24l-60.48-60.48,60.48-60.48,60.48,60.48-60.48,60.48Zm-66.25-66.24l-60.48-60.48,60.48-60.48,60.48,60.48-60.48,60.48Zm-66.24-66.24l-60.48-60.48,60.48-60.48,60.48,60.48-60.48,60.48Zm-66.25-66.24l-60.48-60.48,60.48-60.48,60.48,60.48-60.48,60.48Zm-66.24-66.24l-60.48-60.48,60.48-60.48,60.48,60.48-60.48,60.48Zm-66.25-66.24l-60.48-60.48,60.48-60.48,60.48,60.48-60.48,60.48Zm-66.25-66.24l-60.48-60.48,60.48-60.48,60.48,60.48-60.48,60.48Zm-66.25-66.24l-60.48-60.48,60.48-60.48,60.48,60.48-60.48,60.48Zm-66.24-66.24l-60.48-60.48,60.48-60.48,60.48,60.48-60.48,60.48Zm-66.24-66.24l-60.48-60.48,60.48-60.48,60.48,60.48-60.48,60.48Zm-66.24-66.24l-60.48-60.48,60.48-60.48,60.48,60.48-60.48,60.48Zm-66.24-66.24l-60.48-60.48,60.48-60.48,60.48,60.48-60.48,60.48Zm-66.25-66.25l-60.48-60.48,60.48-60.48,60.48,60.48-60.48,60.48Zm-66.24-66.24l-60.48-60.48,60.48-60.48,60.48,60.48-60.48,60.48Zm-5.77,5.77l-60.48,60.48-60.48-60.48,60.48-60.48,60.48,60.48Zm-66.24,66.24l-60.48,60.48-60.48-60.48,60.48-60.48,60.48,60.48Zm-66.24,66.24l-60.48,60.48-60.48-60.48,60.48-60.48,60.48,60.48Zm-66.24,66.24l-60.48,60.48-60.48-60.47,60.48-60.48,60.48,60.47Zm-66.24,66.25l-60.48,60.48-60.48-60.48,60.48-60.48,60.48,60.48Zm-66.24,66.24l-60.48,60.48-60.48-60.48,60.48-60.48,60.48,60.48Zm-66.24,66.24l-60.48,60.48-60.48-60.48,60.48-60.48,60.48,60.48Zm-66.24,66.24l-60.48,60.48-60.48-60.48,60.48-60.48,60.48,60.48Zm-66.24,66.24l-60.48,60.48-60.48-60.48,60.48-60.48,60.48,60.48Zm-66.24,66.24l-60.48,60.48-60.48-60.48,60.48-60.48,60.48,60.48Zm-66.24,66.24l-60.48,60.48-60.48-60.48,60.48-60.48,60.48,60.48Zm-66.24,66.24l-60.48,60.48-60.48-60.48,60.48-60.48,60.48,60.48Zm-66.24,66.24l-60.48,60.48-60.48-60.47,60.48-60.48,60.48,60.47Zm-66.24,66.25l-60.48,60.48-60.48-60.48,60.48-60.48,60.48,60.48Zm-66.24,66.24l-60.48,60.48-60.48-60.48,60.48-60.48,60.48,60.48Zm-66.24,66.24l-60.48,60.48-60.48-60.48,60.48-60.48,60.48,60.48Zm-66.24,66.24l-60.48,60.48-60.48-60.48,60.48-60.48,60.48,60.47Zm-66.24,66.24l-60.48,60.48-60.48-60.48,60.48-60.48,60.48,60.48Zm-66.24,66.24l-60.48,60.48-60.48-60.48,60.48-60.48,60.48,60.48Zm-66.24,66.24l-60.48,60.48-60.48-60.48,60.48-60.48,60.48,60.48Zm-66.25,66.25l-60.47,60.48-60.48-60.48,60.48-60.48,60.47,60.47Zm-66.24,66.24l-60.48,60.48-60.48-60.48,60.48-60.48,60.48,60.48Zm5.77,5.77l60.48,60.48-60.48,60.48-60.48-60.48,60.48-60.48Zm66.24,66.24l60.48,60.48-60.48,60.48-60.48-60.48,60.48-60.48Zm66.24,66.24l60.48,60.48-60.48,60.48-60.48-60.48,60.48-60.48Zm66.24,66.24l60.48,60.48-60.48,60.48-60.48-60.48,60.48-60.48Zm66.24,66.24l60.48,60.48-60.48,60.48-60.48-60.48,60.48-60.48Zm66.24,66.25l60.48,60.48-60.48,60.48-60.48-60.48,60.48-60.48Zm66.24,66.24l60.48,60.48-60.48,60.48-60.48-60.48,60.48-60.48Zm66.24,66.24l60.48,60.48-60.47,60.48-60.48-60.48,60.47-60.48Zm66.24,66.24l60.48,60.48-60.48,60.48-60.48-60.48,60.48-60.48Zm66.24,66.25l60.48,60.48-60.48,60.48-60.48-60.48,60.48-60.48Zm66.24,66.24l60.48,60.48-60.48,60.48-60.48-60.48,60.48-60.48Zm66.24,66.24l60.48,60.48-60.48,60.48-60.47-60.47,60.47-60.48Zm66.24,66.24l60.48,60.48-60.48,60.48-60.48-60.48,60.48-60.48Zm66.24,66.25l60.48,60.48-60.48,60.48-60.48-60.48,60.48-60.48Zm66.24,66.25l60.48,60.48-60.48,60.48-60.48-60.48,60.48-60.48Zm66.24,66.25l60.48,60.48-60.48,60.48-60.48-60.48,60.48-60.48Zm66.24,66.24l60.48,60.48-60.48,60.48-60.48-60.48,60.48-60.48Zm66.24,66.24l60.48,60.48-60.48,60.48-60.48-60.48,60.48-60.48Zm66.24,66.25l60.48,60.48-60.48,60.48-60.48-60.48,60.48-60.48Zm66.24,66.24l60.48,60.48-60.48,60.48-60.48-60.48,60.48-60.48Zm66.24,66.25l60.49,60.48-60.48,60.48-60.48-60.48,60.47-60.48Zm66.24,66.24l60.48,60.48-60.48,60.48-60.48-60.48,60.48-60.48Zm5.77-5.77l60.48-60.48,60.49,60.48-60.48,60.48-60.49-60.48Zm66.24-66.24l60.48-60.48,60.48,60.48-60.48,60.48-60.48-60.48Zm66.24-66.25l60.48-60.48,60.48,60.48-60.48,60.48-60.48-60.48Zm66.24-66.25l60.48-60.48,60.48,60.48-60.48,60.48-60.48-60.48Zm66.24-66.24l60.48-60.48,60.48,60.48-60.48,60.48-60.48-60.48Zm66.25-66.25l60.48-60.48,60.48,60.48-60.48,60.48-60.48-60.48Zm66.24-66.24l60.48-60.48,60.48,60.48-60.48,60.48-60.48-60.48Zm66.25-66.24l60.48-60.48,60.48,60.48-60.48,60.48-60.48-60.48Zm66.24-66.25l60.48-60.48,60.48,60.48-60.48,60.48-60.48-60.48Zm66.24-66.24l60.48-60.48,60.48,60.48-60.48,60.48-60.48-60.48Zm66.24-66.24l60.48-60.48,60.48,60.48-60.48,60.48-60.48-60.48Zm66.24-66.25l60.48-60.48,60.48,60.48-60.48,60.48-60.48-60.48Zm66.24-66.24l60.48-60.48,60.48,60.48-60.48,60.48-60.48-60.48Zm66.25-66.25l60.48-60.48,60.48,60.48-60.48,60.48-60.48-60.48Zm66.24-66.24l60.48-60.48,60.48,60.48-60.48,60.48-60.48-60.48Zm66.25-66.25l60.48-60.48,60.48,60.48-60.48,60.48-60.48-60.48Zm66.24-66.24l60.48-60.48,60.48,60.48-60.48,60.48-60.48-60.48Zm66.25-66.24l60.48-60.48,60.48,60.48-60.48,60.48-60.48-60.48Zm66.24-66.24l60.48-60.48,60.48,60.48-60.48,60.48-60.48-60.48Zm66.24-66.24l60.48-60.48,60.48,60.48-60.48,60.48-60.48-60.48Zm66.25-66.24l60.49-60.48,60.48,60.48-60.48,60.48-60.49-60.48Zm66.24-66.24l60.48-60.48,60.48,60.48-60.48,60.48-60.48-60.48Zm120.96-132.49l-60.48,60.48-60.48-60.48,60.48-60.48,60.48,60.48Zm-66.25-66.24l-60.46,60.48-60.48-60.48,60.48-60.48,60.46,60.48Zm-66.25-66.24l-60.48,60.48-60.48-60.48,60.48-60.48,60.48,60.48Zm-66.24-66.24l-60.48,60.48-60.48-60.48,60.48-60.48,60.48,60.48Zm-66.24-66.24l-60.48,60.48-60.48-60.48,60.48-60.48,60.48,60.48Zm-66.24-66.24l-60.48,60.48-60.48-60.48,60.48-60.48,60.48,60.48Zm-66.25-66.24l-60.48,60.48-60.46-60.48,60.48-60.48,60.46,60.48Zm-66.24-66.24l-60.48,60.48-60.48-60.48,60.48-60.48,60.48,60.48Zm-66.25-66.24l-60.48,60.48-60.48-60.48,60.48-60.48,60.48,60.48Zm-66.24-66.24l-60.48,60.48-60.48-60.48,60.48-60.48,60.48,60.48Zm-66.25-66.24l-60.46,60.48-60.48-60.48,60.48-60.48,60.46,60.48Zm-66.24-66.24l-60.48,60.48-60.48-60.48,60.48-60.48,60.48,60.48Zm-66.24-66.24l-60.48,60.48-60.48-60.48,60.48-60.48,60.48,60.48Zm-66.24-66.24l-60.48,60.48-60.48-60.48,60.48-60.48,60.48,60.48Zm-66.23-66.25l-60.48,60.48-60.48-60.48,60.48-60.48,60.48,60.48Zm-66.25-66.25l-60.48,60.48-60.48-60.48,60.48-60.48,60.48,60.48Zm-66.25-66.24l-60.48,60.48-60.48-60.48,60.48-60.48,60.48,60.48Zm-66.24-66.24l-60.48,60.48-60.48-60.48,60.48-60.48,60.48,60.48Zm-66.25-66.24l-60.48,60.48-60.48-60.48,60.48-60.48,60.48,60.48Zm-66.24-66.24l-60.47,60.48-60.48-60.48,60.48-60.48,60.47,60.48Zm-66.24-66.24l-60.48,60.48-60.48-60.48,60.48-60.48,60.48,60.48Zm-66.24-66.24l-60.48,60.48-60.48-60.48,60.48-60.48,60.48,60.48Zm-126.72-126.72l60.48,60.48-60.48,60.48-60.48-60.48,60.48-60.48Zm-66.24,66.24l60.48,60.48-60.48,60.48-60.48-60.48,60.48-60.48Zm-66.24,66.24l60.48,60.48-60.48,60.48-60.48-60.48,60.48-60.48Zm-66.24,66.24l60.48,60.48-60.48,60.48-60.48-60.48,60.48-60.48Zm-66.24,66.24l60.48,60.48-60.48,60.48-60.48-60.48,60.48-60.48Zm-66.24,66.24l60.48,60.48-60.48,60.48-60.48-60.48,60.48-60.48Zm-66.24,66.24l60.48,60.48-60.48,60.48-60.48-60.48,60.48-60.48Zm-66.24,66.24l60.48,60.48-60.48,60.48-60.48-60.48,60.48-60.48Zm-66.24,66.24l60.48,60.48-60.48,60.48-60.48-60.48,60.48-60.48Zm-66.24,66.24l60.48,60.48-60.48,60.48-60.48-60.48,60.48-60.48Zm-66.24,66.24l60.48,60.48-60.48,60.48-60.48-60.48,60.48-60.48Zm-66.25,66.25l60.48,60.48-60.48,60.48-60.48-60.48,60.48-60.48Zm-66.24,66.24l60.48,60.48-60.48,60.48-60.48-60.48,60.48-60.48Zm-66.24,66.24l60.48,60.48-60.48,60.48-60.48-60.48,60.48-60.48Zm-66.24,66.24l60.48,60.48-60.48,60.48-60.48-60.48,60.48-60.48Zm-66.24,66.24l60.48,60.48-60.48,60.48-60.48-60.48,60.48-60.48Zm-66.24,66.24l60.48,60.48-60.48,60.48-60.48-60.48,60.48-60.48Zm-66.25,66.25l60.48,60.48-60.48,60.48-60.48-60.48,60.48-60.48Zm-66.24,66.24l60.48,60.48-60.48,60.48-60.48-60.48,60.48-60.48Zm-66.24,66.24l60.48,60.48-60.48,60.48-60.48-60.48,60.48-60.48Zm-66.24,66.24l60.48,60.48-60.48,60.48-60.48-60.48,60.48-60.48Zm-66.24,66.24l60.48,60.48-60.48,60.48-60.48-60.48,60.48-60.48Zm-66.24,66.24l60.48,60.48-60.48,60.48-60.48-60.47,60.48-60.48Zm-66.24,66.24l60.48,60.48-60.48,60.49-60.48-60.48,60.48-60.49Zm-126.72,126.73l60.48-60.48,60.48,60.48-60.48,60.48-60.48-60.48Zm66.24,66.24l60.48-60.48,60.48,60.48-60.48,60.48-60.48-60.48Zm66.24,66.24l60.48-60.48,60.48,60.48-60.48,60.48-60.48-60.48Zm66.24,66.24l60.48-60.48,60.48,60.48-60.48,60.48-60.48-60.48Zm66.24,66.24l60.48-60.48,60.48,60.48-60.48,60.48-60.48-60.48Zm66.24,66.24l60.48-60.48,60.48,60.48-60.48,60.48-60.48-60.48Zm66.24,66.24l60.48-60.48,60.48,60.48-60.48,60.48-60.48-60.48Zm66.24,66.25l60.48-60.48,60.48,60.48-60.48,60.48-60.48-60.48Zm66.24,66.24l60.48-60.48,60.48,60.48-60.47,60.48-60.48-60.48Zm66.24,66.25l60.48-60.48,60.48,60.48-60.48,60.48-60.48-60.48Zm66.24,66.24l60.48-60.48,60.48,60.48-60.48,60.48-60.48-60.48Zm66.24,66.25l60.48-60.48,60.48,60.48-60.48,60.48-60.48-60.48Zm66.24,66.24l60.48-60.48,60.48,60.48-60.48,60.48-60.48-60.48Zm66.24,66.24l60.48-60.48,60.48,60.48-60.48,60.48-60.48-60.48Zm66.24,66.25l60.48-60.48,60.48,60.48-60.48,60.48-60.48-60.48Zm66.24,66.24l60.48-60.48,60.48,60.48-60.48,60.48-60.48-60.48Zm66.24,66.24l60.48-60.48,60.48,60.48-60.48,60.48-60.48-60.48Zm66.24,66.25l60.48-60.48,60.48,60.48-60.47,60.48-60.49-60.48Zm66.24,66.24l60.48-60.48,60.48,60.48-60.48,60.48-60.48-60.48Zm66.24,66.25l60.48-60.48,60.48,60.48-60.48,60.48-60.48-60.48Zm66.24,66.25l60.48-60.48,60.48,60.48-60.48,60.48-60.48-60.48Zm66.25,66.25l60.48-60.48,60.48,60.48-60.48,60.48-60.48-60.48Zm66.24,66.25l60.48-60.48,60.48,60.48-60.48,60.48-60.48-60.48Zm66.24,66.24l60.48-60.48,60.48,60.48-60.48,60.48-60.48-60.48Zm126.72,126.72l-60.48-60.48,60.48-60.48,60.48,60.48-60.48,60.48Zm66.24-66.24l-60.48-60.48,60.48-60.48,60.48,60.48-60.48,60.48Zm66.24-66.25l-60.48-60.48,60.48-60.48,60.48,60.48-60.48,60.48Zm66.24-66.24l-60.48-60.48,60.48-60.48,60.48,60.48-60.48,60.48Zm66.24-66.25l-60.48-60.48,60.48-60.48,60.48,60.48-60.48,60.48Zm66.25-66.24l-60.48-60.48,60.48-60.48,60.48,60.48-60.48,60.48Zm66.25-66.24l-60.48-60.48,60.48-60.48,60.48,60.48-60.48,60.48Zm66.24-66.25l-60.48-60.48,60.48-60.48,60.48,60.48-60.48,60.48Zm66.25-66.24l-60.48-60.48,60.48-60.48,60.48,60.48-60.48,60.48Zm66.25-66.24l-60.48-60.48,60.48-60.48,60.48,60.48-60.48,60.48Zm66.24-66.25l-60.48-60.48,60.48-60.48,60.48,60.48-60.48,60.48Zm66.25-66.25l-60.48-60.48,60.48-60.48,60.48,60.48-60.48,60.48Zm66.24-66.25l-60.48-60.48,60.48-60.48,60.48,60.48-60.48,60.48Zm66.25-66.24l-60.48-60.48,60.48-60.48,60.48,60.48-60.48,60.48Zm66.24-66.24l-60.48-60.48,60.48-60.48,60.48,60.48-60.48,60.48Zm66.24-66.24l-60.48-60.48,60.48-60.48,60.48,60.48-60.48,60.48Zm66.24-66.25l-60.48-60.48,60.48-60.48,60.48,60.48-60.48,60.48Zm66.25-66.24l-60.48-60.48,60.48-60.48,60.48,60.48-60.48,60.48Zm66.25-66.25l-60.48-60.48,60.48-60.48,60.48,60.48-60.48,60.48Zm66.24-66.24l-60.48-60.48,60.48-60.48,60.48,60.48-60.48,60.48Zm66.25-66.25l-60.48-60.48,60.48-60.48,60.48,60.48-60.48,60.48Zm66.25-66.25l-60.48-60.48,60.48-60.48,60.48,60.48-60.48,60.48Zm66.25-66.24l-60.48-60.48,60.48-60.48,60.48,60.48-60.48,60.48Zm66.24-66.24l-60.48-60.48,60.48-60.48,60.48,60.48-60.48,60.48Zm66.24-66.24l-60.48-60.48,60.48-60.48,60.48,60.48-60.48,60.48Z"/>
                    </g>
                  </g>
                </g>
              </g>
            </g>
          </g>
        </g>
      </g>
    </g>
  </g>
</svg>