<?xml version="1.0" encoding="UTF-8"?>
<svg id="Capa_2" data-name="Capa 2" xmlns="http://www.w3.org/2000/svg" xmlns:xlink="http://www.w3.org/1999/xlink" viewBox="0 0 201.66 228.21">
  <defs>
    <style>
      .cls-1 {
        clip-path: url(#clippath);
      }

      .cls-2, .cls-3, .cls-4, .cls-5, .cls-6, .cls-7, .cls-8 {
        stroke-width: 0px;
      }

      .cls-2, .cls-9, .cls-10 {
        fill: none;
      }

      .cls-3 {
        fill: #1d1d1b;
      }

      .cls-4 {
        fill: #db3614;
      }

      .cls-5 {
        fill: #ffe800;
      }

      .cls-6 {
        fill: #ec6c05;
      }

      .cls-7 {
        fill: #eb691d;
      }

      .cls-8 {
        fill: #009069;
      }

      .cls-9 {
        stroke: #f8ae15;
      }

      .cls-9, .cls-10 {
        stroke-miterlimit: 10;
        stroke-width: .5px;
      }

      .cls-10 {
        stroke: #009069;
      }
    </style>
    <clipPath id="clippath">
      <rect class="cls-2" width="201.66" height="228.21"/>
    </clipPath>
  </defs>
  <g id="Capa_1-2" data-name="Capa 1">
    <g id="Grupo_244" data-name="Grupo 244">
      <g class="cls-1">
        <g id="Grupo_242-2" data-name="Grupo 242-2">
          <path id="Trazado_1740-2" data-name="Trazado 1740-2" class="cls-8" d="m67.9,193.83c1.75,11.53,4.67,27.72,4.12,27.83s-5.67-14.73-9.27-25.82c-2.06-6.07-2.54-12.57-1.38-18.87,0,0,4.78,5.33,6.54,16.86"/>
          <path id="Trazado_1741-2" data-name="Trazado 1741-2" class="cls-8" d="m60.26,167.36c.16-.05.35-.11.56-.15s.43-.08.68-.12.52-.08.81-.09.59-.02.92-.02c1.59.04,3.17.37,4.65.95,1.95.78,3.75,1.9,5.32,3.3,1.76,1.53,3.55,3.28,5.28,4.99l4.96,4.89c3.02,3,5.22,5.25,5.03,5.47s-2.83-1.25-6.36-3.38c-1.76-1.06-3.75-2.29-5.76-3.56s-4.01-2.54-5.86-3.59c-1.57-.9-3.07-1.9-4.51-2.99-1.28-.96-2.39-1.88-3.37-2.66l-2.4-1.91c-.6-.46-.94-.76-.94-.76.32-.15.65-.27.98-.37"/>
          <path id="Trazado_1742-2" data-name="Trazado 1742-2" class="cls-8" d="m48.94,179.73l.41-.83c.29-.55.61-1.06.93-1.53.55-.82,1.19-1.58,1.9-2.27.58-.56,1.19-1.09,1.82-1.58.57-.45,1.1-.82,1.6-1.19s.96-.7,1.38-1.04c.71-.55,1.37-1.16,1.96-1.83.22-.26.4-.48.51-.64l.18-.24s.05.07.13.22c.04.07.09.17.14.29s.1.25.15.41c.13.4.21.81.25,1.23.04.57.02,1.15-.07,1.71-.27,1.52-.88,2.95-1.78,4.2-.51.72-1.07,1.39-1.68,2.02-.62.64-1.28,1.24-1.96,1.83-.34.3-.66.6-.97.92l-.23.24-.21.25c-.14.17-.3.34-.43.52-.57.76-1.06,1.59-1.47,2.45-.42.91-.76,1.84-1.03,2.8-.28.96-.48,1.92-.66,2.84-.33,1.84-.52,3.49-.69,4.67s-.3,1.89-.45,1.89-.37-.67-.62-1.8c-.34-1.54-.57-3.09-.71-4.66-.09-1.03-.13-2.06-.1-3.09,0-.55.05-1.11.09-1.68.03-.29.07-.57.1-.86s.08-.58.14-.88l.08-.44.04-.22.05-.22.22-.89c.09-.29.18-.58.28-.88s.21-.58.32-.87l.18-.43.09-.21.1-.21Z"/>
          <path id="Trazado_1743-2" data-name="Trazado 1743-2" class="cls-8" d="m50.76,163.08c.82-1.02,1.76-1.92,2.82-2.69.46-.33.89-.6,1.28-.83s.75-.4,1.05-.54c.31-.15.63-.28.96-.39.04.29.05.59.05.88,0,.78-.07,1.56-.21,2.34-.04.24-.09.5-.15.76s-.12.54-.2.82-.17.57-.27.87-.21.61-.33.92c-.58,1.44-1.32,2.81-2.21,4.08-2.1,3.11-4,6.35-5.68,9.71-1.57,3.05-2.6,5.4-2.88,5.31-.26-.08-.12-2.56.49-5.92.7-3.77,1.68-7.47,2.94-11.09.28-.8.63-1.58,1.04-2.32.38-.67.81-1.31,1.29-1.92"/>
          <path id="Trazado_1744-2" data-name="Trazado 1744-2" class="cls-8" d="m59.27,157.7c3.26.52,6.39,1.68,9.22,3.39,3.7,2.18,8.32,4.56,12.03,6.37,3.71,1.82,6.5,3.1,6.4,3.38s-3.03-.12-6.98-.97-8.93-2.17-13.12-3.51c-3.29-1.05-6.27-2.89-8.68-5.37-.45-.47-.85-.92-1.18-1.32s-.6-.78-.81-1.08c-.23-.32-.44-.65-.63-.99.33-.04.67-.07,1-.07.92,0,1.83.06,2.74.19"/>
          <path id="Trazado_1745-2" data-name="Trazado 1745-2" class="cls-8" d="m55.53,143.06c1.21,2.17,1.32,4.71,1.37,7.14.03,2.62.27,5.23.73,7.81.95,5.15,2.63,10.12,3.89,15.19.69,2.79,1.5,5.87,1.29,8.77-.06.82-1.17.71-1.34.01-.61-2.47-.9-5.04-1.5-7.52-.61-2.52-1.34-5-2.04-7.5-1.4-4.93-2.69-9.93-2.84-15.09-.08-2.77,0-5.56-1.19-8.13-.49-1.06,1.09-1.65,1.63-.68"/>
          <path id="Trazado_1746-2" data-name="Trazado 1746-2" class="cls-10" d="m55.09,82.15c-.82-1.79-1.36-3.7-1.6-5.65-.3-2.51-.22-5.06.24-7.55,1.93-10.97,3.98-26.52,4.83-26.45.87.07,2.57,15.05,3.51,26.17.19,2.35.07,4.73-.37,7.05-.35,1.82-.85,3.61-1.47,5.36-.54,1.53-1.07,2.82-1.45,3.75-.2.46-.35.83-.47,1.08s-.18.39-.18.39c-.35-.29-.68-.61-.98-.96-.83-.97-1.52-2.04-2.05-3.2Z"/>
          <path id="Trazado_1747-2" data-name="Trazado 1747-2" class="cls-10" d="m47.49,87.62c-.64-.31-1.25-.65-1.86-1.02-.33-.2-.66-.43-1-.68s-.71-.49-1.07-.77-.71-.59-1.07-.92c-.37-.32-.75-.66-1.11-1.04-1.71-1.77-3.19-3.73-4.43-5.85-3.11-5.13-7.05-9.71-11.65-13.56-4.12-3.56-7.7-5.54-7.43-6.16.23-.53,4.41-.43,9.75,1.22l2.05.67c.69.25,1.39.54,2.11.82s1.43.62,2.15.95,1.46.68,2.16,1.07,1.44.76,2.14,1.19l2.08,1.29c1.34.92,2.67,1.83,3.87,2.82,1.12.89,2.12,1.93,2.97,3.09.41.56.78,1.14,1.11,1.74.34.57.64,1.17.9,1.78.95,2.24,1.53,4.61,1.71,7.04.08,1.09.09,2.09.07,2.98-.04.9-.13,1.7-.21,2.36-.09.69-.21,1.38-.37,2.07-.48-.11-.94-.25-1.4-.43-.51-.19-1.01-.41-1.49-.66Z"/>
          <path id="Trazado_1748-2" data-name="Trazado 1748-2" class="cls-8" d="m14.66,177.24c.12-.89.24-1.94.29-3.14s.03-2.54-.05-3.98-.22-2.99-.38-4.62-.33-3.33-.44-5.1c-.13-1.82-.15-3.64-.05-5.46.1-1.88.4-3.75.91-5.56.48-1.68,1.23-3.27,2.23-4.71.89-1.26,1.94-2.4,3.14-3.38,1.86-1.5,3.97-2.65,6.23-3.41,1.43-.49,2.91-.84,4.41-1.06,1.06-.15,1.66-.17,1.66-.17-.23.41-.49.81-.77,1.2-.76,1.07-1.57,2.1-2.44,3.09-.55.63-1.14,1.32-1.8,2.04l-2.06,2.31c-.71.82-1.43,1.68-2.12,2.61-.74.98-1.42,2.02-2.02,3.09-.69,1.28-1.22,2.64-1.59,4.05-.41,1.59-.71,3.21-.9,4.84-.42,3.37-.6,6.89-1.04,10.02-.19,1.45-.47,2.9-.83,4.32-.29,1.13-.66,2.24-1.12,3.32-.8,1.8-1.53,2.72-1.66,2.64-.17-.09.13-1.15.4-2.92"/>
          <path id="Trazado_1749-2" data-name="Trazado 1749-2" class="cls-8" d="m28.48,164.73c.16-.31.3-.63.42-.96.15-.47.25-.96.28-1.45.04-.64.04-1.27-.01-1.91-.03-.35-.06-.72-.11-1.11s-.09-.81-.13-1.23l-.14-1.27c-.05-.43-.11-.86-.16-1.29-.22-1.73-.47-3.47-.72-5.07-.22-1.38-.18-2.8.1-4.17.24-1.16.63-2.28,1.15-3.34.39-.79.83-1.55,1.34-2.28.2-.29.42-.57.65-.85.24.18.47.38.68.6.56.56,1.04,1.18,1.44,1.86.59.99,1.01,2.08,1.24,3.21.3,1.49.3,3.03.02,4.53-.31,1.71-.67,3.57-1.07,5.4-.2.91-.41,1.82-.63,2.69-.11.43-.22.86-.33,1.28s-.23.85-.36,1.26c-.24.78-.55,1.54-.94,2.26-.32.59-.73,1.13-1.23,1.58-.32.3-.7.53-1.12.68-.3.08-.47.08-.51.01s.02-.24.15-.47"/>
          <path id="Trazado_1750-2" data-name="Trazado 1750-2" class="cls-8" d="m14.3,137.09c5.94-2.88,11.62.36,11.62.36,0,0-2.33,4.99-9.23,5.82S.19,145.8,0,145.15c-.19-.67,8.07-5.04,14.3-8.06"/>
          <path id="Trazado_1751-2" data-name="Trazado 1751-2" class="cls-3" d="m57.96,124.48c6.99,6.64,16,15.71,14.87,17.31-1.82,2.58-15.64,8.53-18.65,7.93-2.12-.42-6.46-14.61-8.84-22.97,2.26,8.47,5.8,22.97,3.76,23.71-2.9,1.05-24.49-4.24-26.78-6.88-1.56-1.8,4.74-11.98,8.9-18.26-4.08,5.87-10.57,14.76-12.13,14.37-2.32-.59-10.71-16.64-11.19-20.49s24.5-4.95,24.5-4.95c0,0-22.64.32-24.49-4.24-1.85-4.56,7.72-19.35,10.09-21.51s19.45,18.56,19.45,18.56c0,0-15.97-21.93-13.33-24.22s12.87-11.55,19.47-7.64c3.8,2.26,4.34,28.19,4.34,28.19,0,0,2.23-27.26,4.01-27.1s19.92,6.77,21.4,8.44c1.04,1.17-8.76,10.52-14.77,16.06,5.71-5.12,14.93-13.11,15.67-12.06,1.07,1.53,9.6,17.17,8.45,20.44-.77,2.2-13.61,3.15-21.99,3.53,8.52-.18,21.7-.07,22.53,2.31l-7.58,21.99c-3.61-.56-11.61-7.12-17.69-12.52"/>
          <path id="Trazado_1752-2" data-name="Trazado 1752-2" class="cls-9" d="m57.96,124.48c6.99,6.64,16,15.71,14.87,17.31-1.82,2.58-15.64,8.53-18.65,7.93-2.12-.42-6.46-14.61-8.84-22.97,2.26,8.47,5.8,22.97,3.76,23.71-2.9,1.05-24.49-4.24-26.78-6.88-1.56-1.8,4.74-11.98,8.9-18.26-4.08,5.87-10.57,14.76-12.13,14.37-2.32-.59-10.71-16.64-11.19-20.49s24.5-4.95,24.5-4.95c0,0-22.64.32-24.49-4.24-1.85-4.56,7.72-19.35,10.09-21.51s19.45,18.56,19.45,18.56c0,0-15.97-21.93-13.33-24.22s12.87-11.55,19.47-7.64c3.8,2.26,4.34,28.19,4.34,28.19,0,0,2.23-27.26,4.01-27.1s19.92,6.77,21.4,8.44c1.04,1.17-8.76,10.52-14.77,16.06,5.71-5.12,14.93-13.11,15.67-12.06,1.07,1.53,9.6,17.17,8.45,20.44-.77,2.2-13.61,3.15-21.99,3.53,8.52-.18,21.7-.07,22.53,2.31l-7.58,21.99c-3.6-.56-11.61-7.12-17.69-12.52Z"/>
          <path id="Trazado_1753-2" data-name="Trazado 1753-2" class="cls-7" d="m37.9,115.72s-14.59,12.7-18.04,12.09-5.76-19.02-4.26-21.41,23.5,2.4,23.5,2.4c0,0-20.24-6.7-20.22-9.52s12.06-17.87,15.62-17.64,11.16,25.43,11.16,25.43c0,0-.84-24.85,2.9-26.58s16.52,5.61,18.73,9.08-12.27,18.61-12.6,19.73c0,0,18.57-11.13,22.07-9.31s2.69,25.39.98,28.52-23.26-8.79-23.26-8.79c0,0,19.14,13.24,17.75,15.25s-17.73,13.8-19.9,11.55-5.35-27.37-5.35-27.37c0,0,1.63,26.29-1.67,26.54s-20.28-7.92-21.34-9.84,13.93-20.15,13.93-20.15"/>
          <path id="Trazado_1754-2" data-name="Trazado 1754-2" class="cls-6" d="m44.04,112.1c.63-1.83,2.63-2.8,4.46-2.17,1.83.63,2.8,2.63,2.17,4.46-.63,1.83-2.63,2.8-4.46,2.17-1.83-.63-2.8-2.63-2.17-4.46"/>
          <path id="Trazado_1755-2" data-name="Trazado 1755-2" class="cls-3" d="m44.99,117.76s-12.15,5.26-13.6,3.9-4.51-12.83-2.41-18.92,17.77,4.22,18.34,4.42c0,0,4.26-18.11,5.59-17.65s14.59,10.14,13.59,14.9-11.54,8.3-11.54,8.3c0,0,8.32,7.82,6.9,10.73s-11.29,9.3-14.77,7.67-2.08-13.35-2.08-13.35"/>
          <path id="Trazado_1756-2" data-name="Trazado 1756-2" class="cls-9" d="m44.99,117.76s-12.15,5.26-13.6,3.9-4.51-12.83-2.41-18.92,17.77,4.22,18.34,4.42c0,0,4.26-18.11,5.59-17.65s14.59,10.14,13.59,14.9-11.54,8.3-11.54,8.3c0,0,8.32,7.82,6.9,10.73s-11.29,9.3-14.77,7.67-2.08-13.35-2.08-13.35Z"/>
          <path id="Trazado_1757-2" data-name="Trazado 1757-2" class="cls-6" d="m45.69,111.11c.54-1.57,2.25-2.4,3.82-1.86,1.57.54,2.4,2.25,1.86,3.82-.54,1.57-2.25,2.4-3.82,1.86-1.57-.54-2.4-2.25-1.86-3.82"/>
          <path id="Trazado_1765-2" data-name="Trazado 1765-2" class="cls-4" d="m96.3,86.49c16.26.41,33.29-4.13,48.15-10.43,14.36-6.09,29.31-14.56,38.99-27.1,8.43-10.92,12.53-27.23,4.82-39.66-3.13-5.05-8.4-9-14.48-9.28-5.24-.24-10.81,2.25-12.85,7.33-1.96,4.88-.38,11.67,5.02,13.52,4.73,1.62,10.52-1.07,11.56-6.08.07-.35-.45-.49-.53-.15-1.49,6.47-10.55,8.24-14.47,2.96-4.42-5.93-.82-14.16,5.76-16.45,14.7-5.11,23.68,12.4,23.17,24.49-1.14,26.82-30.6,43.21-52.68,51.53-13.84,5.22-27.85,7.38-42.47,9.02-.08,0-.14.08-.13.16,0,.07.06.13.13.13"/>
          <path id="Trazado_1766-2" data-name="Trazado 1766-2" class="cls-5" d="m118.21,74.81c2.96-5.97,5.6-12.1,7.91-18.35.19-.54-.68-.91-.93-.39-2.77,6.06-5.22,12.27-7.33,18.59-.07.21.26.35.36.15"/>
          <path id="Trazado_1767-2" data-name="Trazado 1767-2" class="cls-5" d="m124.46,90.43c5.63,1.63,11.7,3.67,17.53,4.35.28.03.28-.36.06-.45-5.43-2.16-11.73-3.24-17.43-4.46-.16-.04-.31.06-.35.21-.04.15.05.3.2.35"/>
          <path id="Trazado_1768-2" data-name="Trazado 1768-2" class="cls-5" d="m142.89,82.45c5.42,1.65,11.11,3.64,16.74,4.38.32.04.33-.43.07-.53-5.26-2.07-11.19-3.06-16.7-4.24-.11-.01-.21.06-.22.17-.01.09.04.17.12.21"/>
          <path id="Trazado_1769-2" data-name="Trazado 1769-2" class="cls-5" d="m158.7,77.03c5.08-.32,10.17.4,14.95,2.13.31.1.48-.35.22-.51-4.63-2.61-10.08-3.35-15.23-2.07-.12.04-.19.17-.15.29.03.09.11.16.21.16"/>
          <path id="Trazado_1770-2" data-name="Trazado 1770-2" class="cls-5" d="m176.31,68.83c4.73.98,8.51,2.57,11.92,6.1.17.18.51-.06.36-.27-2.69-3.73-7.51-6.55-12.22-6.3-.25.01-.34.41-.06.47"/>
          <path id="Trazado_1771-2" data-name="Trazado 1771-2" class="cls-4" d="m94.04,123.57c11.71,4.84,22.99,9.8,33.5,16.98,10.3,6.98,19.57,15.37,27.55,24.92,8.25,9.96,15.03,22.2,14.55,35.51-.44,12.25-9.28,29.1-23.96,26.67-7.53-1.25-13.28-8.59-9.91-16.08,1.66-3.69,5.39-6.22,9.51-5.14,3.85.84,6.57,4.29,6.49,8.23-.02.35.52.35.55,0,.35-4.8-3.84-8.77-8.53-9.03-5.11-.29-8.84,4.25-9.43,9-.68,5.45,2.74,10.14,7.61,12.29,5.88,2.6,12.54,1.08,17.55-2.67,11.36-8.48,13.12-25.01,9.06-37.68-4.83-15.07-16.6-27.63-28.4-37.7-13.14-11.21-29.22-21.19-46.07-25.58-.19-.05-.25.21-.08.28"/>
          <path id="Trazado_1772-2" data-name="Trazado 1772-2" class="cls-4" d="m153.33,158.59c-.3-.47-.87-.63-1.21.01-.78,1.47,3.95,5.13,4.67,5.82,5.92,5.58,12.76,10.09,20.22,13.34,3.59,1.65,7.35,2.91,11.21,3.76,1.98.4,6.66,1.41,7.97-.88.91-1.58-.74-4.13-1.71-5.27-1.82-2.22-4.59-3.43-7.45-3.25-.45.05-.66.79-.12.87,2.48.37,4.67.94,6.49,2.83.5.49.93,1.04,1.27,1.64,1.12,1.19.9,2.06-.68,2.62-1.9,1.56-3.12,1.21-5.58.73-4.86-1.05-9.57-2.73-14-5-3.88-1.9-7.57-4.14-11.05-6.7-2-1.48-3.92-3.07-5.76-4.75-.93-.85-1.83-1.73-2.72-2.62-.38-.38-.76-.77-1.13-1.15-.63-.23-.96-.92-.73-1.55.06-.16.15-.3.26-.43.02.02.05,0,.03-.03"/>
          <path id="Trazado_1773-2" data-name="Trazado 1773-2" class="cls-5" d="m111.56,140.62c.28,6.66.92,13.31,1.9,19.91.09.57,1.03.43,1-.14-.49-6.65-1.33-13.26-2.52-19.82-.04-.21-.39-.17-.38.05"/>
          <path id="Trazado_1774-2" data-name="Trazado 1774-2" class="cls-5" d="m125.18,147.54c1.41,6.13,3.43,12.11,6.02,17.85.15.32.63.09.56-.24-1.49-6.11-3.58-12.06-6.25-17.76-.09-.2-.38-.05-.33.14"/>
          <path id="Trazado_1775-2" data-name="Trazado 1775-2" class="cls-5" d="m140.36,163.23c1.17,5.44,2.76,10.77,4.77,15.96.04.14.19.22.33.18.14-.04.22-.18.18-.32-1.2-5.43-2.82-10.76-4.86-15.93-.04-.12-.16-.18-.27-.15-.11.03-.18.15-.15.26"/>
          <path id="Trazado_1776-2" data-name="Trazado 1776-2" class="cls-5" d="m156.57,183.01c.54,3.92-.36,7.9-2.55,11.2-.18.28.25.62.47.36,2.75-3.21,3.77-7.56,2.76-11.66-.09-.37-.73-.3-.68.09"/>
          <path id="Trazado_1777-2" data-name="Trazado 1777-2" class="cls-5" d="m122.27,127.87c5.83.4,12.18,1.11,17.99.54.23-.02.33-.4.06-.45-5.79-.96-12.19-.68-18.05-.67-.16,0-.28.15-.27.31,0,.15.13.26.27.27"/>
          <path id="Trazado_1778-2" data-name="Trazado 1778-2" class="cls-5" d="m137.77,140.45c5.63.4,11.6,1.09,17.22.55.27-.03.39-.48.07-.53-5.61-.85-11.63-.5-17.3-.42-.11,0-.2.09-.2.2,0,.11.09.2.2.2"/>
          <path id="Trazado_1779-2" data-name="Trazado 1779-2" class="cls-5" d="m151.28,150.06c4.6,2.66,10.04,3.45,15.21,2.22.15-.04.23-.2.19-.35-.03-.12-.14-.2-.26-.2-5.08.34-10.17-.38-14.96-2.09-.25-.09-.39.29-.18.42"/>
          <path id="Trazado_1780-2" data-name="Trazado 1780-2" class="cls-5" d="m166.04,162.86c4.52,1.5,9.8.19,13.48-2.67.21-.16-.06-.48-.28-.36-4.29,2.44-8.3,2.96-13.14,2.56-.28-.02-.31.39-.06.47"/>
          <path id="Trazado_1781-2" data-name="Trazado 1781-2" class="cls-5" d="m177.36,187.56c-.22,0-.4.18-.4.4,0,.22.18.4.4.4.22,0,.4-.18.4-.4,0-.22-.18-.4-.4-.4"/>
          <path id="Trazado_1782-2" data-name="Trazado 1782-2" class="cls-5" d="m187.14,189.41c-.24.01-.43.22-.42.46.01.23.19.41.42.42.24-.01.43-.22.42-.46-.01-.23-.19-.41-.42-.42"/>
          <path id="Trazado_1783-2" data-name="Trazado 1783-2" class="cls-5" d="m201.21,188.14l-.59-.06c-.14,0-.27.1-.31.23-.04.14.02.29.15.36l.52.31c.22.12.5.05.62-.17.02-.03.03-.06.04-.1.03-.12.01-.24-.05-.35-.08-.14-.23-.22-.39-.22"/>
        </g>
      </g>
    </g>
  </g>
</svg>