<?xml version="1.0" encoding="UTF-8"?>
<svg id="Capa_2" data-name="Capa 2" xmlns="http://www.w3.org/2000/svg" viewBox="0 0 599.34 618.78">
  <defs>
    <style>
      .cls-1 {
        stroke-width: .28px;
      }

      .cls-1, .cls-2, .cls-3, .cls-4, .cls-5, .cls-6, .cls-7, .cls-8 {
        stroke-miterlimit: 10;
      }

      .cls-1, .cls-2, .cls-3, .cls-4, .cls-5, .cls-8 {
        stroke: #fbad2d;
      }

      .cls-1, .cls-3, .cls-4, .cls-5, .cls-6, .cls-7, .cls-8 {
        fill: none;
      }

      .cls-3 {
        stroke-width: .43px;
      }

      .cls-4 {
        stroke-width: .23px;
      }

      .cls-6 {
        stroke: #fff5eb;
      }

      .cls-7 {
        stroke: #f78d28;
      }

      .cls-8 {
        stroke-width: .21px;
      }

      .cls-9 {
        fill: #f47520;
      }

      .cls-9, .cls-10, .cls-11, .cls-12, .cls-13 {
        stroke-width: 0px;
      }

      .cls-10 {
        fill: #e14425;
      }

      .cls-11 {
        fill: #bc5816;
      }

      .cls-12 {
        fill: #fff6ec;
      }

      .cls-13 {
        fill: #fbad2d;
      }
    </style>
  </defs>
  <g id="Layer_1" data-name="Layer 1">
    <g>
      <path class="cls-7" d="m60.61,477.16c2.37-.28,9.49,18.02,11.56,27.75,2.08,9.73-5.93,20.6-13.05,21.74-2.98.48-13.05-6.58-13.64-18.6-.59-12.01,12.75-30.61,15.13-30.9Z"/>
      <path class="cls-13" d="m60.91,492.04c1.48,0,2.37,7.44,4.15,14.3,1.78,6.87-4.74,17.17-4.74,17.17,0,0-5.34-5.15-6.23-10.87-.89-5.72,5.34-20.6,6.82-20.6"/>
      <path class="cls-10" d="m58.87,521.98c0-.88,0-1.77,0-2.66s.14-1.77.16-2.66c.03-1.94,1.8-1.95,1.84,0,.02.88.16,1.74.16,2.66s0,1.77,0,2.66c0,1.66,0,3.32,0,4.98,0,3.42.07,6.88-.18,10.29-.14,1.91-1.67,1.91-1.81,0-.25-3.4-.18-6.87-.18-10.29,0-1.66,0-3.32,0-4.98"/>
      <path class="cls-6" d="m35.51,534.81c2.33-1.23,42.05-2.57,45.66-.98,0,0,.83,71.54-1.49,72.77-2.33,1.22-43.21,3.19-42.76-.84.45-4.02-3.74-69.72-1.41-70.95Z"/>
      <path class="cls-11" d="m38.13,598.27s-2.14-9.95,1.96-11.23c4.11-1.28,8.74,11.73,8.74,11.73,0,0,5.23-11.34,8.15-12.59,2.92-1.24,7.3,12.92,7.3,12.92,0,0,3.73-11.58,8.17-12.02,4.44-.44,4.62,12.72,4.62,12.72,0,0,10.26-11.51,13.87-10.2,3.61,1.31-5.9,17.38-5.9,17.38,0,0-20.78,7.86-53.07,1.23,0,0-9.37-12.85-7.66-14.91,1.7-2.06,13.83,4.97,13.83,4.97"/>
      <path class="cls-7" d="m29.82,511.44c1.91-.23,7.62,14.47,9.28,22.28,1.67,7.81-4.76,16.54-10.47,17.45-2.4.39-10.48-5.28-10.95-14.93-.48-9.64,10.24-24.57,12.14-24.8Z"/>
      <path class="cls-13" d="m30.06,523.39c1.19,0,1.91,5.97,3.33,11.48,1.43,5.51-3.81,13.78-3.81,13.78,0,0-4.28-4.13-5-8.73-.72-4.59,4.28-16.54,5.47-16.54"/>
      <path class="cls-10" d="m28.42,547.42c0-.71,0-1.42,0-2.13s.11-1.42.12-2.13c.03-1.56,1.45-1.56,1.47,0,.01.71.12,1.4.12,2.13s0,1.42,0,2.13c0,1.33,0,2.67,0,4,0,2.75.05,5.53-.14,8.26-.11,1.53-1.34,1.54-1.45,0-.2-2.73-.15-5.51-.14-8.26,0-1.33,0-2.67,0-4"/>
      <path class="cls-12" d="m9.67,557.72c1.87-.98,33.75-2.07,36.66-.79,0,0,.67,57.43-1.2,58.41-1.87.98-34.69,2.56-34.33-.67.36-3.23-3-55.97-1.13-56.95Z"/>
      <path class="cls-9" d="m11.77,608.66s-1.72-7.98,1.58-9.02c3.3-1.03,7.01,9.42,7.01,9.42,0,0,4.2-9.11,6.54-10.11,2.35-1,5.86,10.37,5.86,10.37,0,0,3-9.3,6.56-9.65,3.56-.35,3.71,10.21,3.71,10.21,0,0,8.24-9.24,11.13-8.19,2.9,1.05-4.73,13.95-4.73,13.95,0,0-16.68,6.31-42.6.99,0,0-7.52-10.31-6.15-11.97,1.37-1.66,11.1,3.99,11.1,3.99"/>
      <path class="cls-7" d="m90.35,511.44c1.91-.23,7.62,14.47,9.28,22.28,1.67,7.81-4.76,16.54-10.47,17.45-2.4.39-10.48-5.28-10.95-14.93-.48-9.64,10.24-24.57,12.14-24.8Z"/>
      <path class="cls-13" d="m90.58,523.39c1.19,0,1.91,5.97,3.33,11.48,1.43,5.51-3.81,13.78-3.81,13.78,0,0-4.29-4.13-5-8.73-.72-4.59,4.29-16.54,5.47-16.54"/>
      <path class="cls-10" d="m88.95,547.42c0-.71,0-1.42,0-2.13s.11-1.42.12-2.13c.03-1.56,1.45-1.56,1.47,0,.01.71.12,1.4.12,2.13s0,1.42,0,2.13c0,1.33,0,2.67,0,4,0,2.75.05,5.53-.14,8.26-.11,1.53-1.34,1.54-1.45,0-.2-2.73-.15-5.51-.14-8.26,0-1.33,0-2.67,0-4"/>
      <path class="cls-12" d="m70.2,557.72c1.87-.98,33.75-2.07,36.66-.79,0,0,.67,57.43-1.2,58.41-1.87.98-34.69,2.56-34.33-.67.36-3.23-3-55.97-1.13-56.95Z"/>
      <path class="cls-9" d="m72.3,608.66s-1.72-7.98,1.58-9.02c3.3-1.03,7.01,9.42,7.01,9.42,0,0,4.2-9.11,6.54-10.11,2.35-1,5.86,10.37,5.86,10.37,0,0,3-9.3,6.56-9.65,3.56-.35,3.71,10.21,3.71,10.21,0,0,8.24-9.24,11.13-8.19,2.9,1.05-4.73,13.95-4.73,13.95,0,0-16.68,6.31-42.6.99,0,0-7.52-10.31-6.15-11.97,1.37-1.66,11.1,3.99,11.1,3.99"/>
      <path class="cls-7" d="m544.11,477.16c2.37-.28,9.49,18.02,11.56,27.75,2.08,9.73-5.93,20.6-13.05,21.74-2.98.48-13.05-6.58-13.65-18.6-.59-12.01,12.75-30.61,15.13-30.9Z"/>
      <path class="cls-13" d="m544.41,492.04c1.48,0,2.37,7.44,4.15,14.3,1.78,6.87-4.75,17.17-4.75,17.17,0,0-5.34-5.15-6.22-10.87-.89-5.72,5.34-20.6,6.82-20.6"/>
      <path class="cls-10" d="m542.37,521.98c0-.88,0-1.77,0-2.66s.14-1.77.15-2.66c.03-1.94,1.8-1.95,1.84,0,.02.88.15,1.74.15,2.66s0,1.77,0,2.66c0,1.66,0,3.32,0,4.98,0,3.42.07,6.88-.18,10.29-.14,1.91-1.67,1.91-1.81,0-.25-3.4-.18-6.87-.18-10.29,0-1.66,0-3.32,0-4.98"/>
      <path class="cls-6" d="m519.01,534.81c2.33-1.23,42.05-2.57,45.66-.98,0,0,.83,71.54-1.49,72.77-2.33,1.22-43.21,3.19-42.76-.84.44-4.02-3.74-69.72-1.4-70.95Z"/>
      <path class="cls-11" d="m521.63,598.27s-2.14-9.95,1.97-11.23c4.11-1.28,8.73,11.73,8.73,11.73,0,0,5.23-11.34,8.15-12.59,2.92-1.24,7.3,12.92,7.3,12.92,0,0,3.73-11.58,8.16-12.02,4.44-.44,4.62,12.72,4.62,12.72,0,0,10.26-11.51,13.87-10.2,3.61,1.31-5.9,17.38-5.9,17.38,0,0-20.78,7.86-53.07,1.23,0,0-9.37-12.85-7.66-14.91,1.7-2.06,13.83,4.97,13.83,4.97"/>
      <path class="cls-7" d="m513.32,511.44c1.91-.23,7.62,14.47,9.28,22.28,1.67,7.81-4.76,16.54-10.47,17.45-2.4.39-10.48-5.28-10.95-14.93-.48-9.64,10.23-24.57,12.14-24.8Z"/>
      <path class="cls-13" d="m513.55,523.39c1.19,0,1.91,5.97,3.33,11.48,1.43,5.51-3.81,13.78-3.81,13.78,0,0-4.29-4.13-5-8.73-.72-4.59,4.28-16.54,5.47-16.54"/>
      <path class="cls-10" d="m511.92,547.42c0-.71,0-1.42,0-2.13s.11-1.42.12-2.13c.02-1.56,1.45-1.56,1.48,0,.01.71.12,1.4.12,2.13s0,1.42,0,2.13v4c0,2.75.05,5.53-.14,8.26-.11,1.53-1.34,1.54-1.45,0-.2-2.73-.15-5.51-.14-8.26,0-1.33,0-2.67,0-4"/>
      <path class="cls-12" d="m493.17,557.72c1.87-.98,33.75-2.07,36.66-.79,0,0,.67,57.43-1.2,58.41-1.87.98-34.69,2.56-34.33-.67.36-3.23-3-55.97-1.13-56.95Z"/>
      <path class="cls-9" d="m495.27,608.66s-1.72-7.98,1.58-9.02c3.3-1.03,7.01,9.42,7.01,9.42,0,0,4.2-9.11,6.54-10.11,2.35-1,5.86,10.37,5.86,10.37,0,0,3-9.3,6.56-9.65,3.56-.35,3.71,10.21,3.71,10.21,0,0,8.24-9.24,11.14-8.19,2.9,1.05-4.73,13.95-4.73,13.95,0,0-16.68,6.31-42.6.99,0,0-7.52-10.31-6.15-11.97,1.37-1.66,11.1,3.99,11.1,3.99"/>
      <path class="cls-7" d="m573.84,511.44c1.91-.23,7.62,14.47,9.28,22.28,1.67,7.81-4.76,16.54-10.47,17.45-2.4.39-10.48-5.28-10.95-14.93-.48-9.64,10.23-24.57,12.14-24.8Z"/>
      <path class="cls-13" d="m574.08,523.39c1.19,0,1.91,5.97,3.33,11.48,1.43,5.51-3.81,13.78-3.81,13.78,0,0-4.29-4.13-5-8.73-.72-4.59,4.28-16.54,5.47-16.54"/>
      <path class="cls-10" d="m572.44,547.42c0-.71,0-1.42,0-2.13s.11-1.42.12-2.13c.02-1.56,1.45-1.56,1.48,0,.01.71.12,1.4.12,2.13v2.13c0,1.33,0,2.67,0,4,0,2.75.05,5.53-.14,8.26-.11,1.53-1.34,1.54-1.45,0-.2-2.73-.15-5.51-.15-8.26,0-1.33,0-2.67,0-4"/>
      <path class="cls-12" d="m553.7,557.72c1.87-.98,33.75-2.07,36.66-.79,0,0,.66,57.43-1.2,58.41-1.87.98-34.69,2.56-34.33-.67.36-3.23-3-55.97-1.13-56.95Z"/>
      <path class="cls-9" d="m555.79,608.66s-1.72-7.98,1.57-9.02c3.3-1.03,7.01,9.42,7.01,9.42,0,0,4.2-9.11,6.54-10.11,2.35-1,5.86,10.37,5.86,10.37,0,0,3-9.3,6.56-9.65,3.56-.35,3.71,10.21,3.71,10.21,0,0,8.24-9.24,11.14-8.19,2.9,1.05-4.73,13.95-4.73,13.95,0,0-16.68,6.31-42.6.99,0,0-7.52-10.31-6.15-11.97,1.37-1.66,11.1,3.99,11.1,3.99"/>
      <path class="cls-5" d="m30.59,40.29s-27.52-1-28.51-4.5c-1-3.5,8.5-26.52,13.01-27.52,4.5-1,23.01,27.52,23.01,27.52,0,0-10.01-30.52-6-34.02,4-3.5,22.51,1,26.51,4.5,4.01,3.5-8.5,27.52-8.5,29.02,0,0,19.01-20.51,24.01-19.51,5,1,12.51,30.52,11.51,35.02-1,4.5-32.02-2.51-32.02-2.51,0,0,28.52,9.51,27.52,12.51-1,3-17.01,23.51-20.51,21.52-3.5-2-16.51-32.02-16.51-32.02,0,0,11.51,32.02,7.51,33.52-4,1.5-28.02-2.5-30.02-4.5-2-2,10.01-30.02,10.01-30.02,0,0-13.51,21.01-18.01,21.51-4.5.5-14.01-21.51-13.01-25.01,1-3.5,30.02-5.51,30.02-5.51Z"/>
      <path class="cls-9" d="m13.04,19.5c2.73-1.72,23.02,14.09,23.02,14.09,0,0-17.53-16.9-16.12-19.8,1.41-2.9,21.25-12.44,24.81-10.45,3.55,2-1.08,31.7-1.08,31.7,0,0,11.42-26,16.12-25.94,4.7.05,14.24,13.94,14.81,18.61.57,4.67-21.84,13.1-22.73,14.09,0,0,24.63-2.29,27.33,1.32,2.71,3.61-9.77,27.48-13.09,29.85-3.32,2.38-19.61-20.54-19.61-20.54,0,0,13.17,23.09,10.74,24.48-2.43,1.38-25.08,5.45-26.21,2.07-1.13-3.39,8.02-30.84,8.02-30.84,0,0-11.32,27.88-14.84,26.51-3.52-1.38-16.98-18.18-17.11-20.68-.14-2.5,24.31-13.87,24.31-13.87,0,0-21.3,5.86-24.56,3.54-3.26-2.33,3.47-22.44,6.2-24.15"/>
      <path class="cls-2" d="m24.93,25.3c5.25-3,13.88,13.13,13.88,13.13,0,0-5.63-16.13-3-18.38,2.63-2.25,10.51-3,15.38,1.13,4.88,4.12-4.5,19.5-4.5,19.5,0,0,15.38.38,15.38,4.13s-8.63,17.63-13.13,18.38-7.51-15.76-7.51-15.76c0,0,.75,13.51-4.5,14.63-5.25,1.13-15-9-15.76-12.38-.75-3.38,15.01-6.76,15.01-6.76,0,0-15.76,3-16.51.75-.75-2.25,0-15.38,5.25-18.39"/>
      <path class="cls-3" d="m24.93,25.3c5.25-3,13.88,13.13,13.88,13.13,0,0-5.63-16.13-3-18.38,2.63-2.25,10.51-3,15.38,1.13,4.88,4.12-4.5,19.5-4.5,19.5,0,0,15.38.38,15.38,4.13s-8.63,17.63-13.13,18.38-7.51-15.76-7.51-15.76c0,0,.75,13.51-4.5,14.63-5.25,1.13-15-9-15.76-12.38-.75-3.38,15.01-6.76,15.01-6.76,0,0-15.76,3-16.51.75-.75-2.25,0-15.38,5.25-18.39Z"/>
      <path class="cls-9" d="m40.59,39.03c1.8,0,3.25,1.45,3.25,3.25s-1.46,3.25-3.25,3.25-3.25-1.46-3.25-3.25,1.46-3.25,3.25-3.25"/>
      <path class="cls-5" d="m103.86,22.46s-11.17-9.93-10.38-11.74c.79-1.81,12.73-8.16,14.96-7.02,2.23,1.14.12,19.47.12,19.47,0,0,6.36-16.23,9.25-16.31,2.89-.08,9.07,8.2,9.54,11.05.47,2.85-13.07,8.58-13.59,9.2,0,0,15.05-2.01,16.79.14,1.75,2.15-5.32,17.09-7.29,18.63-1.98,1.54-12.54-12.12-12.54-12.12,0,0,8.65,13.84,7.19,14.75-1.46.91-15.25,3.96-16.02,1.91-.77-2.05,4.16-19.11,4.16-19.11,0,0-6.25,17.38-8.45,16.62-2.19-.75-10.86-10.73-11.01-12.26-.15-1.53,14.56-9.1,14.56-9.1,0,0-12.92,4.12-14.98,2.78-2.06-1.35,1.58-13.84,3.2-14.97,1.63-1.12,14.46,8.08,14.46,8.08Z"/>
      <path class="cls-9" d="m103.7,7.69c1.73.22,4.76,13.86,4.76,13.86,0,0-1.5-13.14.1-13.86,1.59-.73,13.2,2.14,13.99,4.21.8,2.07-11.41,12.89-11.41,12.89,0,0,13.77-6.93,15.72-5.29,1.95,1.65,1.14,10.76-.24,12.91-1.38,2.15-13.67-2.07-14.39-1.96,0,0,11.1,7.55,10.98,10-.12,2.45-13.59,8.12-15.8,7.97-2.21-.15-1.1-15.38-1.1-15.38,0,0-2.47,14.21-3.97,13.96-1.5-.26-12.38-6.39-11.68-8.2.7-1.8,14.02-10.13,14.02-10.13,0,0-14.38,7.75-15.37,5.96-1-1.79-.82-13.48-.01-14.57.81-1.09,14.97,2.6,14.97,2.6,0,0-10.94-4.91-11.5-7.01-.56-2.1,9.21-8.19,10.94-7.97"/>
      <path class="cls-2" d="m106.67,14.23c3.24.56,1.27,10.29,1.27,10.29,0,0,3.22-8.69,5.1-8.73,1.88-.03,5.44,2.38,6.05,5.79.62,3.41-8.63,6.61-8.63,6.61,0,0,6.31,5.47,5.01,7.04-1.3,1.57-9.71,4.4-11.85,3.16-2.14-1.24,2.31-9.19,2.31-9.19,0,0-4.36,5.91-6.94,4.57-2.59-1.34-3.17-8.95-2.31-10.63.86-1.67,8.62,2.36,8.62,2.36,0,0-7.63-4.19-7.17-5.39.46-1.2,5.32-6.44,8.55-5.88"/>
      <path class="cls-4" d="m106.67,14.23c3.24.56,1.27,10.29,1.27,10.29,0,0,3.22-8.69,5.1-8.73,1.88-.03,5.44,2.38,6.05,5.79.62,3.41-8.63,6.61-8.63,6.61,0,0,6.31,5.47,5.01,7.04-1.3,1.57-9.71,4.4-11.85,3.16-2.14-1.24,2.31-9.19,2.31-9.19,0,0-4.36,5.91-6.94,4.57-2.59-1.34-3.17-8.95-2.31-10.63.86-1.67,8.62,2.36,8.62,2.36,0,0-7.63-4.19-7.17-5.39.46-1.2,5.32-6.44,8.55-5.88Z"/>
      <path class="cls-9" d="m108.48,25.39c.75.62.86,1.73.24,2.48-.62.75-1.73.86-2.49.24-.75-.62-.86-1.73-.24-2.48.62-.75,1.73-.86,2.49-.24"/>
      <path class="cls-5" d="m23.68,120.65s-10.49,14.38-12.73,13.65c-2.24-.73-11.13-14.15-10.03-16.92,1.09-2.77,23.07-2.37,23.07-2.37,0,0-19.97-5.68-20.39-9.1-.43-3.42,8.68-11.7,12.01-12.57,3.32-.88,11.66,14.51,12.47,15.05,0,0-4.11-17.61-1.76-19.92s20.87,4.34,22.92,6.51c2.05,2.16-12.93,16.25-12.93,16.25,0,0,15.41-11.84,16.66-10.21,1.24,1.62,6.44,17.62,4.1,18.77-2.34,1.15-23.13-2.75-23.13-2.75,0,0,21.32,5.43,20.67,8.11-.64,2.69-11.48,14.11-13.27,14.45-1.8.35-12.46-16.22-12.46-16.22,0,0,6.37,14.84,5.01,17.43-1.36,2.59-16.59-.28-18.11-2.09-1.51-1.8,7.92-18.07,7.92-18.07Z"/>
      <path class="cls-9" d="m6.19,122.53c.07-2.08,15.88-7.23,15.88-7.23,0,0-15.4,3.27-16.44,1.47-1.04-1.8,1.02-15.89,3.38-17.07,2.36-1.18,16.59,12.05,16.59,12.05,0,0-9.8-15.53-8.07-18.02,1.73-2.5,12.62-2.58,15.33-1.2,2.71,1.38-.89,16.44-.68,17.28,0,0,7.69-14.02,10.6-14.16,2.91-.14,11.18,15.18,11.26,17.82.07,2.64-18.1,3.07-18.1,3.07,0,0,17.14,1.3,17,3.1-.14,1.8-6.16,15.41-8.38,14.79-2.22-.62-13.61-15.46-13.61-15.46,0,0,10.84,16.15,8.83,17.54-2.01,1.39-15.89,2.51-17.27,1.68-1.39-.83,1.37-18.04,1.37-18.04,0,0-4.57,13.53-6.99,14.44-2.43.91-10.77-9.98-10.7-12.06"/>
      <path class="cls-2" d="m13.6,118.26c.29-3.9,12.06-2.68,12.06-2.68,0,0-10.68-2.83-10.93-5.04-.26-2.22,2.19-6.71,6.17-7.83,3.98-1.12,8.82,9.47,8.82,9.47,0,0,5.77-8.1,7.78-6.74,2.01,1.36,6.32,11,5.1,13.69-1.23,2.68-11.16-1.68-11.16-1.68,0,0,7.51,4.49,6.21,7.71-1.3,3.22-10.25,4.78-12.34,3.96-2.08-.82,1.81-10.48,1.81-10.48,0,0-4.09,9.53-5.57,9.11-1.48-.41-8.24-5.57-7.95-9.47"/>
      <path class="cls-1" d="m13.6,118.26c.29-3.9,12.06-2.68,12.06-2.68,0,0-10.68-2.83-10.93-5.04-.26-2.22,2.19-6.71,6.17-7.83,3.98-1.12,8.82,9.47,8.82,9.47,0,0,5.77-8.1,7.78-6.74,2.01,1.36,6.32,11,5.1,13.69-1.23,2.68-11.16-1.68-11.16-1.68,0,0,7.51,4.49,6.21,7.71-1.3,3.22-10.25,4.78-12.34,3.96-2.08-.82,1.81-10.48,1.81-10.48,0,0-4.09,9.53-5.57,9.11-1.48-.41-8.24-5.57-7.95-9.47Z"/>
      <path class="cls-9" d="m26.63,114.84c.65-.96,1.96-1.21,2.92-.57.96.65,1.22,1.96.57,2.92-.65.96-1.96,1.21-2.92.57-.96-.65-1.22-1.96-.57-2.92"/>
      <path class="cls-5" d="m78.23,104.09s-8.13,11.14-9.86,10.57c-1.73-.57-8.62-10.96-7.77-13.11.85-2.15,17.87-1.83,17.87-1.83,0,0-15.47-4.4-15.8-7.05-.33-2.64,6.73-9.06,9.3-9.74,2.58-.68,9.03,11.24,9.66,11.66,0,0-3.18-13.64-1.36-15.44,1.82-1.79,16.17,3.37,17.76,5.04,1.59,1.68-10.02,12.59-10.02,12.59,0,0,11.94-9.17,12.91-7.92.96,1.26,4.99,13.65,3.18,14.55-1.81.89-17.92-2.13-17.92-2.13,0,0,16.51,4.2,16.01,6.28-.5,2.08-8.89,10.93-10.28,11.19-1.39.27-9.65-12.57-9.65-12.57,0,0,4.93,11.5,3.88,13.5-1.05,2.01-12.86-.22-14.03-1.62-1.17-1.4,6.13-14,6.13-14Z"/>
      <path class="cls-9" d="m64.68,105.55c.05-1.61,12.3-5.6,12.3-5.6,0,0-11.93,2.54-12.74,1.14-.81-1.4.79-12.31,2.62-13.22,1.83-.91,12.86,9.34,12.86,9.34,0,0-7.59-12.03-6.25-13.97,1.34-1.94,9.78-2,11.88-.93,2.1,1.07-.69,12.74-.52,13.38,0,0,5.96-10.86,8.21-10.97,2.26-.11,8.66,11.76,8.72,13.81.06,2.04-14.02,2.38-14.02,2.38,0,0,13.27,1.01,13.17,2.41-.11,1.4-4.77,11.94-6.49,11.46-1.72-.48-10.55-11.98-10.55-11.98,0,0,8.4,12.51,6.84,13.59-1.56,1.08-12.31,1.94-13.38,1.3-1.08-.64,1.06-13.97,1.06-13.97,0,0-3.54,10.48-5.42,11.19-1.88.7-8.34-7.73-8.29-9.34"/>
      <path class="cls-2" d="m70.42,102.24c.23-3.02,9.34-2.08,9.34-2.08,0,0-8.27-2.19-8.47-3.91-.2-1.72,1.7-5.2,4.78-6.07,3.08-.87,6.83,7.34,6.83,7.34,0,0,4.47-6.28,6.03-5.23,1.56,1.05,4.9,8.53,3.95,10.6-.95,2.08-8.65-1.3-8.65-1.3,0,0,5.82,3.48,4.81,5.97-1.01,2.5-7.94,3.71-9.56,3.07-1.61-.64,1.4-8.12,1.4-8.12,0,0-3.17,7.38-4.32,7.06-1.15-.32-6.38-4.31-6.16-7.33"/>
      <path class="cls-8" d="m70.42,102.24c.23-3.02,9.34-2.08,9.34-2.08,0,0-8.27-2.19-8.47-3.91-.2-1.72,1.7-5.2,4.78-6.07,3.08-.87,6.83,7.34,6.83,7.34,0,0,4.47-6.28,6.03-5.23,1.56,1.05,4.9,8.53,3.95,10.6-.95,2.08-8.65-1.3-8.65-1.3,0,0,5.82,3.48,4.81,5.97-1.01,2.5-7.94,3.71-9.56,3.07-1.61-.64,1.4-8.12,1.4-8.12,0,0-3.17,7.38-4.32,7.06-1.15-.32-6.38-4.31-6.16-7.33Z"/>
      <path class="cls-9" d="m80.51,99.59c.5-.74,1.52-.94,2.26-.44.75.5.94,1.52.44,2.26-.5.75-1.52.94-2.26.44-.75-.51-.94-1.52-.44-2.26"/>
      <path class="cls-5" d="m568.75,40.29s27.52-1,28.51-4.5c1-3.5-8.51-26.52-13.01-27.52-4.5-1-23.01,27.52-23.01,27.52,0,0,10.01-30.52,6-34.02-4-3.5-22.51,1-26.51,4.5-4.01,3.5,8.5,27.52,8.5,29.02,0,0-19.01-20.51-24.01-19.51-5,1-12.51,30.52-11.51,35.02,1,4.5,32.02-2.51,32.02-2.51,0,0-28.52,9.51-27.52,12.51,1,3,17.01,23.51,20.51,21.52,3.5-2,16.51-32.02,16.51-32.02,0,0-11.51,32.02-7.5,33.52,4,1.5,28.02-2.5,30.02-4.5,2-2-10.01-30.02-10.01-30.02,0,0,13.51,21.01,18.01,21.51,4.5.5,14.01-21.51,13.01-25.01-1-3.5-30.01-5.51-30.01-5.51Z"/>
      <path class="cls-9" d="m586.3,19.5c-2.73-1.72-23.02,14.09-23.02,14.09,0,0,17.53-16.9,16.12-19.8-1.4-2.9-21.25-12.44-24.81-10.45-3.55,2,1.08,31.7,1.08,31.7,0,0-11.42-26-16.13-25.94-4.7.05-14.24,13.94-14.81,18.61-.57,4.67,21.84,13.1,22.73,14.09,0,0-24.63-2.29-27.33,1.32-2.7,3.61,9.77,27.48,13.09,29.85,3.32,2.38,19.61-20.54,19.61-20.54,0,0-13.17,23.09-10.74,24.48,2.43,1.38,25.08,5.45,26.21,2.07,1.13-3.39-8.02-30.84-8.02-30.84,0,0,11.32,27.88,14.84,26.51,3.52-1.38,16.98-18.18,17.11-20.68.14-2.5-24.31-13.87-24.31-13.87,0,0,21.3,5.86,24.56,3.54,3.26-2.33-3.47-22.44-6.2-24.15"/>
      <path class="cls-2" d="m574.41,25.3c-5.25-3-13.88,13.13-13.88,13.13,0,0,5.63-16.13,3-18.38-2.63-2.25-10.5-3-15.38,1.13-4.88,4.12,4.5,19.5,4.5,19.5,0,0-15.38.38-15.38,4.13s8.63,17.63,13.13,18.38c4.5.75,7.5-15.76,7.5-15.76,0,0-.75,13.51,4.5,14.63,5.25,1.13,15-9,15.76-12.38.75-3.38-15.01-6.76-15.01-6.76,0,0,15.76,3,16.5.75.75-2.25,0-15.38-5.25-18.39"/>
      <path class="cls-3" d="m574.41,25.3c-5.25-3-13.88,13.13-13.88,13.13,0,0,5.63-16.13,3-18.38-2.63-2.25-10.5-3-15.38,1.13-4.88,4.12,4.5,19.5,4.5,19.5,0,0-15.38.38-15.38,4.13s8.63,17.63,13.13,18.38c4.5.75,7.5-15.76,7.5-15.76,0,0-.75,13.51,4.5,14.63,5.25,1.13,15-9,15.76-12.38.75-3.38-15.01-6.76-15.01-6.76,0,0,15.76,3,16.5.75.75-2.25,0-15.38-5.25-18.39Z"/>
      <path class="cls-9" d="m558.74,39.03c-1.8,0-3.25,1.45-3.25,3.25s1.45,3.25,3.25,3.25,3.25-1.46,3.25-3.25-1.45-3.25-3.25-3.25"/>
      <path class="cls-5" d="m495.48,22.46s11.17-9.93,10.38-11.74c-.79-1.81-12.72-8.16-14.95-7.02-2.23,1.14-.12,19.47-.12,19.47,0,0-6.37-16.23-9.25-16.31-2.89-.08-9.07,8.2-9.54,11.05s13.07,8.58,13.59,9.2c0,0-15.05-2.01-16.79.14-1.75,2.15,5.31,17.09,7.29,18.63,1.98,1.54,12.54-12.12,12.54-12.12,0,0-8.65,13.84-7.19,14.75,1.46.91,15.25,3.96,16.02,1.91.77-2.05-4.16-19.11-4.16-19.11,0,0,6.25,17.38,8.45,16.62,2.19-.75,10.86-10.73,11-12.26.15-1.53-14.56-9.1-14.56-9.1,0,0,12.92,4.12,14.98,2.78,2.06-1.35-1.57-13.84-3.2-14.97-1.63-1.12-14.46,8.08-14.46,8.08Z"/>
      <path class="cls-9" d="m495.64,7.69c-1.74.22-4.76,13.86-4.76,13.86,0,0,1.5-13.14-.1-13.86-1.59-.73-13.2,2.14-13.99,4.21-.8,2.07,11.41,12.89,11.41,12.89,0,0-13.77-6.93-15.72-5.29-1.95,1.65-1.14,10.76.24,12.91,1.38,2.15,13.67-2.07,14.39-1.96,0,0-11.1,7.55-10.98,10,.12,2.45,13.59,8.12,15.8,7.97,2.21-.15,1.11-15.38,1.11-15.38,0,0,2.47,14.21,3.97,13.96,1.5-.26,12.38-6.39,11.68-8.2-.7-1.8-14.02-10.13-14.02-10.13,0,0,14.38,7.75,15.37,5.96,1-1.79.82-13.48.01-14.57-.81-1.09-14.97,2.6-14.97,2.6,0,0,10.94-4.91,11.51-7.01.56-2.1-9.21-8.19-10.94-7.97"/>
      <path class="cls-2" d="m492.67,14.23c-3.23.56-1.27,10.29-1.27,10.29,0,0-3.22-8.69-5.09-8.73-1.88-.03-5.43,2.38-6.05,5.79-.62,3.41,8.63,6.61,8.63,6.61,0,0-6.31,5.47-5.01,7.04,1.3,1.57,9.71,4.4,11.85,3.16,2.14-1.24-2.31-9.19-2.31-9.19,0,0,4.36,5.91,6.95,4.57,2.58-1.34,3.17-8.95,2.31-10.63-.86-1.67-8.62,2.36-8.62,2.36,0,0,7.63-4.19,7.17-5.39-.47-1.2-5.32-6.44-8.56-5.88"/>
      <path class="cls-4" d="m492.67,14.23c-3.23.56-1.27,10.29-1.27,10.29,0,0-3.22-8.69-5.09-8.73-1.88-.03-5.43,2.38-6.05,5.79-.62,3.41,8.63,6.61,8.63,6.61,0,0-6.31,5.47-5.01,7.04,1.3,1.57,9.71,4.4,11.85,3.16,2.14-1.24-2.31-9.19-2.31-9.19,0,0,4.36,5.91,6.95,4.57,2.58-1.34,3.17-8.95,2.31-10.63-.86-1.67-8.62,2.36-8.62,2.36,0,0,7.63-4.19,7.17-5.39-.47-1.2-5.32-6.44-8.56-5.88Z"/>
      <path class="cls-9" d="m490.86,25.39c-.75.62-.86,1.73-.24,2.48.62.75,1.73.86,2.48.24.75-.62.86-1.73.24-2.48-.62-.75-1.73-.86-2.48-.24"/>
      <path class="cls-5" d="m575.66,120.65s10.5,14.38,12.73,13.65c2.24-.73,11.13-14.15,10.03-16.92-1.1-2.77-23.07-2.37-23.07-2.37,0,0,19.97-5.68,20.39-9.1.43-3.42-8.68-11.7-12-12.57-3.33-.88-11.66,14.51-12.47,15.05,0,0,4.11-17.61,1.76-19.92-2.34-2.32-20.88,4.34-22.92,6.51-2.05,2.16,12.93,16.25,12.93,16.25,0,0-15.42-11.84-16.66-10.21-1.24,1.62-6.44,17.62-4.1,18.77,2.34,1.15,23.13-2.75,23.13-2.75,0,0-21.32,5.43-20.67,8.11.64,2.69,11.48,14.11,13.28,14.45,1.8.35,12.46-16.22,12.46-16.22,0,0-6.37,14.84-5.01,17.43,1.36,2.59,16.6-.28,18.11-2.09,1.51-1.8-7.92-18.07-7.92-18.07Z"/>
      <path class="cls-9" d="m593.14,122.53c-.07-2.08-15.88-7.23-15.88-7.23,0,0,15.4,3.27,16.44,1.47,1.04-1.8-1.02-15.89-3.38-17.07-2.36-1.18-16.59,12.05-16.59,12.05,0,0,9.79-15.53,8.07-18.02-1.73-2.5-12.63-2.58-15.33-1.2-2.71,1.38.89,16.44.68,17.28,0,0-7.69-14.02-10.6-14.16-2.92-.14-11.19,15.18-11.26,17.82-.07,2.64,18.1,3.07,18.1,3.07,0,0-17.14,1.3-17,3.1.14,1.8,6.16,15.41,8.38,14.79,2.22-.62,13.61-15.46,13.61-15.46,0,0-10.84,16.15-8.83,17.54,2.01,1.39,15.89,2.51,17.27,1.68,1.39-.83-1.37-18.04-1.37-18.04,0,0,4.57,13.53,6.99,14.44s10.76-9.98,10.7-12.06"/>
      <path class="cls-2" d="m585.74,118.26c-.29-3.9-12.06-2.68-12.06-2.68,0,0,10.68-2.83,10.94-5.04.25-2.22-2.19-6.71-6.17-7.83-3.98-1.12-8.82,9.47-8.82,9.47,0,0-5.77-8.1-7.78-6.74-2.01,1.36-6.32,11-5.1,13.69,1.23,2.68,11.16-1.68,11.16-1.68,0,0-7.51,4.49-6.21,7.71,1.3,3.22,10.25,4.78,12.34,3.96,2.08-.82-1.81-10.48-1.81-10.48,0,0,4.09,9.53,5.57,9.11,1.48-.41,8.24-5.57,7.95-9.47"/>
      <path class="cls-1" d="m585.74,118.26c-.29-3.9-12.06-2.68-12.06-2.68,0,0,10.68-2.83,10.94-5.04.25-2.22-2.19-6.71-6.17-7.83-3.98-1.12-8.82,9.47-8.82,9.47,0,0-5.77-8.1-7.78-6.74-2.01,1.36-6.32,11-5.1,13.69,1.23,2.68,11.16-1.68,11.16-1.68,0,0-7.51,4.49-6.21,7.71,1.3,3.22,10.25,4.78,12.34,3.96,2.08-.82-1.81-10.48-1.81-10.48,0,0,4.09,9.53,5.57,9.11,1.48-.41,8.24-5.57,7.95-9.47Z"/>
      <path class="cls-9" d="m572.71,114.84c-.65-.96-1.96-1.21-2.92-.57-.96.65-1.22,1.96-.57,2.92.65.96,1.96,1.21,2.92.57.96-.65,1.21-1.96.57-2.92"/>
      <path class="cls-5" d="m521.11,104.09s8.13,11.14,9.86,10.57c1.73-.57,8.62-10.96,7.77-13.11-.85-2.15-17.87-1.83-17.87-1.83,0,0,15.47-4.4,15.8-7.05.33-2.64-6.73-9.06-9.3-9.74-2.58-.68-9.03,11.24-9.66,11.66,0,0,3.18-13.64,1.36-15.44-1.82-1.79-16.17,3.37-17.76,5.04-1.59,1.68,10.01,12.59,10.01,12.59,0,0-11.94-9.17-12.91-7.92-.96,1.26-4.99,13.65-3.18,14.55,1.82.89,17.92-2.13,17.92-2.13,0,0-16.52,4.2-16.02,6.28.5,2.08,8.9,10.93,10.29,11.19,1.39.27,9.65-12.57,9.65-12.57,0,0-4.93,11.5-3.88,13.5,1.06,2.01,12.86-.22,14.03-1.62,1.17-1.4-6.13-14-6.13-14Z"/>
      <path class="cls-9" d="m534.66,105.55c-.05-1.61-12.3-5.6-12.3-5.6,0,0,11.93,2.54,12.74,1.14.81-1.4-.79-12.31-2.62-13.22-1.83-.91-12.86,9.34-12.86,9.34,0,0,7.59-12.03,6.25-13.97-1.34-1.94-9.78-2-11.88-.93-2.1,1.07.69,12.74.52,13.38,0,0-5.95-10.86-8.21-10.97-2.26-.11-8.66,11.76-8.72,13.81-.05,2.04,14.02,2.38,14.02,2.38,0,0-13.28,1.01-13.17,2.41.1,1.4,4.77,11.94,6.49,11.46,1.72-.48,10.55-11.98,10.55-11.98,0,0-8.4,12.51-6.84,13.59,1.56,1.08,12.31,1.94,13.38,1.3,1.08-.64-1.06-13.97-1.06-13.97,0,0,3.54,10.48,5.42,11.19,1.88.7,8.34-7.73,8.29-9.34"/>
      <path class="cls-2" d="m528.91,102.24c-.22-3.02-9.34-2.08-9.34-2.08,0,0,8.27-2.19,8.47-3.91.2-1.72-1.7-5.2-4.78-6.07-3.08-.87-6.83,7.34-6.83,7.34,0,0-4.47-6.28-6.03-5.23-1.55,1.05-4.9,8.53-3.95,10.6s8.65-1.3,8.65-1.3c0,0-5.82,3.48-4.81,5.97,1.01,2.5,7.94,3.71,9.56,3.07s-1.4-8.12-1.4-8.12c0,0,3.17,7.38,4.31,7.06,1.15-.32,6.39-4.31,6.16-7.33"/>
      <path class="cls-8" d="m528.91,102.24c-.22-3.02-9.34-2.08-9.34-2.08,0,0,8.27-2.19,8.47-3.91.2-1.72-1.7-5.2-4.78-6.07-3.08-.87-6.83,7.34-6.83,7.34,0,0-4.47-6.28-6.03-5.23-1.55,1.05-4.9,8.53-3.95,10.6s8.65-1.3,8.65-1.3c0,0-5.82,3.48-4.81,5.97,1.01,2.5,7.94,3.71,9.56,3.07s-1.4-8.12-1.4-8.12c0,0,3.17,7.38,4.31,7.06,1.15-.32,6.39-4.31,6.16-7.33Z"/>
      <path class="cls-9" d="m518.82,99.59c-.5-.74-1.52-.94-2.26-.44-.75.5-.94,1.52-.44,2.26.51.75,1.52.94,2.26.44.74-.51.94-1.52.44-2.26"/>
      <path class="cls-9" d="m225.15,591.93s-4.11-2.38-3.03-3.89c1.08-1.51,4.43,2.59,4.43,2.59,0,0-1.62-5.84,1.3-5.3,2.92.54.22,5.19.22,5.19,0,0,5.08-1.62,5.62.32.54,1.94-4.54,1.62-4.54,1.62,0,0,4.65,2.7,2.49,4.43-2.16,1.73-3.78-3.67-3.78-3.67,0,0-.43,5.08-2.27,4.54-1.84-.54.54-4.32.54-4.32,0,0-4.54,1.84-4.97-.11-.43-1.94,4-1.4,4-1.4"/>
      <path class="cls-9" d="m298.71,592.42s-4.11-2.38-3.03-3.89c1.08-1.51,4.43,2.59,4.43,2.59,0,0-1.62-5.84,1.3-5.3,2.92.54.22,5.19.22,5.19,0,0,5.08-1.62,5.62.32.54,1.94-4.54,1.62-4.54,1.62,0,0,4.65,2.7,2.49,4.43-2.16,1.73-3.78-3.67-3.78-3.67,0,0-.43,5.08-2.27,4.54-1.84-.54.54-4.32.54-4.32,0,0-4.54,1.84-4.97-.11-.43-1.94,4-1.4,4-1.4"/>
      <path class="cls-9" d="m315.22,583.32s-4.11-2.38-3.03-3.89c1.08-1.51,4.43,2.59,4.43,2.59,0,0-1.62-5.84,1.3-5.3,2.92.54.22,5.19.22,5.19,0,0,5.08-1.62,5.62.32.54,1.94-4.54,1.62-4.54,1.62,0,0,4.65,2.7,2.49,4.43-2.16,1.73-3.78-3.67-3.78-3.67,0,0-.43,5.08-2.27,4.54-1.84-.54.54-4.32.54-4.32,0,0-4.54,1.84-4.97-.11-.43-1.94,4-1.4,4-1.4"/>
      <path class="cls-9" d="m410.55,591.62s-4.11-2.38-3.02-3.89c1.08-1.51,4.43,2.59,4.43,2.59,0,0-1.62-5.84,1.3-5.3,2.92.54.22,5.19.22,5.19,0,0,5.08-1.62,5.62.32.54,1.94-4.54,1.62-4.54,1.62,0,0,4.65,2.7,2.49,4.43-2.16,1.73-3.79-3.67-3.79-3.67,0,0-.43,5.08-2.27,4.54-1.84-.54.54-4.32.54-4.32,0,0-4.54,1.84-4.97-.11-.43-1.94,4-1.4,4-1.4"/>
      <path class="cls-9" d="m273.48,602.61s-3.45-6.11-.94-7.23c2.52-1.12,3.7,6.63,3.7,6.63,0,0,2.32-8.66,5.63-5.78,3.31,2.88-3.62,6.78-3.62,6.78,0,0,7.69,1.75,6.92,4.63-.77,2.88-7-1.34-7-1.34,0,0,3.9,6.94-.16,7.52-4.05.58-2.06-7.52-2.06-7.52,0,0-4.36,6.15-6.3,4.08-1.94-2.07,3.93-5.11,3.93-5.11,0,0-7.17-1.07-6.26-3.87.91-2.8,6.15,1.21,6.15,1.21"/>
      <path class="cls-9" d="m458.88,602.29s-3.45-6.11-.94-7.23c2.52-1.12,3.7,6.63,3.7,6.63,0,0,2.31-8.66,5.63-5.78,3.32,2.88-3.62,6.78-3.62,6.78,0,0,7.7,1.75,6.92,4.63-.77,2.88-7.01-1.34-7.01-1.34,0,0,3.9,6.94-.16,7.52-4.05.58-2.07-7.52-2.07-7.52,0,0-4.36,6.15-6.3,4.08-1.94-2.07,3.93-5.11,3.93-5.11,0,0-7.17-1.06-6.26-3.87.91-2.8,6.15,1.21,6.15,1.21"/>
      <path class="cls-9" d="m164.29,591.28s-6.23-3.61-4.59-5.91c1.64-2.3,6.73,3.94,6.73,3.94,0,0-2.46-8.86,1.97-8.04,4.43.82.33,7.88.33,7.88,0,0,7.71-2.46,8.53.49.82,2.95-6.89,2.46-6.89,2.46,0,0,7.06,4.1,3.77,6.73-3.28,2.62-5.74-5.58-5.74-5.58,0,0-.66,7.71-3.44,6.89-2.79-.82.82-6.56.82-6.56,0,0-6.89,2.79-7.55-.16-.66-2.95,6.07-2.13,6.07-2.13"/>
      <path class="cls-9" d="m349.69,590.96s-6.23-3.61-4.6-5.91c1.65-2.3,6.73,3.94,6.73,3.94,0,0-2.46-8.86,1.97-8.04,4.43.82.33,7.88.33,7.88,0,0,7.71-2.46,8.53.49.82,2.95-6.89,2.46-6.89,2.46,0,0,7.06,4.1,3.77,6.73-3.28,2.62-5.74-5.58-5.74-5.58,0,0-.66,7.71-3.44,6.89-2.79-.82.82-6.56.82-6.56,0,0-6.89,2.79-7.55-.17-.66-2.95,6.07-2.13,6.07-2.13"/>
      <path class="cls-9" d="m134.95,605.24s-6.23-3.61-4.59-5.91c1.64-2.3,6.73,3.94,6.73,3.94,0,0-2.46-8.86,1.97-8.04,4.43.82.33,7.88.33,7.88,0,0,7.71-2.46,8.53.49.82,2.95-6.89,2.46-6.89,2.46,0,0,7.06,4.1,3.77,6.73-3.28,2.62-5.74-5.58-5.74-5.58,0,0-.66,7.71-3.44,6.89-2.79-.82.82-6.56.82-6.56,0,0-6.89,2.79-7.55-.16-.66-2.95,6.07-2.13,6.07-2.13"/>
      <path class="cls-9" d="m320.35,604.92s-6.23-3.61-4.59-5.91c1.64-2.3,6.73,3.94,6.73,3.94,0,0-2.46-8.86,1.97-8.04,4.43.82.33,7.88.33,7.88,0,0,7.71-2.46,8.53.49.82,2.95-6.89,2.46-6.89,2.46,0,0,7.06,4.1,3.78,6.73-3.28,2.62-5.74-5.58-5.74-5.58,0,0-.66,7.71-3.44,6.89-2.79-.82.82-6.56.82-6.56,0,0-6.89,2.79-7.55-.17-.66-2.95,6.07-2.13,6.07-2.13"/>
      <path class="cls-9" d="m243.46,587.93s-5.78-3.35-4.26-5.48c1.52-2.13,6.24,3.65,6.24,3.65,0,0-2.28-8.22,1.83-7.46,4.11.76.3,7.3.3,7.3,0,0,7.15-2.28,7.91.46.76,2.74-6.39,2.28-6.39,2.28,0,0,6.54,3.8,3.5,6.24-3.04,2.43-5.33-5.18-5.33-5.18,0,0-.61,7.15-3.2,6.39-2.59-.76.76-6.09.76-6.09,0,0-6.39,2.59-7-.15-.61-2.74,5.63-1.98,5.63-1.98"/>
      <path class="cls-9" d="m428.86,587.61s-5.78-3.35-4.26-5.48c1.52-2.13,6.24,3.65,6.24,3.65,0,0-2.28-8.22,1.83-7.46,4.11.76.3,7.31.3,7.31,0,0,7.16-2.28,7.91.46.76,2.74-6.39,2.28-6.39,2.28,0,0,6.54,3.8,3.5,6.24-3.05,2.43-5.33-5.18-5.33-5.18,0,0-.61,7.15-3.2,6.39-2.59-.76.76-6.09.76-6.09,0,0-6.39,2.59-7-.15-.61-2.74,5.63-1.98,5.63-1.98"/>
      <path class="cls-9" d="m196.78,586.23c.98-2.23,6.39,2.15,6.39,2.15,0,0-3.65-7.07.25-7.15,3.9-.09,1.67,6.61,1.67,6.61,0,0,6.09-3.44,7.31-1.09,1.21,2.36-5.4,3.3-5.4,3.3,0,0,6.7,2.23,4.38,5.03-2.31,2.8-5.85-3.71-5.85-3.71,0,0,.81,6.65-1.7,6.45-2.51-.2-.46-5.7-.46-5.7,0,0-5.34,3.58-6.42,1.19-1.08-2.39,4.77-2.88,4.77-2.88,0,0-5.92-1.96-4.93-4.19"/>
      <path class="cls-9" d="m382.18,585.91c.98-2.23,6.39,2.15,6.39,2.15,0,0-3.65-7.07.25-7.15,3.89-.09,1.67,6.61,1.67,6.61,0,0,6.1-3.44,7.31-1.09,1.21,2.36-5.4,3.3-5.4,3.3,0,0,6.7,2.23,4.38,5.03-2.31,2.8-5.85-3.71-5.85-3.71,0,0,.81,6.65-1.7,6.44-2.51-.2-.47-5.7-.47-5.7,0,0-5.34,3.58-6.42,1.19-1.08-2.39,4.77-2.88,4.77-2.88,0,0-5.92-1.96-4.93-4.19"/>
      <path class="cls-9" d="m186.7,602.82s-3.06-5.08-.17-5.33c2.89-.26,1.57,4.83,1.57,4.83,0,0,4.03-3.83,5.05-2.14,1.02,1.69-3.52,3.69-3.52,3.69,0,0,5.09,1.33,3.51,3.53-1.59,2.2-4.53-2.47-4.53-2.47,0,0,.92,4.91-.95,4.88-1.87-.03-.62-4.22-.62-4.22,0,0-3.8,2.92-4.72,1.2-.92-1.72,3.4-2.37,3.4-2.37,0,0-4.5-1.16-3.87-2.88.62-1.71,4.86,1.29,4.86,1.29"/>
      <path class="cls-9" d="m372.1,602.5s-3.06-5.08-.17-5.33c2.89-.26,1.57,4.83,1.57,4.83,0,0,4.03-3.83,5.05-2.14,1.02,1.69-3.52,3.69-3.52,3.69,0,0,5.09,1.33,3.51,3.53-1.59,2.2-4.53-2.47-4.53-2.47,0,0,.93,4.9-.95,4.88-1.87-.03-.62-4.22-.62-4.22,0,0-3.8,2.92-4.72,1.2-.91-1.72,3.4-2.37,3.4-2.37,0,0-4.5-1.16-3.87-2.88.62-1.71,4.86,1.29,4.86,1.29"/>
      <path class="cls-9" d="m236.91,607.31s-4.64-.99-4.08-2.76c.56-1.77,5.02,1.09,5.02,1.09,0,0-3.35-5.05-.41-5.44,2.94-.39,1.81,4.87,1.81,4.87,0,0,4.33-3.11,5.44-1.43,1.12,1.68-3.81,2.95-3.81,2.95,0,0,5.25,1.13,3.73,3.44-1.52,2.31-4.73-2.32-4.73-2.32,0,0,1.16,4.96-.75,5.02-1.91.06-.82-4.28-.82-4.28,0,0-3.75,3.15-4.76,1.44-1.01-1.72,3.37-2.57,3.37-2.57"/>
      <path class="cls-9" d="m422.31,606.99s-4.64-.99-4.08-2.76c.56-1.77,5.02,1.1,5.02,1.1,0,0-3.35-5.05-.41-5.44,2.94-.39,1.81,4.87,1.81,4.87,0,0,4.33-3.11,5.44-1.43,1.12,1.68-3.81,2.95-3.81,2.95,0,0,5.26,1.13,3.74,3.44-1.52,2.31-4.73-2.32-4.73-2.32,0,0,1.16,4.96-.76,5.02-1.91.06-.82-4.28-.82-4.28,0,0-3.74,3.15-4.76,1.44-1.01-1.72,3.37-2.57,3.37-2.57"/>
      <path class="cls-9" d="m576.61,398.59s-2.38,4.11-3.89,3.03c-1.51-1.08,2.59-4.43,2.59-4.43,0,0-5.84,1.62-5.3-1.3.54-2.92,5.19-.22,5.19-.22,0,0-1.62-5.08.32-5.62,1.94-.54,1.62,4.54,1.62,4.54,0,0,2.7-4.65,4.43-2.49,1.73,2.16-3.67,3.78-3.67,3.78,0,0,5.08.43,4.54,2.27-.54,1.84-4.32-.54-4.32-.54,0,0,1.84,4.54-.11,4.97-1.94.43-1.4-4-1.4-4"/>
      <path class="cls-9" d="m577.1,325.03s-2.38,4.11-3.89,3.03c-1.51-1.08,2.6-4.43,2.6-4.43,0,0-5.84,1.62-5.3-1.3.54-2.92,5.19-.22,5.19-.22,0,0-1.62-5.08.32-5.62,1.94-.54,1.62,4.54,1.62,4.54,0,0,2.7-4.65,4.43-2.49,1.73,2.16-3.67,3.78-3.67,3.78,0,0,5.08.43,4.54,2.27-.54,1.84-4.32-.54-4.32-.54,0,0,1.84,4.54-.11,4.97-1.94.43-1.4-4-1.4-4"/>
      <path class="cls-9" d="m568,308.52s-2.38,4.11-3.89,3.03c-1.51-1.08,2.6-4.43,2.6-4.43,0,0-5.84,1.62-5.3-1.3.54-2.92,5.19-.22,5.19-.22,0,0-1.62-5.08.32-5.62,1.94-.54,1.62,4.54,1.62,4.54,0,0,2.7-4.65,4.43-2.49,1.73,2.16-3.67,3.78-3.67,3.78,0,0,5.08.43,4.54,2.27-.54,1.84-4.32-.54-4.32-.54,0,0,1.84,4.54-.11,4.97-1.94.43-1.4-4-1.4-4"/>
      <path class="cls-9" d="m576.29,213.19s-2.38,4.11-3.89,3.03c-1.51-1.08,2.59-4.43,2.59-4.43,0,0-5.83,1.62-5.29-1.3.54-2.92,5.19-.22,5.19-.22,0,0-1.62-5.08.33-5.62,1.94-.54,1.62,4.54,1.62,4.54,0,0,2.7-4.65,4.43-2.48,1.73,2.16-3.67,3.78-3.67,3.78,0,0,5.08.43,4.54,2.27-.54,1.84-4.32-.54-4.32-.54,0,0,1.84,4.54-.11,4.97-1.94.44-1.4-4-1.4-4"/>
      <path class="cls-9" d="m587.29,350.26s-6.12,3.45-7.23.94c-1.12-2.52,6.63-3.7,6.63-3.7,0,0-8.66-2.32-5.78-5.63,2.88-3.31,6.78,3.62,6.78,3.62,0,0,1.75-7.7,4.63-6.92,2.88.77-1.34,7.01-1.34,7.01,0,0,6.93-3.9,7.52.16.58,4.05-7.52,2.06-7.52,2.06,0,0,6.15,4.36,4.08,6.3-2.07,1.94-5.11-3.93-5.11-3.93,0,0-1.06,7.17-3.87,6.26-2.8-.91,1.21-6.15,1.21-6.15"/>
      <path class="cls-9" d="m586.97,164.86s-6.12,3.45-7.23.93c-1.12-2.51,6.64-3.7,6.64-3.7,0,0-8.66-2.31-5.78-5.63,2.88-3.31,6.78,3.62,6.78,3.62,0,0,1.75-7.7,4.63-6.92,2.88.77-1.34,7-1.34,7,0,0,6.93-3.9,7.52.16s-7.52,2.07-7.52,2.07c0,0,6.15,4.36,4.08,6.3-2.07,1.94-5.11-3.93-5.11-3.93,0,0-1.06,7.17-3.87,6.26-2.8-.91,1.21-6.15,1.21-6.15"/>
      <path class="cls-9" d="m575.96,459.45s-3.61,6.23-5.91,4.59c-2.3-1.64,3.94-6.73,3.94-6.73,0,0-8.86,2.46-8.04-1.97.82-4.43,7.88-.33,7.88-.33,0,0-2.46-7.71.49-8.53s2.46,6.89,2.46,6.89c0,0,4.1-7.06,6.73-3.77s-5.58,5.74-5.58,5.74c0,0,7.71.66,6.89,3.44-.82,2.79-6.56-.82-6.56-.82,0,0,2.79,6.89-.17,7.55-2.95.66-2.13-6.07-2.13-6.07"/>
      <path class="cls-9" d="m575.64,274.05s-3.61,6.23-5.91,4.59c-2.29-1.64,3.94-6.73,3.94-6.73,0,0-8.86,2.46-8.04-1.97.82-4.43,7.88-.33,7.88-.33,0,0-2.46-7.71.49-8.53,2.95-.82,2.46,6.89,2.46,6.89,0,0,4.11-7.06,6.73-3.77,2.63,3.28-5.58,5.74-5.58,5.74,0,0,7.71.66,6.89,3.44-.82,2.79-6.56-.82-6.56-.82,0,0,2.79,6.89-.17,7.55-2.95.66-2.13-6.07-2.13-6.07"/>
      <path class="cls-9" d="m589.92,488.79s-3.61,6.23-5.9,4.59c-2.3-1.64,3.93-6.73,3.93-6.73,0,0-8.86,2.46-8.04-1.97.82-4.43,7.88-.33,7.88-.33,0,0-2.46-7.71.49-8.53,2.95-.82,2.46,6.89,2.46,6.89,0,0,4.1-7.06,6.73-3.78,2.62,3.28-5.58,5.74-5.58,5.74,0,0,7.71.66,6.89,3.44-.82,2.79-6.56-.82-6.56-.82,0,0,2.79,6.89-.17,7.55-2.95.66-2.13-6.07-2.13-6.07"/>
      <path class="cls-9" d="m589.6,303.39s-3.61,6.23-5.91,4.59c-2.3-1.64,3.93-6.73,3.93-6.73,0,0-8.86,2.46-8.04-1.97.82-4.43,7.87-.33,7.87-.33,0,0-2.46-7.71.49-8.53,2.95-.82,2.46,6.89,2.46,6.89,0,0,4.1-7.06,6.73-3.77,2.63,3.28-5.58,5.74-5.58,5.74,0,0,7.71.66,6.89,3.44-.82,2.79-6.56-.82-6.56-.82,0,0,2.79,6.89-.17,7.55-2.95.66-2.13-6.07-2.13-6.07"/>
      <path class="cls-9" d="m572.61,380.28s-3.35,5.78-5.48,4.26,3.65-6.24,3.65-6.24c0,0-8.22,2.28-7.46-1.83.76-4.11,7.3-.3,7.3-.3,0,0-2.28-7.15.46-7.91,2.74-.76,2.28,6.39,2.28,6.39,0,0,3.81-6.54,6.24-3.5,2.43,3.04-5.18,5.33-5.18,5.33,0,0,7.16.61,6.39,3.2-.76,2.59-6.09-.76-6.09-.76,0,0,2.58,6.39-.15,7-2.74.61-1.98-5.63-1.98-5.63"/>
      <path class="cls-9" d="m572.29,194.88s-3.35,5.78-5.48,4.26c-2.13-1.52,3.65-6.24,3.65-6.24,0,0-8.22,2.29-7.45-1.82.76-4.11,7.3-.3,7.3-.3,0,0-2.28-7.16.46-7.92,2.74-.76,2.29,6.39,2.29,6.39,0,0,3.8-6.54,6.24-3.5,2.43,3.04-5.17,5.33-5.17,5.33,0,0,7.15.61,6.39,3.2s-6.09-.76-6.09-.76c0,0,2.59,6.39-.15,7-2.74.61-1.98-5.63-1.98-5.63"/>
      <path class="cls-9" d="m570.9,426.95c-2.23-.98,2.15-6.39,2.15-6.39,0,0-7.07,3.65-7.16-.25-.09-3.9,6.61-1.67,6.61-1.67,0,0-3.44-6.09-1.09-7.31,2.36-1.21,3.3,5.4,3.3,5.4,0,0,2.23-6.7,5.03-4.38,2.8,2.31-3.71,5.85-3.71,5.85,0,0,6.65-.81,6.44,1.7-.2,2.51-5.7.46-5.7.46,0,0,3.58,5.34,1.19,6.42-2.38,1.08-2.88-4.77-2.88-4.77,0,0-1.96,5.92-4.19,4.93"/>
      <path class="cls-9" d="m570.59,241.56c-2.24-.98,2.14-6.39,2.14-6.39,0,0-7.07,3.65-7.15-.25-.09-3.9,6.61-1.67,6.61-1.67,0,0-3.44-6.09-1.09-7.31,2.36-1.21,3.3,5.4,3.3,5.4,0,0,2.23-6.7,5.03-4.38,2.8,2.31-3.71,5.85-3.71,5.85,0,0,6.65-.81,6.44,1.7-.2,2.51-5.7.46-5.7.46,0,0,3.58,5.34,1.19,6.42-2.39,1.08-2.88-4.77-2.88-4.77,0,0-1.96,5.92-4.19,4.93"/>
      <path class="cls-9" d="m587.49,437.03s-5.08,3.06-5.34.17c-.25-2.89,4.84-1.57,4.84-1.57,0,0-3.83-4.03-2.14-5.05,1.69-1.02,3.69,3.52,3.69,3.52,0,0,1.33-5.09,3.53-3.51,2.2,1.59-2.48,4.53-2.48,4.53,0,0,4.91-.92,4.88.95-.02,1.87-4.22.62-4.22.62,0,0,2.92,3.8,1.2,4.72-1.72.92-2.37-3.4-2.37-3.4,0,0-1.16,4.5-2.88,3.87-1.71-.62,1.28-4.86,1.28-4.86"/>
      <path class="cls-9" d="m587.17,251.64s-5.08,3.06-5.33.17c-.26-2.89,4.83-1.57,4.83-1.57,0,0-3.83-4.03-2.14-5.05,1.7-1.02,3.69,3.52,3.69,3.52,0,0,1.33-5.09,3.52-3.51,2.2,1.59-2.47,4.53-2.47,4.53,0,0,4.9-.92,4.87.95-.02,1.87-4.21.62-4.21.62,0,0,2.92,3.8,1.2,4.72-1.72.92-2.38-3.4-2.38-3.4,0,0-1.16,4.5-2.88,3.87-1.71-.62,1.28-4.86,1.28-4.86"/>
      <path class="cls-9" d="m591.99,386.82s-.99,4.64-2.76,4.08c-1.77-.56,1.1-5.02,1.1-5.02,0,0-5.05,3.35-5.44.4-.39-2.94,4.87-1.81,4.87-1.81,0,0-3.11-4.33-1.43-5.44,1.68-1.12,2.95,3.81,2.95,3.81,0,0,1.13-5.25,3.44-3.73,2.31,1.52-2.32,4.73-2.32,4.73,0,0,4.96-1.16,5.02.75.06,1.91-4.28.82-4.28.82,0,0,3.15,3.75,1.44,4.76-1.72,1.01-2.58-3.37-2.58-3.37"/>
      <path class="cls-9" d="m591.67,201.42s-.99,4.64-2.76,4.08c-1.77-.56,1.09-5.02,1.09-5.02,0,0-5.04,3.34-5.43.4-.39-2.94,4.87-1.81,4.87-1.81,0,0-3.11-4.33-1.43-5.44,1.68-1.11,2.95,3.81,2.95,3.81,0,0,1.13-5.25,3.44-3.74,2.31,1.52-2.32,4.74-2.32,4.74,0,0,4.96-1.16,5.02.75.05,1.92-4.28.82-4.28.82,0,0,3.15,3.75,1.44,4.76-1.72,1.01-2.57-3.37-2.57-3.37"/>
      <path class="cls-9" d="m22.73,398.59s2.38,4.11,3.89,3.03c1.51-1.08-2.59-4.43-2.59-4.43,0,0,5.84,1.62,5.3-1.3-.54-2.92-5.19-.22-5.19-.22,0,0,1.62-5.08-.32-5.62-1.94-.54-1.62,4.54-1.62,4.54,0,0-2.7-4.65-4.43-2.49-1.73,2.16,3.67,3.78,3.67,3.78,0,0-5.08.43-4.54,2.27.54,1.84,4.32-.54,4.32-.54,0,0-1.84,4.54.11,4.97,1.94.43,1.4-4,1.4-4"/>
      <path class="cls-9" d="m22.24,325.03s2.38,4.11,3.89,3.03c1.51-1.08-2.59-4.43-2.59-4.43,0,0,5.84,1.62,5.3-1.3-.54-2.92-5.19-.22-5.19-.22,0,0,1.62-5.08-.32-5.62-1.94-.54-1.62,4.54-1.62,4.54,0,0-2.7-4.65-4.43-2.49-1.73,2.16,3.67,3.78,3.67,3.78,0,0-5.08.43-4.54,2.27.54,1.84,4.32-.54,4.32-.54,0,0-1.84,4.54.11,4.97,1.94.43,1.4-4,1.4-4"/>
      <path class="cls-9" d="m31.34,308.52s2.38,4.11,3.89,3.03c1.51-1.08-2.59-4.43-2.59-4.43,0,0,5.84,1.62,5.3-1.3-.54-2.92-5.19-.22-5.19-.22,0,0,1.62-5.08-.32-5.62-1.94-.54-1.62,4.54-1.62,4.54,0,0-2.7-4.65-4.43-2.49-1.73,2.16,3.67,3.78,3.67,3.78,0,0-5.08.43-4.54,2.27.54,1.84,4.32-.54,4.32-.54,0,0-1.84,4.54.11,4.97,1.94.43,1.4-4,1.4-4"/>
      <path class="cls-9" d="m23.04,213.19s2.38,4.11,3.89,3.03c1.51-1.08-2.59-4.43-2.59-4.43,0,0,5.84,1.62,5.29-1.3-.54-2.92-5.19-.22-5.19-.22,0,0,1.62-5.08-.32-5.62-1.94-.54-1.62,4.54-1.62,4.54,0,0-2.7-4.65-4.43-2.48-1.73,2.16,3.67,3.78,3.67,3.78,0,0-5.08.43-4.54,2.27.54,1.84,4.32-.54,4.32-.54,0,0-1.84,4.54.11,4.97,1.94.44,1.4-4,1.4-4"/>
      <path class="cls-9" d="m12.05,350.26s6.11,3.45,7.23.94c1.12-2.52-6.63-3.7-6.63-3.7,0,0,8.66-2.32,5.78-5.63-2.88-3.31-6.78,3.62-6.78,3.62,0,0-1.75-7.7-4.63-6.92-2.88.77,1.34,7.01,1.34,7.01,0,0-6.94-3.9-7.52.16-.58,4.05,7.52,2.06,7.52,2.06,0,0-6.15,4.36-4.08,6.3,2.07,1.94,5.11-3.93,5.11-3.93,0,0,1.06,7.17,3.87,6.26,2.8-.91-1.21-6.15-1.21-6.15"/>
      <path class="cls-9" d="m12.37,164.86s6.11,3.45,7.23.93c1.12-2.51-6.63-3.7-6.63-3.7,0,0,8.66-2.31,5.78-5.63-2.88-3.31-6.78,3.62-6.78,3.62,0,0-1.75-7.7-4.63-6.92-2.88.77,1.34,7,1.34,7,0,0-6.94-3.9-7.52.16-.58,4.06,7.52,2.07,7.52,2.07,0,0-6.15,4.36-4.08,6.3,2.07,1.94,5.11-3.93,5.11-3.93,0,0,1.06,7.17,3.87,6.26,2.8-.91-1.21-6.15-1.21-6.15"/>
      <path class="cls-9" d="m23.38,459.45s3.61,6.23,5.91,4.59c2.3-1.64-3.94-6.73-3.94-6.73,0,0,8.86,2.46,8.04-1.97-.82-4.43-7.88-.33-7.88-.33,0,0,2.46-7.71-.49-8.53-2.95-.82-2.46,6.89-2.46,6.89,0,0-4.1-7.06-6.73-3.77-2.62,3.28,5.58,5.74,5.58,5.74,0,0-7.71.66-6.89,3.44.82,2.79,6.56-.82,6.56-.82,0,0-2.79,6.89.17,7.55,2.95.66,2.13-6.07,2.13-6.07"/>
      <path class="cls-9" d="m23.7,274.05s3.61,6.23,5.91,4.59c2.3-1.64-3.94-6.73-3.94-6.73,0,0,8.86,2.46,8.04-1.97-.82-4.43-7.88-.33-7.88-.33,0,0,2.46-7.71-.49-8.53-2.95-.82-2.46,6.89-2.46,6.89,0,0-4.1-7.06-6.73-3.77-2.62,3.28,5.58,5.74,5.58,5.74,0,0-7.71.66-6.89,3.44.82,2.79,6.56-.82,6.56-.82,0,0-2.79,6.89.17,7.55,2.95.66,2.13-6.07,2.13-6.07"/>
      <path class="cls-9" d="m9.42,488.79s3.61,6.23,5.91,4.59c2.3-1.64-3.94-6.73-3.94-6.73,0,0,8.86,2.46,8.04-1.97-.82-4.43-7.88-.33-7.88-.33,0,0,2.46-7.71-.49-8.53-2.95-.82-2.46,6.89-2.46,6.89,0,0-4.1-7.06-6.73-3.78-2.62,3.28,5.58,5.74,5.58,5.74,0,0-7.71.66-6.89,3.44.82,2.79,6.56-.82,6.56-.82,0,0-2.79,6.89.17,7.55,2.95.66,2.13-6.07,2.13-6.07"/>
      <path class="cls-9" d="m9.74,303.39s3.61,6.23,5.91,4.59c2.3-1.64-3.94-6.73-3.94-6.73,0,0,8.86,2.46,8.04-1.97-.82-4.43-7.88-.33-7.88-.33,0,0,2.46-7.71-.49-8.53-2.95-.82-2.46,6.89-2.46,6.89,0,0-4.1-7.06-6.73-3.77-2.62,3.28,5.58,5.74,5.58,5.74,0,0-7.71.66-6.89,3.44.82,2.79,6.56-.82,6.56-.82,0,0-2.79,6.89.17,7.55,2.95.66,2.13-6.07,2.13-6.07"/>
      <path class="cls-9" d="m26.73,380.28s3.35,5.78,5.48,4.26c2.13-1.52-3.65-6.24-3.65-6.24,0,0,8.22,2.28,7.46-1.83-.76-4.11-7.31-.3-7.31-.3,0,0,2.28-7.15-.46-7.91-2.74-.76-2.28,6.39-2.28,6.39,0,0-3.8-6.54-6.24-3.5-2.43,3.04,5.18,5.33,5.18,5.33,0,0-7.15.61-6.39,3.2.76,2.59,6.09-.76,6.09-.76,0,0-2.59,6.39.15,7,2.74.61,1.98-5.63,1.98-5.63"/>
      <path class="cls-9" d="m27.05,194.88s3.35,5.78,5.48,4.26c2.13-1.52-3.65-6.24-3.65-6.24,0,0,8.22,2.29,7.46-1.82-.76-4.11-7.3-.3-7.3-.3,0,0,2.28-7.16-.46-7.92-2.74-.76-2.28,6.39-2.28,6.39,0,0-3.8-6.54-6.24-3.5-2.43,3.04,5.18,5.33,5.18,5.33,0,0-7.15.61-6.39,3.2.76,2.59,6.09-.76,6.09-.76,0,0-2.59,6.39.15,7,2.74.61,1.98-5.63,1.98-5.63"/>
      <path class="cls-9" d="m28.43,426.95c2.23-.98-2.15-6.39-2.15-6.39,0,0,7.07,3.65,7.15-.25.09-3.9-6.61-1.67-6.61-1.67,0,0,3.44-6.09,1.09-7.31-2.36-1.21-3.3,5.4-3.3,5.4,0,0-2.23-6.7-5.03-4.38-2.8,2.31,3.71,5.85,3.71,5.85,0,0-6.65-.81-6.44,1.7.2,2.51,5.7.46,5.7.46,0,0-3.58,5.34-1.19,6.42,2.39,1.08,2.88-4.77,2.88-4.77,0,0,1.96,5.92,4.19,4.93"/>
      <path class="cls-9" d="m28.75,241.56c2.23-.98-2.15-6.39-2.15-6.39,0,0,7.07,3.65,7.15-.25.09-3.9-6.61-1.67-6.61-1.67,0,0,3.44-6.09,1.09-7.31-2.36-1.21-3.3,5.4-3.3,5.4,0,0-2.23-6.7-5.03-4.38-2.8,2.31,3.71,5.85,3.71,5.85,0,0-6.65-.81-6.45,1.7.2,2.51,5.7.46,5.7.46,0,0-3.58,5.34-1.19,6.42,2.39,1.08,2.88-4.77,2.88-4.77,0,0,1.96,5.92,4.19,4.93"/>
      <path class="cls-9" d="m11.84,437.03s5.08,3.06,5.33.17c.26-2.89-4.83-1.57-4.83-1.57,0,0,3.83-4.03,2.14-5.05-1.69-1.02-3.69,3.52-3.69,3.52,0,0-1.33-5.09-3.53-3.51-2.2,1.59,2.47,4.53,2.47,4.53,0,0-4.9-.92-4.88.95.03,1.87,4.22.62,4.22.62,0,0-2.92,3.8-1.2,4.72,1.72.92,2.37-3.4,2.37-3.4,0,0,1.16,4.5,2.88,3.87,1.71-.62-1.29-4.86-1.29-4.86"/>
      <path class="cls-9" d="m12.16,251.64s5.08,3.06,5.33.17c.26-2.89-4.83-1.57-4.83-1.57,0,0,3.83-4.03,2.14-5.05-1.69-1.02-3.69,3.52-3.69,3.52,0,0-1.33-5.09-3.53-3.51-2.2,1.59,2.47,4.53,2.47,4.53,0,0-4.91-.92-4.88.95.03,1.87,4.22.62,4.22.62,0,0-2.92,3.8-1.2,4.72,1.72.92,2.37-3.4,2.37-3.4,0,0,1.16,4.5,2.88,3.87,1.71-.62-1.28-4.86-1.28-4.86"/>
      <path class="cls-9" d="m7.35,386.82s.99,4.64,2.76,4.08c1.77-.56-1.1-5.02-1.1-5.02,0,0,5.05,3.35,5.44.4.39-2.94-4.87-1.81-4.87-1.81,0,0,3.11-4.33,1.43-5.44-1.68-1.12-2.95,3.81-2.95,3.81,0,0-1.13-5.25-3.44-3.73-2.31,1.52,2.32,4.73,2.32,4.73,0,0-4.96-1.16-5.02.75-.06,1.91,4.28.82,4.28.82,0,0-3.15,3.75-1.44,4.76,1.72,1.01,2.57-3.37,2.57-3.37"/>
      <path class="cls-9" d="m7.67,201.42s.99,4.64,2.76,4.08c1.77-.56-1.1-5.02-1.1-5.02,0,0,5.05,3.34,5.44.4.39-2.94-4.87-1.81-4.87-1.81,0,0,3.11-4.33,1.43-5.44-1.68-1.11-2.95,3.81-2.95,3.81,0,0-1.13-5.25-3.44-3.74-2.31,1.52,2.32,4.74,2.32,4.74,0,0-4.96-1.16-5.02.75s4.28.82,4.28.82c0,0-3.15,3.75-1.44,4.76,1.72,1.01,2.57-3.37,2.57-3.37"/>
    </g>
  </g>
</svg>